%TF.GenerationSoftware,KiCad,Pcbnew,(5.0.1)-4*%
%TF.CreationDate,2019-05-08T05:57:41+02:00*%
%TF.ProjectId,ESPesh,4553506573682E6B696361645F706362,rev?*%
%TF.SameCoordinates,Original*%
%TF.FileFunction,Copper,L2,Bot,Signal*%
%TF.FilePolarity,Positive*%
%FSLAX46Y46*%
G04 Gerber Fmt 4.6, Leading zero omitted, Abs format (unit mm)*
G04 Created by KiCad (PCBNEW (5.0.1)-4) date 08/05/2019 5:57:41*
%MOMM*%
%LPD*%
G01*
G04 APERTURE LIST*
%ADD10C,1.270000*%
%ADD11C,0.100000*%
%ADD12C,1.524000*%
%ADD13O,1.000000X1.600000*%
%ADD14O,1.000000X2.100000*%
%ADD15C,0.600000*%
%ADD16C,0.500000*%
%ADD17C,0.250000*%
%ADD18C,0.150000*%
%ADD19C,0.254000*%
G04 APERTURE END LIST*
D10*
X162433000Y-104394000D03*
D11*
G36*
X162511268Y-105288608D02*
X162024830Y-104880438D01*
X162025322Y-104879852D01*
X162001453Y-104859824D01*
X161957872Y-104815282D01*
X161918868Y-104766683D01*
X161884814Y-104714494D01*
X161856040Y-104659220D01*
X161832822Y-104601391D01*
X161815384Y-104541564D01*
X161803894Y-104480317D01*
X161798463Y-104418238D01*
X161799142Y-104355925D01*
X161805927Y-104293980D01*
X161818750Y-104232997D01*
X161837489Y-104173566D01*
X161861963Y-104116257D01*
X161891936Y-104061623D01*
X161927120Y-104010190D01*
X161967176Y-103962453D01*
X162011718Y-103918872D01*
X162060317Y-103879868D01*
X162112506Y-103845814D01*
X162167780Y-103817040D01*
X162225609Y-103793822D01*
X162285436Y-103776384D01*
X162346683Y-103764894D01*
X162408762Y-103759463D01*
X162471075Y-103760142D01*
X162533020Y-103766927D01*
X162594003Y-103779750D01*
X162653434Y-103798489D01*
X162710743Y-103822963D01*
X162765377Y-103852936D01*
X162816810Y-103888120D01*
X162840678Y-103908148D01*
X162841170Y-103907562D01*
X163327608Y-104315732D01*
X162511268Y-105288608D01*
X162511268Y-105288608D01*
G37*
D10*
X144399000Y-88328500D03*
D11*
G36*
X144383327Y-87430611D02*
X144840108Y-87871719D01*
X144839577Y-87872270D01*
X144861990Y-87893914D01*
X144902357Y-87941387D01*
X144937877Y-87992588D01*
X144968207Y-88047026D01*
X144993055Y-88104173D01*
X145012183Y-88163481D01*
X145025405Y-88224378D01*
X145032595Y-88286278D01*
X145033682Y-88348584D01*
X145028658Y-88410698D01*
X145017569Y-88472019D01*
X145000522Y-88531958D01*
X144977684Y-88589938D01*
X144949272Y-88645400D01*
X144915561Y-88697810D01*
X144876875Y-88746663D01*
X144833586Y-88791490D01*
X144786113Y-88831857D01*
X144734912Y-88867377D01*
X144680474Y-88897707D01*
X144623327Y-88922555D01*
X144564019Y-88941683D01*
X144503122Y-88954905D01*
X144441222Y-88962095D01*
X144378916Y-88963182D01*
X144316802Y-88958158D01*
X144255481Y-88947069D01*
X144195542Y-88930022D01*
X144137562Y-88907184D01*
X144082100Y-88878772D01*
X144029690Y-88845061D01*
X143980837Y-88806375D01*
X143958423Y-88784730D01*
X143957892Y-88785281D01*
X143501111Y-88344173D01*
X144383327Y-87430611D01*
X144383327Y-87430611D01*
G37*
D10*
X161163000Y-105664000D03*
D11*
G36*
X161116001Y-106560795D02*
X160691103Y-106088898D01*
X160691672Y-106088386D01*
X160670823Y-106065231D01*
X160633865Y-106015057D01*
X160602004Y-105961503D01*
X160575545Y-105905083D01*
X160554743Y-105846341D01*
X160539799Y-105785844D01*
X160530857Y-105724173D01*
X160528003Y-105661922D01*
X160531265Y-105599691D01*
X160540610Y-105538080D01*
X160555949Y-105477681D01*
X160577135Y-105419077D01*
X160603963Y-105362832D01*
X160636174Y-105309487D01*
X160673459Y-105259556D01*
X160715459Y-105213520D01*
X160761769Y-105171823D01*
X160811943Y-105134865D01*
X160865497Y-105103004D01*
X160921917Y-105076545D01*
X160980659Y-105055743D01*
X161041156Y-105040799D01*
X161102827Y-105031857D01*
X161165078Y-105029003D01*
X161227309Y-105032265D01*
X161288920Y-105041610D01*
X161349319Y-105056949D01*
X161407923Y-105078135D01*
X161464168Y-105104963D01*
X161517513Y-105137174D01*
X161567444Y-105174459D01*
X161613480Y-105216459D01*
X161634328Y-105239614D01*
X161634897Y-105239102D01*
X162059795Y-105710999D01*
X161116001Y-106560795D01*
X161116001Y-106560795D01*
G37*
D10*
X141605000Y-92964000D03*
D11*
G36*
X141197305Y-92163853D02*
X141801226Y-92360079D01*
X141800989Y-92360807D01*
X141830622Y-92370435D01*
X141887716Y-92395408D01*
X141942086Y-92425857D01*
X141993210Y-92461489D01*
X142040595Y-92501959D01*
X142083786Y-92546880D01*
X142122365Y-92595818D01*
X142155962Y-92648301D01*
X142184253Y-92703825D01*
X142206966Y-92761855D01*
X142223881Y-92821831D01*
X142234835Y-92883177D01*
X142239724Y-92945300D01*
X142238501Y-93007605D01*
X142231177Y-93069488D01*
X142217822Y-93130356D01*
X142198565Y-93189622D01*
X142173592Y-93246716D01*
X142143143Y-93301086D01*
X142107511Y-93352210D01*
X142067041Y-93399595D01*
X142022120Y-93442786D01*
X141973182Y-93481365D01*
X141920699Y-93514962D01*
X141865175Y-93543253D01*
X141807145Y-93565966D01*
X141747169Y-93582881D01*
X141685823Y-93593835D01*
X141623700Y-93598724D01*
X141561395Y-93597501D01*
X141499512Y-93590177D01*
X141438644Y-93576822D01*
X141409011Y-93567193D01*
X141408774Y-93567921D01*
X140804853Y-93371695D01*
X141197305Y-92163853D01*
X141197305Y-92163853D01*
G37*
D10*
X156692600Y-108242100D03*
D11*
G36*
X156271003Y-109035010D02*
X156085346Y-108427756D01*
X156086078Y-108427532D01*
X156076968Y-108397736D01*
X156064678Y-108336644D01*
X156058434Y-108274642D01*
X156058299Y-108212326D01*
X156064271Y-108150297D01*
X156076295Y-108089152D01*
X156094254Y-108029480D01*
X156117976Y-107971855D01*
X156147231Y-107916834D01*
X156181739Y-107864944D01*
X156221167Y-107816687D01*
X156265135Y-107772528D01*
X156313219Y-107732890D01*
X156364958Y-107698156D01*
X156419851Y-107668661D01*
X156477371Y-107644688D01*
X156536964Y-107626468D01*
X156598056Y-107614178D01*
X156660058Y-107607934D01*
X156722374Y-107607799D01*
X156784403Y-107613771D01*
X156845548Y-107625795D01*
X156905220Y-107643754D01*
X156962845Y-107667476D01*
X157017866Y-107696731D01*
X157069756Y-107731239D01*
X157118013Y-107770667D01*
X157162172Y-107814635D01*
X157201810Y-107862719D01*
X157236544Y-107914458D01*
X157266039Y-107969351D01*
X157290012Y-108026871D01*
X157299122Y-108056668D01*
X157299854Y-108056444D01*
X157485510Y-108663697D01*
X156271003Y-109035010D01*
X156271003Y-109035010D01*
G37*
D10*
X149860000Y-108343700D03*
D11*
G36*
X149082287Y-108792713D02*
X149246637Y-108179350D01*
X149247376Y-108179548D01*
X149255440Y-108149452D01*
X149277391Y-108091130D01*
X149304952Y-108035241D01*
X149337860Y-107982322D01*
X149375795Y-107932883D01*
X149418394Y-107887401D01*
X149465245Y-107846313D01*
X149515899Y-107810015D01*
X149569866Y-107778857D01*
X149626627Y-107753139D01*
X149685637Y-107733108D01*
X149746325Y-107718958D01*
X149808107Y-107710824D01*
X149870390Y-107708785D01*
X149932572Y-107712861D01*
X149994056Y-107723012D01*
X150054248Y-107739140D01*
X150112570Y-107761091D01*
X150168459Y-107788652D01*
X150221378Y-107821560D01*
X150270817Y-107859495D01*
X150316299Y-107902094D01*
X150357387Y-107948945D01*
X150393685Y-107999599D01*
X150424843Y-108053566D01*
X150450561Y-108110327D01*
X150470592Y-108169337D01*
X150484742Y-108230025D01*
X150492876Y-108291807D01*
X150494915Y-108354090D01*
X150490839Y-108416272D01*
X150480688Y-108477756D01*
X150472624Y-108507852D01*
X150473363Y-108508050D01*
X150309013Y-109121413D01*
X149082287Y-108792713D01*
X149082287Y-108792713D01*
G37*
D10*
X153289000Y-108788200D03*
D11*
G36*
X152665179Y-109434186D02*
X152654097Y-108799282D01*
X152654862Y-108799269D01*
X152654318Y-108768116D01*
X152659343Y-108706003D01*
X152670431Y-108644682D01*
X152687478Y-108584742D01*
X152710316Y-108526763D01*
X152738728Y-108471300D01*
X152772439Y-108418890D01*
X152811125Y-108370036D01*
X152854414Y-108325210D01*
X152901887Y-108284842D01*
X152953089Y-108249322D01*
X153007526Y-108218993D01*
X153064673Y-108194145D01*
X153123981Y-108175017D01*
X153184878Y-108161795D01*
X153246778Y-108154605D01*
X153309084Y-108153518D01*
X153371197Y-108158543D01*
X153432518Y-108169631D01*
X153492458Y-108186678D01*
X153550437Y-108209516D01*
X153605900Y-108237928D01*
X153658310Y-108271639D01*
X153707164Y-108310325D01*
X153751990Y-108353614D01*
X153792358Y-108401087D01*
X153827878Y-108452289D01*
X153858207Y-108506726D01*
X153883055Y-108563873D01*
X153902183Y-108623181D01*
X153915405Y-108684078D01*
X153922595Y-108745978D01*
X153923138Y-108777131D01*
X153923903Y-108777118D01*
X153934986Y-109412021D01*
X152665179Y-109434186D01*
X152665179Y-109434186D01*
G37*
D10*
X155003500Y-108635800D03*
D11*
G36*
X154475654Y-109362318D02*
X154376318Y-108735136D01*
X154377073Y-108735016D01*
X154372199Y-108704242D01*
X154368531Y-108642034D01*
X154370977Y-108579767D01*
X154379516Y-108518038D01*
X154394063Y-108457444D01*
X154414479Y-108398567D01*
X154440568Y-108341975D01*
X154472079Y-108288213D01*
X154508707Y-108237799D01*
X154550101Y-108191217D01*
X154595861Y-108148916D01*
X154645547Y-108111306D01*
X154698680Y-108078746D01*
X154754749Y-108051550D01*
X154813212Y-108029982D01*
X154873509Y-108014248D01*
X154935058Y-108004499D01*
X154997266Y-108000831D01*
X155059533Y-108003277D01*
X155121262Y-108011816D01*
X155181856Y-108026363D01*
X155240733Y-108046779D01*
X155297325Y-108072868D01*
X155351087Y-108104379D01*
X155401501Y-108141007D01*
X155448083Y-108182401D01*
X155490384Y-108228161D01*
X155527994Y-108277847D01*
X155560554Y-108330980D01*
X155587750Y-108387049D01*
X155609318Y-108445512D01*
X155625052Y-108505809D01*
X155629927Y-108536584D01*
X155630682Y-108536464D01*
X155730018Y-109163646D01*
X154475654Y-109362318D01*
X154475654Y-109362318D01*
G37*
D10*
X151561800Y-108686600D03*
D11*
G36*
X150844605Y-109227045D02*
X150932980Y-108598225D01*
X150933737Y-108598332D01*
X150938074Y-108567477D01*
X150952753Y-108506914D01*
X150973298Y-108448083D01*
X150999511Y-108391548D01*
X151031139Y-108337855D01*
X151067876Y-108287520D01*
X151109372Y-108241029D01*
X151155224Y-108198829D01*
X151204992Y-108161326D01*
X151258196Y-108128882D01*
X151314324Y-108101809D01*
X151372835Y-108080368D01*
X151433166Y-108064766D01*
X151494736Y-108055151D01*
X151556951Y-108051619D01*
X151619214Y-108054201D01*
X151680923Y-108062874D01*
X151741486Y-108077553D01*
X151800317Y-108098098D01*
X151856852Y-108124311D01*
X151910545Y-108155939D01*
X151960880Y-108192676D01*
X152007371Y-108234172D01*
X152049571Y-108280024D01*
X152087074Y-108329792D01*
X152119518Y-108382996D01*
X152146591Y-108439124D01*
X152168032Y-108497635D01*
X152183634Y-108557966D01*
X152193249Y-108619536D01*
X152196781Y-108681751D01*
X152194199Y-108744014D01*
X152189863Y-108774868D01*
X152190620Y-108774975D01*
X152102245Y-109403795D01*
X150844605Y-109227045D01*
X150844605Y-109227045D01*
G37*
D10*
X159194500Y-86296500D03*
D11*
G36*
X160061926Y-86064074D02*
X159744426Y-86614000D01*
X159743764Y-86613618D01*
X159728185Y-86640601D01*
X159691887Y-86691255D01*
X159650800Y-86738106D01*
X159605317Y-86780704D01*
X159555879Y-86818640D01*
X159502960Y-86851547D01*
X159447070Y-86879109D01*
X159388748Y-86901060D01*
X159328556Y-86917188D01*
X159267072Y-86927339D01*
X159204889Y-86931415D01*
X159142607Y-86929376D01*
X159080824Y-86921242D01*
X159020136Y-86907092D01*
X158961128Y-86887061D01*
X158904366Y-86861343D01*
X158850399Y-86830185D01*
X158799745Y-86793887D01*
X158752894Y-86752800D01*
X158710296Y-86707317D01*
X158672360Y-86657879D01*
X158639453Y-86604960D01*
X158611891Y-86549070D01*
X158589940Y-86490748D01*
X158573812Y-86430556D01*
X158563661Y-86369072D01*
X158559585Y-86306889D01*
X158561624Y-86244607D01*
X158569758Y-86182824D01*
X158583908Y-86122136D01*
X158603939Y-86063128D01*
X158629657Y-86006366D01*
X158645236Y-85979382D01*
X158644574Y-85979000D01*
X158962074Y-85429074D01*
X160061926Y-86064074D01*
X160061926Y-86064074D01*
G37*
D12*
X164590500Y-96710500D03*
X141590500Y-96710500D03*
D13*
X148778500Y-86610500D03*
X157418500Y-86610500D03*
D14*
X148778500Y-90790500D03*
X157418500Y-90790500D03*
D15*
X153162000Y-99123500D03*
X153098500Y-94424500D03*
X146431000Y-94869000D03*
X146431000Y-94107000D03*
X150749000Y-99123500D03*
X155448000Y-99123500D03*
X153098500Y-96774000D03*
X155448000Y-94424500D03*
X150749000Y-94424500D03*
X155448000Y-104711500D03*
X157607000Y-104521000D03*
X158369000Y-104521000D03*
X159131000Y-104521000D03*
X146304000Y-101663500D03*
X147256500Y-101663500D03*
X145986500Y-102298500D03*
X144208500Y-90233500D03*
X153035000Y-103632000D03*
X153098500Y-84963000D03*
X153924000Y-84963000D03*
X152273000Y-84963000D03*
X162306006Y-89217500D03*
X163004484Y-89852500D03*
X162750500Y-97980500D03*
X164147500Y-100711000D03*
X164401500Y-100139500D03*
X148018500Y-97282000D03*
X143129000Y-97536000D03*
X144272000Y-91249500D03*
X144970500Y-92646500D03*
X143319500Y-103759000D03*
X157287000Y-95504000D03*
X154559000Y-101790500D03*
X157287000Y-97409000D03*
X162115500Y-93154500D03*
X156134000Y-101549000D03*
X149123587Y-93180087D03*
X150749000Y-101092000D03*
D16*
X152844500Y-92836960D03*
D15*
X153670010Y-100774500D03*
X153860500Y-106553000D03*
X151193500Y-104203500D03*
X151892000Y-104775000D03*
X152844500Y-106553000D03*
X152875551Y-101484514D03*
X151066500Y-106553000D03*
X153657881Y-101587914D03*
X156400500Y-106489456D03*
X150823500Y-89662000D03*
X154876500Y-89662000D03*
X157162500Y-93599000D03*
X157988000Y-93020498D03*
X149098000Y-94615000D03*
X161671000Y-91313000D03*
X160464500Y-96393000D03*
X149225000Y-101155500D03*
X149288500Y-107518602D03*
X145986500Y-92456000D03*
D16*
X153669984Y-92837000D03*
D15*
X146367500Y-96647000D03*
D16*
X152111522Y-92837000D03*
D17*
X160020000Y-104521000D02*
X161163000Y-105664000D01*
X159131000Y-104521000D02*
X160020000Y-104521000D01*
X161163000Y-105219500D02*
X161163000Y-105664000D01*
X160020000Y-104076500D02*
X161163000Y-105219500D01*
X158369000Y-104521000D02*
X158813500Y-104076500D01*
X158813500Y-104076500D02*
X160020000Y-104076500D01*
X141605000Y-92964000D02*
X141605000Y-94678500D01*
X141605000Y-94678500D02*
X141478000Y-94805500D01*
D18*
X154559000Y-97409000D02*
X154559000Y-101790500D01*
X157287000Y-95504000D02*
X156464000Y-95504000D01*
X156464000Y-95504000D02*
X154559000Y-97409000D01*
X153573541Y-93566001D02*
X153094499Y-93086959D01*
X154335501Y-93319001D02*
X154088501Y-93566001D01*
X154335501Y-92862999D02*
X154335501Y-93319001D01*
X154088501Y-93566001D02*
X153573541Y-93566001D01*
X153094499Y-93086959D02*
X152844500Y-92836960D01*
X153724992Y-92055500D02*
X154335501Y-92666009D01*
X150749000Y-101092000D02*
X151066500Y-100774500D01*
X153245746Y-100774500D02*
X153670010Y-100774500D01*
X151066500Y-100774500D02*
X153245746Y-100774500D01*
D17*
X157287000Y-97409000D02*
X157861000Y-97409000D01*
X149423586Y-92880088D02*
X149123587Y-93180087D01*
X150298173Y-92005501D02*
X149423586Y-92880088D01*
X153674993Y-92005501D02*
X150298173Y-92005501D01*
X153724992Y-92055500D02*
X153674993Y-92005501D01*
X154335501Y-92666009D02*
X154335501Y-92862999D01*
X153674993Y-92005501D02*
X154335501Y-92666009D01*
X157862001Y-97407999D02*
X157861000Y-97409000D01*
X155497001Y-92862999D02*
X157862001Y-95227999D01*
X154335501Y-92862999D02*
X155497001Y-92862999D01*
X160042001Y-95227999D02*
X160401000Y-94869000D01*
X157862001Y-95227999D02*
X160042001Y-95227999D01*
X157861000Y-97409000D02*
X160401000Y-94869000D01*
X160401000Y-94869000D02*
X162115500Y-93154500D01*
X156134000Y-98562000D02*
X157287000Y-97409000D01*
X156134000Y-101549000D02*
X156134000Y-98562000D01*
X160159500Y-101549000D02*
X162052000Y-103441500D01*
X156134000Y-101549000D02*
X160159500Y-101549000D01*
X162052000Y-104013000D02*
X162433000Y-104394000D01*
X162052000Y-103441500D02*
X162052000Y-104013000D01*
D18*
X152209500Y-104203500D02*
X151193500Y-104203500D01*
X153860500Y-106553000D02*
X153860500Y-105854500D01*
X153860500Y-105854500D02*
X152209500Y-104203500D01*
X151892000Y-104775000D02*
X152844500Y-105727500D01*
X152844500Y-105727500D02*
X152844500Y-106553000D01*
X152575552Y-101784513D02*
X152875551Y-101484514D01*
X150668499Y-103691566D02*
X152575552Y-101784513D01*
X150668499Y-105730735D02*
X150668499Y-103691566D01*
X151066500Y-106128736D02*
X150668499Y-105730735D01*
X151066500Y-106553000D02*
X151066500Y-106128736D01*
X153657881Y-103746837D02*
X156100501Y-106189457D01*
X156100501Y-106189457D02*
X156400500Y-106489456D01*
X153657881Y-101587914D02*
X153657881Y-103746837D01*
D17*
X155176499Y-89362001D02*
X154876500Y-89662000D01*
X157636030Y-89362001D02*
X155176499Y-89362001D01*
X158563001Y-90288972D02*
X157636030Y-89362001D01*
X158563001Y-93296499D02*
X158563001Y-90288972D01*
X158260500Y-93599000D02*
X158563001Y-93296499D01*
X157162500Y-93599000D02*
X158260500Y-93599000D01*
X154559000Y-89344500D02*
X154876500Y-89662000D01*
X150823500Y-89662000D02*
X151141000Y-89344500D01*
X151141000Y-89344500D02*
X154559000Y-89344500D01*
X148336000Y-93853000D02*
X149098000Y-94615000D01*
X148336000Y-93154500D02*
X148336000Y-93853000D01*
X150050500Y-91440000D02*
X148336000Y-93154500D01*
X157988000Y-93020498D02*
X156407502Y-91440000D01*
X156407502Y-91440000D02*
X150050500Y-91440000D01*
X162690501Y-94166999D02*
X160464500Y-96393000D01*
X161671000Y-91313000D02*
X162690501Y-92332501D01*
X162690501Y-92332501D02*
X162690501Y-94166999D01*
D18*
X149225000Y-101155500D02*
X149225000Y-107455102D01*
X149225000Y-107455102D02*
X149288500Y-107518602D01*
X153188495Y-92355511D02*
X153419985Y-92587001D01*
X149669500Y-93599000D02*
X150912989Y-92355511D01*
X149669500Y-94820502D02*
X149669500Y-93599000D01*
X150912989Y-92355511D02*
X153188495Y-92355511D01*
X149350001Y-95140001D02*
X149669500Y-94820502D01*
X148670501Y-95140001D02*
X149350001Y-95140001D01*
X153419985Y-92587001D02*
X153669984Y-92837000D01*
X145986500Y-92456000D02*
X148670501Y-95140001D01*
X152111522Y-93190553D02*
X152111522Y-92837000D01*
X152111522Y-93838980D02*
X152111522Y-93190553D01*
X149303502Y-96647000D02*
X152111522Y-93838980D01*
X146367500Y-96647000D02*
X149303502Y-96647000D01*
D19*
G36*
X154545278Y-84577454D02*
X155888719Y-84814339D01*
X157197383Y-85199500D01*
X157291498Y-85239062D01*
X157291498Y-85342545D01*
X157116626Y-85216381D01*
X156705737Y-85418132D01*
X156418498Y-85758822D01*
X156283500Y-86183500D01*
X156283500Y-86483500D01*
X157291500Y-86483500D01*
X157291500Y-86463500D01*
X157545500Y-86463500D01*
X157545500Y-86483500D01*
X157565500Y-86483500D01*
X157565500Y-86737500D01*
X157545500Y-86737500D01*
X157545500Y-87878454D01*
X157720374Y-88004619D01*
X158131263Y-87802868D01*
X158418502Y-87462178D01*
X158540059Y-87079782D01*
X158568497Y-87104721D01*
X158630394Y-87149076D01*
X158738198Y-87211317D01*
X158807562Y-87242746D01*
X158925438Y-87282760D01*
X158999602Y-87300053D01*
X159123018Y-87316301D01*
X159199128Y-87318792D01*
X159323344Y-87310651D01*
X159398480Y-87298247D01*
X159518720Y-87266029D01*
X159589995Y-87239202D01*
X159701639Y-87184144D01*
X159766304Y-87143933D01*
X159865062Y-87068154D01*
X159920645Y-87016094D01*
X160002721Y-86922503D01*
X160047075Y-86860608D01*
X160070511Y-86820017D01*
X160080846Y-86808232D01*
X160122958Y-86735292D01*
X160754972Y-87187769D01*
X161768745Y-88100575D01*
X162674450Y-89120695D01*
X163460800Y-90235417D01*
X164117992Y-91430844D01*
X164637835Y-92692078D01*
X165013850Y-94003399D01*
X165241350Y-95348461D01*
X165264827Y-95768380D01*
X165237958Y-95741511D01*
X164817857Y-95567500D01*
X164363143Y-95567500D01*
X163943042Y-95741511D01*
X163621511Y-96063042D01*
X163447500Y-96483143D01*
X163447500Y-96937857D01*
X163621511Y-97357958D01*
X163943042Y-97679489D01*
X164363143Y-97853500D01*
X164817857Y-97853500D01*
X165237958Y-97679489D01*
X165262039Y-97655408D01*
X165198586Y-98411056D01*
X164933618Y-99749242D01*
X164521135Y-101049552D01*
X163966279Y-102295780D01*
X163275965Y-103472391D01*
X163141348Y-103652337D01*
X163090870Y-103609981D01*
X163077120Y-103602436D01*
X163041223Y-103572315D01*
X162978374Y-103529321D01*
X162869238Y-103469446D01*
X162799201Y-103439537D01*
X162680480Y-103402105D01*
X162605962Y-103386435D01*
X162555868Y-103380948D01*
X162536167Y-103281905D01*
X162528641Y-103244069D01*
X162416806Y-103076694D01*
X162374556Y-103048464D01*
X160552539Y-101226447D01*
X160524306Y-101184194D01*
X160356931Y-101072359D01*
X160209335Y-101043000D01*
X160209334Y-101043000D01*
X160159500Y-101033087D01*
X160109666Y-101043000D01*
X156640000Y-101043000D01*
X156640000Y-98771591D01*
X157321592Y-98090000D01*
X157422459Y-98090000D01*
X157672756Y-97986324D01*
X157744080Y-97915000D01*
X157811166Y-97915000D01*
X157861000Y-97924913D01*
X157910834Y-97915000D01*
X157910835Y-97915000D01*
X158058431Y-97885641D01*
X158225806Y-97773806D01*
X158254039Y-97731552D01*
X159822708Y-96162883D01*
X159783500Y-96257541D01*
X159783500Y-96528459D01*
X159887176Y-96778756D01*
X160078744Y-96970324D01*
X160329041Y-97074000D01*
X160599959Y-97074000D01*
X160850256Y-96970324D01*
X161041824Y-96778756D01*
X161145500Y-96528459D01*
X161145500Y-96427591D01*
X163013056Y-94560036D01*
X163055307Y-94531805D01*
X163148480Y-94392360D01*
X163167142Y-94364431D01*
X163206414Y-94166999D01*
X163196501Y-94117164D01*
X163196501Y-92382334D01*
X163206414Y-92332500D01*
X163190586Y-92252931D01*
X163167142Y-92135070D01*
X163055307Y-91967695D01*
X163013057Y-91939465D01*
X162352000Y-91278409D01*
X162352000Y-91177541D01*
X162248324Y-90927244D01*
X162056756Y-90735676D01*
X161806459Y-90632000D01*
X161535541Y-90632000D01*
X161285244Y-90735676D01*
X161093676Y-90927244D01*
X160990000Y-91177541D01*
X160990000Y-91448459D01*
X161093676Y-91698756D01*
X161285244Y-91890324D01*
X161535541Y-91994000D01*
X161636409Y-91994000D01*
X162115908Y-92473500D01*
X161980041Y-92473500D01*
X161729744Y-92577176D01*
X161538176Y-92768744D01*
X161434500Y-93019041D01*
X161434500Y-93119908D01*
X160078445Y-94475964D01*
X160078442Y-94475966D01*
X159832409Y-94721999D01*
X158071593Y-94721999D01*
X157532460Y-94182867D01*
X157548256Y-94176324D01*
X157619580Y-94105000D01*
X158210666Y-94105000D01*
X158260500Y-94114913D01*
X158310334Y-94105000D01*
X158310335Y-94105000D01*
X158457931Y-94075641D01*
X158625306Y-93963806D01*
X158653539Y-93921552D01*
X158885554Y-93689537D01*
X158927807Y-93661305D01*
X159039642Y-93493930D01*
X159069001Y-93346334D01*
X159069001Y-93346333D01*
X159078914Y-93296500D01*
X159069001Y-93246666D01*
X159069001Y-90338806D01*
X159078914Y-90288972D01*
X159068261Y-90235417D01*
X159039642Y-90091541D01*
X158927807Y-89924166D01*
X158885556Y-89895935D01*
X158029068Y-89039448D01*
X158000836Y-88997195D01*
X157833461Y-88885360D01*
X157685865Y-88856001D01*
X157685864Y-88856001D01*
X157636030Y-88846088D01*
X157586196Y-88856001D01*
X155226334Y-88856001D01*
X155176499Y-88846088D01*
X154979067Y-88885360D01*
X154940964Y-88910820D01*
X154880846Y-88950989D01*
X154756431Y-88867859D01*
X154608835Y-88838500D01*
X154608834Y-88838500D01*
X154559000Y-88828587D01*
X154509166Y-88838500D01*
X151190835Y-88838500D01*
X151141000Y-88828587D01*
X150943568Y-88867859D01*
X150917375Y-88885361D01*
X150776194Y-88979694D01*
X150775321Y-88981000D01*
X150688041Y-88981000D01*
X150437744Y-89084676D01*
X150246176Y-89276244D01*
X150142500Y-89526541D01*
X150142500Y-89554500D01*
X150068068Y-89554500D01*
X149808583Y-89661982D01*
X149779284Y-89691281D01*
X149778502Y-89688822D01*
X149491263Y-89348132D01*
X149080374Y-89146381D01*
X148905500Y-89272546D01*
X148905500Y-90663500D01*
X148925500Y-90663500D01*
X148925500Y-90917500D01*
X148905500Y-90917500D01*
X148905500Y-90937500D01*
X148651500Y-90937500D01*
X148651500Y-90917500D01*
X147643500Y-90917500D01*
X147643500Y-91467500D01*
X147778498Y-91892178D01*
X148065737Y-92232868D01*
X148385187Y-92389722D01*
X148013447Y-92761461D01*
X147971194Y-92789694D01*
X147859359Y-92957070D01*
X147838799Y-93060430D01*
X147820087Y-93154500D01*
X147830000Y-93204335D01*
X147830001Y-93654620D01*
X146667500Y-92492119D01*
X146667500Y-92320541D01*
X146563824Y-92070244D01*
X146372256Y-91878676D01*
X146121959Y-91775000D01*
X145851041Y-91775000D01*
X145600744Y-91878676D01*
X145409176Y-92070244D01*
X145305500Y-92320541D01*
X145305500Y-92591459D01*
X145409176Y-92841756D01*
X145600744Y-93033324D01*
X145851041Y-93137000D01*
X146022619Y-93137000D01*
X148316305Y-95430686D01*
X148341744Y-95468758D01*
X148492579Y-95569543D01*
X148625592Y-95596001D01*
X148625596Y-95596001D01*
X148670501Y-95604933D01*
X148715406Y-95596001D01*
X149305097Y-95596001D01*
X149350001Y-95604933D01*
X149394905Y-95596001D01*
X149394910Y-95596001D01*
X149527923Y-95569543D01*
X149678758Y-95468758D01*
X149704197Y-95430687D01*
X149960188Y-95174696D01*
X149998257Y-95149259D01*
X150023694Y-95111190D01*
X150023696Y-95111188D01*
X150099042Y-94998425D01*
X150106271Y-94962079D01*
X150125500Y-94865411D01*
X150125500Y-94865408D01*
X150134432Y-94820502D01*
X150125500Y-94775597D01*
X150125500Y-93787881D01*
X151101871Y-92811511D01*
X151480522Y-92811511D01*
X151480522Y-92962514D01*
X151576586Y-93194433D01*
X151655523Y-93273370D01*
X151655522Y-93650098D01*
X149114621Y-96191000D01*
X146874580Y-96191000D01*
X146753256Y-96069676D01*
X146502959Y-95966000D01*
X146232041Y-95966000D01*
X145981744Y-96069676D01*
X145790176Y-96261244D01*
X145686500Y-96511541D01*
X145686500Y-96782459D01*
X145790176Y-97032756D01*
X145981744Y-97224324D01*
X146232041Y-97328000D01*
X146502959Y-97328000D01*
X146753256Y-97224324D01*
X146874580Y-97103000D01*
X149258598Y-97103000D01*
X149303502Y-97111932D01*
X149348406Y-97103000D01*
X149348411Y-97103000D01*
X149481424Y-97076542D01*
X149632259Y-96975757D01*
X149657698Y-96937685D01*
X152402211Y-94193173D01*
X152440279Y-94167737D01*
X152465716Y-94129668D01*
X152465718Y-94129666D01*
X152541063Y-94016903D01*
X152541064Y-94016902D01*
X152567522Y-93883889D01*
X152567522Y-93883884D01*
X152576454Y-93838980D01*
X152567522Y-93794076D01*
X152567522Y-93405222D01*
X152718986Y-93467960D01*
X152830619Y-93467960D01*
X153219347Y-93856689D01*
X153244784Y-93894758D01*
X153282853Y-93920195D01*
X153282855Y-93920197D01*
X153379475Y-93984756D01*
X153395619Y-93995543D01*
X153528632Y-94022001D01*
X153528636Y-94022001D01*
X153573541Y-94030933D01*
X153618446Y-94022001D01*
X154043597Y-94022001D01*
X154088501Y-94030933D01*
X154133405Y-94022001D01*
X154133410Y-94022001D01*
X154266423Y-93995543D01*
X154417258Y-93894758D01*
X154442697Y-93856686D01*
X154626186Y-93673197D01*
X154664258Y-93647758D01*
X154714129Y-93573121D01*
X154765043Y-93496924D01*
X154778843Y-93427545D01*
X154790489Y-93368999D01*
X155287410Y-93368999D01*
X156873165Y-94954755D01*
X156779920Y-95048000D01*
X156508905Y-95048000D01*
X156464000Y-95039068D01*
X156419094Y-95048000D01*
X156419091Y-95048000D01*
X156316125Y-95068481D01*
X156286077Y-95074458D01*
X156173314Y-95149804D01*
X156173312Y-95149806D01*
X156135243Y-95175243D01*
X156109806Y-95213312D01*
X154268315Y-97054804D01*
X154230243Y-97080243D01*
X154129458Y-97231079D01*
X154103000Y-97364092D01*
X154103000Y-97364096D01*
X154094068Y-97409000D01*
X154103000Y-97453904D01*
X154103001Y-100244411D01*
X154055766Y-100197176D01*
X153805469Y-100093500D01*
X153534551Y-100093500D01*
X153284254Y-100197176D01*
X153162930Y-100318500D01*
X151111405Y-100318500D01*
X151066500Y-100309568D01*
X151021594Y-100318500D01*
X151021591Y-100318500D01*
X150918625Y-100338981D01*
X150888577Y-100344958D01*
X150789738Y-100411000D01*
X150613541Y-100411000D01*
X150363244Y-100514676D01*
X150171676Y-100706244D01*
X150068000Y-100956541D01*
X150068000Y-101227459D01*
X150171676Y-101477756D01*
X150363244Y-101669324D01*
X150613541Y-101773000D01*
X150884459Y-101773000D01*
X151134756Y-101669324D01*
X151326324Y-101477756D01*
X151428740Y-101230500D01*
X152243658Y-101230500D01*
X152194551Y-101349055D01*
X152194551Y-101520633D01*
X150377812Y-103337372D01*
X150339743Y-103362809D01*
X150314306Y-103400878D01*
X150314303Y-103400881D01*
X150238958Y-103513644D01*
X150203567Y-103691566D01*
X150212500Y-103736475D01*
X150212499Y-105685831D01*
X150203567Y-105730735D01*
X150212499Y-105775639D01*
X150212499Y-105775643D01*
X150238957Y-105908656D01*
X150238958Y-105908657D01*
X150307698Y-106011534D01*
X150339742Y-106059492D01*
X150377814Y-106084931D01*
X150480668Y-106187785D01*
X150385500Y-106417541D01*
X150385500Y-106688459D01*
X150489176Y-106938756D01*
X150680744Y-107130324D01*
X150931041Y-107234000D01*
X151201959Y-107234000D01*
X151452256Y-107130324D01*
X151643824Y-106938756D01*
X151747500Y-106688459D01*
X151747500Y-106417541D01*
X151643824Y-106167244D01*
X151513088Y-106036508D01*
X151496042Y-105950814D01*
X151395257Y-105799979D01*
X151357185Y-105774540D01*
X151124499Y-105541854D01*
X151124499Y-104884500D01*
X151211000Y-104884500D01*
X151211000Y-104910459D01*
X151314676Y-105160756D01*
X151506244Y-105352324D01*
X151756541Y-105456000D01*
X151928119Y-105456000D01*
X152388500Y-105916381D01*
X152388500Y-106045920D01*
X152267176Y-106167244D01*
X152163500Y-106417541D01*
X152163500Y-106688459D01*
X152267176Y-106938756D01*
X152458744Y-107130324D01*
X152709041Y-107234000D01*
X152979959Y-107234000D01*
X153230256Y-107130324D01*
X153352500Y-107008080D01*
X153474744Y-107130324D01*
X153725041Y-107234000D01*
X153995959Y-107234000D01*
X154246256Y-107130324D01*
X154437824Y-106938756D01*
X154541500Y-106688459D01*
X154541500Y-106417541D01*
X154437824Y-106167244D01*
X154316500Y-106045920D01*
X154316500Y-105899405D01*
X154325432Y-105854500D01*
X154316500Y-105809595D01*
X154316500Y-105809591D01*
X154290042Y-105676578D01*
X154189257Y-105525743D01*
X154151185Y-105500304D01*
X152563696Y-103912815D01*
X152538257Y-103874743D01*
X152387422Y-103773958D01*
X152254409Y-103747500D01*
X152254404Y-103747500D01*
X152209500Y-103738568D01*
X152164596Y-103747500D01*
X151700580Y-103747500D01*
X151579256Y-103626176D01*
X151437491Y-103567455D01*
X152839432Y-102165514D01*
X153011010Y-102165514D01*
X153195842Y-102088955D01*
X153201881Y-102094994D01*
X153201882Y-103701928D01*
X153192949Y-103746837D01*
X153228340Y-103924759D01*
X153303685Y-104037522D01*
X153303688Y-104037525D01*
X153329125Y-104075594D01*
X153367194Y-104101031D01*
X155719500Y-106453337D01*
X155719500Y-106624915D01*
X155823176Y-106875212D01*
X156014744Y-107066780D01*
X156265041Y-107170456D01*
X156535959Y-107170456D01*
X156786256Y-107066780D01*
X156977824Y-106875212D01*
X157081500Y-106624915D01*
X157081500Y-106353997D01*
X156977824Y-106103700D01*
X156786256Y-105912132D01*
X156535959Y-105808456D01*
X156364381Y-105808456D01*
X154113881Y-103557956D01*
X154113881Y-102308461D01*
X154173244Y-102367824D01*
X154423541Y-102471500D01*
X154694459Y-102471500D01*
X154944756Y-102367824D01*
X155136324Y-102176256D01*
X155240000Y-101925959D01*
X155240000Y-101655041D01*
X155136324Y-101404744D01*
X155015000Y-101283420D01*
X155015000Y-97597881D01*
X156652882Y-95960000D01*
X156779920Y-95960000D01*
X156901244Y-96081324D01*
X157151541Y-96185000D01*
X157422459Y-96185000D01*
X157672756Y-96081324D01*
X157864324Y-95889756D01*
X157928840Y-95733999D01*
X158820409Y-95733999D01*
X157697744Y-96856664D01*
X157672756Y-96831676D01*
X157422459Y-96728000D01*
X157151541Y-96728000D01*
X156901244Y-96831676D01*
X156709676Y-97023244D01*
X156606000Y-97273541D01*
X156606000Y-97374408D01*
X155811445Y-98168964D01*
X155769195Y-98197194D01*
X155657360Y-98364569D01*
X155618087Y-98562000D01*
X155628001Y-98611839D01*
X155628000Y-101091920D01*
X155556676Y-101163244D01*
X155453000Y-101413541D01*
X155453000Y-101684459D01*
X155556676Y-101934756D01*
X155748244Y-102126324D01*
X155998541Y-102230000D01*
X156269459Y-102230000D01*
X156519756Y-102126324D01*
X156591080Y-102055000D01*
X159949909Y-102055000D01*
X161546000Y-103651092D01*
X161546001Y-103889310D01*
X161508446Y-103957762D01*
X161478537Y-104027799D01*
X161441105Y-104146520D01*
X161425435Y-104221038D01*
X161411882Y-104344779D01*
X161411051Y-104420932D01*
X161421759Y-104543317D01*
X161385727Y-104534166D01*
X161285337Y-104518939D01*
X161161026Y-104512424D01*
X161059597Y-104517074D01*
X160936403Y-104534936D01*
X160837827Y-104559285D01*
X160720486Y-104600838D01*
X160628558Y-104643950D01*
X160521577Y-104707597D01*
X160439823Y-104767816D01*
X160347315Y-104851111D01*
X160278885Y-104926117D01*
X160204404Y-105025858D01*
X160151915Y-105112784D01*
X160098325Y-105225140D01*
X160063808Y-105320622D01*
X160033166Y-105441273D01*
X160017939Y-105541663D01*
X160011424Y-105665974D01*
X160016074Y-105767403D01*
X160033936Y-105890597D01*
X160058285Y-105989173D01*
X160099838Y-106106514D01*
X160142950Y-106198442D01*
X160206597Y-106305423D01*
X160266818Y-106387179D01*
X160298175Y-106422004D01*
X160306190Y-106435476D01*
X160378550Y-106515840D01*
X159355152Y-107206131D01*
X158146223Y-107838144D01*
X157693065Y-108013913D01*
X157671344Y-107942868D01*
X157663924Y-107929056D01*
X157650223Y-107884243D01*
X157620926Y-107813949D01*
X157562006Y-107704294D01*
X157519560Y-107641068D01*
X157440380Y-107545015D01*
X157386418Y-107491287D01*
X157290021Y-107412526D01*
X157226608Y-107370355D01*
X157116697Y-107311914D01*
X157046274Y-107282924D01*
X156927073Y-107247050D01*
X156852356Y-107232357D01*
X156728448Y-107220426D01*
X156652298Y-107220592D01*
X156528442Y-107233063D01*
X156453783Y-107248083D01*
X156334741Y-107284478D01*
X156264449Y-107313774D01*
X156154794Y-107372694D01*
X156091568Y-107415140D01*
X155995515Y-107494320D01*
X155941787Y-107548282D01*
X155863026Y-107644679D01*
X155820855Y-107708092D01*
X155762414Y-107818003D01*
X155733424Y-107888426D01*
X155725761Y-107913888D01*
X155710560Y-107897443D01*
X155653635Y-107846859D01*
X155552927Y-107773690D01*
X155487225Y-107735181D01*
X155374177Y-107683066D01*
X155302228Y-107658117D01*
X155181186Y-107629058D01*
X155105754Y-107618624D01*
X154981368Y-107613737D01*
X154905348Y-107618221D01*
X154782399Y-107637694D01*
X154708715Y-107656921D01*
X154591927Y-107700006D01*
X154523409Y-107733239D01*
X154417271Y-107798280D01*
X154356553Y-107844242D01*
X154265143Y-107928740D01*
X154214559Y-107985665D01*
X154141390Y-108086373D01*
X154102881Y-108152075D01*
X154097582Y-108163569D01*
X154091937Y-108155432D01*
X154042607Y-108097418D01*
X153953062Y-108010945D01*
X153893360Y-107963668D01*
X153788666Y-107896327D01*
X153720889Y-107861607D01*
X153605069Y-107815985D01*
X153531824Y-107795155D01*
X153409329Y-107773004D01*
X153333422Y-107766863D01*
X153208959Y-107769036D01*
X153133318Y-107777822D01*
X153011670Y-107804234D01*
X152939195Y-107827607D01*
X152825038Y-107877243D01*
X152758512Y-107914309D01*
X152656232Y-107985263D01*
X152598218Y-108034593D01*
X152511745Y-108124138D01*
X152464468Y-108183840D01*
X152457459Y-108194736D01*
X152453838Y-108187228D01*
X152414190Y-108122211D01*
X152339275Y-108022796D01*
X152287706Y-107966764D01*
X152194836Y-107883874D01*
X152133324Y-107838978D01*
X152026067Y-107775799D01*
X151956981Y-107743767D01*
X151839459Y-107702726D01*
X151765447Y-107684786D01*
X151642176Y-107667462D01*
X151566092Y-107664307D01*
X151441810Y-107671364D01*
X151366570Y-107683112D01*
X151246054Y-107714279D01*
X151174549Y-107740481D01*
X151062428Y-107794562D01*
X150997411Y-107834210D01*
X150897996Y-107909125D01*
X150841964Y-107960694D01*
X150817055Y-107988602D01*
X150806248Y-107956765D01*
X150774819Y-107887400D01*
X150712578Y-107779595D01*
X150668220Y-107717693D01*
X150586143Y-107624103D01*
X150530562Y-107572046D01*
X150431804Y-107496267D01*
X150367137Y-107456055D01*
X150255493Y-107400998D01*
X150184219Y-107374172D01*
X150063978Y-107341954D01*
X149988846Y-107329550D01*
X149946142Y-107326751D01*
X149865824Y-107132846D01*
X149681000Y-106948022D01*
X149681000Y-101662580D01*
X149802324Y-101541256D01*
X149906000Y-101290959D01*
X149906000Y-101020041D01*
X149802324Y-100769744D01*
X149610756Y-100578176D01*
X149360459Y-100474500D01*
X149089541Y-100474500D01*
X148839244Y-100578176D01*
X148647676Y-100769744D01*
X148544000Y-101020041D01*
X148544000Y-101290959D01*
X148647676Y-101541256D01*
X148769000Y-101662580D01*
X148769001Y-107075021D01*
X148711176Y-107132846D01*
X148607500Y-107383143D01*
X148607500Y-107654061D01*
X148711176Y-107904358D01*
X148876105Y-108069287D01*
X148871410Y-108078808D01*
X148848082Y-108165868D01*
X148839298Y-108163149D01*
X147589227Y-107617006D01*
X146407825Y-106934923D01*
X145309816Y-106125401D01*
X144308887Y-105198531D01*
X143417513Y-104165864D01*
X142646804Y-103040272D01*
X142006367Y-101835785D01*
X141504184Y-100567416D01*
X141146514Y-99250973D01*
X140937816Y-97902865D01*
X140927816Y-97664263D01*
X140943042Y-97679489D01*
X141363143Y-97853500D01*
X141817857Y-97853500D01*
X142237958Y-97679489D01*
X142559489Y-97357958D01*
X142733500Y-96937857D01*
X142733500Y-96483143D01*
X142559489Y-96063042D01*
X142237958Y-95741511D01*
X141817857Y-95567500D01*
X141363143Y-95567500D01*
X140943042Y-95741511D01*
X140936029Y-95748524D01*
X140975850Y-95179053D01*
X141184943Y-94039801D01*
X141248718Y-94060523D01*
X141264288Y-94062366D01*
X141308863Y-94076849D01*
X141408032Y-94098607D01*
X141531651Y-94113239D01*
X141633172Y-94115233D01*
X141757270Y-94105466D01*
X141857223Y-94087617D01*
X141977031Y-94053828D01*
X142071586Y-94016820D01*
X142182500Y-93960306D01*
X142268015Y-93905563D01*
X142365772Y-93828497D01*
X142438961Y-93758128D01*
X142519806Y-93663472D01*
X142577867Y-93580167D01*
X142638691Y-93471557D01*
X142679381Y-93378531D01*
X142717848Y-93260141D01*
X142739607Y-93160968D01*
X142754239Y-93037349D01*
X142756233Y-92935828D01*
X142746466Y-92811730D01*
X142728617Y-92711777D01*
X142694828Y-92591969D01*
X142657820Y-92497414D01*
X142601306Y-92386500D01*
X142546563Y-92300985D01*
X142469497Y-92203228D01*
X142399128Y-92130039D01*
X142304472Y-92049194D01*
X142221167Y-91991133D01*
X142112557Y-91930309D01*
X142019535Y-91889620D01*
X141974957Y-91875136D01*
X141961282Y-91867477D01*
X141908312Y-91850266D01*
X142153798Y-91277503D01*
X142815043Y-90113500D01*
X147643500Y-90113500D01*
X147643500Y-90663500D01*
X148651500Y-90663500D01*
X148651500Y-89272546D01*
X148476626Y-89146381D01*
X148065737Y-89348132D01*
X147778498Y-89688822D01*
X147643500Y-90113500D01*
X142815043Y-90113500D01*
X142827617Y-90091367D01*
X143620740Y-88999726D01*
X143688042Y-89064719D01*
X143701225Y-89073197D01*
X143734942Y-89105757D01*
X143794639Y-89153030D01*
X143899333Y-89220372D01*
X143967109Y-89255092D01*
X144082928Y-89300715D01*
X144156176Y-89321546D01*
X144278671Y-89343697D01*
X144354578Y-89349838D01*
X144479041Y-89347665D01*
X144554682Y-89338879D01*
X144676330Y-89312467D01*
X144748808Y-89289093D01*
X144862965Y-89239456D01*
X144929490Y-89202390D01*
X145031770Y-89131435D01*
X145089784Y-89082105D01*
X145176256Y-88992560D01*
X145223530Y-88932861D01*
X145290872Y-88828167D01*
X145325592Y-88760391D01*
X145371215Y-88644572D01*
X145392046Y-88571324D01*
X145414197Y-88448829D01*
X145420338Y-88372922D01*
X145418165Y-88248459D01*
X145409379Y-88172818D01*
X145382967Y-88051170D01*
X145359593Y-87978692D01*
X145309956Y-87864535D01*
X145272890Y-87798010D01*
X145201935Y-87695730D01*
X145152606Y-87637718D01*
X145118895Y-87605163D01*
X145109958Y-87592281D01*
X145054161Y-87538398D01*
X145575732Y-87081797D01*
X146071110Y-86737500D01*
X147643500Y-86737500D01*
X147643500Y-87037500D01*
X147778498Y-87462178D01*
X148065737Y-87802868D01*
X148476626Y-88004619D01*
X148651500Y-87878454D01*
X148651500Y-86737500D01*
X148905500Y-86737500D01*
X148905500Y-87878454D01*
X149080374Y-88004619D01*
X149491263Y-87802868D01*
X149778502Y-87462178D01*
X149913500Y-87037500D01*
X149913500Y-86737500D01*
X156283500Y-86737500D01*
X156283500Y-87037500D01*
X156418498Y-87462178D01*
X156705737Y-87802868D01*
X157116626Y-88004619D01*
X157291500Y-87878454D01*
X157291500Y-86737500D01*
X156283500Y-86737500D01*
X149913500Y-86737500D01*
X148905500Y-86737500D01*
X148651500Y-86737500D01*
X147643500Y-86737500D01*
X146071110Y-86737500D01*
X146695916Y-86303249D01*
X147841907Y-85683614D01*
X147778498Y-85758822D01*
X147643500Y-86183500D01*
X147643500Y-86483500D01*
X148651500Y-86483500D01*
X148651500Y-86463500D01*
X148905500Y-86463500D01*
X148905500Y-86483500D01*
X149913500Y-86483500D01*
X149913500Y-86183500D01*
X149778502Y-85758822D01*
X149491263Y-85418132D01*
X149080374Y-85216381D01*
X148905502Y-85342545D01*
X148905502Y-85246514D01*
X149160735Y-85143393D01*
X150474649Y-84776541D01*
X151821267Y-84558437D01*
X153183804Y-84491798D01*
X154545278Y-84577454D01*
X154545278Y-84577454D01*
G37*
X154545278Y-84577454D02*
X155888719Y-84814339D01*
X157197383Y-85199500D01*
X157291498Y-85239062D01*
X157291498Y-85342545D01*
X157116626Y-85216381D01*
X156705737Y-85418132D01*
X156418498Y-85758822D01*
X156283500Y-86183500D01*
X156283500Y-86483500D01*
X157291500Y-86483500D01*
X157291500Y-86463500D01*
X157545500Y-86463500D01*
X157545500Y-86483500D01*
X157565500Y-86483500D01*
X157565500Y-86737500D01*
X157545500Y-86737500D01*
X157545500Y-87878454D01*
X157720374Y-88004619D01*
X158131263Y-87802868D01*
X158418502Y-87462178D01*
X158540059Y-87079782D01*
X158568497Y-87104721D01*
X158630394Y-87149076D01*
X158738198Y-87211317D01*
X158807562Y-87242746D01*
X158925438Y-87282760D01*
X158999602Y-87300053D01*
X159123018Y-87316301D01*
X159199128Y-87318792D01*
X159323344Y-87310651D01*
X159398480Y-87298247D01*
X159518720Y-87266029D01*
X159589995Y-87239202D01*
X159701639Y-87184144D01*
X159766304Y-87143933D01*
X159865062Y-87068154D01*
X159920645Y-87016094D01*
X160002721Y-86922503D01*
X160047075Y-86860608D01*
X160070511Y-86820017D01*
X160080846Y-86808232D01*
X160122958Y-86735292D01*
X160754972Y-87187769D01*
X161768745Y-88100575D01*
X162674450Y-89120695D01*
X163460800Y-90235417D01*
X164117992Y-91430844D01*
X164637835Y-92692078D01*
X165013850Y-94003399D01*
X165241350Y-95348461D01*
X165264827Y-95768380D01*
X165237958Y-95741511D01*
X164817857Y-95567500D01*
X164363143Y-95567500D01*
X163943042Y-95741511D01*
X163621511Y-96063042D01*
X163447500Y-96483143D01*
X163447500Y-96937857D01*
X163621511Y-97357958D01*
X163943042Y-97679489D01*
X164363143Y-97853500D01*
X164817857Y-97853500D01*
X165237958Y-97679489D01*
X165262039Y-97655408D01*
X165198586Y-98411056D01*
X164933618Y-99749242D01*
X164521135Y-101049552D01*
X163966279Y-102295780D01*
X163275965Y-103472391D01*
X163141348Y-103652337D01*
X163090870Y-103609981D01*
X163077120Y-103602436D01*
X163041223Y-103572315D01*
X162978374Y-103529321D01*
X162869238Y-103469446D01*
X162799201Y-103439537D01*
X162680480Y-103402105D01*
X162605962Y-103386435D01*
X162555868Y-103380948D01*
X162536167Y-103281905D01*
X162528641Y-103244069D01*
X162416806Y-103076694D01*
X162374556Y-103048464D01*
X160552539Y-101226447D01*
X160524306Y-101184194D01*
X160356931Y-101072359D01*
X160209335Y-101043000D01*
X160209334Y-101043000D01*
X160159500Y-101033087D01*
X160109666Y-101043000D01*
X156640000Y-101043000D01*
X156640000Y-98771591D01*
X157321592Y-98090000D01*
X157422459Y-98090000D01*
X157672756Y-97986324D01*
X157744080Y-97915000D01*
X157811166Y-97915000D01*
X157861000Y-97924913D01*
X157910834Y-97915000D01*
X157910835Y-97915000D01*
X158058431Y-97885641D01*
X158225806Y-97773806D01*
X158254039Y-97731552D01*
X159822708Y-96162883D01*
X159783500Y-96257541D01*
X159783500Y-96528459D01*
X159887176Y-96778756D01*
X160078744Y-96970324D01*
X160329041Y-97074000D01*
X160599959Y-97074000D01*
X160850256Y-96970324D01*
X161041824Y-96778756D01*
X161145500Y-96528459D01*
X161145500Y-96427591D01*
X163013056Y-94560036D01*
X163055307Y-94531805D01*
X163148480Y-94392360D01*
X163167142Y-94364431D01*
X163206414Y-94166999D01*
X163196501Y-94117164D01*
X163196501Y-92382334D01*
X163206414Y-92332500D01*
X163190586Y-92252931D01*
X163167142Y-92135070D01*
X163055307Y-91967695D01*
X163013057Y-91939465D01*
X162352000Y-91278409D01*
X162352000Y-91177541D01*
X162248324Y-90927244D01*
X162056756Y-90735676D01*
X161806459Y-90632000D01*
X161535541Y-90632000D01*
X161285244Y-90735676D01*
X161093676Y-90927244D01*
X160990000Y-91177541D01*
X160990000Y-91448459D01*
X161093676Y-91698756D01*
X161285244Y-91890324D01*
X161535541Y-91994000D01*
X161636409Y-91994000D01*
X162115908Y-92473500D01*
X161980041Y-92473500D01*
X161729744Y-92577176D01*
X161538176Y-92768744D01*
X161434500Y-93019041D01*
X161434500Y-93119908D01*
X160078445Y-94475964D01*
X160078442Y-94475966D01*
X159832409Y-94721999D01*
X158071593Y-94721999D01*
X157532460Y-94182867D01*
X157548256Y-94176324D01*
X157619580Y-94105000D01*
X158210666Y-94105000D01*
X158260500Y-94114913D01*
X158310334Y-94105000D01*
X158310335Y-94105000D01*
X158457931Y-94075641D01*
X158625306Y-93963806D01*
X158653539Y-93921552D01*
X158885554Y-93689537D01*
X158927807Y-93661305D01*
X159039642Y-93493930D01*
X159069001Y-93346334D01*
X159069001Y-93346333D01*
X159078914Y-93296500D01*
X159069001Y-93246666D01*
X159069001Y-90338806D01*
X159078914Y-90288972D01*
X159068261Y-90235417D01*
X159039642Y-90091541D01*
X158927807Y-89924166D01*
X158885556Y-89895935D01*
X158029068Y-89039448D01*
X158000836Y-88997195D01*
X157833461Y-88885360D01*
X157685865Y-88856001D01*
X157685864Y-88856001D01*
X157636030Y-88846088D01*
X157586196Y-88856001D01*
X155226334Y-88856001D01*
X155176499Y-88846088D01*
X154979067Y-88885360D01*
X154940964Y-88910820D01*
X154880846Y-88950989D01*
X154756431Y-88867859D01*
X154608835Y-88838500D01*
X154608834Y-88838500D01*
X154559000Y-88828587D01*
X154509166Y-88838500D01*
X151190835Y-88838500D01*
X151141000Y-88828587D01*
X150943568Y-88867859D01*
X150917375Y-88885361D01*
X150776194Y-88979694D01*
X150775321Y-88981000D01*
X150688041Y-88981000D01*
X150437744Y-89084676D01*
X150246176Y-89276244D01*
X150142500Y-89526541D01*
X150142500Y-89554500D01*
X150068068Y-89554500D01*
X149808583Y-89661982D01*
X149779284Y-89691281D01*
X149778502Y-89688822D01*
X149491263Y-89348132D01*
X149080374Y-89146381D01*
X148905500Y-89272546D01*
X148905500Y-90663500D01*
X148925500Y-90663500D01*
X148925500Y-90917500D01*
X148905500Y-90917500D01*
X148905500Y-90937500D01*
X148651500Y-90937500D01*
X148651500Y-90917500D01*
X147643500Y-90917500D01*
X147643500Y-91467500D01*
X147778498Y-91892178D01*
X148065737Y-92232868D01*
X148385187Y-92389722D01*
X148013447Y-92761461D01*
X147971194Y-92789694D01*
X147859359Y-92957070D01*
X147838799Y-93060430D01*
X147820087Y-93154500D01*
X147830000Y-93204335D01*
X147830001Y-93654620D01*
X146667500Y-92492119D01*
X146667500Y-92320541D01*
X146563824Y-92070244D01*
X146372256Y-91878676D01*
X146121959Y-91775000D01*
X145851041Y-91775000D01*
X145600744Y-91878676D01*
X145409176Y-92070244D01*
X145305500Y-92320541D01*
X145305500Y-92591459D01*
X145409176Y-92841756D01*
X145600744Y-93033324D01*
X145851041Y-93137000D01*
X146022619Y-93137000D01*
X148316305Y-95430686D01*
X148341744Y-95468758D01*
X148492579Y-95569543D01*
X148625592Y-95596001D01*
X148625596Y-95596001D01*
X148670501Y-95604933D01*
X148715406Y-95596001D01*
X149305097Y-95596001D01*
X149350001Y-95604933D01*
X149394905Y-95596001D01*
X149394910Y-95596001D01*
X149527923Y-95569543D01*
X149678758Y-95468758D01*
X149704197Y-95430687D01*
X149960188Y-95174696D01*
X149998257Y-95149259D01*
X150023694Y-95111190D01*
X150023696Y-95111188D01*
X150099042Y-94998425D01*
X150106271Y-94962079D01*
X150125500Y-94865411D01*
X150125500Y-94865408D01*
X150134432Y-94820502D01*
X150125500Y-94775597D01*
X150125500Y-93787881D01*
X151101871Y-92811511D01*
X151480522Y-92811511D01*
X151480522Y-92962514D01*
X151576586Y-93194433D01*
X151655523Y-93273370D01*
X151655522Y-93650098D01*
X149114621Y-96191000D01*
X146874580Y-96191000D01*
X146753256Y-96069676D01*
X146502959Y-95966000D01*
X146232041Y-95966000D01*
X145981744Y-96069676D01*
X145790176Y-96261244D01*
X145686500Y-96511541D01*
X145686500Y-96782459D01*
X145790176Y-97032756D01*
X145981744Y-97224324D01*
X146232041Y-97328000D01*
X146502959Y-97328000D01*
X146753256Y-97224324D01*
X146874580Y-97103000D01*
X149258598Y-97103000D01*
X149303502Y-97111932D01*
X149348406Y-97103000D01*
X149348411Y-97103000D01*
X149481424Y-97076542D01*
X149632259Y-96975757D01*
X149657698Y-96937685D01*
X152402211Y-94193173D01*
X152440279Y-94167737D01*
X152465716Y-94129668D01*
X152465718Y-94129666D01*
X152541063Y-94016903D01*
X152541064Y-94016902D01*
X152567522Y-93883889D01*
X152567522Y-93883884D01*
X152576454Y-93838980D01*
X152567522Y-93794076D01*
X152567522Y-93405222D01*
X152718986Y-93467960D01*
X152830619Y-93467960D01*
X153219347Y-93856689D01*
X153244784Y-93894758D01*
X153282853Y-93920195D01*
X153282855Y-93920197D01*
X153379475Y-93984756D01*
X153395619Y-93995543D01*
X153528632Y-94022001D01*
X153528636Y-94022001D01*
X153573541Y-94030933D01*
X153618446Y-94022001D01*
X154043597Y-94022001D01*
X154088501Y-94030933D01*
X154133405Y-94022001D01*
X154133410Y-94022001D01*
X154266423Y-93995543D01*
X154417258Y-93894758D01*
X154442697Y-93856686D01*
X154626186Y-93673197D01*
X154664258Y-93647758D01*
X154714129Y-93573121D01*
X154765043Y-93496924D01*
X154778843Y-93427545D01*
X154790489Y-93368999D01*
X155287410Y-93368999D01*
X156873165Y-94954755D01*
X156779920Y-95048000D01*
X156508905Y-95048000D01*
X156464000Y-95039068D01*
X156419094Y-95048000D01*
X156419091Y-95048000D01*
X156316125Y-95068481D01*
X156286077Y-95074458D01*
X156173314Y-95149804D01*
X156173312Y-95149806D01*
X156135243Y-95175243D01*
X156109806Y-95213312D01*
X154268315Y-97054804D01*
X154230243Y-97080243D01*
X154129458Y-97231079D01*
X154103000Y-97364092D01*
X154103000Y-97364096D01*
X154094068Y-97409000D01*
X154103000Y-97453904D01*
X154103001Y-100244411D01*
X154055766Y-100197176D01*
X153805469Y-100093500D01*
X153534551Y-100093500D01*
X153284254Y-100197176D01*
X153162930Y-100318500D01*
X151111405Y-100318500D01*
X151066500Y-100309568D01*
X151021594Y-100318500D01*
X151021591Y-100318500D01*
X150918625Y-100338981D01*
X150888577Y-100344958D01*
X150789738Y-100411000D01*
X150613541Y-100411000D01*
X150363244Y-100514676D01*
X150171676Y-100706244D01*
X150068000Y-100956541D01*
X150068000Y-101227459D01*
X150171676Y-101477756D01*
X150363244Y-101669324D01*
X150613541Y-101773000D01*
X150884459Y-101773000D01*
X151134756Y-101669324D01*
X151326324Y-101477756D01*
X151428740Y-101230500D01*
X152243658Y-101230500D01*
X152194551Y-101349055D01*
X152194551Y-101520633D01*
X150377812Y-103337372D01*
X150339743Y-103362809D01*
X150314306Y-103400878D01*
X150314303Y-103400881D01*
X150238958Y-103513644D01*
X150203567Y-103691566D01*
X150212500Y-103736475D01*
X150212499Y-105685831D01*
X150203567Y-105730735D01*
X150212499Y-105775639D01*
X150212499Y-105775643D01*
X150238957Y-105908656D01*
X150238958Y-105908657D01*
X150307698Y-106011534D01*
X150339742Y-106059492D01*
X150377814Y-106084931D01*
X150480668Y-106187785D01*
X150385500Y-106417541D01*
X150385500Y-106688459D01*
X150489176Y-106938756D01*
X150680744Y-107130324D01*
X150931041Y-107234000D01*
X151201959Y-107234000D01*
X151452256Y-107130324D01*
X151643824Y-106938756D01*
X151747500Y-106688459D01*
X151747500Y-106417541D01*
X151643824Y-106167244D01*
X151513088Y-106036508D01*
X151496042Y-105950814D01*
X151395257Y-105799979D01*
X151357185Y-105774540D01*
X151124499Y-105541854D01*
X151124499Y-104884500D01*
X151211000Y-104884500D01*
X151211000Y-104910459D01*
X151314676Y-105160756D01*
X151506244Y-105352324D01*
X151756541Y-105456000D01*
X151928119Y-105456000D01*
X152388500Y-105916381D01*
X152388500Y-106045920D01*
X152267176Y-106167244D01*
X152163500Y-106417541D01*
X152163500Y-106688459D01*
X152267176Y-106938756D01*
X152458744Y-107130324D01*
X152709041Y-107234000D01*
X152979959Y-107234000D01*
X153230256Y-107130324D01*
X153352500Y-107008080D01*
X153474744Y-107130324D01*
X153725041Y-107234000D01*
X153995959Y-107234000D01*
X154246256Y-107130324D01*
X154437824Y-106938756D01*
X154541500Y-106688459D01*
X154541500Y-106417541D01*
X154437824Y-106167244D01*
X154316500Y-106045920D01*
X154316500Y-105899405D01*
X154325432Y-105854500D01*
X154316500Y-105809595D01*
X154316500Y-105809591D01*
X154290042Y-105676578D01*
X154189257Y-105525743D01*
X154151185Y-105500304D01*
X152563696Y-103912815D01*
X152538257Y-103874743D01*
X152387422Y-103773958D01*
X152254409Y-103747500D01*
X152254404Y-103747500D01*
X152209500Y-103738568D01*
X152164596Y-103747500D01*
X151700580Y-103747500D01*
X151579256Y-103626176D01*
X151437491Y-103567455D01*
X152839432Y-102165514D01*
X153011010Y-102165514D01*
X153195842Y-102088955D01*
X153201881Y-102094994D01*
X153201882Y-103701928D01*
X153192949Y-103746837D01*
X153228340Y-103924759D01*
X153303685Y-104037522D01*
X153303688Y-104037525D01*
X153329125Y-104075594D01*
X153367194Y-104101031D01*
X155719500Y-106453337D01*
X155719500Y-106624915D01*
X155823176Y-106875212D01*
X156014744Y-107066780D01*
X156265041Y-107170456D01*
X156535959Y-107170456D01*
X156786256Y-107066780D01*
X156977824Y-106875212D01*
X157081500Y-106624915D01*
X157081500Y-106353997D01*
X156977824Y-106103700D01*
X156786256Y-105912132D01*
X156535959Y-105808456D01*
X156364381Y-105808456D01*
X154113881Y-103557956D01*
X154113881Y-102308461D01*
X154173244Y-102367824D01*
X154423541Y-102471500D01*
X154694459Y-102471500D01*
X154944756Y-102367824D01*
X155136324Y-102176256D01*
X155240000Y-101925959D01*
X155240000Y-101655041D01*
X155136324Y-101404744D01*
X155015000Y-101283420D01*
X155015000Y-97597881D01*
X156652882Y-95960000D01*
X156779920Y-95960000D01*
X156901244Y-96081324D01*
X157151541Y-96185000D01*
X157422459Y-96185000D01*
X157672756Y-96081324D01*
X157864324Y-95889756D01*
X157928840Y-95733999D01*
X158820409Y-95733999D01*
X157697744Y-96856664D01*
X157672756Y-96831676D01*
X157422459Y-96728000D01*
X157151541Y-96728000D01*
X156901244Y-96831676D01*
X156709676Y-97023244D01*
X156606000Y-97273541D01*
X156606000Y-97374408D01*
X155811445Y-98168964D01*
X155769195Y-98197194D01*
X155657360Y-98364569D01*
X155618087Y-98562000D01*
X155628001Y-98611839D01*
X155628000Y-101091920D01*
X155556676Y-101163244D01*
X155453000Y-101413541D01*
X155453000Y-101684459D01*
X155556676Y-101934756D01*
X155748244Y-102126324D01*
X155998541Y-102230000D01*
X156269459Y-102230000D01*
X156519756Y-102126324D01*
X156591080Y-102055000D01*
X159949909Y-102055000D01*
X161546000Y-103651092D01*
X161546001Y-103889310D01*
X161508446Y-103957762D01*
X161478537Y-104027799D01*
X161441105Y-104146520D01*
X161425435Y-104221038D01*
X161411882Y-104344779D01*
X161411051Y-104420932D01*
X161421759Y-104543317D01*
X161385727Y-104534166D01*
X161285337Y-104518939D01*
X161161026Y-104512424D01*
X161059597Y-104517074D01*
X160936403Y-104534936D01*
X160837827Y-104559285D01*
X160720486Y-104600838D01*
X160628558Y-104643950D01*
X160521577Y-104707597D01*
X160439823Y-104767816D01*
X160347315Y-104851111D01*
X160278885Y-104926117D01*
X160204404Y-105025858D01*
X160151915Y-105112784D01*
X160098325Y-105225140D01*
X160063808Y-105320622D01*
X160033166Y-105441273D01*
X160017939Y-105541663D01*
X160011424Y-105665974D01*
X160016074Y-105767403D01*
X160033936Y-105890597D01*
X160058285Y-105989173D01*
X160099838Y-106106514D01*
X160142950Y-106198442D01*
X160206597Y-106305423D01*
X160266818Y-106387179D01*
X160298175Y-106422004D01*
X160306190Y-106435476D01*
X160378550Y-106515840D01*
X159355152Y-107206131D01*
X158146223Y-107838144D01*
X157693065Y-108013913D01*
X157671344Y-107942868D01*
X157663924Y-107929056D01*
X157650223Y-107884243D01*
X157620926Y-107813949D01*
X157562006Y-107704294D01*
X157519560Y-107641068D01*
X157440380Y-107545015D01*
X157386418Y-107491287D01*
X157290021Y-107412526D01*
X157226608Y-107370355D01*
X157116697Y-107311914D01*
X157046274Y-107282924D01*
X156927073Y-107247050D01*
X156852356Y-107232357D01*
X156728448Y-107220426D01*
X156652298Y-107220592D01*
X156528442Y-107233063D01*
X156453783Y-107248083D01*
X156334741Y-107284478D01*
X156264449Y-107313774D01*
X156154794Y-107372694D01*
X156091568Y-107415140D01*
X155995515Y-107494320D01*
X155941787Y-107548282D01*
X155863026Y-107644679D01*
X155820855Y-107708092D01*
X155762414Y-107818003D01*
X155733424Y-107888426D01*
X155725761Y-107913888D01*
X155710560Y-107897443D01*
X155653635Y-107846859D01*
X155552927Y-107773690D01*
X155487225Y-107735181D01*
X155374177Y-107683066D01*
X155302228Y-107658117D01*
X155181186Y-107629058D01*
X155105754Y-107618624D01*
X154981368Y-107613737D01*
X154905348Y-107618221D01*
X154782399Y-107637694D01*
X154708715Y-107656921D01*
X154591927Y-107700006D01*
X154523409Y-107733239D01*
X154417271Y-107798280D01*
X154356553Y-107844242D01*
X154265143Y-107928740D01*
X154214559Y-107985665D01*
X154141390Y-108086373D01*
X154102881Y-108152075D01*
X154097582Y-108163569D01*
X154091937Y-108155432D01*
X154042607Y-108097418D01*
X153953062Y-108010945D01*
X153893360Y-107963668D01*
X153788666Y-107896327D01*
X153720889Y-107861607D01*
X153605069Y-107815985D01*
X153531824Y-107795155D01*
X153409329Y-107773004D01*
X153333422Y-107766863D01*
X153208959Y-107769036D01*
X153133318Y-107777822D01*
X153011670Y-107804234D01*
X152939195Y-107827607D01*
X152825038Y-107877243D01*
X152758512Y-107914309D01*
X152656232Y-107985263D01*
X152598218Y-108034593D01*
X152511745Y-108124138D01*
X152464468Y-108183840D01*
X152457459Y-108194736D01*
X152453838Y-108187228D01*
X152414190Y-108122211D01*
X152339275Y-108022796D01*
X152287706Y-107966764D01*
X152194836Y-107883874D01*
X152133324Y-107838978D01*
X152026067Y-107775799D01*
X151956981Y-107743767D01*
X151839459Y-107702726D01*
X151765447Y-107684786D01*
X151642176Y-107667462D01*
X151566092Y-107664307D01*
X151441810Y-107671364D01*
X151366570Y-107683112D01*
X151246054Y-107714279D01*
X151174549Y-107740481D01*
X151062428Y-107794562D01*
X150997411Y-107834210D01*
X150897996Y-107909125D01*
X150841964Y-107960694D01*
X150817055Y-107988602D01*
X150806248Y-107956765D01*
X150774819Y-107887400D01*
X150712578Y-107779595D01*
X150668220Y-107717693D01*
X150586143Y-107624103D01*
X150530562Y-107572046D01*
X150431804Y-107496267D01*
X150367137Y-107456055D01*
X150255493Y-107400998D01*
X150184219Y-107374172D01*
X150063978Y-107341954D01*
X149988846Y-107329550D01*
X149946142Y-107326751D01*
X149865824Y-107132846D01*
X149681000Y-106948022D01*
X149681000Y-101662580D01*
X149802324Y-101541256D01*
X149906000Y-101290959D01*
X149906000Y-101020041D01*
X149802324Y-100769744D01*
X149610756Y-100578176D01*
X149360459Y-100474500D01*
X149089541Y-100474500D01*
X148839244Y-100578176D01*
X148647676Y-100769744D01*
X148544000Y-101020041D01*
X148544000Y-101290959D01*
X148647676Y-101541256D01*
X148769000Y-101662580D01*
X148769001Y-107075021D01*
X148711176Y-107132846D01*
X148607500Y-107383143D01*
X148607500Y-107654061D01*
X148711176Y-107904358D01*
X148876105Y-108069287D01*
X148871410Y-108078808D01*
X148848082Y-108165868D01*
X148839298Y-108163149D01*
X147589227Y-107617006D01*
X146407825Y-106934923D01*
X145309816Y-106125401D01*
X144308887Y-105198531D01*
X143417513Y-104165864D01*
X142646804Y-103040272D01*
X142006367Y-101835785D01*
X141504184Y-100567416D01*
X141146514Y-99250973D01*
X140937816Y-97902865D01*
X140927816Y-97664263D01*
X140943042Y-97679489D01*
X141363143Y-97853500D01*
X141817857Y-97853500D01*
X142237958Y-97679489D01*
X142559489Y-97357958D01*
X142733500Y-96937857D01*
X142733500Y-96483143D01*
X142559489Y-96063042D01*
X142237958Y-95741511D01*
X141817857Y-95567500D01*
X141363143Y-95567500D01*
X140943042Y-95741511D01*
X140936029Y-95748524D01*
X140975850Y-95179053D01*
X141184943Y-94039801D01*
X141248718Y-94060523D01*
X141264288Y-94062366D01*
X141308863Y-94076849D01*
X141408032Y-94098607D01*
X141531651Y-94113239D01*
X141633172Y-94115233D01*
X141757270Y-94105466D01*
X141857223Y-94087617D01*
X141977031Y-94053828D01*
X142071586Y-94016820D01*
X142182500Y-93960306D01*
X142268015Y-93905563D01*
X142365772Y-93828497D01*
X142438961Y-93758128D01*
X142519806Y-93663472D01*
X142577867Y-93580167D01*
X142638691Y-93471557D01*
X142679381Y-93378531D01*
X142717848Y-93260141D01*
X142739607Y-93160968D01*
X142754239Y-93037349D01*
X142756233Y-92935828D01*
X142746466Y-92811730D01*
X142728617Y-92711777D01*
X142694828Y-92591969D01*
X142657820Y-92497414D01*
X142601306Y-92386500D01*
X142546563Y-92300985D01*
X142469497Y-92203228D01*
X142399128Y-92130039D01*
X142304472Y-92049194D01*
X142221167Y-91991133D01*
X142112557Y-91930309D01*
X142019535Y-91889620D01*
X141974957Y-91875136D01*
X141961282Y-91867477D01*
X141908312Y-91850266D01*
X142153798Y-91277503D01*
X142815043Y-90113500D01*
X147643500Y-90113500D01*
X147643500Y-90663500D01*
X148651500Y-90663500D01*
X148651500Y-89272546D01*
X148476626Y-89146381D01*
X148065737Y-89348132D01*
X147778498Y-89688822D01*
X147643500Y-90113500D01*
X142815043Y-90113500D01*
X142827617Y-90091367D01*
X143620740Y-88999726D01*
X143688042Y-89064719D01*
X143701225Y-89073197D01*
X143734942Y-89105757D01*
X143794639Y-89153030D01*
X143899333Y-89220372D01*
X143967109Y-89255092D01*
X144082928Y-89300715D01*
X144156176Y-89321546D01*
X144278671Y-89343697D01*
X144354578Y-89349838D01*
X144479041Y-89347665D01*
X144554682Y-89338879D01*
X144676330Y-89312467D01*
X144748808Y-89289093D01*
X144862965Y-89239456D01*
X144929490Y-89202390D01*
X145031770Y-89131435D01*
X145089784Y-89082105D01*
X145176256Y-88992560D01*
X145223530Y-88932861D01*
X145290872Y-88828167D01*
X145325592Y-88760391D01*
X145371215Y-88644572D01*
X145392046Y-88571324D01*
X145414197Y-88448829D01*
X145420338Y-88372922D01*
X145418165Y-88248459D01*
X145409379Y-88172818D01*
X145382967Y-88051170D01*
X145359593Y-87978692D01*
X145309956Y-87864535D01*
X145272890Y-87798010D01*
X145201935Y-87695730D01*
X145152606Y-87637718D01*
X145118895Y-87605163D01*
X145109958Y-87592281D01*
X145054161Y-87538398D01*
X145575732Y-87081797D01*
X146071110Y-86737500D01*
X147643500Y-86737500D01*
X147643500Y-87037500D01*
X147778498Y-87462178D01*
X148065737Y-87802868D01*
X148476626Y-88004619D01*
X148651500Y-87878454D01*
X148651500Y-86737500D01*
X148905500Y-86737500D01*
X148905500Y-87878454D01*
X149080374Y-88004619D01*
X149491263Y-87802868D01*
X149778502Y-87462178D01*
X149913500Y-87037500D01*
X149913500Y-86737500D01*
X156283500Y-86737500D01*
X156283500Y-87037500D01*
X156418498Y-87462178D01*
X156705737Y-87802868D01*
X157116626Y-88004619D01*
X157291500Y-87878454D01*
X157291500Y-86737500D01*
X156283500Y-86737500D01*
X149913500Y-86737500D01*
X148905500Y-86737500D01*
X148651500Y-86737500D01*
X147643500Y-86737500D01*
X146071110Y-86737500D01*
X146695916Y-86303249D01*
X147841907Y-85683614D01*
X147778498Y-85758822D01*
X147643500Y-86183500D01*
X147643500Y-86483500D01*
X148651500Y-86483500D01*
X148651500Y-86463500D01*
X148905500Y-86463500D01*
X148905500Y-86483500D01*
X149913500Y-86483500D01*
X149913500Y-86183500D01*
X149778502Y-85758822D01*
X149491263Y-85418132D01*
X149080374Y-85216381D01*
X148905502Y-85342545D01*
X148905502Y-85246514D01*
X149160735Y-85143393D01*
X150474649Y-84776541D01*
X151821267Y-84558437D01*
X153183804Y-84491798D01*
X154545278Y-84577454D01*
G36*
X157545500Y-90663500D02*
X157565500Y-90663500D01*
X157565500Y-90917500D01*
X157545500Y-90917500D01*
X157545500Y-90937500D01*
X157291500Y-90937500D01*
X157291500Y-90917500D01*
X157271500Y-90917500D01*
X157271500Y-90663500D01*
X157291500Y-90663500D01*
X157291500Y-90643500D01*
X157545500Y-90643500D01*
X157545500Y-90663500D01*
X157545500Y-90663500D01*
G37*
X157545500Y-90663500D02*
X157565500Y-90663500D01*
X157565500Y-90917500D01*
X157545500Y-90917500D01*
X157545500Y-90937500D01*
X157291500Y-90937500D01*
X157291500Y-90917500D01*
X157271500Y-90917500D01*
X157271500Y-90663500D01*
X157291500Y-90663500D01*
X157291500Y-90643500D01*
X157545500Y-90643500D01*
X157545500Y-90663500D01*
M02*
