%TF.GenerationSoftware,KiCad,Pcbnew,(5.0.1)-4*%
%TF.CreationDate,2019-05-07T07:57:09+02:00*%
%TF.ProjectId,ESPesh,4553506573682E6B696361645F706362,rev?*%
%TF.SameCoordinates,Original*%
%TF.FileFunction,Soldermask,Top*%
%TF.FilePolarity,Negative*%
%FSLAX46Y46*%
G04 Gerber Fmt 4.6, Leading zero omitted, Abs format (unit mm)*
G04 Created by KiCad (PCBNEW (5.0.1)-4) date 07/05/2019 7:57:09*
%MOMM*%
%LPD*%
G01*
G04 APERTURE LIST*
%ADD10C,0.100000*%
G04 APERTURE END LIST*
D10*
G36*
X153344315Y-108104434D02*
X153349322Y-108104839D01*
X153349324Y-108104839D01*
X153355474Y-108105337D01*
X153465879Y-108125302D01*
X153471814Y-108126989D01*
X153471817Y-108126990D01*
X153476727Y-108128386D01*
X153487425Y-108131428D01*
X153591809Y-108172546D01*
X153611731Y-108182752D01*
X153706098Y-108243450D01*
X153723644Y-108257345D01*
X153804361Y-108335293D01*
X153808356Y-108339991D01*
X153809166Y-108340943D01*
X153818862Y-108352346D01*
X153882815Y-108444534D01*
X153893709Y-108464086D01*
X153938451Y-108566989D01*
X153945320Y-108588288D01*
X153969128Y-108697940D01*
X153971710Y-108720172D01*
X153972147Y-108745202D01*
X153972962Y-108757436D01*
X153975854Y-108782348D01*
X153986723Y-109404979D01*
X153985416Y-109421139D01*
X153982667Y-109430803D01*
X153978087Y-109439745D01*
X153971851Y-109447620D01*
X153965041Y-109453410D01*
X153964197Y-109454128D01*
X153955421Y-109459018D01*
X153946297Y-109461960D01*
X153945857Y-109462102D01*
X153929754Y-109463972D01*
X152672221Y-109485923D01*
X152656062Y-109484616D01*
X152646396Y-109481867D01*
X152637458Y-109477288D01*
X152637456Y-109477287D01*
X152633518Y-109474169D01*
X152629578Y-109471049D01*
X152623072Y-109463397D01*
X152620632Y-109459018D01*
X152618182Y-109454621D01*
X152615099Y-109445059D01*
X152615098Y-109445057D01*
X152613228Y-109428953D01*
X152602360Y-108806323D01*
X152604380Y-108781348D01*
X152604768Y-108769091D01*
X152604331Y-108744045D01*
X152606137Y-108721726D01*
X152626102Y-108611321D01*
X152632228Y-108589775D01*
X152673346Y-108485391D01*
X152683552Y-108465469D01*
X152744250Y-108371102D01*
X152758145Y-108353556D01*
X152836093Y-108272839D01*
X152853146Y-108258338D01*
X152945334Y-108194385D01*
X152964886Y-108183491D01*
X153067789Y-108138749D01*
X153073656Y-108136857D01*
X153073658Y-108136856D01*
X153078439Y-108135314D01*
X153089088Y-108131880D01*
X153198740Y-108108072D01*
X153220972Y-108105490D01*
X153333156Y-108103531D01*
X153344315Y-108104434D01*
X153344315Y-108104434D01*
G37*
G36*
X151601410Y-108001653D02*
X151712529Y-108017270D01*
X151734273Y-108022540D01*
X151840210Y-108059535D01*
X151860510Y-108068947D01*
X151957187Y-108125895D01*
X151962167Y-108129530D01*
X151962174Y-108129534D01*
X151970289Y-108135457D01*
X151970297Y-108135464D01*
X151975277Y-108139099D01*
X152058979Y-108213805D01*
X152074143Y-108230281D01*
X152141660Y-108319880D01*
X152144873Y-108325148D01*
X152144877Y-108325154D01*
X152149322Y-108332444D01*
X152153321Y-108339002D01*
X152202066Y-108440059D01*
X152209766Y-108461073D01*
X152237861Y-108569712D01*
X152241314Y-108591822D01*
X152247675Y-108703839D01*
X152246747Y-108726210D01*
X152243263Y-108750998D01*
X152242155Y-108763205D01*
X152241114Y-108788260D01*
X152154446Y-109404935D01*
X152151357Y-109417680D01*
X152150627Y-109420691D01*
X152146796Y-109428953D01*
X152146401Y-109429805D01*
X152140477Y-109437922D01*
X152133091Y-109444719D01*
X152133089Y-109444720D01*
X152133086Y-109444723D01*
X152124509Y-109449953D01*
X152124505Y-109449955D01*
X152124504Y-109449955D01*
X152115076Y-109453410D01*
X152105154Y-109454960D01*
X152105150Y-109454960D01*
X152103012Y-109454871D01*
X152088949Y-109454288D01*
X150843465Y-109279246D01*
X150830720Y-109276157D01*
X150827709Y-109275427D01*
X150818595Y-109271201D01*
X150810478Y-109265277D01*
X150803681Y-109257891D01*
X150803680Y-109257889D01*
X150803677Y-109257886D01*
X150798447Y-109249309D01*
X150794990Y-109239876D01*
X150793440Y-109229954D01*
X150794112Y-109213749D01*
X150880780Y-108597079D01*
X150886679Y-108572741D01*
X150888980Y-108560694D01*
X150892468Y-108535879D01*
X150897740Y-108514127D01*
X150934735Y-108408190D01*
X150944147Y-108387890D01*
X151001095Y-108291213D01*
X151004730Y-108286233D01*
X151004734Y-108286226D01*
X151010657Y-108278111D01*
X151010664Y-108278103D01*
X151014299Y-108273123D01*
X151089005Y-108189421D01*
X151105481Y-108174257D01*
X151195080Y-108106740D01*
X151200348Y-108103527D01*
X151200354Y-108103523D01*
X151208931Y-108098293D01*
X151208934Y-108098292D01*
X151214202Y-108095079D01*
X151315259Y-108046334D01*
X151336273Y-108038634D01*
X151444912Y-108010539D01*
X151467022Y-108007086D01*
X151579039Y-108000725D01*
X151601410Y-108001653D01*
X151601410Y-108001653D01*
G37*
G36*
X155086407Y-107954736D02*
X155108581Y-107957803D01*
X155217670Y-107983993D01*
X155223506Y-107986016D01*
X155223508Y-107986017D01*
X155233000Y-107989308D01*
X155233004Y-107989310D01*
X155238833Y-107991331D01*
X155340723Y-108038302D01*
X155346047Y-108041422D01*
X155346048Y-108041423D01*
X155354427Y-108046334D01*
X155360041Y-108049625D01*
X155450815Y-108115577D01*
X155467538Y-108130437D01*
X155543709Y-108212838D01*
X155557219Y-108230686D01*
X155615842Y-108326352D01*
X155625613Y-108346495D01*
X155664446Y-108451758D01*
X155666004Y-108457727D01*
X155666005Y-108457731D01*
X155666877Y-108461073D01*
X155670098Y-108473418D01*
X155674016Y-108498152D01*
X155676526Y-108510151D01*
X155682856Y-108534413D01*
X155780272Y-109149470D01*
X155781226Y-109165658D01*
X155779850Y-109175606D01*
X155779849Y-109175609D01*
X155776558Y-109185101D01*
X155771478Y-109193768D01*
X155764805Y-109201278D01*
X155758360Y-109206156D01*
X155756793Y-109207342D01*
X155747757Y-109211725D01*
X155732061Y-109215821D01*
X154489830Y-109412572D01*
X154473642Y-109413526D01*
X154463694Y-109412150D01*
X154463691Y-109412149D01*
X154454199Y-109408858D01*
X154454197Y-109408857D01*
X154445533Y-109403779D01*
X154444696Y-109403035D01*
X154438022Y-109397105D01*
X154431959Y-109389094D01*
X154431958Y-109389093D01*
X154427575Y-109380057D01*
X154423479Y-109364361D01*
X154326064Y-108749312D01*
X154324589Y-108724295D01*
X154323267Y-108712103D01*
X154319349Y-108687361D01*
X154318031Y-108665017D01*
X154322436Y-108552893D01*
X154325503Y-108530719D01*
X154351693Y-108421630D01*
X154359031Y-108400467D01*
X154406002Y-108298577D01*
X154417325Y-108279259D01*
X154483277Y-108188485D01*
X154498137Y-108171762D01*
X154580538Y-108095591D01*
X154598386Y-108082081D01*
X154694052Y-108023458D01*
X154704123Y-108018573D01*
X154708643Y-108016380D01*
X154708644Y-108016379D01*
X154714195Y-108013687D01*
X154819457Y-107974854D01*
X154825429Y-107973296D01*
X154825431Y-107973295D01*
X154835151Y-107970759D01*
X154841126Y-107969200D01*
X154951942Y-107951648D01*
X154974283Y-107950331D01*
X155086407Y-107954736D01*
X155086407Y-107954736D01*
G37*
G36*
X149960695Y-107665039D02*
X149966788Y-107666045D01*
X149966790Y-107666045D01*
X149976702Y-107667681D01*
X149976708Y-107667683D01*
X149982792Y-107668687D01*
X150091171Y-107697726D01*
X150112122Y-107705612D01*
X150212748Y-107755235D01*
X150231762Y-107767059D01*
X150320772Y-107835358D01*
X150337110Y-107850660D01*
X150411098Y-107935027D01*
X150424132Y-107953217D01*
X150480232Y-108050385D01*
X150489477Y-108070787D01*
X150525537Y-108177018D01*
X150530621Y-108198822D01*
X150545267Y-108310071D01*
X150545999Y-108332444D01*
X150538661Y-108444395D01*
X150537655Y-108450488D01*
X150537655Y-108450490D01*
X150536300Y-108458701D01*
X150535012Y-108466499D01*
X150528524Y-108490711D01*
X150525931Y-108502715D01*
X150524501Y-108511383D01*
X150524501Y-108511393D01*
X150522864Y-108521314D01*
X150522859Y-108521333D01*
X150521856Y-108527411D01*
X150360686Y-109128907D01*
X150358514Y-109134677D01*
X150354975Y-109144079D01*
X150349670Y-109152610D01*
X150342803Y-109159943D01*
X150334637Y-109165794D01*
X150330062Y-109167867D01*
X150325485Y-109169941D01*
X150315703Y-109172222D01*
X150305663Y-109172550D01*
X150305661Y-109172550D01*
X150295749Y-109170914D01*
X150295743Y-109170912D01*
X150289659Y-109169908D01*
X149074793Y-108844386D01*
X149059625Y-108838677D01*
X149059621Y-108838675D01*
X149051090Y-108833370D01*
X149043757Y-108826503D01*
X149037906Y-108818337D01*
X149035833Y-108813761D01*
X149033759Y-108809185D01*
X149031478Y-108799403D01*
X149031150Y-108789363D01*
X149031332Y-108788260D01*
X149032786Y-108779449D01*
X149032788Y-108779443D01*
X149033792Y-108773359D01*
X149194962Y-108171862D01*
X149203791Y-108148404D01*
X149207543Y-108136726D01*
X149214026Y-108112530D01*
X149221912Y-108091578D01*
X149271535Y-107990952D01*
X149283359Y-107971938D01*
X149351658Y-107882928D01*
X149366960Y-107866590D01*
X149451327Y-107792602D01*
X149469517Y-107779568D01*
X149566685Y-107723468D01*
X149587087Y-107714223D01*
X149693318Y-107678163D01*
X149715122Y-107673079D01*
X149826371Y-107658433D01*
X149832530Y-107658231D01*
X149832534Y-107658231D01*
X149839444Y-107658005D01*
X149848744Y-107657701D01*
X149960695Y-107665039D01*
X149960695Y-107665039D01*
G37*
G36*
X156813986Y-107566832D02*
X156835944Y-107571150D01*
X156943389Y-107603486D01*
X156964091Y-107612008D01*
X157063156Y-107664682D01*
X157081797Y-107677079D01*
X157168683Y-107748069D01*
X157184546Y-107763863D01*
X157255916Y-107850441D01*
X157268397Y-107869032D01*
X157321502Y-107967866D01*
X157330113Y-107988527D01*
X157337434Y-108012472D01*
X157341589Y-108024005D01*
X157351234Y-108047152D01*
X157533299Y-108642658D01*
X157534516Y-108648708D01*
X157534518Y-108648714D01*
X157536499Y-108658563D01*
X157536521Y-108668609D01*
X157534583Y-108678466D01*
X157531485Y-108685989D01*
X157530757Y-108687759D01*
X157525196Y-108696121D01*
X157518109Y-108703239D01*
X157513936Y-108706040D01*
X157509766Y-108708840D01*
X157509765Y-108708841D01*
X157509764Y-108708841D01*
X157494803Y-108715077D01*
X156292031Y-109082802D01*
X156276140Y-109085999D01*
X156266092Y-109086021D01*
X156266091Y-109086021D01*
X156256234Y-109084083D01*
X156248711Y-109080985D01*
X156246941Y-109080257D01*
X156238579Y-109074696D01*
X156231461Y-109067609D01*
X156225859Y-109059264D01*
X156219623Y-109044302D01*
X156037554Y-108448784D01*
X156032612Y-108424220D01*
X156029606Y-108412328D01*
X156022283Y-108388376D01*
X156021067Y-108382330D01*
X156021065Y-108382325D01*
X156019084Y-108372475D01*
X156017866Y-108366423D01*
X156006627Y-108254793D01*
X156006577Y-108232404D01*
X156017332Y-108120714D01*
X156021650Y-108098756D01*
X156053986Y-107991311D01*
X156062508Y-107970609D01*
X156115182Y-107871544D01*
X156127579Y-107852903D01*
X156198569Y-107766017D01*
X156214363Y-107750154D01*
X156300941Y-107678784D01*
X156319532Y-107666303D01*
X156418365Y-107613198D01*
X156439025Y-107604588D01*
X156546323Y-107571783D01*
X156552373Y-107570566D01*
X156552376Y-107570565D01*
X156562225Y-107568584D01*
X156562224Y-107568584D01*
X156568279Y-107567366D01*
X156679907Y-107556127D01*
X156686079Y-107556113D01*
X156686081Y-107556113D01*
X156690975Y-107556102D01*
X156702296Y-107556077D01*
X156813986Y-107566832D01*
X156813986Y-107566832D01*
G37*
G36*
X160301000Y-107119600D02*
X158799000Y-107119600D01*
X158799000Y-105117600D01*
X160301000Y-105117600D01*
X160301000Y-107119600D01*
X160301000Y-107119600D01*
G37*
G36*
X149601000Y-107119600D02*
X147999000Y-107119600D01*
X147999000Y-105117600D01*
X149601000Y-105117600D01*
X149601000Y-107119600D01*
X149601000Y-107119600D01*
G37*
G36*
X147318591Y-105421085D02*
X147352569Y-105431393D01*
X147383887Y-105448133D01*
X147411339Y-105470661D01*
X147433867Y-105498113D01*
X147450607Y-105529431D01*
X147460915Y-105563409D01*
X147465000Y-105604890D01*
X147465000Y-106206110D01*
X147460915Y-106247591D01*
X147450607Y-106281569D01*
X147433867Y-106312887D01*
X147411339Y-106340339D01*
X147383887Y-106362867D01*
X147352569Y-106379607D01*
X147318591Y-106389915D01*
X147277110Y-106394000D01*
X146600890Y-106394000D01*
X146559409Y-106389915D01*
X146525431Y-106379607D01*
X146494113Y-106362867D01*
X146466661Y-106340339D01*
X146444133Y-106312887D01*
X146427393Y-106281569D01*
X146417085Y-106247591D01*
X146413000Y-106206110D01*
X146413000Y-105604890D01*
X146417085Y-105563409D01*
X146427393Y-105529431D01*
X146444133Y-105498113D01*
X146466661Y-105470661D01*
X146494113Y-105448133D01*
X146525431Y-105431393D01*
X146559409Y-105421085D01*
X146600890Y-105417000D01*
X147277110Y-105417000D01*
X147318591Y-105421085D01*
X147318591Y-105421085D01*
G37*
G36*
X161749379Y-104537899D02*
X161859425Y-104559789D01*
X161880846Y-104566288D01*
X161984509Y-104609226D01*
X162004246Y-104619776D01*
X162097544Y-104682116D01*
X162114849Y-104696317D01*
X162132559Y-104714027D01*
X162141645Y-104722263D01*
X162161023Y-104738167D01*
X162601345Y-105178489D01*
X162611638Y-105191031D01*
X162616373Y-105199889D01*
X162619289Y-105209501D01*
X162620273Y-105219500D01*
X162619289Y-105229499D01*
X162616373Y-105239111D01*
X162611638Y-105247969D01*
X162601345Y-105260511D01*
X161712011Y-106149845D01*
X161699469Y-106160138D01*
X161690611Y-106164873D01*
X161680999Y-106167789D01*
X161671000Y-106168773D01*
X161661001Y-106167789D01*
X161651389Y-106164873D01*
X161642531Y-106160138D01*
X161629989Y-106149845D01*
X161189667Y-105709523D01*
X161173763Y-105690145D01*
X161165527Y-105681059D01*
X161147817Y-105663349D01*
X161133616Y-105646044D01*
X161071276Y-105552746D01*
X161060726Y-105533009D01*
X161017788Y-105429346D01*
X161011289Y-105407925D01*
X160989399Y-105297879D01*
X160987205Y-105275603D01*
X160987205Y-105163397D01*
X160989399Y-105141121D01*
X161011289Y-105031075D01*
X161017788Y-105009654D01*
X161060726Y-104905991D01*
X161071276Y-104886254D01*
X161133612Y-104792961D01*
X161147819Y-104775650D01*
X161227150Y-104696319D01*
X161244461Y-104682112D01*
X161337754Y-104619776D01*
X161357491Y-104609226D01*
X161461154Y-104566288D01*
X161482575Y-104559789D01*
X161592621Y-104537899D01*
X161614897Y-104535705D01*
X161727103Y-104535705D01*
X161749379Y-104537899D01*
X161749379Y-104537899D01*
G37*
G36*
X145667591Y-104735085D02*
X145701569Y-104745393D01*
X145732887Y-104762133D01*
X145760339Y-104784661D01*
X145782867Y-104812113D01*
X145799607Y-104843431D01*
X145809915Y-104877409D01*
X145814000Y-104918890D01*
X145814000Y-105520110D01*
X145809915Y-105561591D01*
X145799607Y-105595569D01*
X145782867Y-105626887D01*
X145760339Y-105654339D01*
X145732887Y-105676867D01*
X145701569Y-105693607D01*
X145667591Y-105703915D01*
X145626110Y-105708000D01*
X144949890Y-105708000D01*
X144908409Y-105703915D01*
X144874431Y-105693607D01*
X144843113Y-105676867D01*
X144815661Y-105654339D01*
X144793133Y-105626887D01*
X144776393Y-105595569D01*
X144766085Y-105561591D01*
X144762000Y-105520110D01*
X144762000Y-104918890D01*
X144766085Y-104877409D01*
X144776393Y-104843431D01*
X144793133Y-104812113D01*
X144815661Y-104784661D01*
X144843113Y-104762133D01*
X144874431Y-104745393D01*
X144908409Y-104735085D01*
X144949890Y-104731000D01*
X145626110Y-104731000D01*
X145667591Y-104735085D01*
X145667591Y-104735085D01*
G37*
G36*
X147318591Y-103846085D02*
X147352569Y-103856393D01*
X147383887Y-103873133D01*
X147411339Y-103895661D01*
X147433867Y-103923113D01*
X147450607Y-103954431D01*
X147460915Y-103988409D01*
X147465000Y-104029890D01*
X147465000Y-104631110D01*
X147460915Y-104672591D01*
X147450607Y-104706569D01*
X147433867Y-104737887D01*
X147411339Y-104765339D01*
X147383887Y-104787867D01*
X147352569Y-104804607D01*
X147318591Y-104814915D01*
X147277110Y-104819000D01*
X146600890Y-104819000D01*
X146559409Y-104814915D01*
X146525431Y-104804607D01*
X146494113Y-104787867D01*
X146466661Y-104765339D01*
X146444133Y-104737887D01*
X146427393Y-104706569D01*
X146417085Y-104672591D01*
X146413000Y-104631110D01*
X146413000Y-104029890D01*
X146417085Y-103988409D01*
X146427393Y-103954431D01*
X146444133Y-103923113D01*
X146466661Y-103895661D01*
X146494113Y-103873133D01*
X146525431Y-103856393D01*
X146559409Y-103846085D01*
X146600890Y-103842000D01*
X147277110Y-103842000D01*
X147318591Y-103846085D01*
X147318591Y-103846085D01*
G37*
G36*
X154901091Y-103618085D02*
X154935069Y-103628393D01*
X154966387Y-103645133D01*
X154993839Y-103667661D01*
X155016367Y-103695113D01*
X155033107Y-103726431D01*
X155043415Y-103760409D01*
X155047500Y-103801890D01*
X155047500Y-104478110D01*
X155043415Y-104519591D01*
X155033107Y-104553569D01*
X155016367Y-104584887D01*
X154993839Y-104612339D01*
X154966387Y-104634867D01*
X154935069Y-104651607D01*
X154901091Y-104661915D01*
X154859610Y-104666000D01*
X154258390Y-104666000D01*
X154216909Y-104661915D01*
X154182931Y-104651607D01*
X154151613Y-104634867D01*
X154124161Y-104612339D01*
X154101633Y-104584887D01*
X154084893Y-104553569D01*
X154074585Y-104519591D01*
X154070500Y-104478110D01*
X154070500Y-103801890D01*
X154074585Y-103760409D01*
X154084893Y-103726431D01*
X154101633Y-103695113D01*
X154124161Y-103667661D01*
X154151613Y-103645133D01*
X154182931Y-103628393D01*
X154216909Y-103618085D01*
X154258390Y-103614000D01*
X154859610Y-103614000D01*
X154901091Y-103618085D01*
X154901091Y-103618085D01*
G37*
G36*
X156476091Y-103618085D02*
X156510069Y-103628393D01*
X156541387Y-103645133D01*
X156568839Y-103667661D01*
X156591367Y-103695113D01*
X156608107Y-103726431D01*
X156618415Y-103760409D01*
X156622500Y-103801890D01*
X156622500Y-104478110D01*
X156618415Y-104519591D01*
X156608107Y-104553569D01*
X156591367Y-104584887D01*
X156568839Y-104612339D01*
X156541387Y-104634867D01*
X156510069Y-104651607D01*
X156476091Y-104661915D01*
X156434610Y-104666000D01*
X155833390Y-104666000D01*
X155791909Y-104661915D01*
X155757931Y-104651607D01*
X155726613Y-104634867D01*
X155699161Y-104612339D01*
X155676633Y-104584887D01*
X155659893Y-104553569D01*
X155649585Y-104519591D01*
X155645500Y-104478110D01*
X155645500Y-103801890D01*
X155649585Y-103760409D01*
X155659893Y-103726431D01*
X155676633Y-103695113D01*
X155699161Y-103667661D01*
X155726613Y-103645133D01*
X155757931Y-103628393D01*
X155791909Y-103618085D01*
X155833390Y-103614000D01*
X156434610Y-103614000D01*
X156476091Y-103618085D01*
X156476091Y-103618085D01*
G37*
G36*
X153414591Y-103655585D02*
X153448569Y-103665893D01*
X153479887Y-103682633D01*
X153507339Y-103705161D01*
X153529867Y-103732613D01*
X153546607Y-103763931D01*
X153556915Y-103797909D01*
X153561000Y-103839390D01*
X153561000Y-104440610D01*
X153556915Y-104482091D01*
X153546607Y-104516069D01*
X153529867Y-104547387D01*
X153507339Y-104574839D01*
X153479887Y-104597367D01*
X153448569Y-104614107D01*
X153414591Y-104624415D01*
X153373110Y-104628500D01*
X152696890Y-104628500D01*
X152655409Y-104624415D01*
X152621431Y-104614107D01*
X152590113Y-104597367D01*
X152562661Y-104574839D01*
X152540133Y-104547387D01*
X152523393Y-104516069D01*
X152513085Y-104482091D01*
X152509000Y-104440610D01*
X152509000Y-103839390D01*
X152513085Y-103797909D01*
X152523393Y-103763931D01*
X152540133Y-103732613D01*
X152562661Y-103705161D01*
X152590113Y-103682633D01*
X152621431Y-103665893D01*
X152655409Y-103655585D01*
X152696890Y-103651500D01*
X153373110Y-103651500D01*
X153414591Y-103655585D01*
X153414591Y-103655585D01*
G37*
G36*
X145667591Y-103160085D02*
X145701569Y-103170393D01*
X145732887Y-103187133D01*
X145760339Y-103209661D01*
X145782867Y-103237113D01*
X145799607Y-103268431D01*
X145809915Y-103302409D01*
X145814000Y-103343890D01*
X145814000Y-103945110D01*
X145809915Y-103986591D01*
X145799607Y-104020569D01*
X145782867Y-104051887D01*
X145760339Y-104079339D01*
X145732887Y-104101867D01*
X145701569Y-104118607D01*
X145667591Y-104128915D01*
X145626110Y-104133000D01*
X144949890Y-104133000D01*
X144908409Y-104128915D01*
X144874431Y-104118607D01*
X144843113Y-104101867D01*
X144815661Y-104079339D01*
X144793133Y-104051887D01*
X144776393Y-104020569D01*
X144766085Y-103986591D01*
X144762000Y-103945110D01*
X144762000Y-103343890D01*
X144766085Y-103302409D01*
X144776393Y-103268431D01*
X144793133Y-103237113D01*
X144815661Y-103209661D01*
X144843113Y-103187133D01*
X144874431Y-103170393D01*
X144908409Y-103160085D01*
X144949890Y-103156000D01*
X145626110Y-103156000D01*
X145667591Y-103160085D01*
X145667591Y-103160085D01*
G37*
G36*
X149601000Y-103569600D02*
X147999000Y-103569600D01*
X147999000Y-101567600D01*
X149601000Y-101567600D01*
X149601000Y-103569600D01*
X149601000Y-103569600D01*
G37*
G36*
X151851000Y-103569600D02*
X150249000Y-103569600D01*
X150249000Y-101567600D01*
X151851000Y-101567600D01*
X151851000Y-103569600D01*
X151851000Y-103569600D01*
G37*
G36*
X156476091Y-102094085D02*
X156510069Y-102104393D01*
X156541387Y-102121133D01*
X156568839Y-102143661D01*
X156591367Y-102171113D01*
X156608107Y-102202431D01*
X156618415Y-102236409D01*
X156622500Y-102277890D01*
X156622500Y-102954110D01*
X156618415Y-102995591D01*
X156608107Y-103029569D01*
X156591367Y-103060887D01*
X156568839Y-103088339D01*
X156541387Y-103110867D01*
X156510069Y-103127607D01*
X156476091Y-103137915D01*
X156434610Y-103142000D01*
X155833390Y-103142000D01*
X155791909Y-103137915D01*
X155757931Y-103127607D01*
X155726613Y-103110867D01*
X155699161Y-103088339D01*
X155676633Y-103060887D01*
X155659893Y-103029569D01*
X155649585Y-102995591D01*
X155645500Y-102954110D01*
X155645500Y-102277890D01*
X155649585Y-102236409D01*
X155659893Y-102202431D01*
X155676633Y-102171113D01*
X155699161Y-102143661D01*
X155726613Y-102121133D01*
X155757931Y-102104393D01*
X155791909Y-102094085D01*
X155833390Y-102090000D01*
X156434610Y-102090000D01*
X156476091Y-102094085D01*
X156476091Y-102094085D01*
G37*
G36*
X154901091Y-102094085D02*
X154935069Y-102104393D01*
X154966387Y-102121133D01*
X154993839Y-102143661D01*
X155016367Y-102171113D01*
X155033107Y-102202431D01*
X155043415Y-102236409D01*
X155047500Y-102277890D01*
X155047500Y-102954110D01*
X155043415Y-102995591D01*
X155033107Y-103029569D01*
X155016367Y-103060887D01*
X154993839Y-103088339D01*
X154966387Y-103110867D01*
X154935069Y-103127607D01*
X154901091Y-103137915D01*
X154859610Y-103142000D01*
X154258390Y-103142000D01*
X154216909Y-103137915D01*
X154182931Y-103127607D01*
X154151613Y-103110867D01*
X154124161Y-103088339D01*
X154101633Y-103060887D01*
X154084893Y-103029569D01*
X154074585Y-102995591D01*
X154070500Y-102954110D01*
X154070500Y-102277890D01*
X154074585Y-102236409D01*
X154084893Y-102202431D01*
X154101633Y-102171113D01*
X154124161Y-102143661D01*
X154151613Y-102121133D01*
X154182931Y-102104393D01*
X154216909Y-102094085D01*
X154258390Y-102090000D01*
X154859610Y-102090000D01*
X154901091Y-102094085D01*
X154901091Y-102094085D01*
G37*
G36*
X157949091Y-102094085D02*
X157983069Y-102104393D01*
X158014387Y-102121133D01*
X158041839Y-102143661D01*
X158064367Y-102171113D01*
X158081107Y-102202431D01*
X158091415Y-102236409D01*
X158095500Y-102277890D01*
X158095500Y-102954110D01*
X158091415Y-102995591D01*
X158081107Y-103029569D01*
X158064367Y-103060887D01*
X158041839Y-103088339D01*
X158014387Y-103110867D01*
X157983069Y-103127607D01*
X157949091Y-103137915D01*
X157907610Y-103142000D01*
X157306390Y-103142000D01*
X157264909Y-103137915D01*
X157230931Y-103127607D01*
X157199613Y-103110867D01*
X157172161Y-103088339D01*
X157149633Y-103060887D01*
X157132893Y-103029569D01*
X157122585Y-102995591D01*
X157118500Y-102954110D01*
X157118500Y-102277890D01*
X157122585Y-102236409D01*
X157132893Y-102202431D01*
X157149633Y-102171113D01*
X157172161Y-102143661D01*
X157199613Y-102121133D01*
X157230931Y-102104393D01*
X157264909Y-102094085D01*
X157306390Y-102090000D01*
X157907610Y-102090000D01*
X157949091Y-102094085D01*
X157949091Y-102094085D01*
G37*
G36*
X159524091Y-102094085D02*
X159558069Y-102104393D01*
X159589387Y-102121133D01*
X159616839Y-102143661D01*
X159639367Y-102171113D01*
X159656107Y-102202431D01*
X159666415Y-102236409D01*
X159670500Y-102277890D01*
X159670500Y-102954110D01*
X159666415Y-102995591D01*
X159656107Y-103029569D01*
X159639367Y-103060887D01*
X159616839Y-103088339D01*
X159589387Y-103110867D01*
X159558069Y-103127607D01*
X159524091Y-103137915D01*
X159482610Y-103142000D01*
X158881390Y-103142000D01*
X158839909Y-103137915D01*
X158805931Y-103127607D01*
X158774613Y-103110867D01*
X158747161Y-103088339D01*
X158724633Y-103060887D01*
X158707893Y-103029569D01*
X158697585Y-102995591D01*
X158693500Y-102954110D01*
X158693500Y-102277890D01*
X158697585Y-102236409D01*
X158707893Y-102202431D01*
X158724633Y-102171113D01*
X158747161Y-102143661D01*
X158774613Y-102121133D01*
X158805931Y-102104393D01*
X158839909Y-102094085D01*
X158881390Y-102090000D01*
X159482610Y-102090000D01*
X159524091Y-102094085D01*
X159524091Y-102094085D01*
G37*
G36*
X153414591Y-102080585D02*
X153448569Y-102090893D01*
X153479887Y-102107633D01*
X153507339Y-102130161D01*
X153529867Y-102157613D01*
X153546607Y-102188931D01*
X153556915Y-102222909D01*
X153561000Y-102264390D01*
X153561000Y-102865610D01*
X153556915Y-102907091D01*
X153546607Y-102941069D01*
X153529867Y-102972387D01*
X153507339Y-102999839D01*
X153479887Y-103022367D01*
X153448569Y-103039107D01*
X153414591Y-103049415D01*
X153373110Y-103053500D01*
X152696890Y-103053500D01*
X152655409Y-103049415D01*
X152621431Y-103039107D01*
X152590113Y-103022367D01*
X152562661Y-102999839D01*
X152540133Y-102972387D01*
X152523393Y-102941069D01*
X152513085Y-102907091D01*
X152509000Y-102865610D01*
X152509000Y-102264390D01*
X152513085Y-102222909D01*
X152523393Y-102188931D01*
X152540133Y-102157613D01*
X152562661Y-102130161D01*
X152590113Y-102107633D01*
X152621431Y-102090893D01*
X152655409Y-102080585D01*
X152696890Y-102076500D01*
X153373110Y-102076500D01*
X153414591Y-102080585D01*
X153414591Y-102080585D01*
G37*
G36*
X161342500Y-102989500D02*
X160180500Y-102989500D01*
X160180500Y-102237500D01*
X161342500Y-102237500D01*
X161342500Y-102989500D01*
X161342500Y-102989500D01*
G37*
G36*
X163542500Y-102989500D02*
X162380500Y-102989500D01*
X162380500Y-100337500D01*
X163542500Y-100337500D01*
X163542500Y-102989500D01*
X163542500Y-102989500D01*
G37*
G36*
X143018554Y-100600934D02*
X143040165Y-100612485D01*
X143063614Y-100619598D01*
X143088000Y-100622000D01*
X144186000Y-100622000D01*
X144210386Y-100619598D01*
X144233835Y-100612485D01*
X144255446Y-100600934D01*
X144260239Y-100597000D01*
X145063000Y-100597000D01*
X145063000Y-102349000D01*
X144260239Y-102349000D01*
X144255446Y-102345066D01*
X144233835Y-102333515D01*
X144210386Y-102326402D01*
X144186000Y-102324000D01*
X143088000Y-102324000D01*
X143063614Y-102326402D01*
X143040165Y-102333515D01*
X143018554Y-102345066D01*
X143013761Y-102349000D01*
X142211000Y-102349000D01*
X142211000Y-100597000D01*
X143013761Y-100597000D01*
X143018554Y-100600934D01*
X143018554Y-100600934D01*
G37*
G36*
X159524091Y-100062085D02*
X159558069Y-100072393D01*
X159589387Y-100089133D01*
X159616839Y-100111661D01*
X159639367Y-100139113D01*
X159656107Y-100170431D01*
X159666415Y-100204409D01*
X159670500Y-100245890D01*
X159670500Y-100922110D01*
X159666415Y-100963591D01*
X159656107Y-100997569D01*
X159639367Y-101028887D01*
X159616839Y-101056339D01*
X159589387Y-101078867D01*
X159558069Y-101095607D01*
X159524091Y-101105915D01*
X159482610Y-101110000D01*
X158881390Y-101110000D01*
X158839909Y-101105915D01*
X158805931Y-101095607D01*
X158774613Y-101078867D01*
X158747161Y-101056339D01*
X158724633Y-101028887D01*
X158707893Y-100997569D01*
X158697585Y-100963591D01*
X158693500Y-100922110D01*
X158693500Y-100245890D01*
X158697585Y-100204409D01*
X158707893Y-100170431D01*
X158724633Y-100139113D01*
X158747161Y-100111661D01*
X158774613Y-100089133D01*
X158805931Y-100072393D01*
X158839909Y-100062085D01*
X158881390Y-100058000D01*
X159482610Y-100058000D01*
X159524091Y-100062085D01*
X159524091Y-100062085D01*
G37*
G36*
X157949091Y-100062085D02*
X157983069Y-100072393D01*
X158014387Y-100089133D01*
X158041839Y-100111661D01*
X158064367Y-100139113D01*
X158081107Y-100170431D01*
X158091415Y-100204409D01*
X158095500Y-100245890D01*
X158095500Y-100922110D01*
X158091415Y-100963591D01*
X158081107Y-100997569D01*
X158064367Y-101028887D01*
X158041839Y-101056339D01*
X158014387Y-101078867D01*
X157983069Y-101095607D01*
X157949091Y-101105915D01*
X157907610Y-101110000D01*
X157306390Y-101110000D01*
X157264909Y-101105915D01*
X157230931Y-101095607D01*
X157199613Y-101078867D01*
X157172161Y-101056339D01*
X157149633Y-101028887D01*
X157132893Y-100997569D01*
X157122585Y-100963591D01*
X157118500Y-100922110D01*
X157118500Y-100245890D01*
X157122585Y-100204409D01*
X157132893Y-100170431D01*
X157149633Y-100139113D01*
X157172161Y-100111661D01*
X157199613Y-100089133D01*
X157230931Y-100072393D01*
X157264909Y-100062085D01*
X157306390Y-100058000D01*
X157907610Y-100058000D01*
X157949091Y-100062085D01*
X157949091Y-100062085D01*
G37*
G36*
X161342500Y-101089500D02*
X160180500Y-101089500D01*
X160180500Y-100337500D01*
X161342500Y-100337500D01*
X161342500Y-101089500D01*
X161342500Y-101089500D01*
G37*
G36*
X148845600Y-101013500D02*
X147743600Y-101013500D01*
X147743600Y-100311500D01*
X148845600Y-100311500D01*
X148845600Y-101013500D01*
X148845600Y-101013500D01*
G37*
G36*
X146845600Y-101013500D02*
X145743600Y-101013500D01*
X145743600Y-100311500D01*
X146845600Y-100311500D01*
X146845600Y-101013500D01*
X146845600Y-101013500D01*
G37*
G36*
X156049500Y-93698000D02*
X156051902Y-93722386D01*
X156059015Y-93745835D01*
X156070566Y-93767446D01*
X156086112Y-93786388D01*
X156105054Y-93801934D01*
X156126665Y-93813485D01*
X156150114Y-93820598D01*
X156174500Y-93823000D01*
X156699500Y-93823000D01*
X156699500Y-99725000D01*
X156174500Y-99725000D01*
X156150114Y-99727402D01*
X156126665Y-99734515D01*
X156105054Y-99746066D01*
X156086112Y-99761612D01*
X156070566Y-99780554D01*
X156059015Y-99802165D01*
X156051902Y-99825614D01*
X156049500Y-99850000D01*
X156049500Y-100375000D01*
X150147500Y-100375000D01*
X150147500Y-99850000D01*
X150145098Y-99825614D01*
X150137985Y-99802165D01*
X150126434Y-99780554D01*
X150110888Y-99761612D01*
X150091946Y-99746066D01*
X150070335Y-99734515D01*
X150046886Y-99727402D01*
X150022500Y-99725000D01*
X149497500Y-99725000D01*
X149497500Y-93823000D01*
X150022500Y-93823000D01*
X150046886Y-93820598D01*
X150070335Y-93813485D01*
X150091946Y-93801934D01*
X150110888Y-93786388D01*
X150126434Y-93767446D01*
X150137985Y-93745835D01*
X150145098Y-93722386D01*
X150147500Y-93698000D01*
X150147500Y-93173000D01*
X156049500Y-93173000D01*
X156049500Y-93698000D01*
X156049500Y-93698000D01*
G37*
G36*
X144905591Y-98956585D02*
X144939569Y-98966893D01*
X144970887Y-98983633D01*
X144998339Y-99006161D01*
X145020867Y-99033613D01*
X145037607Y-99064931D01*
X145047915Y-99098909D01*
X145052000Y-99140390D01*
X145052000Y-99741610D01*
X145047915Y-99783091D01*
X145037607Y-99817069D01*
X145020867Y-99848387D01*
X144998339Y-99875839D01*
X144970887Y-99898367D01*
X144939569Y-99915107D01*
X144905591Y-99925415D01*
X144864110Y-99929500D01*
X144187890Y-99929500D01*
X144146409Y-99925415D01*
X144112431Y-99915107D01*
X144081113Y-99898367D01*
X144053661Y-99875839D01*
X144031133Y-99848387D01*
X144014393Y-99817069D01*
X144004085Y-99783091D01*
X144000000Y-99741610D01*
X144000000Y-99140390D01*
X144004085Y-99098909D01*
X144014393Y-99064931D01*
X144031133Y-99033613D01*
X144053661Y-99006161D01*
X144081113Y-98983633D01*
X144112431Y-98966893D01*
X144146409Y-98956585D01*
X144187890Y-98952500D01*
X144864110Y-98952500D01*
X144905591Y-98956585D01*
X144905591Y-98956585D01*
G37*
G36*
X146845600Y-99713500D02*
X145743600Y-99713500D01*
X145743600Y-99011500D01*
X146845600Y-99011500D01*
X146845600Y-99713500D01*
X146845600Y-99713500D01*
G37*
G36*
X148845600Y-99713500D02*
X147743600Y-99713500D01*
X147743600Y-99011500D01*
X148845600Y-99011500D01*
X148845600Y-99713500D01*
X148845600Y-99713500D01*
G37*
G36*
X164680091Y-98538085D02*
X164714069Y-98548393D01*
X164745387Y-98565133D01*
X164772839Y-98587661D01*
X164795367Y-98615113D01*
X164812107Y-98646431D01*
X164822415Y-98680409D01*
X164826500Y-98721890D01*
X164826500Y-99398110D01*
X164822415Y-99439591D01*
X164812107Y-99473569D01*
X164795367Y-99504887D01*
X164772839Y-99532339D01*
X164745387Y-99554867D01*
X164714069Y-99571607D01*
X164680091Y-99581915D01*
X164638610Y-99586000D01*
X164037390Y-99586000D01*
X163995909Y-99581915D01*
X163961931Y-99571607D01*
X163930613Y-99554867D01*
X163903161Y-99532339D01*
X163880633Y-99504887D01*
X163863893Y-99473569D01*
X163853585Y-99439591D01*
X163849500Y-99398110D01*
X163849500Y-98721890D01*
X163853585Y-98680409D01*
X163863893Y-98646431D01*
X163880633Y-98615113D01*
X163903161Y-98587661D01*
X163930613Y-98565133D01*
X163961931Y-98548393D01*
X163995909Y-98538085D01*
X164037390Y-98534000D01*
X164638610Y-98534000D01*
X164680091Y-98538085D01*
X164680091Y-98538085D01*
G37*
G36*
X163105091Y-98538085D02*
X163139069Y-98548393D01*
X163170387Y-98565133D01*
X163197839Y-98587661D01*
X163220367Y-98615113D01*
X163237107Y-98646431D01*
X163247415Y-98680409D01*
X163251500Y-98721890D01*
X163251500Y-99398110D01*
X163247415Y-99439591D01*
X163237107Y-99473569D01*
X163220367Y-99504887D01*
X163197839Y-99532339D01*
X163170387Y-99554867D01*
X163139069Y-99571607D01*
X163105091Y-99581915D01*
X163063610Y-99586000D01*
X162462390Y-99586000D01*
X162420909Y-99581915D01*
X162386931Y-99571607D01*
X162355613Y-99554867D01*
X162328161Y-99532339D01*
X162305633Y-99504887D01*
X162288893Y-99473569D01*
X162278585Y-99439591D01*
X162274500Y-99398110D01*
X162274500Y-98721890D01*
X162278585Y-98680409D01*
X162288893Y-98646431D01*
X162305633Y-98615113D01*
X162328161Y-98587661D01*
X162355613Y-98565133D01*
X162386931Y-98548393D01*
X162420909Y-98538085D01*
X162462390Y-98534000D01*
X163063610Y-98534000D01*
X163105091Y-98538085D01*
X163105091Y-98538085D01*
G37*
G36*
X141832591Y-98347585D02*
X141866569Y-98357893D01*
X141897887Y-98374633D01*
X141925339Y-98397161D01*
X141947867Y-98424613D01*
X141964607Y-98455931D01*
X141974915Y-98489909D01*
X141979000Y-98531390D01*
X141979000Y-99207610D01*
X141974915Y-99249091D01*
X141964607Y-99283069D01*
X141947867Y-99314387D01*
X141925339Y-99341839D01*
X141897887Y-99364367D01*
X141866569Y-99381107D01*
X141832591Y-99391415D01*
X141791110Y-99395500D01*
X141189890Y-99395500D01*
X141148409Y-99391415D01*
X141114431Y-99381107D01*
X141083113Y-99364367D01*
X141055661Y-99341839D01*
X141033133Y-99314387D01*
X141016393Y-99283069D01*
X141006085Y-99249091D01*
X141002000Y-99207610D01*
X141002000Y-98531390D01*
X141006085Y-98489909D01*
X141016393Y-98455931D01*
X141033133Y-98424613D01*
X141055661Y-98397161D01*
X141083113Y-98374633D01*
X141114431Y-98357893D01*
X141148409Y-98347585D01*
X141189890Y-98343500D01*
X141791110Y-98343500D01*
X141832591Y-98347585D01*
X141832591Y-98347585D01*
G37*
G36*
X143407591Y-98347585D02*
X143441569Y-98357893D01*
X143472887Y-98374633D01*
X143500339Y-98397161D01*
X143522867Y-98424613D01*
X143539607Y-98455931D01*
X143549915Y-98489909D01*
X143554000Y-98531390D01*
X143554000Y-99207610D01*
X143549915Y-99249091D01*
X143539607Y-99283069D01*
X143522867Y-99314387D01*
X143500339Y-99341839D01*
X143472887Y-99364367D01*
X143441569Y-99381107D01*
X143407591Y-99391415D01*
X143366110Y-99395500D01*
X142764890Y-99395500D01*
X142723409Y-99391415D01*
X142689431Y-99381107D01*
X142658113Y-99364367D01*
X142630661Y-99341839D01*
X142608133Y-99314387D01*
X142591393Y-99283069D01*
X142581085Y-99249091D01*
X142577000Y-99207610D01*
X142577000Y-98531390D01*
X142581085Y-98489909D01*
X142591393Y-98455931D01*
X142608133Y-98424613D01*
X142630661Y-98397161D01*
X142658113Y-98374633D01*
X142689431Y-98357893D01*
X142723409Y-98347585D01*
X142764890Y-98343500D01*
X143366110Y-98343500D01*
X143407591Y-98347585D01*
X143407591Y-98347585D01*
G37*
G36*
X158363000Y-99203000D02*
X157361000Y-99203000D01*
X157361000Y-97901000D01*
X158363000Y-97901000D01*
X158363000Y-99203000D01*
X158363000Y-99203000D01*
G37*
G36*
X161663000Y-99203000D02*
X160661000Y-99203000D01*
X160661000Y-97901000D01*
X161663000Y-97901000D01*
X161663000Y-99203000D01*
X161663000Y-99203000D01*
G37*
G36*
X144905591Y-97381585D02*
X144939569Y-97391893D01*
X144970887Y-97408633D01*
X144998339Y-97431161D01*
X145020867Y-97458613D01*
X145037607Y-97489931D01*
X145047915Y-97523909D01*
X145052000Y-97565390D01*
X145052000Y-98166610D01*
X145047915Y-98208091D01*
X145037607Y-98242069D01*
X145020867Y-98273387D01*
X144998339Y-98300839D01*
X144970887Y-98323367D01*
X144939569Y-98340107D01*
X144905591Y-98350415D01*
X144864110Y-98354500D01*
X144187890Y-98354500D01*
X144146409Y-98350415D01*
X144112431Y-98340107D01*
X144081113Y-98323367D01*
X144053661Y-98300839D01*
X144031133Y-98273387D01*
X144014393Y-98242069D01*
X144004085Y-98208091D01*
X144000000Y-98166610D01*
X144000000Y-97565390D01*
X144004085Y-97523909D01*
X144014393Y-97489931D01*
X144031133Y-97458613D01*
X144053661Y-97431161D01*
X144081113Y-97408633D01*
X144112431Y-97391893D01*
X144146409Y-97381585D01*
X144187890Y-97377500D01*
X144864110Y-97377500D01*
X144905591Y-97381585D01*
X144905591Y-97381585D01*
G37*
G36*
X164827642Y-95928742D02*
X164975602Y-95990030D01*
X164992826Y-96001539D01*
X165108757Y-96079001D01*
X165221999Y-96192243D01*
X165243886Y-96225000D01*
X165309368Y-96323000D01*
X165310971Y-96325400D01*
X165316795Y-96339461D01*
X165372258Y-96473358D01*
X165403500Y-96630425D01*
X165403500Y-96790575D01*
X165372258Y-96947642D01*
X165310970Y-97095602D01*
X165221998Y-97228758D01*
X165108758Y-97341998D01*
X164975602Y-97430970D01*
X164827642Y-97492258D01*
X164670575Y-97523500D01*
X164510425Y-97523500D01*
X164353358Y-97492258D01*
X164205398Y-97430970D01*
X164072242Y-97341998D01*
X163959002Y-97228758D01*
X163870030Y-97095602D01*
X163808742Y-96947642D01*
X163777500Y-96790575D01*
X163777500Y-96630425D01*
X163808742Y-96473358D01*
X163864205Y-96339461D01*
X163870029Y-96325400D01*
X163871633Y-96323000D01*
X163937114Y-96225000D01*
X163959001Y-96192243D01*
X164072243Y-96079001D01*
X164188174Y-96001539D01*
X164205398Y-95990030D01*
X164353358Y-95928742D01*
X164510425Y-95897500D01*
X164670575Y-95897500D01*
X164827642Y-95928742D01*
X164827642Y-95928742D01*
G37*
G36*
X141827642Y-95928742D02*
X141975602Y-95990030D01*
X141992826Y-96001539D01*
X142108757Y-96079001D01*
X142221999Y-96192243D01*
X142243886Y-96225000D01*
X142309368Y-96323000D01*
X142310971Y-96325400D01*
X142316795Y-96339461D01*
X142372258Y-96473358D01*
X142403500Y-96630425D01*
X142403500Y-96790575D01*
X142372258Y-96947642D01*
X142310970Y-97095602D01*
X142221998Y-97228758D01*
X142108758Y-97341998D01*
X141975602Y-97430970D01*
X141827642Y-97492258D01*
X141670575Y-97523500D01*
X141510425Y-97523500D01*
X141353358Y-97492258D01*
X141205398Y-97430970D01*
X141072242Y-97341998D01*
X140959002Y-97228758D01*
X140870030Y-97095602D01*
X140808742Y-96947642D01*
X140777500Y-96790575D01*
X140777500Y-96630425D01*
X140808742Y-96473358D01*
X140864205Y-96339461D01*
X140870029Y-96325400D01*
X140871633Y-96323000D01*
X140937114Y-96225000D01*
X140959001Y-96192243D01*
X141072243Y-96079001D01*
X141188174Y-96001539D01*
X141205398Y-95990030D01*
X141353358Y-95928742D01*
X141510425Y-95897500D01*
X141670575Y-95897500D01*
X141827642Y-95928742D01*
X141827642Y-95928742D01*
G37*
G36*
X159430500Y-97121500D02*
X158328500Y-97121500D01*
X158328500Y-95619500D01*
X159430500Y-95619500D01*
X159430500Y-97121500D01*
X159430500Y-97121500D01*
G37*
G36*
X161796591Y-95934085D02*
X161830569Y-95944393D01*
X161861887Y-95961133D01*
X161889339Y-95983661D01*
X161911867Y-96011113D01*
X161928607Y-96042431D01*
X161938915Y-96076409D01*
X161943000Y-96117890D01*
X161943000Y-96719110D01*
X161938915Y-96760591D01*
X161928607Y-96794569D01*
X161911867Y-96825887D01*
X161889339Y-96853339D01*
X161861887Y-96875867D01*
X161830569Y-96892607D01*
X161796591Y-96902915D01*
X161755110Y-96907000D01*
X161078890Y-96907000D01*
X161037409Y-96902915D01*
X161003431Y-96892607D01*
X160972113Y-96875867D01*
X160944661Y-96853339D01*
X160922133Y-96825887D01*
X160905393Y-96794569D01*
X160895085Y-96760591D01*
X160891000Y-96719110D01*
X160891000Y-96117890D01*
X160895085Y-96076409D01*
X160905393Y-96042431D01*
X160922133Y-96011113D01*
X160944661Y-95983661D01*
X160972113Y-95961133D01*
X161003431Y-95944393D01*
X161037409Y-95934085D01*
X161078890Y-95930000D01*
X161755110Y-95930000D01*
X161796591Y-95934085D01*
X161796591Y-95934085D01*
G37*
G36*
X163320591Y-95908585D02*
X163354569Y-95918893D01*
X163385887Y-95935633D01*
X163413339Y-95958161D01*
X163435867Y-95985613D01*
X163452607Y-96016931D01*
X163462915Y-96050909D01*
X163467000Y-96092390D01*
X163467000Y-96693610D01*
X163462915Y-96735091D01*
X163452607Y-96769069D01*
X163435867Y-96800387D01*
X163413339Y-96827839D01*
X163385887Y-96850367D01*
X163354569Y-96867107D01*
X163320591Y-96877415D01*
X163279110Y-96881500D01*
X162602890Y-96881500D01*
X162561409Y-96877415D01*
X162527431Y-96867107D01*
X162496113Y-96850367D01*
X162468661Y-96827839D01*
X162446133Y-96800387D01*
X162429393Y-96769069D01*
X162419085Y-96735091D01*
X162415000Y-96693610D01*
X162415000Y-96092390D01*
X162419085Y-96050909D01*
X162429393Y-96016931D01*
X162446133Y-95985613D01*
X162468661Y-95958161D01*
X162496113Y-95935633D01*
X162527431Y-95918893D01*
X162561409Y-95908585D01*
X162602890Y-95904500D01*
X163279110Y-95904500D01*
X163320591Y-95908585D01*
X163320591Y-95908585D01*
G37*
G36*
X143471091Y-95363085D02*
X143505069Y-95373393D01*
X143536387Y-95390133D01*
X143563839Y-95412661D01*
X143586367Y-95440113D01*
X143603107Y-95471431D01*
X143613415Y-95505409D01*
X143617500Y-95546890D01*
X143617500Y-96223110D01*
X143613415Y-96264591D01*
X143603107Y-96298569D01*
X143586367Y-96329887D01*
X143563839Y-96357339D01*
X143536387Y-96379867D01*
X143505069Y-96396607D01*
X143471091Y-96406915D01*
X143429610Y-96411000D01*
X142828390Y-96411000D01*
X142786909Y-96406915D01*
X142752931Y-96396607D01*
X142721613Y-96379867D01*
X142694161Y-96357339D01*
X142671633Y-96329887D01*
X142654893Y-96298569D01*
X142644585Y-96264591D01*
X142640500Y-96223110D01*
X142640500Y-95546890D01*
X142644585Y-95505409D01*
X142654893Y-95471431D01*
X142671633Y-95440113D01*
X142694161Y-95412661D01*
X142721613Y-95390133D01*
X142752931Y-95373393D01*
X142786909Y-95363085D01*
X142828390Y-95359000D01*
X143429610Y-95359000D01*
X143471091Y-95363085D01*
X143471091Y-95363085D01*
G37*
G36*
X145046091Y-95363085D02*
X145080069Y-95373393D01*
X145111387Y-95390133D01*
X145138839Y-95412661D01*
X145161367Y-95440113D01*
X145178107Y-95471431D01*
X145188415Y-95505409D01*
X145192500Y-95546890D01*
X145192500Y-96223110D01*
X145188415Y-96264591D01*
X145178107Y-96298569D01*
X145161367Y-96329887D01*
X145138839Y-96357339D01*
X145111387Y-96379867D01*
X145080069Y-96396607D01*
X145046091Y-96406915D01*
X145004610Y-96411000D01*
X144403390Y-96411000D01*
X144361909Y-96406915D01*
X144327931Y-96396607D01*
X144296613Y-96379867D01*
X144269161Y-96357339D01*
X144246633Y-96329887D01*
X144229893Y-96298569D01*
X144219585Y-96264591D01*
X144215500Y-96223110D01*
X144215500Y-95546890D01*
X144219585Y-95505409D01*
X144229893Y-95471431D01*
X144246633Y-95440113D01*
X144269161Y-95412661D01*
X144296613Y-95390133D01*
X144327931Y-95373393D01*
X144361909Y-95363085D01*
X144403390Y-95359000D01*
X145004610Y-95359000D01*
X145046091Y-95363085D01*
X145046091Y-95363085D01*
G37*
G36*
X146621000Y-93562000D02*
X146623402Y-93586386D01*
X146630515Y-93609835D01*
X146642066Y-93631446D01*
X146657612Y-93650388D01*
X146676554Y-93665934D01*
X146698165Y-93677485D01*
X146721614Y-93684598D01*
X146746000Y-93687000D01*
X146944000Y-93687000D01*
X146968386Y-93684598D01*
X146991835Y-93677485D01*
X147013446Y-93665934D01*
X147032388Y-93650388D01*
X147047934Y-93631446D01*
X147059485Y-93609835D01*
X147066598Y-93586386D01*
X147069000Y-93562000D01*
X147069000Y-92737000D01*
X147571000Y-92737000D01*
X147571000Y-93562000D01*
X147573402Y-93586386D01*
X147580515Y-93609835D01*
X147592066Y-93631446D01*
X147607612Y-93650388D01*
X147626554Y-93665934D01*
X147648165Y-93677485D01*
X147671614Y-93684598D01*
X147696000Y-93687000D01*
X147894000Y-93687000D01*
X147918386Y-93684598D01*
X147941835Y-93677485D01*
X147963446Y-93665934D01*
X147982388Y-93650388D01*
X147997934Y-93631446D01*
X148009485Y-93609835D01*
X148016598Y-93586386D01*
X148019000Y-93562000D01*
X148019000Y-92737000D01*
X148521000Y-92737000D01*
X148521000Y-93562000D01*
X148523402Y-93586386D01*
X148530515Y-93609835D01*
X148542066Y-93631446D01*
X148557612Y-93650388D01*
X148571000Y-93661376D01*
X148571000Y-95314624D01*
X148557612Y-95325612D01*
X148542066Y-95344554D01*
X148530515Y-95366165D01*
X148523402Y-95389614D01*
X148521000Y-95414000D01*
X148521000Y-96239000D01*
X148019000Y-96239000D01*
X148019000Y-95414000D01*
X148016598Y-95389614D01*
X148009485Y-95366165D01*
X147997934Y-95344554D01*
X147982388Y-95325612D01*
X147963446Y-95310066D01*
X147941835Y-95298515D01*
X147918386Y-95291402D01*
X147894000Y-95289000D01*
X147696000Y-95289000D01*
X147671614Y-95291402D01*
X147648165Y-95298515D01*
X147626554Y-95310066D01*
X147607612Y-95325612D01*
X147592066Y-95344554D01*
X147580515Y-95366165D01*
X147573402Y-95389614D01*
X147571000Y-95414000D01*
X147571000Y-96239000D01*
X147069000Y-96239000D01*
X147069000Y-95414000D01*
X147066598Y-95389614D01*
X147059485Y-95366165D01*
X147047934Y-95344554D01*
X147032388Y-95325612D01*
X147013446Y-95310066D01*
X146991835Y-95298515D01*
X146968386Y-95291402D01*
X146944000Y-95289000D01*
X146746000Y-95289000D01*
X146721614Y-95291402D01*
X146698165Y-95298515D01*
X146676554Y-95310066D01*
X146657612Y-95325612D01*
X146642066Y-95344554D01*
X146630515Y-95366165D01*
X146623402Y-95389614D01*
X146621000Y-95414000D01*
X146621000Y-96239000D01*
X146119000Y-96239000D01*
X146119000Y-95414000D01*
X146116598Y-95389614D01*
X146109485Y-95366165D01*
X146097934Y-95344554D01*
X146082388Y-95325612D01*
X146069000Y-95314624D01*
X146069000Y-93661376D01*
X146082388Y-93650388D01*
X146097934Y-93631446D01*
X146109485Y-93609835D01*
X146116598Y-93586386D01*
X146119000Y-93562000D01*
X146119000Y-92737000D01*
X146621000Y-92737000D01*
X146621000Y-93562000D01*
X146621000Y-93562000D01*
G37*
G36*
X161796591Y-94359085D02*
X161830569Y-94369393D01*
X161861887Y-94386133D01*
X161889339Y-94408661D01*
X161911867Y-94436113D01*
X161928607Y-94467431D01*
X161938915Y-94501409D01*
X161943000Y-94542890D01*
X161943000Y-95144110D01*
X161938915Y-95185591D01*
X161928607Y-95219569D01*
X161911867Y-95250887D01*
X161889339Y-95278339D01*
X161861887Y-95300867D01*
X161830569Y-95317607D01*
X161796591Y-95327915D01*
X161755110Y-95332000D01*
X161078890Y-95332000D01*
X161037409Y-95327915D01*
X161003431Y-95317607D01*
X160972113Y-95300867D01*
X160944661Y-95278339D01*
X160922133Y-95250887D01*
X160905393Y-95219569D01*
X160895085Y-95185591D01*
X160891000Y-95144110D01*
X160891000Y-94542890D01*
X160895085Y-94501409D01*
X160905393Y-94467431D01*
X160922133Y-94436113D01*
X160944661Y-94408661D01*
X160972113Y-94386133D01*
X161003431Y-94369393D01*
X161037409Y-94359085D01*
X161078890Y-94355000D01*
X161755110Y-94355000D01*
X161796591Y-94359085D01*
X161796591Y-94359085D01*
G37*
G36*
X163320591Y-94333585D02*
X163354569Y-94343893D01*
X163385887Y-94360633D01*
X163413339Y-94383161D01*
X163435867Y-94410613D01*
X163452607Y-94441931D01*
X163462915Y-94475909D01*
X163467000Y-94517390D01*
X163467000Y-95118610D01*
X163462915Y-95160091D01*
X163452607Y-95194069D01*
X163435867Y-95225387D01*
X163413339Y-95252839D01*
X163385887Y-95275367D01*
X163354569Y-95292107D01*
X163320591Y-95302415D01*
X163279110Y-95306500D01*
X162602890Y-95306500D01*
X162561409Y-95302415D01*
X162527431Y-95292107D01*
X162496113Y-95275367D01*
X162468661Y-95252839D01*
X162446133Y-95225387D01*
X162429393Y-95194069D01*
X162419085Y-95160091D01*
X162415000Y-95118610D01*
X162415000Y-94517390D01*
X162419085Y-94475909D01*
X162429393Y-94441931D01*
X162446133Y-94410613D01*
X162468661Y-94383161D01*
X162496113Y-94360633D01*
X162527431Y-94343893D01*
X162561409Y-94333585D01*
X162602890Y-94329500D01*
X163279110Y-94329500D01*
X163320591Y-94333585D01*
X163320591Y-94333585D01*
G37*
G36*
X158480500Y-94921500D02*
X157378500Y-94921500D01*
X157378500Y-93419500D01*
X158480500Y-93419500D01*
X158480500Y-94921500D01*
X158480500Y-94921500D01*
G37*
G36*
X160380500Y-94921500D02*
X159278500Y-94921500D01*
X159278500Y-93419500D01*
X160380500Y-93419500D01*
X160380500Y-94921500D01*
X160380500Y-94921500D01*
G37*
G36*
X143471091Y-93839085D02*
X143505069Y-93849393D01*
X143536387Y-93866133D01*
X143563839Y-93888661D01*
X143586367Y-93916113D01*
X143603107Y-93947431D01*
X143613415Y-93981409D01*
X143617500Y-94022890D01*
X143617500Y-94699110D01*
X143613415Y-94740591D01*
X143603107Y-94774569D01*
X143586367Y-94805887D01*
X143563839Y-94833339D01*
X143536387Y-94855867D01*
X143505069Y-94872607D01*
X143471091Y-94882915D01*
X143429610Y-94887000D01*
X142828390Y-94887000D01*
X142786909Y-94882915D01*
X142752931Y-94872607D01*
X142721613Y-94855867D01*
X142694161Y-94833339D01*
X142671633Y-94805887D01*
X142654893Y-94774569D01*
X142644585Y-94740591D01*
X142640500Y-94699110D01*
X142640500Y-94022890D01*
X142644585Y-93981409D01*
X142654893Y-93947431D01*
X142671633Y-93916113D01*
X142694161Y-93888661D01*
X142721613Y-93866133D01*
X142752931Y-93849393D01*
X142786909Y-93839085D01*
X142828390Y-93835000D01*
X143429610Y-93835000D01*
X143471091Y-93839085D01*
X143471091Y-93839085D01*
G37*
G36*
X145046091Y-93839085D02*
X145080069Y-93849393D01*
X145111387Y-93866133D01*
X145138839Y-93888661D01*
X145161367Y-93916113D01*
X145178107Y-93947431D01*
X145188415Y-93981409D01*
X145192500Y-94022890D01*
X145192500Y-94699110D01*
X145188415Y-94740591D01*
X145178107Y-94774569D01*
X145161367Y-94805887D01*
X145138839Y-94833339D01*
X145111387Y-94855867D01*
X145080069Y-94872607D01*
X145046091Y-94882915D01*
X145004610Y-94887000D01*
X144403390Y-94887000D01*
X144361909Y-94882915D01*
X144327931Y-94872607D01*
X144296613Y-94855867D01*
X144269161Y-94833339D01*
X144246633Y-94805887D01*
X144229893Y-94774569D01*
X144219585Y-94740591D01*
X144215500Y-94699110D01*
X144215500Y-94022890D01*
X144219585Y-93981409D01*
X144229893Y-93947431D01*
X144246633Y-93916113D01*
X144269161Y-93888661D01*
X144296613Y-93866133D01*
X144327931Y-93849393D01*
X144361909Y-93839085D01*
X144403390Y-93835000D01*
X145004610Y-93835000D01*
X145046091Y-93839085D01*
X145046091Y-93839085D01*
G37*
G36*
X163539311Y-92482105D02*
X163578367Y-92493953D01*
X163614363Y-92513193D01*
X163645914Y-92539086D01*
X163671807Y-92570637D01*
X163691047Y-92606633D01*
X163702895Y-92645689D01*
X163707500Y-92692449D01*
X163707500Y-93489551D01*
X163702895Y-93536311D01*
X163691047Y-93575367D01*
X163671807Y-93611363D01*
X163645914Y-93642914D01*
X163614363Y-93668807D01*
X163578367Y-93688047D01*
X163539311Y-93699895D01*
X163492551Y-93704500D01*
X162770449Y-93704500D01*
X162723689Y-93699895D01*
X162684633Y-93688047D01*
X162648637Y-93668807D01*
X162617086Y-93642914D01*
X162591193Y-93611363D01*
X162571953Y-93575367D01*
X162560105Y-93536311D01*
X162555500Y-93489551D01*
X162555500Y-92692449D01*
X162560105Y-92645689D01*
X162571953Y-92606633D01*
X162591193Y-92570637D01*
X162617086Y-92539086D01*
X162648637Y-92513193D01*
X162684633Y-92493953D01*
X162723689Y-92482105D01*
X162770449Y-92477500D01*
X163492551Y-92477500D01*
X163539311Y-92482105D01*
X163539311Y-92482105D01*
G37*
G36*
X143508591Y-92352585D02*
X143542569Y-92362893D01*
X143573887Y-92379633D01*
X143601339Y-92402161D01*
X143623867Y-92429613D01*
X143640607Y-92460931D01*
X143650915Y-92494909D01*
X143655000Y-92536390D01*
X143655000Y-93137610D01*
X143650915Y-93179091D01*
X143640607Y-93213069D01*
X143623867Y-93244387D01*
X143601339Y-93271839D01*
X143573887Y-93294367D01*
X143542569Y-93311107D01*
X143508591Y-93321415D01*
X143467110Y-93325500D01*
X142790890Y-93325500D01*
X142749409Y-93321415D01*
X142715431Y-93311107D01*
X142684113Y-93294367D01*
X142656661Y-93271839D01*
X142634133Y-93244387D01*
X142617393Y-93213069D01*
X142607085Y-93179091D01*
X142603000Y-93137610D01*
X142603000Y-92536390D01*
X142607085Y-92494909D01*
X142617393Y-92460931D01*
X142634133Y-92429613D01*
X142656661Y-92402161D01*
X142684113Y-92379633D01*
X142715431Y-92362893D01*
X142749409Y-92352585D01*
X142790890Y-92348500D01*
X143467110Y-92348500D01*
X143508591Y-92352585D01*
X143508591Y-92352585D01*
G37*
G36*
X161600000Y-92867000D02*
X160848000Y-92867000D01*
X160848000Y-91705000D01*
X161600000Y-91705000D01*
X161600000Y-92867000D01*
X161600000Y-92867000D01*
G37*
G36*
X159700000Y-92867000D02*
X158948000Y-92867000D01*
X158948000Y-91705000D01*
X159700000Y-91705000D01*
X159700000Y-92867000D01*
X159700000Y-92867000D01*
G37*
G36*
X157526515Y-89697473D02*
X157630379Y-89728979D01*
X157726100Y-89780144D01*
X157810001Y-89848999D01*
X157878856Y-89932900D01*
X157930021Y-90028621D01*
X157961527Y-90132485D01*
X157969500Y-90213433D01*
X157969500Y-91367567D01*
X157961527Y-91448515D01*
X157930021Y-91552379D01*
X157878856Y-91648100D01*
X157810001Y-91732001D01*
X157726100Y-91800856D01*
X157630378Y-91852021D01*
X157526514Y-91883527D01*
X157418500Y-91894166D01*
X157310485Y-91883527D01*
X157206621Y-91852021D01*
X157110900Y-91800856D01*
X157026999Y-91732001D01*
X156958144Y-91648100D01*
X156909734Y-91557531D01*
X156896126Y-91537166D01*
X156878799Y-91519839D01*
X156858424Y-91506226D01*
X156835785Y-91496848D01*
X156811752Y-91492068D01*
X156787247Y-91492068D01*
X156763214Y-91496849D01*
X156740575Y-91506226D01*
X156720200Y-91519840D01*
X156702873Y-91537167D01*
X156689260Y-91557542D01*
X156679882Y-91580181D01*
X156674500Y-91616466D01*
X156674500Y-92481500D01*
X149522500Y-92481500D01*
X149522500Y-91616467D01*
X149520098Y-91592081D01*
X149512985Y-91568632D01*
X149501434Y-91547021D01*
X149485888Y-91528079D01*
X149466946Y-91512533D01*
X149445335Y-91500982D01*
X149421886Y-91493869D01*
X149397500Y-91491467D01*
X149373114Y-91493869D01*
X149349665Y-91500982D01*
X149328054Y-91512533D01*
X149309112Y-91528079D01*
X149287265Y-91557536D01*
X149238856Y-91648100D01*
X149170001Y-91732001D01*
X149086100Y-91800856D01*
X148990378Y-91852021D01*
X148886514Y-91883527D01*
X148778500Y-91894166D01*
X148670485Y-91883527D01*
X148566621Y-91852021D01*
X148470900Y-91800856D01*
X148386999Y-91732001D01*
X148318144Y-91648100D01*
X148266979Y-91552378D01*
X148235473Y-91448514D01*
X148227500Y-91367566D01*
X148227501Y-90213433D01*
X148235474Y-90132485D01*
X148266980Y-90028621D01*
X148318145Y-89932900D01*
X148387000Y-89848999D01*
X148470901Y-89780144D01*
X148566622Y-89728979D01*
X148670486Y-89697473D01*
X148778500Y-89686834D01*
X148886515Y-89697473D01*
X148990379Y-89728979D01*
X149086100Y-89780144D01*
X149170001Y-89848999D01*
X149238856Y-89932900D01*
X149290021Y-90028621D01*
X149321527Y-90132485D01*
X149329500Y-90213433D01*
X149329500Y-90804500D01*
X149331902Y-90828886D01*
X149339015Y-90852335D01*
X149350566Y-90873946D01*
X149366112Y-90892888D01*
X149385054Y-90908434D01*
X149406665Y-90919985D01*
X149430114Y-90927098D01*
X149454500Y-90929500D01*
X156742500Y-90929500D01*
X156766886Y-90927098D01*
X156790335Y-90919985D01*
X156811946Y-90908434D01*
X156830888Y-90892888D01*
X156846434Y-90873946D01*
X156857985Y-90852335D01*
X156865098Y-90828886D01*
X156867500Y-90804500D01*
X156867501Y-90213439D01*
X156867501Y-90213433D01*
X156875474Y-90132485D01*
X156906980Y-90028621D01*
X156958145Y-89932900D01*
X157027000Y-89848999D01*
X157110901Y-89780144D01*
X157206622Y-89728979D01*
X157310486Y-89697473D01*
X157418500Y-89686834D01*
X157526515Y-89697473D01*
X157526515Y-89697473D01*
G37*
G36*
X163539311Y-90707105D02*
X163578367Y-90718953D01*
X163614363Y-90738193D01*
X163645914Y-90764086D01*
X163671807Y-90795637D01*
X163691047Y-90831633D01*
X163702895Y-90870689D01*
X163707500Y-90917449D01*
X163707500Y-91714551D01*
X163702895Y-91761311D01*
X163691047Y-91800367D01*
X163671807Y-91836363D01*
X163645914Y-91867914D01*
X163614363Y-91893807D01*
X163578367Y-91913047D01*
X163539311Y-91924895D01*
X163492551Y-91929500D01*
X162770449Y-91929500D01*
X162723689Y-91924895D01*
X162684633Y-91913047D01*
X162648637Y-91893807D01*
X162617086Y-91867914D01*
X162591193Y-91836363D01*
X162571953Y-91800367D01*
X162560105Y-91761311D01*
X162555500Y-91714551D01*
X162555500Y-90917449D01*
X162560105Y-90870689D01*
X162571953Y-90831633D01*
X162591193Y-90795637D01*
X162617086Y-90764086D01*
X162648637Y-90738193D01*
X162684633Y-90718953D01*
X162723689Y-90707105D01*
X162770449Y-90702500D01*
X163492551Y-90702500D01*
X163539311Y-90707105D01*
X163539311Y-90707105D01*
G37*
G36*
X143508591Y-90777585D02*
X143542569Y-90787893D01*
X143573887Y-90804633D01*
X143601339Y-90827161D01*
X143623867Y-90854613D01*
X143640607Y-90885931D01*
X143650915Y-90919909D01*
X143655000Y-90961390D01*
X143655000Y-91562610D01*
X143650915Y-91604091D01*
X143640607Y-91638069D01*
X143623867Y-91669387D01*
X143601339Y-91696839D01*
X143573887Y-91719367D01*
X143542569Y-91736107D01*
X143508591Y-91746415D01*
X143467110Y-91750500D01*
X142790890Y-91750500D01*
X142749409Y-91746415D01*
X142715431Y-91736107D01*
X142684113Y-91719367D01*
X142656661Y-91696839D01*
X142634133Y-91669387D01*
X142617393Y-91638069D01*
X142607085Y-91604091D01*
X142603000Y-91562610D01*
X142603000Y-90961390D01*
X142607085Y-90919909D01*
X142617393Y-90885931D01*
X142634133Y-90854613D01*
X142656661Y-90827161D01*
X142684113Y-90804633D01*
X142715431Y-90787893D01*
X142749409Y-90777585D01*
X142790890Y-90773500D01*
X143467110Y-90773500D01*
X143508591Y-90777585D01*
X143508591Y-90777585D01*
G37*
G36*
X147789091Y-90283085D02*
X147823069Y-90293393D01*
X147854387Y-90310133D01*
X147881839Y-90332661D01*
X147904367Y-90360113D01*
X147921107Y-90391431D01*
X147931415Y-90425409D01*
X147935500Y-90466890D01*
X147935500Y-91143110D01*
X147931415Y-91184591D01*
X147921107Y-91218569D01*
X147904367Y-91249887D01*
X147881839Y-91277339D01*
X147854387Y-91299867D01*
X147823069Y-91316607D01*
X147789091Y-91326915D01*
X147747610Y-91331000D01*
X147146390Y-91331000D01*
X147104909Y-91326915D01*
X147070931Y-91316607D01*
X147039613Y-91299867D01*
X147012161Y-91277339D01*
X146989633Y-91249887D01*
X146972893Y-91218569D01*
X146962585Y-91184591D01*
X146958500Y-91143110D01*
X146958500Y-90466890D01*
X146962585Y-90425409D01*
X146972893Y-90391431D01*
X146989633Y-90360113D01*
X147012161Y-90332661D01*
X147039613Y-90310133D01*
X147070931Y-90293393D01*
X147104909Y-90283085D01*
X147146390Y-90279000D01*
X147747610Y-90279000D01*
X147789091Y-90283085D01*
X147789091Y-90283085D01*
G37*
G36*
X146214091Y-90283085D02*
X146248069Y-90293393D01*
X146279387Y-90310133D01*
X146306839Y-90332661D01*
X146329367Y-90360113D01*
X146346107Y-90391431D01*
X146356415Y-90425409D01*
X146360500Y-90466890D01*
X146360500Y-91143110D01*
X146356415Y-91184591D01*
X146346107Y-91218569D01*
X146329367Y-91249887D01*
X146306839Y-91277339D01*
X146279387Y-91299867D01*
X146248069Y-91316607D01*
X146214091Y-91326915D01*
X146172610Y-91331000D01*
X145571390Y-91331000D01*
X145529909Y-91326915D01*
X145495931Y-91316607D01*
X145464613Y-91299867D01*
X145437161Y-91277339D01*
X145414633Y-91249887D01*
X145397893Y-91218569D01*
X145387585Y-91184591D01*
X145383500Y-91143110D01*
X145383500Y-90466890D01*
X145387585Y-90425409D01*
X145397893Y-90391431D01*
X145414633Y-90360113D01*
X145437161Y-90332661D01*
X145464613Y-90310133D01*
X145495931Y-90293393D01*
X145529909Y-90283085D01*
X145571390Y-90279000D01*
X146172610Y-90279000D01*
X146214091Y-90283085D01*
X146214091Y-90283085D01*
G37*
G36*
X161600000Y-90667000D02*
X158948000Y-90667000D01*
X158948000Y-89505000D01*
X161600000Y-89505000D01*
X161600000Y-90667000D01*
X161600000Y-90667000D01*
G37*
G36*
X150318172Y-89898949D02*
X150318174Y-89898950D01*
X150318175Y-89898950D01*
X150386603Y-89927293D01*
X150447909Y-89968257D01*
X150448189Y-89968444D01*
X150500556Y-90020811D01*
X150500558Y-90020814D01*
X150541707Y-90082397D01*
X150562454Y-90132487D01*
X150570051Y-90150828D01*
X150584500Y-90223466D01*
X150584500Y-90297534D01*
X150577513Y-90332661D01*
X150570050Y-90370175D01*
X150541707Y-90438603D01*
X150500743Y-90499909D01*
X150500556Y-90500189D01*
X150448189Y-90552556D01*
X150448186Y-90552558D01*
X150386603Y-90593707D01*
X150318175Y-90622050D01*
X150318174Y-90622050D01*
X150318172Y-90622051D01*
X150245534Y-90636500D01*
X150171466Y-90636500D01*
X150098828Y-90622051D01*
X150098826Y-90622050D01*
X150098825Y-90622050D01*
X150030397Y-90593707D01*
X149968814Y-90552558D01*
X149968811Y-90552556D01*
X149916444Y-90500189D01*
X149916257Y-90499909D01*
X149875293Y-90438603D01*
X149846950Y-90370175D01*
X149839488Y-90332661D01*
X149832500Y-90297534D01*
X149832500Y-90223466D01*
X149846949Y-90150828D01*
X149854546Y-90132487D01*
X149875293Y-90082397D01*
X149916442Y-90020814D01*
X149916444Y-90020811D01*
X149968811Y-89968444D01*
X149969091Y-89968257D01*
X150030397Y-89927293D01*
X150098825Y-89898950D01*
X150098826Y-89898950D01*
X150098828Y-89898949D01*
X150171466Y-89884500D01*
X150245534Y-89884500D01*
X150318172Y-89898949D01*
X150318172Y-89898949D01*
G37*
G36*
X156098172Y-89898949D02*
X156098174Y-89898950D01*
X156098175Y-89898950D01*
X156166603Y-89927293D01*
X156227909Y-89968257D01*
X156228189Y-89968444D01*
X156280556Y-90020811D01*
X156280558Y-90020814D01*
X156321707Y-90082397D01*
X156342454Y-90132487D01*
X156350051Y-90150828D01*
X156364500Y-90223466D01*
X156364500Y-90297534D01*
X156357513Y-90332661D01*
X156350050Y-90370175D01*
X156321707Y-90438603D01*
X156280743Y-90499909D01*
X156280556Y-90500189D01*
X156228189Y-90552556D01*
X156228186Y-90552558D01*
X156166603Y-90593707D01*
X156098175Y-90622050D01*
X156098174Y-90622050D01*
X156098172Y-90622051D01*
X156025534Y-90636500D01*
X155951466Y-90636500D01*
X155878828Y-90622051D01*
X155878826Y-90622050D01*
X155878825Y-90622050D01*
X155810397Y-90593707D01*
X155748814Y-90552558D01*
X155748811Y-90552556D01*
X155696444Y-90500189D01*
X155696257Y-90499909D01*
X155655293Y-90438603D01*
X155626950Y-90370175D01*
X155619488Y-90332661D01*
X155612500Y-90297534D01*
X155612500Y-90223466D01*
X155626949Y-90150828D01*
X155634546Y-90132487D01*
X155655293Y-90082397D01*
X155696442Y-90020814D01*
X155696444Y-90020811D01*
X155748811Y-89968444D01*
X155749091Y-89968257D01*
X155810397Y-89927293D01*
X155878825Y-89898950D01*
X155878826Y-89898950D01*
X155878828Y-89898949D01*
X155951466Y-89884500D01*
X156025534Y-89884500D01*
X156098172Y-89898949D01*
X156098172Y-89898949D01*
G37*
G36*
X147814591Y-88759085D02*
X147848569Y-88769393D01*
X147879887Y-88786133D01*
X147907339Y-88808661D01*
X147929867Y-88836113D01*
X147946607Y-88867431D01*
X147956915Y-88901409D01*
X147961000Y-88942890D01*
X147961000Y-89619110D01*
X147956915Y-89660591D01*
X147946607Y-89694569D01*
X147929867Y-89725887D01*
X147907339Y-89753339D01*
X147879887Y-89775867D01*
X147848569Y-89792607D01*
X147814591Y-89802915D01*
X147773110Y-89807000D01*
X147171890Y-89807000D01*
X147130409Y-89802915D01*
X147096431Y-89792607D01*
X147065113Y-89775867D01*
X147037661Y-89753339D01*
X147015133Y-89725887D01*
X146998393Y-89694569D01*
X146988085Y-89660591D01*
X146984000Y-89619110D01*
X146984000Y-88942890D01*
X146988085Y-88901409D01*
X146998393Y-88867431D01*
X147015133Y-88836113D01*
X147037661Y-88808661D01*
X147065113Y-88786133D01*
X147096431Y-88769393D01*
X147130409Y-88759085D01*
X147171890Y-88755000D01*
X147773110Y-88755000D01*
X147814591Y-88759085D01*
X147814591Y-88759085D01*
G37*
G36*
X146239591Y-88759085D02*
X146273569Y-88769393D01*
X146304887Y-88786133D01*
X146332339Y-88808661D01*
X146354867Y-88836113D01*
X146371607Y-88867431D01*
X146381915Y-88901409D01*
X146386000Y-88942890D01*
X146386000Y-89619110D01*
X146381915Y-89660591D01*
X146371607Y-89694569D01*
X146354867Y-89725887D01*
X146332339Y-89753339D01*
X146304887Y-89775867D01*
X146273569Y-89792607D01*
X146239591Y-89802915D01*
X146198110Y-89807000D01*
X145596890Y-89807000D01*
X145555409Y-89802915D01*
X145521431Y-89792607D01*
X145490113Y-89775867D01*
X145462661Y-89753339D01*
X145440133Y-89725887D01*
X145423393Y-89694569D01*
X145413085Y-89660591D01*
X145409000Y-89619110D01*
X145409000Y-88942890D01*
X145413085Y-88901409D01*
X145423393Y-88867431D01*
X145440133Y-88836113D01*
X145462661Y-88808661D01*
X145490113Y-88786133D01*
X145521431Y-88769393D01*
X145555409Y-88759085D01*
X145596890Y-88755000D01*
X146198110Y-88755000D01*
X146239591Y-88759085D01*
X146239591Y-88759085D01*
G37*
G36*
X159325311Y-87693605D02*
X159364367Y-87705453D01*
X159400363Y-87724693D01*
X159431914Y-87750586D01*
X159457807Y-87782137D01*
X159477047Y-87818133D01*
X159488895Y-87857189D01*
X159493500Y-87903949D01*
X159493500Y-88626051D01*
X159488895Y-88672811D01*
X159477047Y-88711867D01*
X159457807Y-88747863D01*
X159431914Y-88779414D01*
X159400363Y-88805307D01*
X159364367Y-88824547D01*
X159325311Y-88836395D01*
X159278551Y-88841000D01*
X158481449Y-88841000D01*
X158434689Y-88836395D01*
X158395633Y-88824547D01*
X158359637Y-88805307D01*
X158328086Y-88779414D01*
X158302193Y-88747863D01*
X158282953Y-88711867D01*
X158271105Y-88672811D01*
X158266500Y-88626051D01*
X158266500Y-87903949D01*
X158271105Y-87857189D01*
X158282953Y-87818133D01*
X158302193Y-87782137D01*
X158328086Y-87750586D01*
X158359637Y-87724693D01*
X158395633Y-87705453D01*
X158434689Y-87693605D01*
X158481449Y-87689000D01*
X159278551Y-87689000D01*
X159325311Y-87693605D01*
X159325311Y-87693605D01*
G37*
G36*
X161100311Y-87693605D02*
X161139367Y-87705453D01*
X161175363Y-87724693D01*
X161206914Y-87750586D01*
X161232807Y-87782137D01*
X161252047Y-87818133D01*
X161263895Y-87857189D01*
X161268500Y-87903949D01*
X161268500Y-88626051D01*
X161263895Y-88672811D01*
X161252047Y-88711867D01*
X161232807Y-88747863D01*
X161206914Y-88779414D01*
X161175363Y-88805307D01*
X161139367Y-88824547D01*
X161100311Y-88836395D01*
X161053551Y-88841000D01*
X160256449Y-88841000D01*
X160209689Y-88836395D01*
X160170633Y-88824547D01*
X160134637Y-88805307D01*
X160103086Y-88779414D01*
X160077193Y-88747863D01*
X160057953Y-88711867D01*
X160046105Y-88672811D01*
X160041500Y-88626051D01*
X160041500Y-87903949D01*
X160046105Y-87857189D01*
X160057953Y-87818133D01*
X160077193Y-87782137D01*
X160103086Y-87750586D01*
X160134637Y-87724693D01*
X160170633Y-87705453D01*
X160209689Y-87693605D01*
X160256449Y-87689000D01*
X161053551Y-87689000D01*
X161100311Y-87693605D01*
X161100311Y-87693605D01*
G37*
G36*
X147789091Y-87235085D02*
X147823069Y-87245393D01*
X147854387Y-87262133D01*
X147881839Y-87284661D01*
X147904367Y-87312113D01*
X147921107Y-87343431D01*
X147931415Y-87377409D01*
X147935500Y-87418890D01*
X147935500Y-88095110D01*
X147931415Y-88136591D01*
X147921107Y-88170569D01*
X147904367Y-88201887D01*
X147881839Y-88229339D01*
X147854387Y-88251867D01*
X147823069Y-88268607D01*
X147789091Y-88278915D01*
X147747610Y-88283000D01*
X147146390Y-88283000D01*
X147104909Y-88278915D01*
X147070931Y-88268607D01*
X147039613Y-88251867D01*
X147012161Y-88229339D01*
X146989633Y-88201887D01*
X146972893Y-88170569D01*
X146962585Y-88136591D01*
X146958500Y-88095110D01*
X146958500Y-87418890D01*
X146962585Y-87377409D01*
X146972893Y-87343431D01*
X146989633Y-87312113D01*
X147012161Y-87284661D01*
X147039613Y-87262133D01*
X147070931Y-87245393D01*
X147104909Y-87235085D01*
X147146390Y-87231000D01*
X147747610Y-87231000D01*
X147789091Y-87235085D01*
X147789091Y-87235085D01*
G37*
G36*
X146214091Y-87235085D02*
X146248069Y-87245393D01*
X146279387Y-87262133D01*
X146306839Y-87284661D01*
X146329367Y-87312113D01*
X146346107Y-87343431D01*
X146356415Y-87377409D01*
X146360500Y-87418890D01*
X146360500Y-88095110D01*
X146356415Y-88136591D01*
X146346107Y-88170569D01*
X146329367Y-88201887D01*
X146306839Y-88229339D01*
X146279387Y-88251867D01*
X146248069Y-88268607D01*
X146214091Y-88278915D01*
X146172610Y-88283000D01*
X145571390Y-88283000D01*
X145529909Y-88278915D01*
X145495931Y-88268607D01*
X145464613Y-88251867D01*
X145437161Y-88229339D01*
X145414633Y-88201887D01*
X145397893Y-88170569D01*
X145387585Y-88136591D01*
X145383500Y-88095110D01*
X145383500Y-87418890D01*
X145387585Y-87377409D01*
X145397893Y-87343431D01*
X145414633Y-87312113D01*
X145437161Y-87284661D01*
X145464613Y-87262133D01*
X145495931Y-87245393D01*
X145529909Y-87235085D01*
X145571390Y-87231000D01*
X146172610Y-87231000D01*
X146214091Y-87235085D01*
X146214091Y-87235085D01*
G37*
G36*
X148886515Y-85767473D02*
X148990379Y-85798979D01*
X149086100Y-85850144D01*
X149170001Y-85918999D01*
X149238856Y-86002900D01*
X149290021Y-86098621D01*
X149321527Y-86202485D01*
X149329500Y-86283433D01*
X149329500Y-86937567D01*
X149321527Y-87018515D01*
X149290021Y-87122379D01*
X149238856Y-87218100D01*
X149170001Y-87302001D01*
X149086100Y-87370856D01*
X148990378Y-87422021D01*
X148886514Y-87453527D01*
X148778500Y-87464166D01*
X148670485Y-87453527D01*
X148566621Y-87422021D01*
X148470900Y-87370856D01*
X148386999Y-87302001D01*
X148318144Y-87218100D01*
X148266979Y-87122378D01*
X148235473Y-87018514D01*
X148227500Y-86937566D01*
X148227500Y-86283433D01*
X148235473Y-86202485D01*
X148266980Y-86098621D01*
X148318145Y-86002900D01*
X148387000Y-85918999D01*
X148470901Y-85850144D01*
X148566622Y-85798979D01*
X148670486Y-85767473D01*
X148778500Y-85756834D01*
X148886515Y-85767473D01*
X148886515Y-85767473D01*
G37*
G36*
X157526515Y-85767473D02*
X157630379Y-85798979D01*
X157726100Y-85850144D01*
X157810001Y-85918999D01*
X157878856Y-86002900D01*
X157930021Y-86098621D01*
X157961527Y-86202485D01*
X157969500Y-86283433D01*
X157969500Y-86937567D01*
X157961527Y-87018515D01*
X157930021Y-87122379D01*
X157878856Y-87218100D01*
X157810001Y-87302001D01*
X157726100Y-87370856D01*
X157630378Y-87422021D01*
X157526514Y-87453527D01*
X157418500Y-87464166D01*
X157310485Y-87453527D01*
X157206621Y-87422021D01*
X157110900Y-87370856D01*
X157026999Y-87302001D01*
X156958144Y-87218100D01*
X156906979Y-87122378D01*
X156875473Y-87018514D01*
X156867500Y-86937566D01*
X156867500Y-86283433D01*
X156875473Y-86202485D01*
X156906980Y-86098621D01*
X156958145Y-86002900D01*
X157027000Y-85918999D01*
X157110901Y-85850144D01*
X157206622Y-85798979D01*
X157310486Y-85767473D01*
X157418500Y-85756834D01*
X157526515Y-85767473D01*
X157526515Y-85767473D01*
G37*
G36*
X158968764Y-85378265D02*
X158978546Y-85380546D01*
X158993319Y-85387240D01*
X160082535Y-86016099D01*
X160095716Y-86025544D01*
X160101808Y-86032050D01*
X160102583Y-86032877D01*
X160107888Y-86041408D01*
X160107890Y-86041412D01*
X160111426Y-86050806D01*
X160113063Y-86060724D01*
X160112735Y-86070764D01*
X160110454Y-86080546D01*
X160103760Y-86095319D01*
X159792401Y-86634608D01*
X159777807Y-86654975D01*
X159771162Y-86665281D01*
X159758631Y-86686985D01*
X159745600Y-86705169D01*
X159671614Y-86789535D01*
X159655267Y-86804846D01*
X159566265Y-86873138D01*
X159547250Y-86884963D01*
X159446615Y-86934592D01*
X159425672Y-86942474D01*
X159317292Y-86971514D01*
X159311210Y-86972518D01*
X159311203Y-86972520D01*
X159301290Y-86974156D01*
X159301289Y-86974156D01*
X159295196Y-86975162D01*
X159183244Y-86982499D01*
X159174406Y-86982210D01*
X159167034Y-86981969D01*
X159167030Y-86981969D01*
X159160871Y-86981767D01*
X159049621Y-86967121D01*
X159027825Y-86962038D01*
X158921583Y-86925974D01*
X158901183Y-86916731D01*
X158804025Y-86860636D01*
X158799008Y-86857041D01*
X158799003Y-86857038D01*
X158790838Y-86851187D01*
X158790834Y-86851184D01*
X158785822Y-86847592D01*
X158701465Y-86773614D01*
X158686154Y-86757267D01*
X158617862Y-86668265D01*
X158606037Y-86649250D01*
X158556408Y-86548615D01*
X158548526Y-86527672D01*
X158519486Y-86419292D01*
X158518482Y-86413210D01*
X158518480Y-86413203D01*
X158516844Y-86403290D01*
X158516844Y-86403289D01*
X158515838Y-86397196D01*
X158508501Y-86285244D01*
X158509233Y-86262871D01*
X158523879Y-86151621D01*
X158528962Y-86129825D01*
X158565029Y-86023574D01*
X158574265Y-86003191D01*
X158586788Y-85981500D01*
X158592391Y-85970593D01*
X158602740Y-85947756D01*
X158914099Y-85408465D01*
X158923544Y-85395284D01*
X158930875Y-85388419D01*
X158930877Y-85388417D01*
X158939408Y-85383112D01*
X158939412Y-85383110D01*
X158948806Y-85379574D01*
X158948808Y-85379574D01*
X158948810Y-85379573D01*
X158958722Y-85377937D01*
X158958724Y-85377937D01*
X158968764Y-85378265D01*
X158968764Y-85378265D01*
G37*
M02*
