%TF.GenerationSoftware,KiCad,Pcbnew,(5.0.1)-4*%
%TF.CreationDate,2019-05-08T05:57:41+02:00*%
%TF.ProjectId,ESPesh,4553506573682E6B696361645F706362,rev?*%
%TF.SameCoordinates,Original*%
%TF.FileFunction,Paste,Top*%
%TF.FilePolarity,Positive*%
%FSLAX46Y46*%
G04 Gerber Fmt 4.6, Leading zero omitted, Abs format (unit mm)*
G04 Created by KiCad (PCBNEW (5.0.1)-4) date 08/05/2019 5:57:41*
%MOMM*%
%LPD*%
G01*
G04 APERTURE LIST*
%ADD10R,0.500000X0.300000*%
%ADD11R,0.300000X0.500000*%
%ADD12R,5.400000X5.400000*%
%ADD13R,1.000000X1.400000*%
%ADD14C,0.100000*%
%ADD15C,0.875000*%
%ADD16R,0.300000X1.450000*%
%ADD17R,0.600000X1.450000*%
%ADD18R,1.500000X1.900000*%
%ADD19R,1.400000X1.900000*%
%ADD20R,0.650000X1.060000*%
%ADD21C,1.050000*%
%ADD22R,1.000000X0.600000*%
%ADD23R,0.900000X1.200000*%
%ADD24R,1.060000X0.650000*%
%ADD25R,0.650000X0.350000*%
%ADD26R,0.820000X0.630000*%
%ADD27R,2.400000X1.500000*%
%ADD28R,0.400000X0.600000*%
G04 APERTURE END LIST*
D10*
X156398500Y-99524000D03*
X156398500Y-99024000D03*
X156398500Y-98524000D03*
X156398500Y-98024000D03*
X156398500Y-97524000D03*
X156398500Y-97024000D03*
X156398500Y-96524000D03*
X156398500Y-96024000D03*
X156398500Y-95524000D03*
X156398500Y-95024000D03*
X156398500Y-94524000D03*
X156398500Y-94024000D03*
D11*
X155848500Y-93474000D03*
X155348500Y-93474000D03*
X154848500Y-93474000D03*
X154348500Y-93474000D03*
X153848500Y-93474000D03*
X153348500Y-93474000D03*
X152848500Y-93474000D03*
X152348500Y-93474000D03*
X151848500Y-93474000D03*
X151348500Y-93474000D03*
X150848500Y-93474000D03*
X150348500Y-93474000D03*
D10*
X149798500Y-94024000D03*
X149798500Y-94524000D03*
X149798500Y-95024000D03*
X149798500Y-95524000D03*
X149798500Y-96024000D03*
X149798500Y-96524000D03*
X149798500Y-97024000D03*
X149798500Y-97524000D03*
X149798500Y-98024000D03*
X149798500Y-98524000D03*
X149798500Y-99024000D03*
X149798500Y-99524000D03*
D11*
X150348500Y-100074000D03*
X150848500Y-100074000D03*
X151348500Y-100074000D03*
X151848500Y-100074000D03*
X152348500Y-100074000D03*
X152848500Y-100074000D03*
X153348500Y-100074000D03*
X153848500Y-100074000D03*
X154348500Y-100074000D03*
X154848500Y-100074000D03*
X155348500Y-100074000D03*
X155848500Y-100074000D03*
D12*
X153098500Y-96774000D03*
D13*
X158879500Y-96370500D03*
X157929500Y-94170500D03*
X159829500Y-94170500D03*
D14*
G36*
X147687191Y-87283053D02*
X147708426Y-87286203D01*
X147729250Y-87291419D01*
X147749462Y-87298651D01*
X147768868Y-87307830D01*
X147787281Y-87318866D01*
X147804524Y-87331654D01*
X147820430Y-87346070D01*
X147834846Y-87361976D01*
X147847634Y-87379219D01*
X147858670Y-87397632D01*
X147867849Y-87417038D01*
X147875081Y-87437250D01*
X147880297Y-87458074D01*
X147883447Y-87479309D01*
X147884500Y-87500750D01*
X147884500Y-88013250D01*
X147883447Y-88034691D01*
X147880297Y-88055926D01*
X147875081Y-88076750D01*
X147867849Y-88096962D01*
X147858670Y-88116368D01*
X147847634Y-88134781D01*
X147834846Y-88152024D01*
X147820430Y-88167930D01*
X147804524Y-88182346D01*
X147787281Y-88195134D01*
X147768868Y-88206170D01*
X147749462Y-88215349D01*
X147729250Y-88222581D01*
X147708426Y-88227797D01*
X147687191Y-88230947D01*
X147665750Y-88232000D01*
X147228250Y-88232000D01*
X147206809Y-88230947D01*
X147185574Y-88227797D01*
X147164750Y-88222581D01*
X147144538Y-88215349D01*
X147125132Y-88206170D01*
X147106719Y-88195134D01*
X147089476Y-88182346D01*
X147073570Y-88167930D01*
X147059154Y-88152024D01*
X147046366Y-88134781D01*
X147035330Y-88116368D01*
X147026151Y-88096962D01*
X147018919Y-88076750D01*
X147013703Y-88055926D01*
X147010553Y-88034691D01*
X147009500Y-88013250D01*
X147009500Y-87500750D01*
X147010553Y-87479309D01*
X147013703Y-87458074D01*
X147018919Y-87437250D01*
X147026151Y-87417038D01*
X147035330Y-87397632D01*
X147046366Y-87379219D01*
X147059154Y-87361976D01*
X147073570Y-87346070D01*
X147089476Y-87331654D01*
X147106719Y-87318866D01*
X147125132Y-87307830D01*
X147144538Y-87298651D01*
X147164750Y-87291419D01*
X147185574Y-87286203D01*
X147206809Y-87283053D01*
X147228250Y-87282000D01*
X147665750Y-87282000D01*
X147687191Y-87283053D01*
X147687191Y-87283053D01*
G37*
D15*
X147447000Y-87757000D03*
D14*
G36*
X146112191Y-87283053D02*
X146133426Y-87286203D01*
X146154250Y-87291419D01*
X146174462Y-87298651D01*
X146193868Y-87307830D01*
X146212281Y-87318866D01*
X146229524Y-87331654D01*
X146245430Y-87346070D01*
X146259846Y-87361976D01*
X146272634Y-87379219D01*
X146283670Y-87397632D01*
X146292849Y-87417038D01*
X146300081Y-87437250D01*
X146305297Y-87458074D01*
X146308447Y-87479309D01*
X146309500Y-87500750D01*
X146309500Y-88013250D01*
X146308447Y-88034691D01*
X146305297Y-88055926D01*
X146300081Y-88076750D01*
X146292849Y-88096962D01*
X146283670Y-88116368D01*
X146272634Y-88134781D01*
X146259846Y-88152024D01*
X146245430Y-88167930D01*
X146229524Y-88182346D01*
X146212281Y-88195134D01*
X146193868Y-88206170D01*
X146174462Y-88215349D01*
X146154250Y-88222581D01*
X146133426Y-88227797D01*
X146112191Y-88230947D01*
X146090750Y-88232000D01*
X145653250Y-88232000D01*
X145631809Y-88230947D01*
X145610574Y-88227797D01*
X145589750Y-88222581D01*
X145569538Y-88215349D01*
X145550132Y-88206170D01*
X145531719Y-88195134D01*
X145514476Y-88182346D01*
X145498570Y-88167930D01*
X145484154Y-88152024D01*
X145471366Y-88134781D01*
X145460330Y-88116368D01*
X145451151Y-88096962D01*
X145443919Y-88076750D01*
X145438703Y-88055926D01*
X145435553Y-88034691D01*
X145434500Y-88013250D01*
X145434500Y-87500750D01*
X145435553Y-87479309D01*
X145438703Y-87458074D01*
X145443919Y-87437250D01*
X145451151Y-87417038D01*
X145460330Y-87397632D01*
X145471366Y-87379219D01*
X145484154Y-87361976D01*
X145498570Y-87346070D01*
X145514476Y-87331654D01*
X145531719Y-87318866D01*
X145550132Y-87307830D01*
X145569538Y-87298651D01*
X145589750Y-87291419D01*
X145610574Y-87286203D01*
X145631809Y-87283053D01*
X145653250Y-87282000D01*
X146090750Y-87282000D01*
X146112191Y-87283053D01*
X146112191Y-87283053D01*
G37*
D15*
X145872000Y-87757000D03*
D14*
G36*
X146137691Y-88807053D02*
X146158926Y-88810203D01*
X146179750Y-88815419D01*
X146199962Y-88822651D01*
X146219368Y-88831830D01*
X146237781Y-88842866D01*
X146255024Y-88855654D01*
X146270930Y-88870070D01*
X146285346Y-88885976D01*
X146298134Y-88903219D01*
X146309170Y-88921632D01*
X146318349Y-88941038D01*
X146325581Y-88961250D01*
X146330797Y-88982074D01*
X146333947Y-89003309D01*
X146335000Y-89024750D01*
X146335000Y-89537250D01*
X146333947Y-89558691D01*
X146330797Y-89579926D01*
X146325581Y-89600750D01*
X146318349Y-89620962D01*
X146309170Y-89640368D01*
X146298134Y-89658781D01*
X146285346Y-89676024D01*
X146270930Y-89691930D01*
X146255024Y-89706346D01*
X146237781Y-89719134D01*
X146219368Y-89730170D01*
X146199962Y-89739349D01*
X146179750Y-89746581D01*
X146158926Y-89751797D01*
X146137691Y-89754947D01*
X146116250Y-89756000D01*
X145678750Y-89756000D01*
X145657309Y-89754947D01*
X145636074Y-89751797D01*
X145615250Y-89746581D01*
X145595038Y-89739349D01*
X145575632Y-89730170D01*
X145557219Y-89719134D01*
X145539976Y-89706346D01*
X145524070Y-89691930D01*
X145509654Y-89676024D01*
X145496866Y-89658781D01*
X145485830Y-89640368D01*
X145476651Y-89620962D01*
X145469419Y-89600750D01*
X145464203Y-89579926D01*
X145461053Y-89558691D01*
X145460000Y-89537250D01*
X145460000Y-89024750D01*
X145461053Y-89003309D01*
X145464203Y-88982074D01*
X145469419Y-88961250D01*
X145476651Y-88941038D01*
X145485830Y-88921632D01*
X145496866Y-88903219D01*
X145509654Y-88885976D01*
X145524070Y-88870070D01*
X145539976Y-88855654D01*
X145557219Y-88842866D01*
X145575632Y-88831830D01*
X145595038Y-88822651D01*
X145615250Y-88815419D01*
X145636074Y-88810203D01*
X145657309Y-88807053D01*
X145678750Y-88806000D01*
X146116250Y-88806000D01*
X146137691Y-88807053D01*
X146137691Y-88807053D01*
G37*
D15*
X145897500Y-89281000D03*
D14*
G36*
X147712691Y-88807053D02*
X147733926Y-88810203D01*
X147754750Y-88815419D01*
X147774962Y-88822651D01*
X147794368Y-88831830D01*
X147812781Y-88842866D01*
X147830024Y-88855654D01*
X147845930Y-88870070D01*
X147860346Y-88885976D01*
X147873134Y-88903219D01*
X147884170Y-88921632D01*
X147893349Y-88941038D01*
X147900581Y-88961250D01*
X147905797Y-88982074D01*
X147908947Y-89003309D01*
X147910000Y-89024750D01*
X147910000Y-89537250D01*
X147908947Y-89558691D01*
X147905797Y-89579926D01*
X147900581Y-89600750D01*
X147893349Y-89620962D01*
X147884170Y-89640368D01*
X147873134Y-89658781D01*
X147860346Y-89676024D01*
X147845930Y-89691930D01*
X147830024Y-89706346D01*
X147812781Y-89719134D01*
X147794368Y-89730170D01*
X147774962Y-89739349D01*
X147754750Y-89746581D01*
X147733926Y-89751797D01*
X147712691Y-89754947D01*
X147691250Y-89756000D01*
X147253750Y-89756000D01*
X147232309Y-89754947D01*
X147211074Y-89751797D01*
X147190250Y-89746581D01*
X147170038Y-89739349D01*
X147150632Y-89730170D01*
X147132219Y-89719134D01*
X147114976Y-89706346D01*
X147099070Y-89691930D01*
X147084654Y-89676024D01*
X147071866Y-89658781D01*
X147060830Y-89640368D01*
X147051651Y-89620962D01*
X147044419Y-89600750D01*
X147039203Y-89579926D01*
X147036053Y-89558691D01*
X147035000Y-89537250D01*
X147035000Y-89024750D01*
X147036053Y-89003309D01*
X147039203Y-88982074D01*
X147044419Y-88961250D01*
X147051651Y-88941038D01*
X147060830Y-88921632D01*
X147071866Y-88903219D01*
X147084654Y-88885976D01*
X147099070Y-88870070D01*
X147114976Y-88855654D01*
X147132219Y-88842866D01*
X147150632Y-88831830D01*
X147170038Y-88822651D01*
X147190250Y-88815419D01*
X147211074Y-88810203D01*
X147232309Y-88807053D01*
X147253750Y-88806000D01*
X147691250Y-88806000D01*
X147712691Y-88807053D01*
X147712691Y-88807053D01*
G37*
D15*
X147472500Y-89281000D03*
D14*
G36*
X145565691Y-104783053D02*
X145586926Y-104786203D01*
X145607750Y-104791419D01*
X145627962Y-104798651D01*
X145647368Y-104807830D01*
X145665781Y-104818866D01*
X145683024Y-104831654D01*
X145698930Y-104846070D01*
X145713346Y-104861976D01*
X145726134Y-104879219D01*
X145737170Y-104897632D01*
X145746349Y-104917038D01*
X145753581Y-104937250D01*
X145758797Y-104958074D01*
X145761947Y-104979309D01*
X145763000Y-105000750D01*
X145763000Y-105438250D01*
X145761947Y-105459691D01*
X145758797Y-105480926D01*
X145753581Y-105501750D01*
X145746349Y-105521962D01*
X145737170Y-105541368D01*
X145726134Y-105559781D01*
X145713346Y-105577024D01*
X145698930Y-105592930D01*
X145683024Y-105607346D01*
X145665781Y-105620134D01*
X145647368Y-105631170D01*
X145627962Y-105640349D01*
X145607750Y-105647581D01*
X145586926Y-105652797D01*
X145565691Y-105655947D01*
X145544250Y-105657000D01*
X145031750Y-105657000D01*
X145010309Y-105655947D01*
X144989074Y-105652797D01*
X144968250Y-105647581D01*
X144948038Y-105640349D01*
X144928632Y-105631170D01*
X144910219Y-105620134D01*
X144892976Y-105607346D01*
X144877070Y-105592930D01*
X144862654Y-105577024D01*
X144849866Y-105559781D01*
X144838830Y-105541368D01*
X144829651Y-105521962D01*
X144822419Y-105501750D01*
X144817203Y-105480926D01*
X144814053Y-105459691D01*
X144813000Y-105438250D01*
X144813000Y-105000750D01*
X144814053Y-104979309D01*
X144817203Y-104958074D01*
X144822419Y-104937250D01*
X144829651Y-104917038D01*
X144838830Y-104897632D01*
X144849866Y-104879219D01*
X144862654Y-104861976D01*
X144877070Y-104846070D01*
X144892976Y-104831654D01*
X144910219Y-104818866D01*
X144928632Y-104807830D01*
X144948038Y-104798651D01*
X144968250Y-104791419D01*
X144989074Y-104786203D01*
X145010309Y-104783053D01*
X145031750Y-104782000D01*
X145544250Y-104782000D01*
X145565691Y-104783053D01*
X145565691Y-104783053D01*
G37*
D15*
X145288000Y-105219500D03*
D14*
G36*
X145565691Y-103208053D02*
X145586926Y-103211203D01*
X145607750Y-103216419D01*
X145627962Y-103223651D01*
X145647368Y-103232830D01*
X145665781Y-103243866D01*
X145683024Y-103256654D01*
X145698930Y-103271070D01*
X145713346Y-103286976D01*
X145726134Y-103304219D01*
X145737170Y-103322632D01*
X145746349Y-103342038D01*
X145753581Y-103362250D01*
X145758797Y-103383074D01*
X145761947Y-103404309D01*
X145763000Y-103425750D01*
X145763000Y-103863250D01*
X145761947Y-103884691D01*
X145758797Y-103905926D01*
X145753581Y-103926750D01*
X145746349Y-103946962D01*
X145737170Y-103966368D01*
X145726134Y-103984781D01*
X145713346Y-104002024D01*
X145698930Y-104017930D01*
X145683024Y-104032346D01*
X145665781Y-104045134D01*
X145647368Y-104056170D01*
X145627962Y-104065349D01*
X145607750Y-104072581D01*
X145586926Y-104077797D01*
X145565691Y-104080947D01*
X145544250Y-104082000D01*
X145031750Y-104082000D01*
X145010309Y-104080947D01*
X144989074Y-104077797D01*
X144968250Y-104072581D01*
X144948038Y-104065349D01*
X144928632Y-104056170D01*
X144910219Y-104045134D01*
X144892976Y-104032346D01*
X144877070Y-104017930D01*
X144862654Y-104002024D01*
X144849866Y-103984781D01*
X144838830Y-103966368D01*
X144829651Y-103946962D01*
X144822419Y-103926750D01*
X144817203Y-103905926D01*
X144814053Y-103884691D01*
X144813000Y-103863250D01*
X144813000Y-103425750D01*
X144814053Y-103404309D01*
X144817203Y-103383074D01*
X144822419Y-103362250D01*
X144829651Y-103342038D01*
X144838830Y-103322632D01*
X144849866Y-103304219D01*
X144862654Y-103286976D01*
X144877070Y-103271070D01*
X144892976Y-103256654D01*
X144910219Y-103243866D01*
X144928632Y-103232830D01*
X144948038Y-103223651D01*
X144968250Y-103216419D01*
X144989074Y-103211203D01*
X145010309Y-103208053D01*
X145031750Y-103207000D01*
X145544250Y-103207000D01*
X145565691Y-103208053D01*
X145565691Y-103208053D01*
G37*
D15*
X145288000Y-103644500D03*
D14*
G36*
X147216691Y-105469053D02*
X147237926Y-105472203D01*
X147258750Y-105477419D01*
X147278962Y-105484651D01*
X147298368Y-105493830D01*
X147316781Y-105504866D01*
X147334024Y-105517654D01*
X147349930Y-105532070D01*
X147364346Y-105547976D01*
X147377134Y-105565219D01*
X147388170Y-105583632D01*
X147397349Y-105603038D01*
X147404581Y-105623250D01*
X147409797Y-105644074D01*
X147412947Y-105665309D01*
X147414000Y-105686750D01*
X147414000Y-106124250D01*
X147412947Y-106145691D01*
X147409797Y-106166926D01*
X147404581Y-106187750D01*
X147397349Y-106207962D01*
X147388170Y-106227368D01*
X147377134Y-106245781D01*
X147364346Y-106263024D01*
X147349930Y-106278930D01*
X147334024Y-106293346D01*
X147316781Y-106306134D01*
X147298368Y-106317170D01*
X147278962Y-106326349D01*
X147258750Y-106333581D01*
X147237926Y-106338797D01*
X147216691Y-106341947D01*
X147195250Y-106343000D01*
X146682750Y-106343000D01*
X146661309Y-106341947D01*
X146640074Y-106338797D01*
X146619250Y-106333581D01*
X146599038Y-106326349D01*
X146579632Y-106317170D01*
X146561219Y-106306134D01*
X146543976Y-106293346D01*
X146528070Y-106278930D01*
X146513654Y-106263024D01*
X146500866Y-106245781D01*
X146489830Y-106227368D01*
X146480651Y-106207962D01*
X146473419Y-106187750D01*
X146468203Y-106166926D01*
X146465053Y-106145691D01*
X146464000Y-106124250D01*
X146464000Y-105686750D01*
X146465053Y-105665309D01*
X146468203Y-105644074D01*
X146473419Y-105623250D01*
X146480651Y-105603038D01*
X146489830Y-105583632D01*
X146500866Y-105565219D01*
X146513654Y-105547976D01*
X146528070Y-105532070D01*
X146543976Y-105517654D01*
X146561219Y-105504866D01*
X146579632Y-105493830D01*
X146599038Y-105484651D01*
X146619250Y-105477419D01*
X146640074Y-105472203D01*
X146661309Y-105469053D01*
X146682750Y-105468000D01*
X147195250Y-105468000D01*
X147216691Y-105469053D01*
X147216691Y-105469053D01*
G37*
D15*
X146939000Y-105905500D03*
D14*
G36*
X147216691Y-103894053D02*
X147237926Y-103897203D01*
X147258750Y-103902419D01*
X147278962Y-103909651D01*
X147298368Y-103918830D01*
X147316781Y-103929866D01*
X147334024Y-103942654D01*
X147349930Y-103957070D01*
X147364346Y-103972976D01*
X147377134Y-103990219D01*
X147388170Y-104008632D01*
X147397349Y-104028038D01*
X147404581Y-104048250D01*
X147409797Y-104069074D01*
X147412947Y-104090309D01*
X147414000Y-104111750D01*
X147414000Y-104549250D01*
X147412947Y-104570691D01*
X147409797Y-104591926D01*
X147404581Y-104612750D01*
X147397349Y-104632962D01*
X147388170Y-104652368D01*
X147377134Y-104670781D01*
X147364346Y-104688024D01*
X147349930Y-104703930D01*
X147334024Y-104718346D01*
X147316781Y-104731134D01*
X147298368Y-104742170D01*
X147278962Y-104751349D01*
X147258750Y-104758581D01*
X147237926Y-104763797D01*
X147216691Y-104766947D01*
X147195250Y-104768000D01*
X146682750Y-104768000D01*
X146661309Y-104766947D01*
X146640074Y-104763797D01*
X146619250Y-104758581D01*
X146599038Y-104751349D01*
X146579632Y-104742170D01*
X146561219Y-104731134D01*
X146543976Y-104718346D01*
X146528070Y-104703930D01*
X146513654Y-104688024D01*
X146500866Y-104670781D01*
X146489830Y-104652368D01*
X146480651Y-104632962D01*
X146473419Y-104612750D01*
X146468203Y-104591926D01*
X146465053Y-104570691D01*
X146464000Y-104549250D01*
X146464000Y-104111750D01*
X146465053Y-104090309D01*
X146468203Y-104069074D01*
X146473419Y-104048250D01*
X146480651Y-104028038D01*
X146489830Y-104008632D01*
X146500866Y-103990219D01*
X146513654Y-103972976D01*
X146528070Y-103957070D01*
X146543976Y-103942654D01*
X146561219Y-103929866D01*
X146579632Y-103918830D01*
X146599038Y-103909651D01*
X146619250Y-103902419D01*
X146640074Y-103897203D01*
X146661309Y-103894053D01*
X146682750Y-103893000D01*
X147195250Y-103893000D01*
X147216691Y-103894053D01*
X147216691Y-103894053D01*
G37*
D15*
X146939000Y-104330500D03*
D14*
G36*
X153312691Y-103703553D02*
X153333926Y-103706703D01*
X153354750Y-103711919D01*
X153374962Y-103719151D01*
X153394368Y-103728330D01*
X153412781Y-103739366D01*
X153430024Y-103752154D01*
X153445930Y-103766570D01*
X153460346Y-103782476D01*
X153473134Y-103799719D01*
X153484170Y-103818132D01*
X153493349Y-103837538D01*
X153500581Y-103857750D01*
X153505797Y-103878574D01*
X153508947Y-103899809D01*
X153510000Y-103921250D01*
X153510000Y-104358750D01*
X153508947Y-104380191D01*
X153505797Y-104401426D01*
X153500581Y-104422250D01*
X153493349Y-104442462D01*
X153484170Y-104461868D01*
X153473134Y-104480281D01*
X153460346Y-104497524D01*
X153445930Y-104513430D01*
X153430024Y-104527846D01*
X153412781Y-104540634D01*
X153394368Y-104551670D01*
X153374962Y-104560849D01*
X153354750Y-104568081D01*
X153333926Y-104573297D01*
X153312691Y-104576447D01*
X153291250Y-104577500D01*
X152778750Y-104577500D01*
X152757309Y-104576447D01*
X152736074Y-104573297D01*
X152715250Y-104568081D01*
X152695038Y-104560849D01*
X152675632Y-104551670D01*
X152657219Y-104540634D01*
X152639976Y-104527846D01*
X152624070Y-104513430D01*
X152609654Y-104497524D01*
X152596866Y-104480281D01*
X152585830Y-104461868D01*
X152576651Y-104442462D01*
X152569419Y-104422250D01*
X152564203Y-104401426D01*
X152561053Y-104380191D01*
X152560000Y-104358750D01*
X152560000Y-103921250D01*
X152561053Y-103899809D01*
X152564203Y-103878574D01*
X152569419Y-103857750D01*
X152576651Y-103837538D01*
X152585830Y-103818132D01*
X152596866Y-103799719D01*
X152609654Y-103782476D01*
X152624070Y-103766570D01*
X152639976Y-103752154D01*
X152657219Y-103739366D01*
X152675632Y-103728330D01*
X152695038Y-103719151D01*
X152715250Y-103711919D01*
X152736074Y-103706703D01*
X152757309Y-103703553D01*
X152778750Y-103702500D01*
X153291250Y-103702500D01*
X153312691Y-103703553D01*
X153312691Y-103703553D01*
G37*
D15*
X153035000Y-104140000D03*
D14*
G36*
X153312691Y-102128553D02*
X153333926Y-102131703D01*
X153354750Y-102136919D01*
X153374962Y-102144151D01*
X153394368Y-102153330D01*
X153412781Y-102164366D01*
X153430024Y-102177154D01*
X153445930Y-102191570D01*
X153460346Y-102207476D01*
X153473134Y-102224719D01*
X153484170Y-102243132D01*
X153493349Y-102262538D01*
X153500581Y-102282750D01*
X153505797Y-102303574D01*
X153508947Y-102324809D01*
X153510000Y-102346250D01*
X153510000Y-102783750D01*
X153508947Y-102805191D01*
X153505797Y-102826426D01*
X153500581Y-102847250D01*
X153493349Y-102867462D01*
X153484170Y-102886868D01*
X153473134Y-102905281D01*
X153460346Y-102922524D01*
X153445930Y-102938430D01*
X153430024Y-102952846D01*
X153412781Y-102965634D01*
X153394368Y-102976670D01*
X153374962Y-102985849D01*
X153354750Y-102993081D01*
X153333926Y-102998297D01*
X153312691Y-103001447D01*
X153291250Y-103002500D01*
X152778750Y-103002500D01*
X152757309Y-103001447D01*
X152736074Y-102998297D01*
X152715250Y-102993081D01*
X152695038Y-102985849D01*
X152675632Y-102976670D01*
X152657219Y-102965634D01*
X152639976Y-102952846D01*
X152624070Y-102938430D01*
X152609654Y-102922524D01*
X152596866Y-102905281D01*
X152585830Y-102886868D01*
X152576651Y-102867462D01*
X152569419Y-102847250D01*
X152564203Y-102826426D01*
X152561053Y-102805191D01*
X152560000Y-102783750D01*
X152560000Y-102346250D01*
X152561053Y-102324809D01*
X152564203Y-102303574D01*
X152569419Y-102282750D01*
X152576651Y-102262538D01*
X152585830Y-102243132D01*
X152596866Y-102224719D01*
X152609654Y-102207476D01*
X152624070Y-102191570D01*
X152639976Y-102177154D01*
X152657219Y-102164366D01*
X152675632Y-102153330D01*
X152695038Y-102144151D01*
X152715250Y-102136919D01*
X152736074Y-102131703D01*
X152757309Y-102128553D01*
X152778750Y-102127500D01*
X153291250Y-102127500D01*
X153312691Y-102128553D01*
X153312691Y-102128553D01*
G37*
D15*
X153035000Y-102565000D03*
D16*
X153348500Y-91705500D03*
X152848500Y-91705500D03*
X152348500Y-91705500D03*
X153848500Y-91705500D03*
X151848500Y-91705500D03*
X154348500Y-91705500D03*
X151348500Y-91705500D03*
X154848500Y-91705500D03*
D17*
X155548500Y-91705500D03*
X150648500Y-91705500D03*
X156323500Y-91705500D03*
X149873500Y-91705500D03*
D18*
X148800000Y-102568600D03*
X151050000Y-102568600D03*
X148800000Y-106118600D03*
D19*
X159550000Y-106118600D03*
D14*
G36*
X156374191Y-103666053D02*
X156395426Y-103669203D01*
X156416250Y-103674419D01*
X156436462Y-103681651D01*
X156455868Y-103690830D01*
X156474281Y-103701866D01*
X156491524Y-103714654D01*
X156507430Y-103729070D01*
X156521846Y-103744976D01*
X156534634Y-103762219D01*
X156545670Y-103780632D01*
X156554849Y-103800038D01*
X156562081Y-103820250D01*
X156567297Y-103841074D01*
X156570447Y-103862309D01*
X156571500Y-103883750D01*
X156571500Y-104396250D01*
X156570447Y-104417691D01*
X156567297Y-104438926D01*
X156562081Y-104459750D01*
X156554849Y-104479962D01*
X156545670Y-104499368D01*
X156534634Y-104517781D01*
X156521846Y-104535024D01*
X156507430Y-104550930D01*
X156491524Y-104565346D01*
X156474281Y-104578134D01*
X156455868Y-104589170D01*
X156436462Y-104598349D01*
X156416250Y-104605581D01*
X156395426Y-104610797D01*
X156374191Y-104613947D01*
X156352750Y-104615000D01*
X155915250Y-104615000D01*
X155893809Y-104613947D01*
X155872574Y-104610797D01*
X155851750Y-104605581D01*
X155831538Y-104598349D01*
X155812132Y-104589170D01*
X155793719Y-104578134D01*
X155776476Y-104565346D01*
X155760570Y-104550930D01*
X155746154Y-104535024D01*
X155733366Y-104517781D01*
X155722330Y-104499368D01*
X155713151Y-104479962D01*
X155705919Y-104459750D01*
X155700703Y-104438926D01*
X155697553Y-104417691D01*
X155696500Y-104396250D01*
X155696500Y-103883750D01*
X155697553Y-103862309D01*
X155700703Y-103841074D01*
X155705919Y-103820250D01*
X155713151Y-103800038D01*
X155722330Y-103780632D01*
X155733366Y-103762219D01*
X155746154Y-103744976D01*
X155760570Y-103729070D01*
X155776476Y-103714654D01*
X155793719Y-103701866D01*
X155812132Y-103690830D01*
X155831538Y-103681651D01*
X155851750Y-103674419D01*
X155872574Y-103669203D01*
X155893809Y-103666053D01*
X155915250Y-103665000D01*
X156352750Y-103665000D01*
X156374191Y-103666053D01*
X156374191Y-103666053D01*
G37*
D15*
X156134000Y-104140000D03*
D14*
G36*
X154799191Y-103666053D02*
X154820426Y-103669203D01*
X154841250Y-103674419D01*
X154861462Y-103681651D01*
X154880868Y-103690830D01*
X154899281Y-103701866D01*
X154916524Y-103714654D01*
X154932430Y-103729070D01*
X154946846Y-103744976D01*
X154959634Y-103762219D01*
X154970670Y-103780632D01*
X154979849Y-103800038D01*
X154987081Y-103820250D01*
X154992297Y-103841074D01*
X154995447Y-103862309D01*
X154996500Y-103883750D01*
X154996500Y-104396250D01*
X154995447Y-104417691D01*
X154992297Y-104438926D01*
X154987081Y-104459750D01*
X154979849Y-104479962D01*
X154970670Y-104499368D01*
X154959634Y-104517781D01*
X154946846Y-104535024D01*
X154932430Y-104550930D01*
X154916524Y-104565346D01*
X154899281Y-104578134D01*
X154880868Y-104589170D01*
X154861462Y-104598349D01*
X154841250Y-104605581D01*
X154820426Y-104610797D01*
X154799191Y-104613947D01*
X154777750Y-104615000D01*
X154340250Y-104615000D01*
X154318809Y-104613947D01*
X154297574Y-104610797D01*
X154276750Y-104605581D01*
X154256538Y-104598349D01*
X154237132Y-104589170D01*
X154218719Y-104578134D01*
X154201476Y-104565346D01*
X154185570Y-104550930D01*
X154171154Y-104535024D01*
X154158366Y-104517781D01*
X154147330Y-104499368D01*
X154138151Y-104479962D01*
X154130919Y-104459750D01*
X154125703Y-104438926D01*
X154122553Y-104417691D01*
X154121500Y-104396250D01*
X154121500Y-103883750D01*
X154122553Y-103862309D01*
X154125703Y-103841074D01*
X154130919Y-103820250D01*
X154138151Y-103800038D01*
X154147330Y-103780632D01*
X154158366Y-103762219D01*
X154171154Y-103744976D01*
X154185570Y-103729070D01*
X154201476Y-103714654D01*
X154218719Y-103701866D01*
X154237132Y-103690830D01*
X154256538Y-103681651D01*
X154276750Y-103674419D01*
X154297574Y-103669203D01*
X154318809Y-103666053D01*
X154340250Y-103665000D01*
X154777750Y-103665000D01*
X154799191Y-103666053D01*
X154799191Y-103666053D01*
G37*
D15*
X154559000Y-104140000D03*
D14*
G36*
X156374191Y-102142053D02*
X156395426Y-102145203D01*
X156416250Y-102150419D01*
X156436462Y-102157651D01*
X156455868Y-102166830D01*
X156474281Y-102177866D01*
X156491524Y-102190654D01*
X156507430Y-102205070D01*
X156521846Y-102220976D01*
X156534634Y-102238219D01*
X156545670Y-102256632D01*
X156554849Y-102276038D01*
X156562081Y-102296250D01*
X156567297Y-102317074D01*
X156570447Y-102338309D01*
X156571500Y-102359750D01*
X156571500Y-102872250D01*
X156570447Y-102893691D01*
X156567297Y-102914926D01*
X156562081Y-102935750D01*
X156554849Y-102955962D01*
X156545670Y-102975368D01*
X156534634Y-102993781D01*
X156521846Y-103011024D01*
X156507430Y-103026930D01*
X156491524Y-103041346D01*
X156474281Y-103054134D01*
X156455868Y-103065170D01*
X156436462Y-103074349D01*
X156416250Y-103081581D01*
X156395426Y-103086797D01*
X156374191Y-103089947D01*
X156352750Y-103091000D01*
X155915250Y-103091000D01*
X155893809Y-103089947D01*
X155872574Y-103086797D01*
X155851750Y-103081581D01*
X155831538Y-103074349D01*
X155812132Y-103065170D01*
X155793719Y-103054134D01*
X155776476Y-103041346D01*
X155760570Y-103026930D01*
X155746154Y-103011024D01*
X155733366Y-102993781D01*
X155722330Y-102975368D01*
X155713151Y-102955962D01*
X155705919Y-102935750D01*
X155700703Y-102914926D01*
X155697553Y-102893691D01*
X155696500Y-102872250D01*
X155696500Y-102359750D01*
X155697553Y-102338309D01*
X155700703Y-102317074D01*
X155705919Y-102296250D01*
X155713151Y-102276038D01*
X155722330Y-102256632D01*
X155733366Y-102238219D01*
X155746154Y-102220976D01*
X155760570Y-102205070D01*
X155776476Y-102190654D01*
X155793719Y-102177866D01*
X155812132Y-102166830D01*
X155831538Y-102157651D01*
X155851750Y-102150419D01*
X155872574Y-102145203D01*
X155893809Y-102142053D01*
X155915250Y-102141000D01*
X156352750Y-102141000D01*
X156374191Y-102142053D01*
X156374191Y-102142053D01*
G37*
D15*
X156134000Y-102616000D03*
D14*
G36*
X154799191Y-102142053D02*
X154820426Y-102145203D01*
X154841250Y-102150419D01*
X154861462Y-102157651D01*
X154880868Y-102166830D01*
X154899281Y-102177866D01*
X154916524Y-102190654D01*
X154932430Y-102205070D01*
X154946846Y-102220976D01*
X154959634Y-102238219D01*
X154970670Y-102256632D01*
X154979849Y-102276038D01*
X154987081Y-102296250D01*
X154992297Y-102317074D01*
X154995447Y-102338309D01*
X154996500Y-102359750D01*
X154996500Y-102872250D01*
X154995447Y-102893691D01*
X154992297Y-102914926D01*
X154987081Y-102935750D01*
X154979849Y-102955962D01*
X154970670Y-102975368D01*
X154959634Y-102993781D01*
X154946846Y-103011024D01*
X154932430Y-103026930D01*
X154916524Y-103041346D01*
X154899281Y-103054134D01*
X154880868Y-103065170D01*
X154861462Y-103074349D01*
X154841250Y-103081581D01*
X154820426Y-103086797D01*
X154799191Y-103089947D01*
X154777750Y-103091000D01*
X154340250Y-103091000D01*
X154318809Y-103089947D01*
X154297574Y-103086797D01*
X154276750Y-103081581D01*
X154256538Y-103074349D01*
X154237132Y-103065170D01*
X154218719Y-103054134D01*
X154201476Y-103041346D01*
X154185570Y-103026930D01*
X154171154Y-103011024D01*
X154158366Y-102993781D01*
X154147330Y-102975368D01*
X154138151Y-102955962D01*
X154130919Y-102935750D01*
X154125703Y-102914926D01*
X154122553Y-102893691D01*
X154121500Y-102872250D01*
X154121500Y-102359750D01*
X154122553Y-102338309D01*
X154125703Y-102317074D01*
X154130919Y-102296250D01*
X154138151Y-102276038D01*
X154147330Y-102256632D01*
X154158366Y-102238219D01*
X154171154Y-102220976D01*
X154185570Y-102205070D01*
X154201476Y-102190654D01*
X154218719Y-102177866D01*
X154237132Y-102166830D01*
X154256538Y-102157651D01*
X154276750Y-102150419D01*
X154297574Y-102145203D01*
X154318809Y-102142053D01*
X154340250Y-102141000D01*
X154777750Y-102141000D01*
X154799191Y-102142053D01*
X154799191Y-102142053D01*
G37*
D15*
X154559000Y-102616000D03*
D20*
X161224000Y-90086000D03*
X160274000Y-90086000D03*
X159324000Y-90086000D03*
X159324000Y-92286000D03*
X161224000Y-92286000D03*
D14*
G36*
X159217005Y-87741204D02*
X159241273Y-87744804D01*
X159265072Y-87750765D01*
X159288171Y-87759030D01*
X159310350Y-87769520D01*
X159331393Y-87782132D01*
X159351099Y-87796747D01*
X159369277Y-87813223D01*
X159385753Y-87831401D01*
X159400368Y-87851107D01*
X159412980Y-87872150D01*
X159423470Y-87894329D01*
X159431735Y-87917428D01*
X159437696Y-87941227D01*
X159441296Y-87965495D01*
X159442500Y-87989999D01*
X159442500Y-88540001D01*
X159441296Y-88564505D01*
X159437696Y-88588773D01*
X159431735Y-88612572D01*
X159423470Y-88635671D01*
X159412980Y-88657850D01*
X159400368Y-88678893D01*
X159385753Y-88698599D01*
X159369277Y-88716777D01*
X159351099Y-88733253D01*
X159331393Y-88747868D01*
X159310350Y-88760480D01*
X159288171Y-88770970D01*
X159265072Y-88779235D01*
X159241273Y-88785196D01*
X159217005Y-88788796D01*
X159192501Y-88790000D01*
X158567499Y-88790000D01*
X158542995Y-88788796D01*
X158518727Y-88785196D01*
X158494928Y-88779235D01*
X158471829Y-88770970D01*
X158449650Y-88760480D01*
X158428607Y-88747868D01*
X158408901Y-88733253D01*
X158390723Y-88716777D01*
X158374247Y-88698599D01*
X158359632Y-88678893D01*
X158347020Y-88657850D01*
X158336530Y-88635671D01*
X158328265Y-88612572D01*
X158322304Y-88588773D01*
X158318704Y-88564505D01*
X158317500Y-88540001D01*
X158317500Y-87989999D01*
X158318704Y-87965495D01*
X158322304Y-87941227D01*
X158328265Y-87917428D01*
X158336530Y-87894329D01*
X158347020Y-87872150D01*
X158359632Y-87851107D01*
X158374247Y-87831401D01*
X158390723Y-87813223D01*
X158408901Y-87796747D01*
X158428607Y-87782132D01*
X158449650Y-87769520D01*
X158471829Y-87759030D01*
X158494928Y-87750765D01*
X158518727Y-87744804D01*
X158542995Y-87741204D01*
X158567499Y-87740000D01*
X159192501Y-87740000D01*
X159217005Y-87741204D01*
X159217005Y-87741204D01*
G37*
D21*
X158880000Y-88265000D03*
D14*
G36*
X160992005Y-87741204D02*
X161016273Y-87744804D01*
X161040072Y-87750765D01*
X161063171Y-87759030D01*
X161085350Y-87769520D01*
X161106393Y-87782132D01*
X161126099Y-87796747D01*
X161144277Y-87813223D01*
X161160753Y-87831401D01*
X161175368Y-87851107D01*
X161187980Y-87872150D01*
X161198470Y-87894329D01*
X161206735Y-87917428D01*
X161212696Y-87941227D01*
X161216296Y-87965495D01*
X161217500Y-87989999D01*
X161217500Y-88540001D01*
X161216296Y-88564505D01*
X161212696Y-88588773D01*
X161206735Y-88612572D01*
X161198470Y-88635671D01*
X161187980Y-88657850D01*
X161175368Y-88678893D01*
X161160753Y-88698599D01*
X161144277Y-88716777D01*
X161126099Y-88733253D01*
X161106393Y-88747868D01*
X161085350Y-88760480D01*
X161063171Y-88770970D01*
X161040072Y-88779235D01*
X161016273Y-88785196D01*
X160992005Y-88788796D01*
X160967501Y-88790000D01*
X160342499Y-88790000D01*
X160317995Y-88788796D01*
X160293727Y-88785196D01*
X160269928Y-88779235D01*
X160246829Y-88770970D01*
X160224650Y-88760480D01*
X160203607Y-88747868D01*
X160183901Y-88733253D01*
X160165723Y-88716777D01*
X160149247Y-88698599D01*
X160134632Y-88678893D01*
X160122020Y-88657850D01*
X160111530Y-88635671D01*
X160103265Y-88612572D01*
X160097304Y-88588773D01*
X160093704Y-88564505D01*
X160092500Y-88540001D01*
X160092500Y-87989999D01*
X160093704Y-87965495D01*
X160097304Y-87941227D01*
X160103265Y-87917428D01*
X160111530Y-87894329D01*
X160122020Y-87872150D01*
X160134632Y-87851107D01*
X160149247Y-87831401D01*
X160165723Y-87813223D01*
X160183901Y-87796747D01*
X160203607Y-87782132D01*
X160224650Y-87769520D01*
X160246829Y-87759030D01*
X160269928Y-87750765D01*
X160293727Y-87744804D01*
X160317995Y-87741204D01*
X160342499Y-87740000D01*
X160967501Y-87740000D01*
X160992005Y-87741204D01*
X160992005Y-87741204D01*
G37*
D21*
X160655000Y-88265000D03*
D14*
G36*
X163431005Y-90754704D02*
X163455273Y-90758304D01*
X163479072Y-90764265D01*
X163502171Y-90772530D01*
X163524350Y-90783020D01*
X163545393Y-90795632D01*
X163565099Y-90810247D01*
X163583277Y-90826723D01*
X163599753Y-90844901D01*
X163614368Y-90864607D01*
X163626980Y-90885650D01*
X163637470Y-90907829D01*
X163645735Y-90930928D01*
X163651696Y-90954727D01*
X163655296Y-90978995D01*
X163656500Y-91003499D01*
X163656500Y-91628501D01*
X163655296Y-91653005D01*
X163651696Y-91677273D01*
X163645735Y-91701072D01*
X163637470Y-91724171D01*
X163626980Y-91746350D01*
X163614368Y-91767393D01*
X163599753Y-91787099D01*
X163583277Y-91805277D01*
X163565099Y-91821753D01*
X163545393Y-91836368D01*
X163524350Y-91848980D01*
X163502171Y-91859470D01*
X163479072Y-91867735D01*
X163455273Y-91873696D01*
X163431005Y-91877296D01*
X163406501Y-91878500D01*
X162856499Y-91878500D01*
X162831995Y-91877296D01*
X162807727Y-91873696D01*
X162783928Y-91867735D01*
X162760829Y-91859470D01*
X162738650Y-91848980D01*
X162717607Y-91836368D01*
X162697901Y-91821753D01*
X162679723Y-91805277D01*
X162663247Y-91787099D01*
X162648632Y-91767393D01*
X162636020Y-91746350D01*
X162625530Y-91724171D01*
X162617265Y-91701072D01*
X162611304Y-91677273D01*
X162607704Y-91653005D01*
X162606500Y-91628501D01*
X162606500Y-91003499D01*
X162607704Y-90978995D01*
X162611304Y-90954727D01*
X162617265Y-90930928D01*
X162625530Y-90907829D01*
X162636020Y-90885650D01*
X162648632Y-90864607D01*
X162663247Y-90844901D01*
X162679723Y-90826723D01*
X162697901Y-90810247D01*
X162717607Y-90795632D01*
X162738650Y-90783020D01*
X162760829Y-90772530D01*
X162783928Y-90764265D01*
X162807727Y-90758304D01*
X162831995Y-90754704D01*
X162856499Y-90753500D01*
X163406501Y-90753500D01*
X163431005Y-90754704D01*
X163431005Y-90754704D01*
G37*
D21*
X163131500Y-91316000D03*
D14*
G36*
X163431005Y-92529704D02*
X163455273Y-92533304D01*
X163479072Y-92539265D01*
X163502171Y-92547530D01*
X163524350Y-92558020D01*
X163545393Y-92570632D01*
X163565099Y-92585247D01*
X163583277Y-92601723D01*
X163599753Y-92619901D01*
X163614368Y-92639607D01*
X163626980Y-92660650D01*
X163637470Y-92682829D01*
X163645735Y-92705928D01*
X163651696Y-92729727D01*
X163655296Y-92753995D01*
X163656500Y-92778499D01*
X163656500Y-93403501D01*
X163655296Y-93428005D01*
X163651696Y-93452273D01*
X163645735Y-93476072D01*
X163637470Y-93499171D01*
X163626980Y-93521350D01*
X163614368Y-93542393D01*
X163599753Y-93562099D01*
X163583277Y-93580277D01*
X163565099Y-93596753D01*
X163545393Y-93611368D01*
X163524350Y-93623980D01*
X163502171Y-93634470D01*
X163479072Y-93642735D01*
X163455273Y-93648696D01*
X163431005Y-93652296D01*
X163406501Y-93653500D01*
X162856499Y-93653500D01*
X162831995Y-93652296D01*
X162807727Y-93648696D01*
X162783928Y-93642735D01*
X162760829Y-93634470D01*
X162738650Y-93623980D01*
X162717607Y-93611368D01*
X162697901Y-93596753D01*
X162679723Y-93580277D01*
X162663247Y-93562099D01*
X162648632Y-93542393D01*
X162636020Y-93521350D01*
X162625530Y-93499171D01*
X162617265Y-93476072D01*
X162611304Y-93452273D01*
X162607704Y-93428005D01*
X162606500Y-93403501D01*
X162606500Y-92778499D01*
X162607704Y-92753995D01*
X162611304Y-92729727D01*
X162617265Y-92705928D01*
X162625530Y-92682829D01*
X162636020Y-92660650D01*
X162648632Y-92639607D01*
X162663247Y-92619901D01*
X162679723Y-92601723D01*
X162697901Y-92585247D01*
X162717607Y-92570632D01*
X162738650Y-92558020D01*
X162760829Y-92547530D01*
X162783928Y-92539265D01*
X162807727Y-92533304D01*
X162831995Y-92529704D01*
X162856499Y-92528500D01*
X163406501Y-92528500D01*
X163431005Y-92529704D01*
X163431005Y-92529704D01*
G37*
D21*
X163131500Y-93091000D03*
D14*
G36*
X163003191Y-98586053D02*
X163024426Y-98589203D01*
X163045250Y-98594419D01*
X163065462Y-98601651D01*
X163084868Y-98610830D01*
X163103281Y-98621866D01*
X163120524Y-98634654D01*
X163136430Y-98649070D01*
X163150846Y-98664976D01*
X163163634Y-98682219D01*
X163174670Y-98700632D01*
X163183849Y-98720038D01*
X163191081Y-98740250D01*
X163196297Y-98761074D01*
X163199447Y-98782309D01*
X163200500Y-98803750D01*
X163200500Y-99316250D01*
X163199447Y-99337691D01*
X163196297Y-99358926D01*
X163191081Y-99379750D01*
X163183849Y-99399962D01*
X163174670Y-99419368D01*
X163163634Y-99437781D01*
X163150846Y-99455024D01*
X163136430Y-99470930D01*
X163120524Y-99485346D01*
X163103281Y-99498134D01*
X163084868Y-99509170D01*
X163065462Y-99518349D01*
X163045250Y-99525581D01*
X163024426Y-99530797D01*
X163003191Y-99533947D01*
X162981750Y-99535000D01*
X162544250Y-99535000D01*
X162522809Y-99533947D01*
X162501574Y-99530797D01*
X162480750Y-99525581D01*
X162460538Y-99518349D01*
X162441132Y-99509170D01*
X162422719Y-99498134D01*
X162405476Y-99485346D01*
X162389570Y-99470930D01*
X162375154Y-99455024D01*
X162362366Y-99437781D01*
X162351330Y-99419368D01*
X162342151Y-99399962D01*
X162334919Y-99379750D01*
X162329703Y-99358926D01*
X162326553Y-99337691D01*
X162325500Y-99316250D01*
X162325500Y-98803750D01*
X162326553Y-98782309D01*
X162329703Y-98761074D01*
X162334919Y-98740250D01*
X162342151Y-98720038D01*
X162351330Y-98700632D01*
X162362366Y-98682219D01*
X162375154Y-98664976D01*
X162389570Y-98649070D01*
X162405476Y-98634654D01*
X162422719Y-98621866D01*
X162441132Y-98610830D01*
X162460538Y-98601651D01*
X162480750Y-98594419D01*
X162501574Y-98589203D01*
X162522809Y-98586053D01*
X162544250Y-98585000D01*
X162981750Y-98585000D01*
X163003191Y-98586053D01*
X163003191Y-98586053D01*
G37*
D15*
X162763000Y-99060000D03*
D14*
G36*
X164578191Y-98586053D02*
X164599426Y-98589203D01*
X164620250Y-98594419D01*
X164640462Y-98601651D01*
X164659868Y-98610830D01*
X164678281Y-98621866D01*
X164695524Y-98634654D01*
X164711430Y-98649070D01*
X164725846Y-98664976D01*
X164738634Y-98682219D01*
X164749670Y-98700632D01*
X164758849Y-98720038D01*
X164766081Y-98740250D01*
X164771297Y-98761074D01*
X164774447Y-98782309D01*
X164775500Y-98803750D01*
X164775500Y-99316250D01*
X164774447Y-99337691D01*
X164771297Y-99358926D01*
X164766081Y-99379750D01*
X164758849Y-99399962D01*
X164749670Y-99419368D01*
X164738634Y-99437781D01*
X164725846Y-99455024D01*
X164711430Y-99470930D01*
X164695524Y-99485346D01*
X164678281Y-99498134D01*
X164659868Y-99509170D01*
X164640462Y-99518349D01*
X164620250Y-99525581D01*
X164599426Y-99530797D01*
X164578191Y-99533947D01*
X164556750Y-99535000D01*
X164119250Y-99535000D01*
X164097809Y-99533947D01*
X164076574Y-99530797D01*
X164055750Y-99525581D01*
X164035538Y-99518349D01*
X164016132Y-99509170D01*
X163997719Y-99498134D01*
X163980476Y-99485346D01*
X163964570Y-99470930D01*
X163950154Y-99455024D01*
X163937366Y-99437781D01*
X163926330Y-99419368D01*
X163917151Y-99399962D01*
X163909919Y-99379750D01*
X163904703Y-99358926D01*
X163901553Y-99337691D01*
X163900500Y-99316250D01*
X163900500Y-98803750D01*
X163901553Y-98782309D01*
X163904703Y-98761074D01*
X163909919Y-98740250D01*
X163917151Y-98720038D01*
X163926330Y-98700632D01*
X163937366Y-98682219D01*
X163950154Y-98664976D01*
X163964570Y-98649070D01*
X163980476Y-98634654D01*
X163997719Y-98621866D01*
X164016132Y-98610830D01*
X164035538Y-98601651D01*
X164055750Y-98594419D01*
X164076574Y-98589203D01*
X164097809Y-98586053D01*
X164119250Y-98585000D01*
X164556750Y-98585000D01*
X164578191Y-98586053D01*
X164578191Y-98586053D01*
G37*
D15*
X164338000Y-99060000D03*
D14*
G36*
X143305691Y-98395553D02*
X143326926Y-98398703D01*
X143347750Y-98403919D01*
X143367962Y-98411151D01*
X143387368Y-98420330D01*
X143405781Y-98431366D01*
X143423024Y-98444154D01*
X143438930Y-98458570D01*
X143453346Y-98474476D01*
X143466134Y-98491719D01*
X143477170Y-98510132D01*
X143486349Y-98529538D01*
X143493581Y-98549750D01*
X143498797Y-98570574D01*
X143501947Y-98591809D01*
X143503000Y-98613250D01*
X143503000Y-99125750D01*
X143501947Y-99147191D01*
X143498797Y-99168426D01*
X143493581Y-99189250D01*
X143486349Y-99209462D01*
X143477170Y-99228868D01*
X143466134Y-99247281D01*
X143453346Y-99264524D01*
X143438930Y-99280430D01*
X143423024Y-99294846D01*
X143405781Y-99307634D01*
X143387368Y-99318670D01*
X143367962Y-99327849D01*
X143347750Y-99335081D01*
X143326926Y-99340297D01*
X143305691Y-99343447D01*
X143284250Y-99344500D01*
X142846750Y-99344500D01*
X142825309Y-99343447D01*
X142804074Y-99340297D01*
X142783250Y-99335081D01*
X142763038Y-99327849D01*
X142743632Y-99318670D01*
X142725219Y-99307634D01*
X142707976Y-99294846D01*
X142692070Y-99280430D01*
X142677654Y-99264524D01*
X142664866Y-99247281D01*
X142653830Y-99228868D01*
X142644651Y-99209462D01*
X142637419Y-99189250D01*
X142632203Y-99168426D01*
X142629053Y-99147191D01*
X142628000Y-99125750D01*
X142628000Y-98613250D01*
X142629053Y-98591809D01*
X142632203Y-98570574D01*
X142637419Y-98549750D01*
X142644651Y-98529538D01*
X142653830Y-98510132D01*
X142664866Y-98491719D01*
X142677654Y-98474476D01*
X142692070Y-98458570D01*
X142707976Y-98444154D01*
X142725219Y-98431366D01*
X142743632Y-98420330D01*
X142763038Y-98411151D01*
X142783250Y-98403919D01*
X142804074Y-98398703D01*
X142825309Y-98395553D01*
X142846750Y-98394500D01*
X143284250Y-98394500D01*
X143305691Y-98395553D01*
X143305691Y-98395553D01*
G37*
D15*
X143065500Y-98869500D03*
D14*
G36*
X141730691Y-98395553D02*
X141751926Y-98398703D01*
X141772750Y-98403919D01*
X141792962Y-98411151D01*
X141812368Y-98420330D01*
X141830781Y-98431366D01*
X141848024Y-98444154D01*
X141863930Y-98458570D01*
X141878346Y-98474476D01*
X141891134Y-98491719D01*
X141902170Y-98510132D01*
X141911349Y-98529538D01*
X141918581Y-98549750D01*
X141923797Y-98570574D01*
X141926947Y-98591809D01*
X141928000Y-98613250D01*
X141928000Y-99125750D01*
X141926947Y-99147191D01*
X141923797Y-99168426D01*
X141918581Y-99189250D01*
X141911349Y-99209462D01*
X141902170Y-99228868D01*
X141891134Y-99247281D01*
X141878346Y-99264524D01*
X141863930Y-99280430D01*
X141848024Y-99294846D01*
X141830781Y-99307634D01*
X141812368Y-99318670D01*
X141792962Y-99327849D01*
X141772750Y-99335081D01*
X141751926Y-99340297D01*
X141730691Y-99343447D01*
X141709250Y-99344500D01*
X141271750Y-99344500D01*
X141250309Y-99343447D01*
X141229074Y-99340297D01*
X141208250Y-99335081D01*
X141188038Y-99327849D01*
X141168632Y-99318670D01*
X141150219Y-99307634D01*
X141132976Y-99294846D01*
X141117070Y-99280430D01*
X141102654Y-99264524D01*
X141089866Y-99247281D01*
X141078830Y-99228868D01*
X141069651Y-99209462D01*
X141062419Y-99189250D01*
X141057203Y-99168426D01*
X141054053Y-99147191D01*
X141053000Y-99125750D01*
X141053000Y-98613250D01*
X141054053Y-98591809D01*
X141057203Y-98570574D01*
X141062419Y-98549750D01*
X141069651Y-98529538D01*
X141078830Y-98510132D01*
X141089866Y-98491719D01*
X141102654Y-98474476D01*
X141117070Y-98458570D01*
X141132976Y-98444154D01*
X141150219Y-98431366D01*
X141168632Y-98420330D01*
X141188038Y-98411151D01*
X141208250Y-98403919D01*
X141229074Y-98398703D01*
X141250309Y-98395553D01*
X141271750Y-98394500D01*
X141709250Y-98394500D01*
X141730691Y-98395553D01*
X141730691Y-98395553D01*
G37*
D15*
X141490500Y-98869500D03*
D14*
G36*
X161694691Y-94407053D02*
X161715926Y-94410203D01*
X161736750Y-94415419D01*
X161756962Y-94422651D01*
X161776368Y-94431830D01*
X161794781Y-94442866D01*
X161812024Y-94455654D01*
X161827930Y-94470070D01*
X161842346Y-94485976D01*
X161855134Y-94503219D01*
X161866170Y-94521632D01*
X161875349Y-94541038D01*
X161882581Y-94561250D01*
X161887797Y-94582074D01*
X161890947Y-94603309D01*
X161892000Y-94624750D01*
X161892000Y-95062250D01*
X161890947Y-95083691D01*
X161887797Y-95104926D01*
X161882581Y-95125750D01*
X161875349Y-95145962D01*
X161866170Y-95165368D01*
X161855134Y-95183781D01*
X161842346Y-95201024D01*
X161827930Y-95216930D01*
X161812024Y-95231346D01*
X161794781Y-95244134D01*
X161776368Y-95255170D01*
X161756962Y-95264349D01*
X161736750Y-95271581D01*
X161715926Y-95276797D01*
X161694691Y-95279947D01*
X161673250Y-95281000D01*
X161160750Y-95281000D01*
X161139309Y-95279947D01*
X161118074Y-95276797D01*
X161097250Y-95271581D01*
X161077038Y-95264349D01*
X161057632Y-95255170D01*
X161039219Y-95244134D01*
X161021976Y-95231346D01*
X161006070Y-95216930D01*
X160991654Y-95201024D01*
X160978866Y-95183781D01*
X160967830Y-95165368D01*
X160958651Y-95145962D01*
X160951419Y-95125750D01*
X160946203Y-95104926D01*
X160943053Y-95083691D01*
X160942000Y-95062250D01*
X160942000Y-94624750D01*
X160943053Y-94603309D01*
X160946203Y-94582074D01*
X160951419Y-94561250D01*
X160958651Y-94541038D01*
X160967830Y-94521632D01*
X160978866Y-94503219D01*
X160991654Y-94485976D01*
X161006070Y-94470070D01*
X161021976Y-94455654D01*
X161039219Y-94442866D01*
X161057632Y-94431830D01*
X161077038Y-94422651D01*
X161097250Y-94415419D01*
X161118074Y-94410203D01*
X161139309Y-94407053D01*
X161160750Y-94406000D01*
X161673250Y-94406000D01*
X161694691Y-94407053D01*
X161694691Y-94407053D01*
G37*
D15*
X161417000Y-94843500D03*
D14*
G36*
X161694691Y-95982053D02*
X161715926Y-95985203D01*
X161736750Y-95990419D01*
X161756962Y-95997651D01*
X161776368Y-96006830D01*
X161794781Y-96017866D01*
X161812024Y-96030654D01*
X161827930Y-96045070D01*
X161842346Y-96060976D01*
X161855134Y-96078219D01*
X161866170Y-96096632D01*
X161875349Y-96116038D01*
X161882581Y-96136250D01*
X161887797Y-96157074D01*
X161890947Y-96178309D01*
X161892000Y-96199750D01*
X161892000Y-96637250D01*
X161890947Y-96658691D01*
X161887797Y-96679926D01*
X161882581Y-96700750D01*
X161875349Y-96720962D01*
X161866170Y-96740368D01*
X161855134Y-96758781D01*
X161842346Y-96776024D01*
X161827930Y-96791930D01*
X161812024Y-96806346D01*
X161794781Y-96819134D01*
X161776368Y-96830170D01*
X161756962Y-96839349D01*
X161736750Y-96846581D01*
X161715926Y-96851797D01*
X161694691Y-96854947D01*
X161673250Y-96856000D01*
X161160750Y-96856000D01*
X161139309Y-96854947D01*
X161118074Y-96851797D01*
X161097250Y-96846581D01*
X161077038Y-96839349D01*
X161057632Y-96830170D01*
X161039219Y-96819134D01*
X161021976Y-96806346D01*
X161006070Y-96791930D01*
X160991654Y-96776024D01*
X160978866Y-96758781D01*
X160967830Y-96740368D01*
X160958651Y-96720962D01*
X160951419Y-96700750D01*
X160946203Y-96679926D01*
X160943053Y-96658691D01*
X160942000Y-96637250D01*
X160942000Y-96199750D01*
X160943053Y-96178309D01*
X160946203Y-96157074D01*
X160951419Y-96136250D01*
X160958651Y-96116038D01*
X160967830Y-96096632D01*
X160978866Y-96078219D01*
X160991654Y-96060976D01*
X161006070Y-96045070D01*
X161021976Y-96030654D01*
X161039219Y-96017866D01*
X161057632Y-96006830D01*
X161077038Y-95997651D01*
X161097250Y-95990419D01*
X161118074Y-95985203D01*
X161139309Y-95982053D01*
X161160750Y-95981000D01*
X161673250Y-95981000D01*
X161694691Y-95982053D01*
X161694691Y-95982053D01*
G37*
D15*
X161417000Y-96418500D03*
D22*
X148294600Y-100662500D03*
X148294600Y-99362500D03*
X146294600Y-100662500D03*
X146294600Y-99362500D03*
D23*
X161162000Y-98552000D03*
X157862000Y-98552000D03*
D14*
G36*
X163218691Y-95956553D02*
X163239926Y-95959703D01*
X163260750Y-95964919D01*
X163280962Y-95972151D01*
X163300368Y-95981330D01*
X163318781Y-95992366D01*
X163336024Y-96005154D01*
X163351930Y-96019570D01*
X163366346Y-96035476D01*
X163379134Y-96052719D01*
X163390170Y-96071132D01*
X163399349Y-96090538D01*
X163406581Y-96110750D01*
X163411797Y-96131574D01*
X163414947Y-96152809D01*
X163416000Y-96174250D01*
X163416000Y-96611750D01*
X163414947Y-96633191D01*
X163411797Y-96654426D01*
X163406581Y-96675250D01*
X163399349Y-96695462D01*
X163390170Y-96714868D01*
X163379134Y-96733281D01*
X163366346Y-96750524D01*
X163351930Y-96766430D01*
X163336024Y-96780846D01*
X163318781Y-96793634D01*
X163300368Y-96804670D01*
X163280962Y-96813849D01*
X163260750Y-96821081D01*
X163239926Y-96826297D01*
X163218691Y-96829447D01*
X163197250Y-96830500D01*
X162684750Y-96830500D01*
X162663309Y-96829447D01*
X162642074Y-96826297D01*
X162621250Y-96821081D01*
X162601038Y-96813849D01*
X162581632Y-96804670D01*
X162563219Y-96793634D01*
X162545976Y-96780846D01*
X162530070Y-96766430D01*
X162515654Y-96750524D01*
X162502866Y-96733281D01*
X162491830Y-96714868D01*
X162482651Y-96695462D01*
X162475419Y-96675250D01*
X162470203Y-96654426D01*
X162467053Y-96633191D01*
X162466000Y-96611750D01*
X162466000Y-96174250D01*
X162467053Y-96152809D01*
X162470203Y-96131574D01*
X162475419Y-96110750D01*
X162482651Y-96090538D01*
X162491830Y-96071132D01*
X162502866Y-96052719D01*
X162515654Y-96035476D01*
X162530070Y-96019570D01*
X162545976Y-96005154D01*
X162563219Y-95992366D01*
X162581632Y-95981330D01*
X162601038Y-95972151D01*
X162621250Y-95964919D01*
X162642074Y-95959703D01*
X162663309Y-95956553D01*
X162684750Y-95955500D01*
X163197250Y-95955500D01*
X163218691Y-95956553D01*
X163218691Y-95956553D01*
G37*
D15*
X162941000Y-96393000D03*
D14*
G36*
X163218691Y-94381553D02*
X163239926Y-94384703D01*
X163260750Y-94389919D01*
X163280962Y-94397151D01*
X163300368Y-94406330D01*
X163318781Y-94417366D01*
X163336024Y-94430154D01*
X163351930Y-94444570D01*
X163366346Y-94460476D01*
X163379134Y-94477719D01*
X163390170Y-94496132D01*
X163399349Y-94515538D01*
X163406581Y-94535750D01*
X163411797Y-94556574D01*
X163414947Y-94577809D01*
X163416000Y-94599250D01*
X163416000Y-95036750D01*
X163414947Y-95058191D01*
X163411797Y-95079426D01*
X163406581Y-95100250D01*
X163399349Y-95120462D01*
X163390170Y-95139868D01*
X163379134Y-95158281D01*
X163366346Y-95175524D01*
X163351930Y-95191430D01*
X163336024Y-95205846D01*
X163318781Y-95218634D01*
X163300368Y-95229670D01*
X163280962Y-95238849D01*
X163260750Y-95246081D01*
X163239926Y-95251297D01*
X163218691Y-95254447D01*
X163197250Y-95255500D01*
X162684750Y-95255500D01*
X162663309Y-95254447D01*
X162642074Y-95251297D01*
X162621250Y-95246081D01*
X162601038Y-95238849D01*
X162581632Y-95229670D01*
X162563219Y-95218634D01*
X162545976Y-95205846D01*
X162530070Y-95191430D01*
X162515654Y-95175524D01*
X162502866Y-95158281D01*
X162491830Y-95139868D01*
X162482651Y-95120462D01*
X162475419Y-95100250D01*
X162470203Y-95079426D01*
X162467053Y-95058191D01*
X162466000Y-95036750D01*
X162466000Y-94599250D01*
X162467053Y-94577809D01*
X162470203Y-94556574D01*
X162475419Y-94535750D01*
X162482651Y-94515538D01*
X162491830Y-94496132D01*
X162502866Y-94477719D01*
X162515654Y-94460476D01*
X162530070Y-94444570D01*
X162545976Y-94430154D01*
X162563219Y-94417366D01*
X162581632Y-94406330D01*
X162601038Y-94397151D01*
X162621250Y-94389919D01*
X162642074Y-94384703D01*
X162663309Y-94381553D01*
X162684750Y-94380500D01*
X163197250Y-94380500D01*
X163218691Y-94381553D01*
X163218691Y-94381553D01*
G37*
D15*
X162941000Y-94818000D03*
D14*
G36*
X157847191Y-102142053D02*
X157868426Y-102145203D01*
X157889250Y-102150419D01*
X157909462Y-102157651D01*
X157928868Y-102166830D01*
X157947281Y-102177866D01*
X157964524Y-102190654D01*
X157980430Y-102205070D01*
X157994846Y-102220976D01*
X158007634Y-102238219D01*
X158018670Y-102256632D01*
X158027849Y-102276038D01*
X158035081Y-102296250D01*
X158040297Y-102317074D01*
X158043447Y-102338309D01*
X158044500Y-102359750D01*
X158044500Y-102872250D01*
X158043447Y-102893691D01*
X158040297Y-102914926D01*
X158035081Y-102935750D01*
X158027849Y-102955962D01*
X158018670Y-102975368D01*
X158007634Y-102993781D01*
X157994846Y-103011024D01*
X157980430Y-103026930D01*
X157964524Y-103041346D01*
X157947281Y-103054134D01*
X157928868Y-103065170D01*
X157909462Y-103074349D01*
X157889250Y-103081581D01*
X157868426Y-103086797D01*
X157847191Y-103089947D01*
X157825750Y-103091000D01*
X157388250Y-103091000D01*
X157366809Y-103089947D01*
X157345574Y-103086797D01*
X157324750Y-103081581D01*
X157304538Y-103074349D01*
X157285132Y-103065170D01*
X157266719Y-103054134D01*
X157249476Y-103041346D01*
X157233570Y-103026930D01*
X157219154Y-103011024D01*
X157206366Y-102993781D01*
X157195330Y-102975368D01*
X157186151Y-102955962D01*
X157178919Y-102935750D01*
X157173703Y-102914926D01*
X157170553Y-102893691D01*
X157169500Y-102872250D01*
X157169500Y-102359750D01*
X157170553Y-102338309D01*
X157173703Y-102317074D01*
X157178919Y-102296250D01*
X157186151Y-102276038D01*
X157195330Y-102256632D01*
X157206366Y-102238219D01*
X157219154Y-102220976D01*
X157233570Y-102205070D01*
X157249476Y-102190654D01*
X157266719Y-102177866D01*
X157285132Y-102166830D01*
X157304538Y-102157651D01*
X157324750Y-102150419D01*
X157345574Y-102145203D01*
X157366809Y-102142053D01*
X157388250Y-102141000D01*
X157825750Y-102141000D01*
X157847191Y-102142053D01*
X157847191Y-102142053D01*
G37*
D15*
X157607000Y-102616000D03*
D14*
G36*
X159422191Y-102142053D02*
X159443426Y-102145203D01*
X159464250Y-102150419D01*
X159484462Y-102157651D01*
X159503868Y-102166830D01*
X159522281Y-102177866D01*
X159539524Y-102190654D01*
X159555430Y-102205070D01*
X159569846Y-102220976D01*
X159582634Y-102238219D01*
X159593670Y-102256632D01*
X159602849Y-102276038D01*
X159610081Y-102296250D01*
X159615297Y-102317074D01*
X159618447Y-102338309D01*
X159619500Y-102359750D01*
X159619500Y-102872250D01*
X159618447Y-102893691D01*
X159615297Y-102914926D01*
X159610081Y-102935750D01*
X159602849Y-102955962D01*
X159593670Y-102975368D01*
X159582634Y-102993781D01*
X159569846Y-103011024D01*
X159555430Y-103026930D01*
X159539524Y-103041346D01*
X159522281Y-103054134D01*
X159503868Y-103065170D01*
X159484462Y-103074349D01*
X159464250Y-103081581D01*
X159443426Y-103086797D01*
X159422191Y-103089947D01*
X159400750Y-103091000D01*
X158963250Y-103091000D01*
X158941809Y-103089947D01*
X158920574Y-103086797D01*
X158899750Y-103081581D01*
X158879538Y-103074349D01*
X158860132Y-103065170D01*
X158841719Y-103054134D01*
X158824476Y-103041346D01*
X158808570Y-103026930D01*
X158794154Y-103011024D01*
X158781366Y-102993781D01*
X158770330Y-102975368D01*
X158761151Y-102955962D01*
X158753919Y-102935750D01*
X158748703Y-102914926D01*
X158745553Y-102893691D01*
X158744500Y-102872250D01*
X158744500Y-102359750D01*
X158745553Y-102338309D01*
X158748703Y-102317074D01*
X158753919Y-102296250D01*
X158761151Y-102276038D01*
X158770330Y-102256632D01*
X158781366Y-102238219D01*
X158794154Y-102220976D01*
X158808570Y-102205070D01*
X158824476Y-102190654D01*
X158841719Y-102177866D01*
X158860132Y-102166830D01*
X158879538Y-102157651D01*
X158899750Y-102150419D01*
X158920574Y-102145203D01*
X158941809Y-102142053D01*
X158963250Y-102141000D01*
X159400750Y-102141000D01*
X159422191Y-102142053D01*
X159422191Y-102142053D01*
G37*
D15*
X159182000Y-102616000D03*
D14*
G36*
X144803691Y-99004553D02*
X144824926Y-99007703D01*
X144845750Y-99012919D01*
X144865962Y-99020151D01*
X144885368Y-99029330D01*
X144903781Y-99040366D01*
X144921024Y-99053154D01*
X144936930Y-99067570D01*
X144951346Y-99083476D01*
X144964134Y-99100719D01*
X144975170Y-99119132D01*
X144984349Y-99138538D01*
X144991581Y-99158750D01*
X144996797Y-99179574D01*
X144999947Y-99200809D01*
X145001000Y-99222250D01*
X145001000Y-99659750D01*
X144999947Y-99681191D01*
X144996797Y-99702426D01*
X144991581Y-99723250D01*
X144984349Y-99743462D01*
X144975170Y-99762868D01*
X144964134Y-99781281D01*
X144951346Y-99798524D01*
X144936930Y-99814430D01*
X144921024Y-99828846D01*
X144903781Y-99841634D01*
X144885368Y-99852670D01*
X144865962Y-99861849D01*
X144845750Y-99869081D01*
X144824926Y-99874297D01*
X144803691Y-99877447D01*
X144782250Y-99878500D01*
X144269750Y-99878500D01*
X144248309Y-99877447D01*
X144227074Y-99874297D01*
X144206250Y-99869081D01*
X144186038Y-99861849D01*
X144166632Y-99852670D01*
X144148219Y-99841634D01*
X144130976Y-99828846D01*
X144115070Y-99814430D01*
X144100654Y-99798524D01*
X144087866Y-99781281D01*
X144076830Y-99762868D01*
X144067651Y-99743462D01*
X144060419Y-99723250D01*
X144055203Y-99702426D01*
X144052053Y-99681191D01*
X144051000Y-99659750D01*
X144051000Y-99222250D01*
X144052053Y-99200809D01*
X144055203Y-99179574D01*
X144060419Y-99158750D01*
X144067651Y-99138538D01*
X144076830Y-99119132D01*
X144087866Y-99100719D01*
X144100654Y-99083476D01*
X144115070Y-99067570D01*
X144130976Y-99053154D01*
X144148219Y-99040366D01*
X144166632Y-99029330D01*
X144186038Y-99020151D01*
X144206250Y-99012919D01*
X144227074Y-99007703D01*
X144248309Y-99004553D01*
X144269750Y-99003500D01*
X144782250Y-99003500D01*
X144803691Y-99004553D01*
X144803691Y-99004553D01*
G37*
D15*
X144526000Y-99441000D03*
D14*
G36*
X144803691Y-97429553D02*
X144824926Y-97432703D01*
X144845750Y-97437919D01*
X144865962Y-97445151D01*
X144885368Y-97454330D01*
X144903781Y-97465366D01*
X144921024Y-97478154D01*
X144936930Y-97492570D01*
X144951346Y-97508476D01*
X144964134Y-97525719D01*
X144975170Y-97544132D01*
X144984349Y-97563538D01*
X144991581Y-97583750D01*
X144996797Y-97604574D01*
X144999947Y-97625809D01*
X145001000Y-97647250D01*
X145001000Y-98084750D01*
X144999947Y-98106191D01*
X144996797Y-98127426D01*
X144991581Y-98148250D01*
X144984349Y-98168462D01*
X144975170Y-98187868D01*
X144964134Y-98206281D01*
X144951346Y-98223524D01*
X144936930Y-98239430D01*
X144921024Y-98253846D01*
X144903781Y-98266634D01*
X144885368Y-98277670D01*
X144865962Y-98286849D01*
X144845750Y-98294081D01*
X144824926Y-98299297D01*
X144803691Y-98302447D01*
X144782250Y-98303500D01*
X144269750Y-98303500D01*
X144248309Y-98302447D01*
X144227074Y-98299297D01*
X144206250Y-98294081D01*
X144186038Y-98286849D01*
X144166632Y-98277670D01*
X144148219Y-98266634D01*
X144130976Y-98253846D01*
X144115070Y-98239430D01*
X144100654Y-98223524D01*
X144087866Y-98206281D01*
X144076830Y-98187868D01*
X144067651Y-98168462D01*
X144060419Y-98148250D01*
X144055203Y-98127426D01*
X144052053Y-98106191D01*
X144051000Y-98084750D01*
X144051000Y-97647250D01*
X144052053Y-97625809D01*
X144055203Y-97604574D01*
X144060419Y-97583750D01*
X144067651Y-97563538D01*
X144076830Y-97544132D01*
X144087866Y-97525719D01*
X144100654Y-97508476D01*
X144115070Y-97492570D01*
X144130976Y-97478154D01*
X144148219Y-97465366D01*
X144166632Y-97454330D01*
X144186038Y-97445151D01*
X144206250Y-97437919D01*
X144227074Y-97432703D01*
X144248309Y-97429553D01*
X144269750Y-97428500D01*
X144782250Y-97428500D01*
X144803691Y-97429553D01*
X144803691Y-97429553D01*
G37*
D15*
X144526000Y-97866000D03*
D14*
G36*
X157847191Y-100110053D02*
X157868426Y-100113203D01*
X157889250Y-100118419D01*
X157909462Y-100125651D01*
X157928868Y-100134830D01*
X157947281Y-100145866D01*
X157964524Y-100158654D01*
X157980430Y-100173070D01*
X157994846Y-100188976D01*
X158007634Y-100206219D01*
X158018670Y-100224632D01*
X158027849Y-100244038D01*
X158035081Y-100264250D01*
X158040297Y-100285074D01*
X158043447Y-100306309D01*
X158044500Y-100327750D01*
X158044500Y-100840250D01*
X158043447Y-100861691D01*
X158040297Y-100882926D01*
X158035081Y-100903750D01*
X158027849Y-100923962D01*
X158018670Y-100943368D01*
X158007634Y-100961781D01*
X157994846Y-100979024D01*
X157980430Y-100994930D01*
X157964524Y-101009346D01*
X157947281Y-101022134D01*
X157928868Y-101033170D01*
X157909462Y-101042349D01*
X157889250Y-101049581D01*
X157868426Y-101054797D01*
X157847191Y-101057947D01*
X157825750Y-101059000D01*
X157388250Y-101059000D01*
X157366809Y-101057947D01*
X157345574Y-101054797D01*
X157324750Y-101049581D01*
X157304538Y-101042349D01*
X157285132Y-101033170D01*
X157266719Y-101022134D01*
X157249476Y-101009346D01*
X157233570Y-100994930D01*
X157219154Y-100979024D01*
X157206366Y-100961781D01*
X157195330Y-100943368D01*
X157186151Y-100923962D01*
X157178919Y-100903750D01*
X157173703Y-100882926D01*
X157170553Y-100861691D01*
X157169500Y-100840250D01*
X157169500Y-100327750D01*
X157170553Y-100306309D01*
X157173703Y-100285074D01*
X157178919Y-100264250D01*
X157186151Y-100244038D01*
X157195330Y-100224632D01*
X157206366Y-100206219D01*
X157219154Y-100188976D01*
X157233570Y-100173070D01*
X157249476Y-100158654D01*
X157266719Y-100145866D01*
X157285132Y-100134830D01*
X157304538Y-100125651D01*
X157324750Y-100118419D01*
X157345574Y-100113203D01*
X157366809Y-100110053D01*
X157388250Y-100109000D01*
X157825750Y-100109000D01*
X157847191Y-100110053D01*
X157847191Y-100110053D01*
G37*
D15*
X157607000Y-100584000D03*
D14*
G36*
X159422191Y-100110053D02*
X159443426Y-100113203D01*
X159464250Y-100118419D01*
X159484462Y-100125651D01*
X159503868Y-100134830D01*
X159522281Y-100145866D01*
X159539524Y-100158654D01*
X159555430Y-100173070D01*
X159569846Y-100188976D01*
X159582634Y-100206219D01*
X159593670Y-100224632D01*
X159602849Y-100244038D01*
X159610081Y-100264250D01*
X159615297Y-100285074D01*
X159618447Y-100306309D01*
X159619500Y-100327750D01*
X159619500Y-100840250D01*
X159618447Y-100861691D01*
X159615297Y-100882926D01*
X159610081Y-100903750D01*
X159602849Y-100923962D01*
X159593670Y-100943368D01*
X159582634Y-100961781D01*
X159569846Y-100979024D01*
X159555430Y-100994930D01*
X159539524Y-101009346D01*
X159522281Y-101022134D01*
X159503868Y-101033170D01*
X159484462Y-101042349D01*
X159464250Y-101049581D01*
X159443426Y-101054797D01*
X159422191Y-101057947D01*
X159400750Y-101059000D01*
X158963250Y-101059000D01*
X158941809Y-101057947D01*
X158920574Y-101054797D01*
X158899750Y-101049581D01*
X158879538Y-101042349D01*
X158860132Y-101033170D01*
X158841719Y-101022134D01*
X158824476Y-101009346D01*
X158808570Y-100994930D01*
X158794154Y-100979024D01*
X158781366Y-100961781D01*
X158770330Y-100943368D01*
X158761151Y-100923962D01*
X158753919Y-100903750D01*
X158748703Y-100882926D01*
X158745553Y-100861691D01*
X158744500Y-100840250D01*
X158744500Y-100327750D01*
X158745553Y-100306309D01*
X158748703Y-100285074D01*
X158753919Y-100264250D01*
X158761151Y-100244038D01*
X158770330Y-100224632D01*
X158781366Y-100206219D01*
X158794154Y-100188976D01*
X158808570Y-100173070D01*
X158824476Y-100158654D01*
X158841719Y-100145866D01*
X158860132Y-100134830D01*
X158879538Y-100125651D01*
X158899750Y-100118419D01*
X158920574Y-100113203D01*
X158941809Y-100110053D01*
X158963250Y-100109000D01*
X159400750Y-100109000D01*
X159422191Y-100110053D01*
X159422191Y-100110053D01*
G37*
D15*
X159182000Y-100584000D03*
D24*
X162961500Y-102613500D03*
X162961500Y-101663500D03*
X162961500Y-100713500D03*
X160761500Y-100713500D03*
X160761500Y-102613500D03*
D25*
X144687000Y-102123000D03*
X144687000Y-101473000D03*
X144687000Y-100823000D03*
X142587000Y-100823000D03*
X142587000Y-101473000D03*
X142587000Y-102123000D03*
D26*
X143637000Y-101873000D03*
X143637000Y-101073000D03*
D14*
G36*
X143406691Y-90825553D02*
X143427926Y-90828703D01*
X143448750Y-90833919D01*
X143468962Y-90841151D01*
X143488368Y-90850330D01*
X143506781Y-90861366D01*
X143524024Y-90874154D01*
X143539930Y-90888570D01*
X143554346Y-90904476D01*
X143567134Y-90921719D01*
X143578170Y-90940132D01*
X143587349Y-90959538D01*
X143594581Y-90979750D01*
X143599797Y-91000574D01*
X143602947Y-91021809D01*
X143604000Y-91043250D01*
X143604000Y-91480750D01*
X143602947Y-91502191D01*
X143599797Y-91523426D01*
X143594581Y-91544250D01*
X143587349Y-91564462D01*
X143578170Y-91583868D01*
X143567134Y-91602281D01*
X143554346Y-91619524D01*
X143539930Y-91635430D01*
X143524024Y-91649846D01*
X143506781Y-91662634D01*
X143488368Y-91673670D01*
X143468962Y-91682849D01*
X143448750Y-91690081D01*
X143427926Y-91695297D01*
X143406691Y-91698447D01*
X143385250Y-91699500D01*
X142872750Y-91699500D01*
X142851309Y-91698447D01*
X142830074Y-91695297D01*
X142809250Y-91690081D01*
X142789038Y-91682849D01*
X142769632Y-91673670D01*
X142751219Y-91662634D01*
X142733976Y-91649846D01*
X142718070Y-91635430D01*
X142703654Y-91619524D01*
X142690866Y-91602281D01*
X142679830Y-91583868D01*
X142670651Y-91564462D01*
X142663419Y-91544250D01*
X142658203Y-91523426D01*
X142655053Y-91502191D01*
X142654000Y-91480750D01*
X142654000Y-91043250D01*
X142655053Y-91021809D01*
X142658203Y-91000574D01*
X142663419Y-90979750D01*
X142670651Y-90959538D01*
X142679830Y-90940132D01*
X142690866Y-90921719D01*
X142703654Y-90904476D01*
X142718070Y-90888570D01*
X142733976Y-90874154D01*
X142751219Y-90861366D01*
X142769632Y-90850330D01*
X142789038Y-90841151D01*
X142809250Y-90833919D01*
X142830074Y-90828703D01*
X142851309Y-90825553D01*
X142872750Y-90824500D01*
X143385250Y-90824500D01*
X143406691Y-90825553D01*
X143406691Y-90825553D01*
G37*
D15*
X143129000Y-91262000D03*
D14*
G36*
X143406691Y-92400553D02*
X143427926Y-92403703D01*
X143448750Y-92408919D01*
X143468962Y-92416151D01*
X143488368Y-92425330D01*
X143506781Y-92436366D01*
X143524024Y-92449154D01*
X143539930Y-92463570D01*
X143554346Y-92479476D01*
X143567134Y-92496719D01*
X143578170Y-92515132D01*
X143587349Y-92534538D01*
X143594581Y-92554750D01*
X143599797Y-92575574D01*
X143602947Y-92596809D01*
X143604000Y-92618250D01*
X143604000Y-93055750D01*
X143602947Y-93077191D01*
X143599797Y-93098426D01*
X143594581Y-93119250D01*
X143587349Y-93139462D01*
X143578170Y-93158868D01*
X143567134Y-93177281D01*
X143554346Y-93194524D01*
X143539930Y-93210430D01*
X143524024Y-93224846D01*
X143506781Y-93237634D01*
X143488368Y-93248670D01*
X143468962Y-93257849D01*
X143448750Y-93265081D01*
X143427926Y-93270297D01*
X143406691Y-93273447D01*
X143385250Y-93274500D01*
X142872750Y-93274500D01*
X142851309Y-93273447D01*
X142830074Y-93270297D01*
X142809250Y-93265081D01*
X142789038Y-93257849D01*
X142769632Y-93248670D01*
X142751219Y-93237634D01*
X142733976Y-93224846D01*
X142718070Y-93210430D01*
X142703654Y-93194524D01*
X142690866Y-93177281D01*
X142679830Y-93158868D01*
X142670651Y-93139462D01*
X142663419Y-93119250D01*
X142658203Y-93098426D01*
X142655053Y-93077191D01*
X142654000Y-93055750D01*
X142654000Y-92618250D01*
X142655053Y-92596809D01*
X142658203Y-92575574D01*
X142663419Y-92554750D01*
X142670651Y-92534538D01*
X142679830Y-92515132D01*
X142690866Y-92496719D01*
X142703654Y-92479476D01*
X142718070Y-92463570D01*
X142733976Y-92449154D01*
X142751219Y-92436366D01*
X142769632Y-92425330D01*
X142789038Y-92416151D01*
X142809250Y-92408919D01*
X142830074Y-92403703D01*
X142851309Y-92400553D01*
X142872750Y-92399500D01*
X143385250Y-92399500D01*
X143406691Y-92400553D01*
X143406691Y-92400553D01*
G37*
D15*
X143129000Y-92837000D03*
D14*
G36*
X146112191Y-90331053D02*
X146133426Y-90334203D01*
X146154250Y-90339419D01*
X146174462Y-90346651D01*
X146193868Y-90355830D01*
X146212281Y-90366866D01*
X146229524Y-90379654D01*
X146245430Y-90394070D01*
X146259846Y-90409976D01*
X146272634Y-90427219D01*
X146283670Y-90445632D01*
X146292849Y-90465038D01*
X146300081Y-90485250D01*
X146305297Y-90506074D01*
X146308447Y-90527309D01*
X146309500Y-90548750D01*
X146309500Y-91061250D01*
X146308447Y-91082691D01*
X146305297Y-91103926D01*
X146300081Y-91124750D01*
X146292849Y-91144962D01*
X146283670Y-91164368D01*
X146272634Y-91182781D01*
X146259846Y-91200024D01*
X146245430Y-91215930D01*
X146229524Y-91230346D01*
X146212281Y-91243134D01*
X146193868Y-91254170D01*
X146174462Y-91263349D01*
X146154250Y-91270581D01*
X146133426Y-91275797D01*
X146112191Y-91278947D01*
X146090750Y-91280000D01*
X145653250Y-91280000D01*
X145631809Y-91278947D01*
X145610574Y-91275797D01*
X145589750Y-91270581D01*
X145569538Y-91263349D01*
X145550132Y-91254170D01*
X145531719Y-91243134D01*
X145514476Y-91230346D01*
X145498570Y-91215930D01*
X145484154Y-91200024D01*
X145471366Y-91182781D01*
X145460330Y-91164368D01*
X145451151Y-91144962D01*
X145443919Y-91124750D01*
X145438703Y-91103926D01*
X145435553Y-91082691D01*
X145434500Y-91061250D01*
X145434500Y-90548750D01*
X145435553Y-90527309D01*
X145438703Y-90506074D01*
X145443919Y-90485250D01*
X145451151Y-90465038D01*
X145460330Y-90445632D01*
X145471366Y-90427219D01*
X145484154Y-90409976D01*
X145498570Y-90394070D01*
X145514476Y-90379654D01*
X145531719Y-90366866D01*
X145550132Y-90355830D01*
X145569538Y-90346651D01*
X145589750Y-90339419D01*
X145610574Y-90334203D01*
X145631809Y-90331053D01*
X145653250Y-90330000D01*
X146090750Y-90330000D01*
X146112191Y-90331053D01*
X146112191Y-90331053D01*
G37*
D15*
X145872000Y-90805000D03*
D14*
G36*
X147687191Y-90331053D02*
X147708426Y-90334203D01*
X147729250Y-90339419D01*
X147749462Y-90346651D01*
X147768868Y-90355830D01*
X147787281Y-90366866D01*
X147804524Y-90379654D01*
X147820430Y-90394070D01*
X147834846Y-90409976D01*
X147847634Y-90427219D01*
X147858670Y-90445632D01*
X147867849Y-90465038D01*
X147875081Y-90485250D01*
X147880297Y-90506074D01*
X147883447Y-90527309D01*
X147884500Y-90548750D01*
X147884500Y-91061250D01*
X147883447Y-91082691D01*
X147880297Y-91103926D01*
X147875081Y-91124750D01*
X147867849Y-91144962D01*
X147858670Y-91164368D01*
X147847634Y-91182781D01*
X147834846Y-91200024D01*
X147820430Y-91215930D01*
X147804524Y-91230346D01*
X147787281Y-91243134D01*
X147768868Y-91254170D01*
X147749462Y-91263349D01*
X147729250Y-91270581D01*
X147708426Y-91275797D01*
X147687191Y-91278947D01*
X147665750Y-91280000D01*
X147228250Y-91280000D01*
X147206809Y-91278947D01*
X147185574Y-91275797D01*
X147164750Y-91270581D01*
X147144538Y-91263349D01*
X147125132Y-91254170D01*
X147106719Y-91243134D01*
X147089476Y-91230346D01*
X147073570Y-91215930D01*
X147059154Y-91200024D01*
X147046366Y-91182781D01*
X147035330Y-91164368D01*
X147026151Y-91144962D01*
X147018919Y-91124750D01*
X147013703Y-91103926D01*
X147010553Y-91082691D01*
X147009500Y-91061250D01*
X147009500Y-90548750D01*
X147010553Y-90527309D01*
X147013703Y-90506074D01*
X147018919Y-90485250D01*
X147026151Y-90465038D01*
X147035330Y-90445632D01*
X147046366Y-90427219D01*
X147059154Y-90409976D01*
X147073570Y-90394070D01*
X147089476Y-90379654D01*
X147106719Y-90366866D01*
X147125132Y-90355830D01*
X147144538Y-90346651D01*
X147164750Y-90339419D01*
X147185574Y-90334203D01*
X147206809Y-90331053D01*
X147228250Y-90330000D01*
X147665750Y-90330000D01*
X147687191Y-90331053D01*
X147687191Y-90331053D01*
G37*
D15*
X147447000Y-90805000D03*
D14*
G36*
X144944191Y-93887053D02*
X144965426Y-93890203D01*
X144986250Y-93895419D01*
X145006462Y-93902651D01*
X145025868Y-93911830D01*
X145044281Y-93922866D01*
X145061524Y-93935654D01*
X145077430Y-93950070D01*
X145091846Y-93965976D01*
X145104634Y-93983219D01*
X145115670Y-94001632D01*
X145124849Y-94021038D01*
X145132081Y-94041250D01*
X145137297Y-94062074D01*
X145140447Y-94083309D01*
X145141500Y-94104750D01*
X145141500Y-94617250D01*
X145140447Y-94638691D01*
X145137297Y-94659926D01*
X145132081Y-94680750D01*
X145124849Y-94700962D01*
X145115670Y-94720368D01*
X145104634Y-94738781D01*
X145091846Y-94756024D01*
X145077430Y-94771930D01*
X145061524Y-94786346D01*
X145044281Y-94799134D01*
X145025868Y-94810170D01*
X145006462Y-94819349D01*
X144986250Y-94826581D01*
X144965426Y-94831797D01*
X144944191Y-94834947D01*
X144922750Y-94836000D01*
X144485250Y-94836000D01*
X144463809Y-94834947D01*
X144442574Y-94831797D01*
X144421750Y-94826581D01*
X144401538Y-94819349D01*
X144382132Y-94810170D01*
X144363719Y-94799134D01*
X144346476Y-94786346D01*
X144330570Y-94771930D01*
X144316154Y-94756024D01*
X144303366Y-94738781D01*
X144292330Y-94720368D01*
X144283151Y-94700962D01*
X144275919Y-94680750D01*
X144270703Y-94659926D01*
X144267553Y-94638691D01*
X144266500Y-94617250D01*
X144266500Y-94104750D01*
X144267553Y-94083309D01*
X144270703Y-94062074D01*
X144275919Y-94041250D01*
X144283151Y-94021038D01*
X144292330Y-94001632D01*
X144303366Y-93983219D01*
X144316154Y-93965976D01*
X144330570Y-93950070D01*
X144346476Y-93935654D01*
X144363719Y-93922866D01*
X144382132Y-93911830D01*
X144401538Y-93902651D01*
X144421750Y-93895419D01*
X144442574Y-93890203D01*
X144463809Y-93887053D01*
X144485250Y-93886000D01*
X144922750Y-93886000D01*
X144944191Y-93887053D01*
X144944191Y-93887053D01*
G37*
D15*
X144704000Y-94361000D03*
D14*
G36*
X143369191Y-93887053D02*
X143390426Y-93890203D01*
X143411250Y-93895419D01*
X143431462Y-93902651D01*
X143450868Y-93911830D01*
X143469281Y-93922866D01*
X143486524Y-93935654D01*
X143502430Y-93950070D01*
X143516846Y-93965976D01*
X143529634Y-93983219D01*
X143540670Y-94001632D01*
X143549849Y-94021038D01*
X143557081Y-94041250D01*
X143562297Y-94062074D01*
X143565447Y-94083309D01*
X143566500Y-94104750D01*
X143566500Y-94617250D01*
X143565447Y-94638691D01*
X143562297Y-94659926D01*
X143557081Y-94680750D01*
X143549849Y-94700962D01*
X143540670Y-94720368D01*
X143529634Y-94738781D01*
X143516846Y-94756024D01*
X143502430Y-94771930D01*
X143486524Y-94786346D01*
X143469281Y-94799134D01*
X143450868Y-94810170D01*
X143431462Y-94819349D01*
X143411250Y-94826581D01*
X143390426Y-94831797D01*
X143369191Y-94834947D01*
X143347750Y-94836000D01*
X142910250Y-94836000D01*
X142888809Y-94834947D01*
X142867574Y-94831797D01*
X142846750Y-94826581D01*
X142826538Y-94819349D01*
X142807132Y-94810170D01*
X142788719Y-94799134D01*
X142771476Y-94786346D01*
X142755570Y-94771930D01*
X142741154Y-94756024D01*
X142728366Y-94738781D01*
X142717330Y-94720368D01*
X142708151Y-94700962D01*
X142700919Y-94680750D01*
X142695703Y-94659926D01*
X142692553Y-94638691D01*
X142691500Y-94617250D01*
X142691500Y-94104750D01*
X142692553Y-94083309D01*
X142695703Y-94062074D01*
X142700919Y-94041250D01*
X142708151Y-94021038D01*
X142717330Y-94001632D01*
X142728366Y-93983219D01*
X142741154Y-93965976D01*
X142755570Y-93950070D01*
X142771476Y-93935654D01*
X142788719Y-93922866D01*
X142807132Y-93911830D01*
X142826538Y-93902651D01*
X142846750Y-93895419D01*
X142867574Y-93890203D01*
X142888809Y-93887053D01*
X142910250Y-93886000D01*
X143347750Y-93886000D01*
X143369191Y-93887053D01*
X143369191Y-93887053D01*
G37*
D15*
X143129000Y-94361000D03*
D14*
G36*
X143369191Y-95411053D02*
X143390426Y-95414203D01*
X143411250Y-95419419D01*
X143431462Y-95426651D01*
X143450868Y-95435830D01*
X143469281Y-95446866D01*
X143486524Y-95459654D01*
X143502430Y-95474070D01*
X143516846Y-95489976D01*
X143529634Y-95507219D01*
X143540670Y-95525632D01*
X143549849Y-95545038D01*
X143557081Y-95565250D01*
X143562297Y-95586074D01*
X143565447Y-95607309D01*
X143566500Y-95628750D01*
X143566500Y-96141250D01*
X143565447Y-96162691D01*
X143562297Y-96183926D01*
X143557081Y-96204750D01*
X143549849Y-96224962D01*
X143540670Y-96244368D01*
X143529634Y-96262781D01*
X143516846Y-96280024D01*
X143502430Y-96295930D01*
X143486524Y-96310346D01*
X143469281Y-96323134D01*
X143450868Y-96334170D01*
X143431462Y-96343349D01*
X143411250Y-96350581D01*
X143390426Y-96355797D01*
X143369191Y-96358947D01*
X143347750Y-96360000D01*
X142910250Y-96360000D01*
X142888809Y-96358947D01*
X142867574Y-96355797D01*
X142846750Y-96350581D01*
X142826538Y-96343349D01*
X142807132Y-96334170D01*
X142788719Y-96323134D01*
X142771476Y-96310346D01*
X142755570Y-96295930D01*
X142741154Y-96280024D01*
X142728366Y-96262781D01*
X142717330Y-96244368D01*
X142708151Y-96224962D01*
X142700919Y-96204750D01*
X142695703Y-96183926D01*
X142692553Y-96162691D01*
X142691500Y-96141250D01*
X142691500Y-95628750D01*
X142692553Y-95607309D01*
X142695703Y-95586074D01*
X142700919Y-95565250D01*
X142708151Y-95545038D01*
X142717330Y-95525632D01*
X142728366Y-95507219D01*
X142741154Y-95489976D01*
X142755570Y-95474070D01*
X142771476Y-95459654D01*
X142788719Y-95446866D01*
X142807132Y-95435830D01*
X142826538Y-95426651D01*
X142846750Y-95419419D01*
X142867574Y-95414203D01*
X142888809Y-95411053D01*
X142910250Y-95410000D01*
X143347750Y-95410000D01*
X143369191Y-95411053D01*
X143369191Y-95411053D01*
G37*
D15*
X143129000Y-95885000D03*
D14*
G36*
X144944191Y-95411053D02*
X144965426Y-95414203D01*
X144986250Y-95419419D01*
X145006462Y-95426651D01*
X145025868Y-95435830D01*
X145044281Y-95446866D01*
X145061524Y-95459654D01*
X145077430Y-95474070D01*
X145091846Y-95489976D01*
X145104634Y-95507219D01*
X145115670Y-95525632D01*
X145124849Y-95545038D01*
X145132081Y-95565250D01*
X145137297Y-95586074D01*
X145140447Y-95607309D01*
X145141500Y-95628750D01*
X145141500Y-96141250D01*
X145140447Y-96162691D01*
X145137297Y-96183926D01*
X145132081Y-96204750D01*
X145124849Y-96224962D01*
X145115670Y-96244368D01*
X145104634Y-96262781D01*
X145091846Y-96280024D01*
X145077430Y-96295930D01*
X145061524Y-96310346D01*
X145044281Y-96323134D01*
X145025868Y-96334170D01*
X145006462Y-96343349D01*
X144986250Y-96350581D01*
X144965426Y-96355797D01*
X144944191Y-96358947D01*
X144922750Y-96360000D01*
X144485250Y-96360000D01*
X144463809Y-96358947D01*
X144442574Y-96355797D01*
X144421750Y-96350581D01*
X144401538Y-96343349D01*
X144382132Y-96334170D01*
X144363719Y-96323134D01*
X144346476Y-96310346D01*
X144330570Y-96295930D01*
X144316154Y-96280024D01*
X144303366Y-96262781D01*
X144292330Y-96244368D01*
X144283151Y-96224962D01*
X144275919Y-96204750D01*
X144270703Y-96183926D01*
X144267553Y-96162691D01*
X144266500Y-96141250D01*
X144266500Y-95628750D01*
X144267553Y-95607309D01*
X144270703Y-95586074D01*
X144275919Y-95565250D01*
X144283151Y-95545038D01*
X144292330Y-95525632D01*
X144303366Y-95507219D01*
X144316154Y-95489976D01*
X144330570Y-95474070D01*
X144346476Y-95459654D01*
X144363719Y-95446866D01*
X144382132Y-95435830D01*
X144401538Y-95426651D01*
X144421750Y-95419419D01*
X144442574Y-95414203D01*
X144463809Y-95411053D01*
X144485250Y-95410000D01*
X144922750Y-95410000D01*
X144944191Y-95411053D01*
X144944191Y-95411053D01*
G37*
D15*
X144704000Y-95885000D03*
D27*
X147320000Y-94488000D03*
D28*
X146370000Y-95888000D03*
X147320000Y-95888000D03*
X148270000Y-95888000D03*
X148270000Y-93088000D03*
X147320000Y-93088000D03*
X146370000Y-93088000D03*
M02*
