%TF.GenerationSoftware,KiCad,Pcbnew,(5.0.1)-4*%
%TF.CreationDate,2019-06-04T13:38:29+02:00*%
%TF.ProjectId,ESPesh,4553506573682E6B696361645F706362,rev?*%
%TF.SameCoordinates,Original*%
%TF.FileFunction,Legend,Bot*%
%TF.FilePolarity,Positive*%
%FSLAX46Y46*%
G04 Gerber Fmt 4.6, Leading zero omitted, Abs format (unit mm)*
G04 Created by KiCad (PCBNEW (5.0.1)-4) date 04/06/2019 13:38:29*
%MOMM*%
%LPD*%
G01*
G04 APERTURE LIST*
%ADD10C,0.200000*%
%ADD11C,0.350000*%
%ADD12C,0.150000*%
G04 APERTURE END LIST*
D10*
X114808000Y-67754500D02*
G75*
G03X114808000Y-67754500I-12700000J0D01*
G01*
D11*
X107060380Y-68818142D02*
X106393714Y-68818142D01*
X106108000Y-69865761D02*
X107060380Y-69865761D01*
X107060380Y-67865761D01*
X106108000Y-67865761D01*
X105346095Y-69770523D02*
X105060380Y-69865761D01*
X104584190Y-69865761D01*
X104393714Y-69770523D01*
X104298476Y-69675285D01*
X104203238Y-69484809D01*
X104203238Y-69294333D01*
X104298476Y-69103857D01*
X104393714Y-69008619D01*
X104584190Y-68913380D01*
X104965142Y-68818142D01*
X105155619Y-68722904D01*
X105250857Y-68627666D01*
X105346095Y-68437190D01*
X105346095Y-68246714D01*
X105250857Y-68056238D01*
X105155619Y-67961000D01*
X104965142Y-67865761D01*
X104488952Y-67865761D01*
X104203238Y-67961000D01*
X103346095Y-69865761D02*
X103346095Y-67865761D01*
X102584190Y-67865761D01*
X102393714Y-67961000D01*
X102298476Y-68056238D01*
X102203238Y-68246714D01*
X102203238Y-68532428D01*
X102298476Y-68722904D01*
X102393714Y-68818142D01*
X102584190Y-68913380D01*
X103346095Y-68913380D01*
X100584190Y-69770523D02*
X100774666Y-69865761D01*
X101155619Y-69865761D01*
X101346095Y-69770523D01*
X101441333Y-69580047D01*
X101441333Y-68818142D01*
X101346095Y-68627666D01*
X101155619Y-68532428D01*
X100774666Y-68532428D01*
X100584190Y-68627666D01*
X100488952Y-68818142D01*
X100488952Y-69008619D01*
X101441333Y-69199095D01*
X99727047Y-69770523D02*
X99536571Y-69865761D01*
X99155619Y-69865761D01*
X98965142Y-69770523D01*
X98869904Y-69580047D01*
X98869904Y-69484809D01*
X98965142Y-69294333D01*
X99155619Y-69199095D01*
X99441333Y-69199095D01*
X99631809Y-69103857D01*
X99727047Y-68913380D01*
X99727047Y-68818142D01*
X99631809Y-68627666D01*
X99441333Y-68532428D01*
X99155619Y-68532428D01*
X98965142Y-68627666D01*
X98012761Y-69865761D02*
X98012761Y-67865761D01*
X97155619Y-69865761D02*
X97155619Y-68818142D01*
X97250857Y-68627666D01*
X97441333Y-68532428D01*
X97727047Y-68532428D01*
X97917523Y-68627666D01*
X98012761Y-68722904D01*
D10*
X109703238Y-66333714D02*
X109703238Y-67143238D01*
X109750857Y-67238476D01*
X109798476Y-67286095D01*
X109893714Y-67333714D01*
X110036571Y-67333714D01*
X110131809Y-67286095D01*
X109703238Y-66952761D02*
X109798476Y-67000380D01*
X109988952Y-67000380D01*
X110084190Y-66952761D01*
X110131809Y-66905142D01*
X110179428Y-66809904D01*
X110179428Y-66524190D01*
X110131809Y-66428952D01*
X110084190Y-66381333D01*
X109988952Y-66333714D01*
X109798476Y-66333714D01*
X109703238Y-66381333D01*
X109227047Y-67000380D02*
X109227047Y-66333714D01*
X109227047Y-66000380D02*
X109274666Y-66048000D01*
X109227047Y-66095619D01*
X109179428Y-66048000D01*
X109227047Y-66000380D01*
X109227047Y-66095619D01*
X108893714Y-66333714D02*
X108512761Y-66333714D01*
X108750857Y-66000380D02*
X108750857Y-66857523D01*
X108703238Y-66952761D01*
X108608000Y-67000380D01*
X108512761Y-67000380D01*
X108179428Y-67000380D02*
X108179428Y-66000380D01*
X107750857Y-67000380D02*
X107750857Y-66476571D01*
X107798476Y-66381333D01*
X107893714Y-66333714D01*
X108036571Y-66333714D01*
X108131809Y-66381333D01*
X108179428Y-66428952D01*
X106846095Y-66333714D02*
X106846095Y-67000380D01*
X107274666Y-66333714D02*
X107274666Y-66857523D01*
X107227047Y-66952761D01*
X107131809Y-67000380D01*
X106988952Y-67000380D01*
X106893714Y-66952761D01*
X106846095Y-66905142D01*
X106369904Y-67000380D02*
X106369904Y-66000380D01*
X106369904Y-66381333D02*
X106274666Y-66333714D01*
X106084190Y-66333714D01*
X105988952Y-66381333D01*
X105941333Y-66428952D01*
X105893714Y-66524190D01*
X105893714Y-66809904D01*
X105941333Y-66905142D01*
X105988952Y-66952761D01*
X106084190Y-67000380D01*
X106274666Y-67000380D01*
X106369904Y-66952761D01*
X105465142Y-66905142D02*
X105417523Y-66952761D01*
X105465142Y-67000380D01*
X105512761Y-66952761D01*
X105465142Y-66905142D01*
X105465142Y-67000380D01*
X104560380Y-66952761D02*
X104655619Y-67000380D01*
X104846095Y-67000380D01*
X104941333Y-66952761D01*
X104988952Y-66905142D01*
X105036571Y-66809904D01*
X105036571Y-66524190D01*
X104988952Y-66428952D01*
X104941333Y-66381333D01*
X104846095Y-66333714D01*
X104655619Y-66333714D01*
X104560380Y-66381333D01*
X103988952Y-67000380D02*
X104084190Y-66952761D01*
X104131809Y-66905142D01*
X104179428Y-66809904D01*
X104179428Y-66524190D01*
X104131809Y-66428952D01*
X104084190Y-66381333D01*
X103988952Y-66333714D01*
X103846095Y-66333714D01*
X103750857Y-66381333D01*
X103703238Y-66428952D01*
X103655619Y-66524190D01*
X103655619Y-66809904D01*
X103703238Y-66905142D01*
X103750857Y-66952761D01*
X103846095Y-67000380D01*
X103988952Y-67000380D01*
X103227047Y-67000380D02*
X103227047Y-66333714D01*
X103227047Y-66428952D02*
X103179428Y-66381333D01*
X103084190Y-66333714D01*
X102941333Y-66333714D01*
X102846095Y-66381333D01*
X102798476Y-66476571D01*
X102798476Y-67000380D01*
X102798476Y-66476571D02*
X102750857Y-66381333D01*
X102655619Y-66333714D01*
X102512761Y-66333714D01*
X102417523Y-66381333D01*
X102369904Y-66476571D01*
X102369904Y-67000380D01*
X101179428Y-65952761D02*
X102036571Y-67238476D01*
X100274666Y-66905142D02*
X100322285Y-66952761D01*
X100465142Y-67000380D01*
X100560380Y-67000380D01*
X100703238Y-66952761D01*
X100798476Y-66857523D01*
X100846095Y-66762285D01*
X100893714Y-66571809D01*
X100893714Y-66428952D01*
X100846095Y-66238476D01*
X100798476Y-66143238D01*
X100703238Y-66048000D01*
X100560380Y-66000380D01*
X100465142Y-66000380D01*
X100322285Y-66048000D01*
X100274666Y-66095619D01*
X99846095Y-67000380D02*
X99846095Y-66000380D01*
X99417523Y-67000380D02*
X99417523Y-66476571D01*
X99465142Y-66381333D01*
X99560380Y-66333714D01*
X99703238Y-66333714D01*
X99798476Y-66381333D01*
X99846095Y-66428952D01*
X98512761Y-67000380D02*
X98512761Y-66476571D01*
X98560380Y-66381333D01*
X98655619Y-66333714D01*
X98846095Y-66333714D01*
X98941333Y-66381333D01*
X98512761Y-66952761D02*
X98608000Y-67000380D01*
X98846095Y-67000380D01*
X98941333Y-66952761D01*
X98988952Y-66857523D01*
X98988952Y-66762285D01*
X98941333Y-66667047D01*
X98846095Y-66619428D01*
X98608000Y-66619428D01*
X98512761Y-66571809D01*
X98036571Y-67000380D02*
X98036571Y-66333714D01*
X98036571Y-66524190D02*
X97988952Y-66428952D01*
X97941333Y-66381333D01*
X97846095Y-66333714D01*
X97750857Y-66333714D01*
X97274666Y-67000380D02*
X97369904Y-66952761D01*
X97417523Y-66857523D01*
X97417523Y-66000380D01*
X96893714Y-67000380D02*
X96893714Y-66333714D01*
X96893714Y-66000380D02*
X96941333Y-66048000D01*
X96893714Y-66095619D01*
X96846095Y-66048000D01*
X96893714Y-66000380D01*
X96893714Y-66095619D01*
X96274666Y-67000380D02*
X96369904Y-66952761D01*
X96417523Y-66905142D01*
X96465142Y-66809904D01*
X96465142Y-66524190D01*
X96417523Y-66428952D01*
X96369904Y-66381333D01*
X96274666Y-66333714D01*
X96131809Y-66333714D01*
X96036571Y-66381333D01*
X95988952Y-66428952D01*
X95941333Y-66524190D01*
X95941333Y-66809904D01*
X95988952Y-66905142D01*
X96036571Y-66952761D01*
X96131809Y-67000380D01*
X96274666Y-67000380D01*
X95465142Y-67000380D02*
X95274666Y-67000380D01*
X95179428Y-66952761D01*
X95131809Y-66905142D01*
X95036571Y-66762285D01*
X94988952Y-66571809D01*
X94988952Y-66190857D01*
X95036571Y-66095619D01*
X95084190Y-66048000D01*
X95179428Y-66000380D01*
X95369904Y-66000380D01*
X95465142Y-66048000D01*
X95512761Y-66095619D01*
X95560380Y-66190857D01*
X95560380Y-66428952D01*
X95512761Y-66524190D01*
X95465142Y-66571809D01*
X95369904Y-66619428D01*
X95179428Y-66619428D01*
X95084190Y-66571809D01*
X95036571Y-66524190D01*
X94988952Y-66428952D01*
X94512761Y-67000380D02*
X94322285Y-67000380D01*
X94227047Y-66952761D01*
X94179428Y-66905142D01*
X94084190Y-66762285D01*
X94036571Y-66571809D01*
X94036571Y-66190857D01*
X94084190Y-66095619D01*
X94131809Y-66048000D01*
X94227047Y-66000380D01*
X94417523Y-66000380D01*
X94512761Y-66048000D01*
X94560380Y-66095619D01*
X94608000Y-66190857D01*
X94608000Y-66428952D01*
X94560380Y-66524190D01*
X94512761Y-66571809D01*
X94417523Y-66619428D01*
X94227047Y-66619428D01*
X94131809Y-66571809D01*
X94084190Y-66524190D01*
X94036571Y-66428952D01*
D12*
X113512712Y-67754500D02*
G75*
G03X113512712Y-67754500I-11412712J0D01*
G01*
X103128642Y-57615142D02*
X103042928Y-57643714D01*
X103014357Y-57672285D01*
X102985785Y-57729428D01*
X102985785Y-57815142D01*
X103014357Y-57872285D01*
X103042928Y-57900857D01*
X103100071Y-57929428D01*
X103328642Y-57929428D01*
X103328642Y-57329428D01*
X103128642Y-57329428D01*
X103071500Y-57358000D01*
X103042928Y-57386571D01*
X103014357Y-57443714D01*
X103014357Y-57500857D01*
X103042928Y-57558000D01*
X103071500Y-57586571D01*
X103128642Y-57615142D01*
X103328642Y-57615142D01*
X102757214Y-57758000D02*
X102471500Y-57758000D01*
X102814357Y-57929428D02*
X102614357Y-57329428D01*
X102414357Y-57929428D01*
X102300071Y-57329428D02*
X101957214Y-57329428D01*
X102128642Y-57929428D02*
X102128642Y-57329428D01*
X101842928Y-57329428D02*
X101500071Y-57329428D01*
X101671500Y-57929428D02*
X101671500Y-57329428D01*
X100985785Y-57929428D02*
X101328642Y-57929428D01*
X101157214Y-57929428D02*
X101157214Y-57329428D01*
X101214357Y-57415142D01*
X101271500Y-57472285D01*
X101328642Y-57500857D01*
X92480952Y-69325928D02*
X91719047Y-69325928D01*
X111980952Y-68825928D02*
X111219047Y-68825928D01*
X111600000Y-69206880D02*
X111600000Y-68444976D01*
M02*
