%TF.GenerationSoftware,KiCad,Pcbnew,(5.0.1)-4*%
%TF.CreationDate,2019-06-04T13:38:29+02:00*%
%TF.ProjectId,ESPesh,4553506573682E6B696361645F706362,rev?*%
%TF.SameCoordinates,Original*%
%TF.FileFunction,Soldermask,Top*%
%TF.FilePolarity,Negative*%
%FSLAX46Y46*%
G04 Gerber Fmt 4.6, Leading zero omitted, Abs format (unit mm)*
G04 Created by KiCad (PCBNEW (5.0.1)-4) date 04/06/2019 13:38:29*
%MOMM*%
%LPD*%
G01*
G04 APERTURE LIST*
%ADD10C,0.200000*%
%ADD11C,0.100000*%
G04 APERTURE END LIST*
D10*
X114808000Y-67754500D02*
G75*
G03X114808000Y-67754500I-12700000J0D01*
G01*
D11*
G36*
X102353815Y-79148434D02*
X102358822Y-79148839D01*
X102358824Y-79148839D01*
X102364974Y-79149337D01*
X102475379Y-79169302D01*
X102481314Y-79170989D01*
X102481317Y-79170990D01*
X102486227Y-79172386D01*
X102496925Y-79175428D01*
X102601309Y-79216546D01*
X102621231Y-79226752D01*
X102715598Y-79287450D01*
X102733144Y-79301345D01*
X102813861Y-79379293D01*
X102817856Y-79383991D01*
X102818666Y-79384943D01*
X102828362Y-79396346D01*
X102892315Y-79488534D01*
X102903209Y-79508086D01*
X102947951Y-79610989D01*
X102954820Y-79632288D01*
X102978628Y-79741940D01*
X102981210Y-79764172D01*
X102981647Y-79789202D01*
X102982462Y-79801436D01*
X102985354Y-79826348D01*
X102996223Y-80448979D01*
X102994916Y-80465139D01*
X102992167Y-80474803D01*
X102987587Y-80483745D01*
X102981351Y-80491620D01*
X102974541Y-80497410D01*
X102973697Y-80498128D01*
X102964921Y-80503018D01*
X102955797Y-80505960D01*
X102955357Y-80506102D01*
X102939254Y-80507972D01*
X101681721Y-80529923D01*
X101665562Y-80528616D01*
X101655896Y-80525867D01*
X101646958Y-80521288D01*
X101646956Y-80521287D01*
X101643018Y-80518168D01*
X101639078Y-80515049D01*
X101632572Y-80507397D01*
X101630132Y-80503018D01*
X101627682Y-80498621D01*
X101624599Y-80489059D01*
X101624598Y-80489057D01*
X101622728Y-80472953D01*
X101611860Y-79850323D01*
X101613880Y-79825348D01*
X101614268Y-79813091D01*
X101613831Y-79788045D01*
X101615637Y-79765726D01*
X101635602Y-79655321D01*
X101641728Y-79633775D01*
X101682846Y-79529391D01*
X101693052Y-79509469D01*
X101753750Y-79415102D01*
X101767645Y-79397556D01*
X101845593Y-79316839D01*
X101862646Y-79302338D01*
X101954834Y-79238385D01*
X101974386Y-79227491D01*
X102077289Y-79182749D01*
X102083156Y-79180857D01*
X102083158Y-79180856D01*
X102087939Y-79179314D01*
X102098588Y-79175880D01*
X102208240Y-79152072D01*
X102230472Y-79149490D01*
X102342656Y-79147531D01*
X102353815Y-79148434D01*
X102353815Y-79148434D01*
G37*
G36*
X100610910Y-79045653D02*
X100722029Y-79061270D01*
X100743773Y-79066540D01*
X100849710Y-79103535D01*
X100870010Y-79112947D01*
X100966687Y-79169895D01*
X100971667Y-79173530D01*
X100971674Y-79173534D01*
X100979789Y-79179457D01*
X100979797Y-79179464D01*
X100984777Y-79183099D01*
X101068479Y-79257805D01*
X101083643Y-79274281D01*
X101151160Y-79363880D01*
X101154373Y-79369148D01*
X101154377Y-79369154D01*
X101158822Y-79376444D01*
X101162821Y-79383002D01*
X101211566Y-79484059D01*
X101219266Y-79505073D01*
X101247361Y-79613712D01*
X101250814Y-79635822D01*
X101257175Y-79747839D01*
X101256247Y-79770210D01*
X101252763Y-79794998D01*
X101251655Y-79807205D01*
X101250614Y-79832260D01*
X101163946Y-80448935D01*
X101160857Y-80461680D01*
X101160127Y-80464691D01*
X101156296Y-80472953D01*
X101155901Y-80473805D01*
X101149977Y-80481922D01*
X101142591Y-80488719D01*
X101142589Y-80488720D01*
X101142586Y-80488723D01*
X101134009Y-80493953D01*
X101134005Y-80493955D01*
X101134004Y-80493955D01*
X101124576Y-80497410D01*
X101114654Y-80498960D01*
X101114650Y-80498960D01*
X101112512Y-80498871D01*
X101098449Y-80498288D01*
X99852965Y-80323246D01*
X99840220Y-80320157D01*
X99837209Y-80319427D01*
X99828095Y-80315201D01*
X99819978Y-80309277D01*
X99813181Y-80301891D01*
X99813180Y-80301889D01*
X99813177Y-80301886D01*
X99807947Y-80293309D01*
X99804490Y-80283876D01*
X99802940Y-80273954D01*
X99803612Y-80257749D01*
X99890280Y-79641079D01*
X99896179Y-79616741D01*
X99898480Y-79604694D01*
X99901968Y-79579879D01*
X99907240Y-79558127D01*
X99944235Y-79452190D01*
X99953647Y-79431890D01*
X100010595Y-79335213D01*
X100014230Y-79330233D01*
X100014234Y-79330226D01*
X100020157Y-79322111D01*
X100020164Y-79322103D01*
X100023799Y-79317123D01*
X100098505Y-79233421D01*
X100114981Y-79218257D01*
X100204580Y-79150740D01*
X100209848Y-79147527D01*
X100209854Y-79147523D01*
X100218431Y-79142293D01*
X100218434Y-79142292D01*
X100223702Y-79139079D01*
X100324759Y-79090334D01*
X100345773Y-79082634D01*
X100454412Y-79054539D01*
X100476522Y-79051086D01*
X100588539Y-79044725D01*
X100610910Y-79045653D01*
X100610910Y-79045653D01*
G37*
G36*
X104095907Y-78998736D02*
X104118081Y-79001803D01*
X104227170Y-79027993D01*
X104233006Y-79030016D01*
X104233008Y-79030017D01*
X104242500Y-79033308D01*
X104242504Y-79033310D01*
X104248333Y-79035331D01*
X104350223Y-79082302D01*
X104355547Y-79085422D01*
X104355548Y-79085423D01*
X104363927Y-79090334D01*
X104369541Y-79093625D01*
X104460315Y-79159577D01*
X104477038Y-79174437D01*
X104553209Y-79256838D01*
X104566719Y-79274686D01*
X104625342Y-79370352D01*
X104635113Y-79390495D01*
X104673946Y-79495758D01*
X104675504Y-79501727D01*
X104675505Y-79501731D01*
X104676377Y-79505073D01*
X104679598Y-79517418D01*
X104683516Y-79542152D01*
X104686026Y-79554151D01*
X104692356Y-79578413D01*
X104789772Y-80193470D01*
X104790726Y-80209658D01*
X104789350Y-80219606D01*
X104789349Y-80219609D01*
X104786058Y-80229101D01*
X104780978Y-80237768D01*
X104774305Y-80245278D01*
X104767860Y-80250156D01*
X104766293Y-80251342D01*
X104757257Y-80255725D01*
X104741561Y-80259821D01*
X103499330Y-80456572D01*
X103483142Y-80457526D01*
X103473194Y-80456150D01*
X103473191Y-80456149D01*
X103463699Y-80452858D01*
X103463697Y-80452857D01*
X103455033Y-80447779D01*
X103454196Y-80447035D01*
X103447522Y-80441105D01*
X103441459Y-80433094D01*
X103441458Y-80433093D01*
X103437075Y-80424057D01*
X103432979Y-80408361D01*
X103335564Y-79793312D01*
X103334089Y-79768295D01*
X103332767Y-79756103D01*
X103328849Y-79731361D01*
X103327531Y-79709017D01*
X103331936Y-79596893D01*
X103335003Y-79574719D01*
X103361193Y-79465630D01*
X103368531Y-79444467D01*
X103415502Y-79342577D01*
X103426825Y-79323259D01*
X103492777Y-79232485D01*
X103507637Y-79215762D01*
X103590038Y-79139591D01*
X103607886Y-79126081D01*
X103703552Y-79067458D01*
X103713623Y-79062573D01*
X103718143Y-79060380D01*
X103718144Y-79060379D01*
X103723695Y-79057687D01*
X103828957Y-79018854D01*
X103834929Y-79017296D01*
X103834931Y-79017295D01*
X103844651Y-79014759D01*
X103850626Y-79013200D01*
X103961442Y-78995648D01*
X103983783Y-78994331D01*
X104095907Y-78998736D01*
X104095907Y-78998736D01*
G37*
G36*
X98970195Y-78709039D02*
X98976288Y-78710045D01*
X98976290Y-78710045D01*
X98986202Y-78711681D01*
X98986208Y-78711683D01*
X98992292Y-78712687D01*
X99100671Y-78741726D01*
X99121622Y-78749612D01*
X99222248Y-78799235D01*
X99241262Y-78811059D01*
X99330272Y-78879358D01*
X99346610Y-78894660D01*
X99420598Y-78979027D01*
X99433632Y-78997217D01*
X99489732Y-79094385D01*
X99498977Y-79114787D01*
X99535037Y-79221018D01*
X99540121Y-79242822D01*
X99554767Y-79354071D01*
X99555499Y-79376444D01*
X99548161Y-79488395D01*
X99547155Y-79494488D01*
X99547155Y-79494490D01*
X99545800Y-79502701D01*
X99544512Y-79510499D01*
X99538024Y-79534711D01*
X99535431Y-79546715D01*
X99534001Y-79555383D01*
X99534001Y-79555393D01*
X99532364Y-79565314D01*
X99532359Y-79565333D01*
X99531356Y-79571411D01*
X99370186Y-80172907D01*
X99368014Y-80178677D01*
X99364475Y-80188079D01*
X99359170Y-80196610D01*
X99352303Y-80203943D01*
X99344137Y-80209794D01*
X99339561Y-80211867D01*
X99334985Y-80213941D01*
X99325203Y-80216222D01*
X99315163Y-80216550D01*
X99315161Y-80216550D01*
X99305249Y-80214914D01*
X99305243Y-80214912D01*
X99299159Y-80213908D01*
X98084293Y-79888386D01*
X98069125Y-79882677D01*
X98069121Y-79882675D01*
X98060590Y-79877370D01*
X98053257Y-79870503D01*
X98047406Y-79862337D01*
X98045333Y-79857761D01*
X98043259Y-79853185D01*
X98040978Y-79843403D01*
X98040650Y-79833363D01*
X98040832Y-79832260D01*
X98042286Y-79823449D01*
X98042288Y-79823443D01*
X98043292Y-79817359D01*
X98204462Y-79215862D01*
X98213291Y-79192404D01*
X98217043Y-79180726D01*
X98223526Y-79156530D01*
X98231412Y-79135578D01*
X98281035Y-79034952D01*
X98292859Y-79015938D01*
X98361158Y-78926928D01*
X98376460Y-78910590D01*
X98460827Y-78836602D01*
X98479017Y-78823568D01*
X98576185Y-78767468D01*
X98596587Y-78758223D01*
X98702818Y-78722163D01*
X98724622Y-78717079D01*
X98835871Y-78702433D01*
X98842030Y-78702231D01*
X98842034Y-78702231D01*
X98848944Y-78702005D01*
X98858244Y-78701701D01*
X98970195Y-78709039D01*
X98970195Y-78709039D01*
G37*
G36*
X105823486Y-78610832D02*
X105845444Y-78615150D01*
X105952889Y-78647486D01*
X105973591Y-78656008D01*
X106072656Y-78708682D01*
X106091297Y-78721079D01*
X106178183Y-78792069D01*
X106194046Y-78807863D01*
X106265416Y-78894441D01*
X106277897Y-78913032D01*
X106331002Y-79011866D01*
X106339613Y-79032527D01*
X106346934Y-79056472D01*
X106351089Y-79068005D01*
X106360734Y-79091152D01*
X106542799Y-79686658D01*
X106544016Y-79692708D01*
X106544018Y-79692714D01*
X106545999Y-79702563D01*
X106546021Y-79712609D01*
X106544083Y-79722466D01*
X106540985Y-79729989D01*
X106540257Y-79731759D01*
X106534696Y-79740121D01*
X106527609Y-79747239D01*
X106523436Y-79750040D01*
X106519266Y-79752840D01*
X106519265Y-79752841D01*
X106519264Y-79752841D01*
X106504303Y-79759077D01*
X105301531Y-80126802D01*
X105285640Y-80129999D01*
X105275592Y-80130021D01*
X105275591Y-80130021D01*
X105265734Y-80128083D01*
X105258211Y-80124985D01*
X105256441Y-80124257D01*
X105248079Y-80118696D01*
X105240961Y-80111609D01*
X105235359Y-80103264D01*
X105229123Y-80088302D01*
X105047054Y-79492784D01*
X105042112Y-79468220D01*
X105039106Y-79456328D01*
X105031783Y-79432376D01*
X105030567Y-79426330D01*
X105030565Y-79426325D01*
X105028584Y-79416475D01*
X105027366Y-79410423D01*
X105016127Y-79298793D01*
X105016077Y-79276404D01*
X105026832Y-79164714D01*
X105031150Y-79142756D01*
X105063486Y-79035311D01*
X105072008Y-79014609D01*
X105124682Y-78915544D01*
X105137079Y-78896903D01*
X105208069Y-78810017D01*
X105223863Y-78794154D01*
X105310441Y-78722784D01*
X105329032Y-78710303D01*
X105427865Y-78657198D01*
X105448525Y-78648588D01*
X105555823Y-78615783D01*
X105561873Y-78614566D01*
X105561876Y-78614565D01*
X105571725Y-78612584D01*
X105571724Y-78612584D01*
X105577779Y-78611366D01*
X105689407Y-78600127D01*
X105695579Y-78600113D01*
X105695581Y-78600113D01*
X105700475Y-78600102D01*
X105711796Y-78600077D01*
X105823486Y-78610832D01*
X105823486Y-78610832D01*
G37*
G36*
X110264311Y-76028079D02*
X110270408Y-76029004D01*
X110270411Y-76029004D01*
X110280344Y-76030511D01*
X110280345Y-76030511D01*
X110286441Y-76031436D01*
X110395194Y-76059056D01*
X110416246Y-76066666D01*
X110517517Y-76114969D01*
X110536685Y-76126543D01*
X110626580Y-76193672D01*
X110643119Y-76208761D01*
X110659869Y-76227364D01*
X110668511Y-76236064D01*
X110687042Y-76252972D01*
X111103720Y-76715740D01*
X111113338Y-76728797D01*
X111117603Y-76737891D01*
X111117603Y-76737892D01*
X111120012Y-76747645D01*
X111120472Y-76757681D01*
X111118965Y-76767614D01*
X111115550Y-76777061D01*
X111110357Y-76785661D01*
X111103586Y-76793083D01*
X111103583Y-76793086D01*
X111099420Y-76797649D01*
X110164760Y-77639220D01*
X110151703Y-77648838D01*
X110142609Y-77653103D01*
X110132856Y-77655512D01*
X110122819Y-77655972D01*
X110112886Y-77654465D01*
X110103439Y-77651050D01*
X110094841Y-77645858D01*
X110094839Y-77645857D01*
X110087417Y-77639086D01*
X110087414Y-77639083D01*
X110082851Y-77634920D01*
X109666180Y-77172159D01*
X109651319Y-77151984D01*
X109643566Y-77142473D01*
X109626803Y-77123857D01*
X109613527Y-77105832D01*
X109556157Y-77009402D01*
X109548673Y-76993444D01*
X109536144Y-76972385D01*
X109519748Y-76954175D01*
X109500114Y-76939513D01*
X109477997Y-76928964D01*
X109454246Y-76922932D01*
X109429776Y-76921649D01*
X109405525Y-76925165D01*
X109382426Y-76933345D01*
X109361367Y-76945874D01*
X109343157Y-76962270D01*
X109328495Y-76981904D01*
X109317946Y-77004021D01*
X109311914Y-77027772D01*
X109310500Y-77046518D01*
X109310500Y-78163600D01*
X107808500Y-78163600D01*
X107808500Y-76161600D01*
X109310500Y-76161600D01*
X109310500Y-76374467D01*
X109312902Y-76398853D01*
X109320015Y-76422302D01*
X109331566Y-76443913D01*
X109347112Y-76462855D01*
X109366054Y-76478401D01*
X109387665Y-76489952D01*
X109411114Y-76497065D01*
X109435500Y-76499467D01*
X109459886Y-76497065D01*
X109483335Y-76489952D01*
X109504946Y-76478401D01*
X109523888Y-76462855D01*
X109539434Y-76443913D01*
X109548323Y-76428280D01*
X109579464Y-76362991D01*
X109591043Y-76343815D01*
X109658172Y-76253920D01*
X109673256Y-76237387D01*
X109756647Y-76162301D01*
X109761609Y-76158646D01*
X109761611Y-76158644D01*
X109769700Y-76152686D01*
X109774667Y-76149027D01*
X109871095Y-76091659D01*
X109876678Y-76089041D01*
X109876681Y-76089039D01*
X109885776Y-76084773D01*
X109885785Y-76084770D01*
X109891367Y-76082152D01*
X109997121Y-76044702D01*
X110003110Y-76043222D01*
X110003117Y-76043220D01*
X110012871Y-76040811D01*
X110018870Y-76039329D01*
X110129893Y-76023232D01*
X110152264Y-76022206D01*
X110264311Y-76028079D01*
X110264311Y-76028079D01*
G37*
G36*
X98610500Y-78163600D02*
X97008500Y-78163600D01*
X97008500Y-76161600D01*
X98610500Y-76161600D01*
X98610500Y-78163600D01*
X98610500Y-78163600D01*
G37*
G36*
X96328091Y-76465085D02*
X96362069Y-76475393D01*
X96393387Y-76492133D01*
X96420839Y-76514661D01*
X96443367Y-76542113D01*
X96460107Y-76573431D01*
X96470415Y-76607409D01*
X96474500Y-76648890D01*
X96474500Y-77250110D01*
X96470415Y-77291591D01*
X96460107Y-77325569D01*
X96443367Y-77356887D01*
X96420839Y-77384339D01*
X96393387Y-77406867D01*
X96362069Y-77423607D01*
X96328091Y-77433915D01*
X96286610Y-77438000D01*
X95610390Y-77438000D01*
X95568909Y-77433915D01*
X95534931Y-77423607D01*
X95503613Y-77406867D01*
X95476161Y-77384339D01*
X95453633Y-77356887D01*
X95436893Y-77325569D01*
X95426585Y-77291591D01*
X95422500Y-77250110D01*
X95422500Y-76648890D01*
X95426585Y-76607409D01*
X95436893Y-76573431D01*
X95453633Y-76542113D01*
X95476161Y-76514661D01*
X95503613Y-76492133D01*
X95534931Y-76475393D01*
X95568909Y-76465085D01*
X95610390Y-76461000D01*
X96286610Y-76461000D01*
X96328091Y-76465085D01*
X96328091Y-76465085D01*
G37*
G36*
X94677091Y-75779085D02*
X94711069Y-75789393D01*
X94742387Y-75806133D01*
X94769839Y-75828661D01*
X94792367Y-75856113D01*
X94809107Y-75887431D01*
X94819415Y-75921409D01*
X94823500Y-75962890D01*
X94823500Y-76564110D01*
X94819415Y-76605591D01*
X94809107Y-76639569D01*
X94792367Y-76670887D01*
X94769839Y-76698339D01*
X94742387Y-76720867D01*
X94711069Y-76737607D01*
X94677091Y-76747915D01*
X94635610Y-76752000D01*
X93959390Y-76752000D01*
X93917909Y-76747915D01*
X93883931Y-76737607D01*
X93852613Y-76720867D01*
X93825161Y-76698339D01*
X93802633Y-76670887D01*
X93785893Y-76639569D01*
X93775585Y-76605591D01*
X93771500Y-76564110D01*
X93771500Y-75962890D01*
X93775585Y-75921409D01*
X93785893Y-75887431D01*
X93802633Y-75856113D01*
X93825161Y-75828661D01*
X93852613Y-75806133D01*
X93883931Y-75789393D01*
X93917909Y-75779085D01*
X93959390Y-75775000D01*
X94635610Y-75775000D01*
X94677091Y-75779085D01*
X94677091Y-75779085D01*
G37*
G36*
X111444957Y-74751985D02*
X111444960Y-74751985D01*
X111450378Y-74752044D01*
X111461181Y-74752162D01*
X111572707Y-74764377D01*
X111594616Y-74768984D01*
X111701622Y-74802723D01*
X111707296Y-74805146D01*
X111707299Y-74805147D01*
X111708275Y-74805564D01*
X111722222Y-74811520D01*
X111820575Y-74865479D01*
X111825675Y-74868968D01*
X111833966Y-74874639D01*
X111833970Y-74874642D01*
X111839061Y-74878125D01*
X111858230Y-74894209D01*
X111867988Y-74901613D01*
X111888697Y-74915783D01*
X112365736Y-75316066D01*
X112372415Y-75322893D01*
X112377075Y-75327655D01*
X112382565Y-75336069D01*
X112382566Y-75336071D01*
X112386308Y-75345390D01*
X112388160Y-75355263D01*
X112388050Y-75365313D01*
X112385983Y-75375145D01*
X112382039Y-75384381D01*
X112372885Y-75397761D01*
X111564434Y-76361236D01*
X111557607Y-76367915D01*
X111552845Y-76372575D01*
X111545237Y-76377539D01*
X111544429Y-76378066D01*
X111535110Y-76381808D01*
X111525237Y-76383660D01*
X111525234Y-76383660D01*
X111519207Y-76383594D01*
X111515187Y-76383550D01*
X111505355Y-76381483D01*
X111496119Y-76377539D01*
X111482739Y-76368385D01*
X111005703Y-75968104D01*
X111000601Y-75962890D01*
X110994363Y-75956515D01*
X110994361Y-75956512D01*
X110988184Y-75950199D01*
X110979184Y-75941861D01*
X110959993Y-75925759D01*
X110955679Y-75921349D01*
X110955675Y-75921346D01*
X110948649Y-75914165D01*
X110948643Y-75914158D01*
X110944330Y-75909749D01*
X110874107Y-75822254D01*
X110861871Y-75803502D01*
X110810064Y-75703981D01*
X110805016Y-75691408D01*
X110804021Y-75688931D01*
X110804019Y-75688925D01*
X110801720Y-75683198D01*
X110770325Y-75575489D01*
X110766197Y-75553482D01*
X110756418Y-75441718D01*
X110756662Y-75419319D01*
X110768877Y-75307793D01*
X110773484Y-75285884D01*
X110807223Y-75178878D01*
X110816020Y-75158278D01*
X110869979Y-75059925D01*
X110882625Y-75041438D01*
X110954740Y-74955495D01*
X110959147Y-74951183D01*
X110959154Y-74951175D01*
X110966335Y-74944149D01*
X110966344Y-74944142D01*
X110970751Y-74939830D01*
X111058246Y-74869607D01*
X111063413Y-74866236D01*
X111063416Y-74866233D01*
X111071830Y-74860743D01*
X111071832Y-74860742D01*
X111076998Y-74857371D01*
X111176519Y-74805564D01*
X111182244Y-74803265D01*
X111182247Y-74803264D01*
X111191569Y-74799521D01*
X111191575Y-74799519D01*
X111197302Y-74797220D01*
X111305011Y-74765825D01*
X111311075Y-74764687D01*
X111311077Y-74764687D01*
X111320951Y-74762835D01*
X111327018Y-74761697D01*
X111438782Y-74751918D01*
X111444957Y-74751985D01*
X111444957Y-74751985D01*
G37*
G36*
X96328091Y-74890085D02*
X96362069Y-74900393D01*
X96393387Y-74917133D01*
X96420839Y-74939661D01*
X96443367Y-74967113D01*
X96460107Y-74998431D01*
X96470415Y-75032409D01*
X96474500Y-75073890D01*
X96474500Y-75675110D01*
X96470415Y-75716591D01*
X96460107Y-75750569D01*
X96443367Y-75781887D01*
X96420839Y-75809339D01*
X96393387Y-75831867D01*
X96362069Y-75848607D01*
X96328091Y-75858915D01*
X96286610Y-75863000D01*
X95610390Y-75863000D01*
X95568909Y-75858915D01*
X95534931Y-75848607D01*
X95503613Y-75831867D01*
X95476161Y-75809339D01*
X95453633Y-75781887D01*
X95436893Y-75750569D01*
X95426585Y-75716591D01*
X95422500Y-75675110D01*
X95422500Y-75073890D01*
X95426585Y-75032409D01*
X95436893Y-74998431D01*
X95453633Y-74967113D01*
X95476161Y-74939661D01*
X95503613Y-74917133D01*
X95534931Y-74900393D01*
X95568909Y-74890085D01*
X95610390Y-74886000D01*
X96286610Y-74886000D01*
X96328091Y-74890085D01*
X96328091Y-74890085D01*
G37*
G36*
X105485591Y-74662085D02*
X105519569Y-74672393D01*
X105550887Y-74689133D01*
X105578339Y-74711661D01*
X105600867Y-74739113D01*
X105617607Y-74770431D01*
X105627915Y-74804409D01*
X105632000Y-74845890D01*
X105632000Y-75522110D01*
X105627915Y-75563591D01*
X105617607Y-75597569D01*
X105600867Y-75628887D01*
X105578339Y-75656339D01*
X105550887Y-75678867D01*
X105519569Y-75695607D01*
X105485591Y-75705915D01*
X105444110Y-75710000D01*
X104842890Y-75710000D01*
X104801409Y-75705915D01*
X104767431Y-75695607D01*
X104736113Y-75678867D01*
X104708661Y-75656339D01*
X104686133Y-75628887D01*
X104669393Y-75597569D01*
X104659085Y-75563591D01*
X104655000Y-75522110D01*
X104655000Y-74845890D01*
X104659085Y-74804409D01*
X104669393Y-74770431D01*
X104686133Y-74739113D01*
X104708661Y-74711661D01*
X104736113Y-74689133D01*
X104767431Y-74672393D01*
X104801409Y-74662085D01*
X104842890Y-74658000D01*
X105444110Y-74658000D01*
X105485591Y-74662085D01*
X105485591Y-74662085D01*
G37*
G36*
X103910591Y-74662085D02*
X103944569Y-74672393D01*
X103975887Y-74689133D01*
X104003339Y-74711661D01*
X104025867Y-74739113D01*
X104042607Y-74770431D01*
X104052915Y-74804409D01*
X104057000Y-74845890D01*
X104057000Y-75522110D01*
X104052915Y-75563591D01*
X104042607Y-75597569D01*
X104025867Y-75628887D01*
X104003339Y-75656339D01*
X103975887Y-75678867D01*
X103944569Y-75695607D01*
X103910591Y-75705915D01*
X103869110Y-75710000D01*
X103267890Y-75710000D01*
X103226409Y-75705915D01*
X103192431Y-75695607D01*
X103161113Y-75678867D01*
X103133661Y-75656339D01*
X103111133Y-75628887D01*
X103094393Y-75597569D01*
X103084085Y-75563591D01*
X103080000Y-75522110D01*
X103080000Y-74845890D01*
X103084085Y-74804409D01*
X103094393Y-74770431D01*
X103111133Y-74739113D01*
X103133661Y-74711661D01*
X103161113Y-74689133D01*
X103192431Y-74672393D01*
X103226409Y-74662085D01*
X103267890Y-74658000D01*
X103869110Y-74658000D01*
X103910591Y-74662085D01*
X103910591Y-74662085D01*
G37*
G36*
X102424091Y-74699585D02*
X102458069Y-74709893D01*
X102489387Y-74726633D01*
X102516839Y-74749161D01*
X102539367Y-74776613D01*
X102556107Y-74807931D01*
X102566415Y-74841909D01*
X102570500Y-74883390D01*
X102570500Y-75484610D01*
X102566415Y-75526091D01*
X102556107Y-75560069D01*
X102539367Y-75591387D01*
X102516839Y-75618839D01*
X102489387Y-75641367D01*
X102458069Y-75658107D01*
X102424091Y-75668415D01*
X102382610Y-75672500D01*
X101706390Y-75672500D01*
X101664909Y-75668415D01*
X101630931Y-75658107D01*
X101599613Y-75641367D01*
X101572161Y-75618839D01*
X101549633Y-75591387D01*
X101532893Y-75560069D01*
X101522585Y-75526091D01*
X101518500Y-75484610D01*
X101518500Y-74883390D01*
X101522585Y-74841909D01*
X101532893Y-74807931D01*
X101549633Y-74776613D01*
X101572161Y-74749161D01*
X101599613Y-74726633D01*
X101630931Y-74709893D01*
X101664909Y-74699585D01*
X101706390Y-74695500D01*
X102382610Y-74695500D01*
X102424091Y-74699585D01*
X102424091Y-74699585D01*
G37*
G36*
X94677091Y-74204085D02*
X94711069Y-74214393D01*
X94742387Y-74231133D01*
X94769839Y-74253661D01*
X94792367Y-74281113D01*
X94809107Y-74312431D01*
X94819415Y-74346409D01*
X94823500Y-74387890D01*
X94823500Y-74989110D01*
X94819415Y-75030591D01*
X94809107Y-75064569D01*
X94792367Y-75095887D01*
X94769839Y-75123339D01*
X94742387Y-75145867D01*
X94711069Y-75162607D01*
X94677091Y-75172915D01*
X94635610Y-75177000D01*
X93959390Y-75177000D01*
X93917909Y-75172915D01*
X93883931Y-75162607D01*
X93852613Y-75145867D01*
X93825161Y-75123339D01*
X93802633Y-75095887D01*
X93785893Y-75064569D01*
X93775585Y-75030591D01*
X93771500Y-74989110D01*
X93771500Y-74387890D01*
X93775585Y-74346409D01*
X93785893Y-74312431D01*
X93802633Y-74281113D01*
X93825161Y-74253661D01*
X93852613Y-74231133D01*
X93883931Y-74214393D01*
X93917909Y-74204085D01*
X93959390Y-74200000D01*
X94635610Y-74200000D01*
X94677091Y-74204085D01*
X94677091Y-74204085D01*
G37*
G36*
X98610500Y-74613600D02*
X97008500Y-74613600D01*
X97008500Y-72611600D01*
X98610500Y-72611600D01*
X98610500Y-74613600D01*
X98610500Y-74613600D01*
G37*
G36*
X100860500Y-74613600D02*
X99258500Y-74613600D01*
X99258500Y-72611600D01*
X100860500Y-72611600D01*
X100860500Y-74613600D01*
X100860500Y-74613600D01*
G37*
G36*
X108533591Y-73138085D02*
X108567569Y-73148393D01*
X108598887Y-73165133D01*
X108626339Y-73187661D01*
X108648867Y-73215113D01*
X108665607Y-73246431D01*
X108675915Y-73280409D01*
X108680000Y-73321890D01*
X108680000Y-73998110D01*
X108675915Y-74039591D01*
X108665607Y-74073569D01*
X108648867Y-74104887D01*
X108626339Y-74132339D01*
X108598887Y-74154867D01*
X108567569Y-74171607D01*
X108533591Y-74181915D01*
X108492110Y-74186000D01*
X107890890Y-74186000D01*
X107849409Y-74181915D01*
X107815431Y-74171607D01*
X107784113Y-74154867D01*
X107756661Y-74132339D01*
X107734133Y-74104887D01*
X107717393Y-74073569D01*
X107707085Y-74039591D01*
X107703000Y-73998110D01*
X107703000Y-73321890D01*
X107707085Y-73280409D01*
X107717393Y-73246431D01*
X107734133Y-73215113D01*
X107756661Y-73187661D01*
X107784113Y-73165133D01*
X107815431Y-73148393D01*
X107849409Y-73138085D01*
X107890890Y-73134000D01*
X108492110Y-73134000D01*
X108533591Y-73138085D01*
X108533591Y-73138085D01*
G37*
G36*
X103910591Y-73138085D02*
X103944569Y-73148393D01*
X103975887Y-73165133D01*
X104003339Y-73187661D01*
X104025867Y-73215113D01*
X104042607Y-73246431D01*
X104052915Y-73280409D01*
X104057000Y-73321890D01*
X104057000Y-73998110D01*
X104052915Y-74039591D01*
X104042607Y-74073569D01*
X104025867Y-74104887D01*
X104003339Y-74132339D01*
X103975887Y-74154867D01*
X103944569Y-74171607D01*
X103910591Y-74181915D01*
X103869110Y-74186000D01*
X103267890Y-74186000D01*
X103226409Y-74181915D01*
X103192431Y-74171607D01*
X103161113Y-74154867D01*
X103133661Y-74132339D01*
X103111133Y-74104887D01*
X103094393Y-74073569D01*
X103084085Y-74039591D01*
X103080000Y-73998110D01*
X103080000Y-73321890D01*
X103084085Y-73280409D01*
X103094393Y-73246431D01*
X103111133Y-73215113D01*
X103133661Y-73187661D01*
X103161113Y-73165133D01*
X103192431Y-73148393D01*
X103226409Y-73138085D01*
X103267890Y-73134000D01*
X103869110Y-73134000D01*
X103910591Y-73138085D01*
X103910591Y-73138085D01*
G37*
G36*
X106958591Y-73138085D02*
X106992569Y-73148393D01*
X107023887Y-73165133D01*
X107051339Y-73187661D01*
X107073867Y-73215113D01*
X107090607Y-73246431D01*
X107100915Y-73280409D01*
X107105000Y-73321890D01*
X107105000Y-73998110D01*
X107100915Y-74039591D01*
X107090607Y-74073569D01*
X107073867Y-74104887D01*
X107051339Y-74132339D01*
X107023887Y-74154867D01*
X106992569Y-74171607D01*
X106958591Y-74181915D01*
X106917110Y-74186000D01*
X106315890Y-74186000D01*
X106274409Y-74181915D01*
X106240431Y-74171607D01*
X106209113Y-74154867D01*
X106181661Y-74132339D01*
X106159133Y-74104887D01*
X106142393Y-74073569D01*
X106132085Y-74039591D01*
X106128000Y-73998110D01*
X106128000Y-73321890D01*
X106132085Y-73280409D01*
X106142393Y-73246431D01*
X106159133Y-73215113D01*
X106181661Y-73187661D01*
X106209113Y-73165133D01*
X106240431Y-73148393D01*
X106274409Y-73138085D01*
X106315890Y-73134000D01*
X106917110Y-73134000D01*
X106958591Y-73138085D01*
X106958591Y-73138085D01*
G37*
G36*
X105485591Y-73138085D02*
X105519569Y-73148393D01*
X105550887Y-73165133D01*
X105578339Y-73187661D01*
X105600867Y-73215113D01*
X105617607Y-73246431D01*
X105627915Y-73280409D01*
X105632000Y-73321890D01*
X105632000Y-73998110D01*
X105627915Y-74039591D01*
X105617607Y-74073569D01*
X105600867Y-74104887D01*
X105578339Y-74132339D01*
X105550887Y-74154867D01*
X105519569Y-74171607D01*
X105485591Y-74181915D01*
X105444110Y-74186000D01*
X104842890Y-74186000D01*
X104801409Y-74181915D01*
X104767431Y-74171607D01*
X104736113Y-74154867D01*
X104708661Y-74132339D01*
X104686133Y-74104887D01*
X104669393Y-74073569D01*
X104659085Y-74039591D01*
X104655000Y-73998110D01*
X104655000Y-73321890D01*
X104659085Y-73280409D01*
X104669393Y-73246431D01*
X104686133Y-73215113D01*
X104708661Y-73187661D01*
X104736113Y-73165133D01*
X104767431Y-73148393D01*
X104801409Y-73138085D01*
X104842890Y-73134000D01*
X105444110Y-73134000D01*
X105485591Y-73138085D01*
X105485591Y-73138085D01*
G37*
G36*
X102424091Y-73124585D02*
X102458069Y-73134893D01*
X102489387Y-73151633D01*
X102516839Y-73174161D01*
X102539367Y-73201613D01*
X102556107Y-73232931D01*
X102566415Y-73266909D01*
X102570500Y-73308390D01*
X102570500Y-73909610D01*
X102566415Y-73951091D01*
X102556107Y-73985069D01*
X102539367Y-74016387D01*
X102516839Y-74043839D01*
X102489387Y-74066367D01*
X102458069Y-74083107D01*
X102424091Y-74093415D01*
X102382610Y-74097500D01*
X101706390Y-74097500D01*
X101664909Y-74093415D01*
X101630931Y-74083107D01*
X101599613Y-74066367D01*
X101572161Y-74043839D01*
X101549633Y-74016387D01*
X101532893Y-73985069D01*
X101522585Y-73951091D01*
X101518500Y-73909610D01*
X101518500Y-73308390D01*
X101522585Y-73266909D01*
X101532893Y-73232931D01*
X101549633Y-73201613D01*
X101572161Y-73174161D01*
X101599613Y-73151633D01*
X101630931Y-73134893D01*
X101664909Y-73124585D01*
X101706390Y-73120500D01*
X102382610Y-73120500D01*
X102424091Y-73124585D01*
X102424091Y-73124585D01*
G37*
G36*
X112552000Y-74033500D02*
X111390000Y-74033500D01*
X111390000Y-71381500D01*
X112552000Y-71381500D01*
X112552000Y-74033500D01*
X112552000Y-74033500D01*
G37*
G36*
X110352000Y-74033500D02*
X109190000Y-74033500D01*
X109190000Y-73281500D01*
X110352000Y-73281500D01*
X110352000Y-74033500D01*
X110352000Y-74033500D01*
G37*
G36*
X92028054Y-71644934D02*
X92049665Y-71656485D01*
X92073114Y-71663598D01*
X92097500Y-71666000D01*
X93195500Y-71666000D01*
X93219886Y-71663598D01*
X93243335Y-71656485D01*
X93264946Y-71644934D01*
X93269739Y-71641000D01*
X94072500Y-71641000D01*
X94072500Y-73393000D01*
X93269739Y-73393000D01*
X93264946Y-73389066D01*
X93243335Y-73377515D01*
X93219886Y-73370402D01*
X93195500Y-73368000D01*
X92097500Y-73368000D01*
X92073114Y-73370402D01*
X92049665Y-73377515D01*
X92028054Y-73389066D01*
X92023261Y-73393000D01*
X91220500Y-73393000D01*
X91220500Y-71641000D01*
X92023261Y-71641000D01*
X92028054Y-71644934D01*
X92028054Y-71644934D01*
G37*
G36*
X106958591Y-71106085D02*
X106992569Y-71116393D01*
X107023887Y-71133133D01*
X107051339Y-71155661D01*
X107073867Y-71183113D01*
X107090607Y-71214431D01*
X107100915Y-71248409D01*
X107105000Y-71289890D01*
X107105000Y-71966110D01*
X107100915Y-72007591D01*
X107090607Y-72041569D01*
X107073867Y-72072887D01*
X107051339Y-72100339D01*
X107023887Y-72122867D01*
X106992569Y-72139607D01*
X106958591Y-72149915D01*
X106917110Y-72154000D01*
X106315890Y-72154000D01*
X106274409Y-72149915D01*
X106240431Y-72139607D01*
X106209113Y-72122867D01*
X106181661Y-72100339D01*
X106159133Y-72072887D01*
X106142393Y-72041569D01*
X106132085Y-72007591D01*
X106128000Y-71966110D01*
X106128000Y-71289890D01*
X106132085Y-71248409D01*
X106142393Y-71214431D01*
X106159133Y-71183113D01*
X106181661Y-71155661D01*
X106209113Y-71133133D01*
X106240431Y-71116393D01*
X106274409Y-71106085D01*
X106315890Y-71102000D01*
X106917110Y-71102000D01*
X106958591Y-71106085D01*
X106958591Y-71106085D01*
G37*
G36*
X108533591Y-71106085D02*
X108567569Y-71116393D01*
X108598887Y-71133133D01*
X108626339Y-71155661D01*
X108648867Y-71183113D01*
X108665607Y-71214431D01*
X108675915Y-71248409D01*
X108680000Y-71289890D01*
X108680000Y-71966110D01*
X108675915Y-72007591D01*
X108665607Y-72041569D01*
X108648867Y-72072887D01*
X108626339Y-72100339D01*
X108598887Y-72122867D01*
X108567569Y-72139607D01*
X108533591Y-72149915D01*
X108492110Y-72154000D01*
X107890890Y-72154000D01*
X107849409Y-72149915D01*
X107815431Y-72139607D01*
X107784113Y-72122867D01*
X107756661Y-72100339D01*
X107734133Y-72072887D01*
X107717393Y-72041569D01*
X107707085Y-72007591D01*
X107703000Y-71966110D01*
X107703000Y-71289890D01*
X107707085Y-71248409D01*
X107717393Y-71214431D01*
X107734133Y-71183113D01*
X107756661Y-71155661D01*
X107784113Y-71133133D01*
X107815431Y-71116393D01*
X107849409Y-71106085D01*
X107890890Y-71102000D01*
X108492110Y-71102000D01*
X108533591Y-71106085D01*
X108533591Y-71106085D01*
G37*
G36*
X110352000Y-72133500D02*
X109190000Y-72133500D01*
X109190000Y-71381500D01*
X110352000Y-71381500D01*
X110352000Y-72133500D01*
X110352000Y-72133500D01*
G37*
G36*
X97855100Y-72057500D02*
X96753100Y-72057500D01*
X96753100Y-71355500D01*
X97855100Y-71355500D01*
X97855100Y-72057500D01*
X97855100Y-72057500D01*
G37*
G36*
X95855100Y-72057500D02*
X94753100Y-72057500D01*
X94753100Y-71355500D01*
X95855100Y-71355500D01*
X95855100Y-72057500D01*
X95855100Y-72057500D01*
G37*
G36*
X105059000Y-64742000D02*
X105061402Y-64766386D01*
X105068515Y-64789835D01*
X105080066Y-64811446D01*
X105095612Y-64830388D01*
X105114554Y-64845934D01*
X105136165Y-64857485D01*
X105159614Y-64864598D01*
X105184000Y-64867000D01*
X105709000Y-64867000D01*
X105709000Y-70769000D01*
X105184000Y-70769000D01*
X105159614Y-70771402D01*
X105136165Y-70778515D01*
X105114554Y-70790066D01*
X105095612Y-70805612D01*
X105080066Y-70824554D01*
X105068515Y-70846165D01*
X105061402Y-70869614D01*
X105059000Y-70894000D01*
X105059000Y-71419000D01*
X99157000Y-71419000D01*
X99157000Y-70894000D01*
X99154598Y-70869614D01*
X99147485Y-70846165D01*
X99135934Y-70824554D01*
X99120388Y-70805612D01*
X99101446Y-70790066D01*
X99079835Y-70778515D01*
X99056386Y-70771402D01*
X99032000Y-70769000D01*
X98507000Y-70769000D01*
X98507000Y-64867000D01*
X99032000Y-64867000D01*
X99056386Y-64864598D01*
X99079835Y-64857485D01*
X99101446Y-64845934D01*
X99120388Y-64830388D01*
X99135934Y-64811446D01*
X99147485Y-64789835D01*
X99154598Y-64766386D01*
X99157000Y-64742000D01*
X99157000Y-64217000D01*
X105059000Y-64217000D01*
X105059000Y-64742000D01*
X105059000Y-64742000D01*
G37*
G36*
X93915091Y-70000585D02*
X93949069Y-70010893D01*
X93980387Y-70027633D01*
X94007839Y-70050161D01*
X94030367Y-70077613D01*
X94047107Y-70108931D01*
X94057415Y-70142909D01*
X94061500Y-70184390D01*
X94061500Y-70785610D01*
X94057415Y-70827091D01*
X94047107Y-70861069D01*
X94030367Y-70892387D01*
X94007839Y-70919839D01*
X93980387Y-70942367D01*
X93949069Y-70959107D01*
X93915091Y-70969415D01*
X93873610Y-70973500D01*
X93197390Y-70973500D01*
X93155909Y-70969415D01*
X93121931Y-70959107D01*
X93090613Y-70942367D01*
X93063161Y-70919839D01*
X93040633Y-70892387D01*
X93023893Y-70861069D01*
X93013585Y-70827091D01*
X93009500Y-70785610D01*
X93009500Y-70184390D01*
X93013585Y-70142909D01*
X93023893Y-70108931D01*
X93040633Y-70077613D01*
X93063161Y-70050161D01*
X93090613Y-70027633D01*
X93121931Y-70010893D01*
X93155909Y-70000585D01*
X93197390Y-69996500D01*
X93873610Y-69996500D01*
X93915091Y-70000585D01*
X93915091Y-70000585D01*
G37*
G36*
X97855100Y-70757500D02*
X96753100Y-70757500D01*
X96753100Y-70055500D01*
X97855100Y-70055500D01*
X97855100Y-70757500D01*
X97855100Y-70757500D01*
G37*
G36*
X95855100Y-70757500D02*
X94753100Y-70757500D01*
X94753100Y-70055500D01*
X95855100Y-70055500D01*
X95855100Y-70757500D01*
X95855100Y-70757500D01*
G37*
G36*
X113689591Y-69582085D02*
X113723569Y-69592393D01*
X113754887Y-69609133D01*
X113782339Y-69631661D01*
X113804867Y-69659113D01*
X113821607Y-69690431D01*
X113831915Y-69724409D01*
X113836000Y-69765890D01*
X113836000Y-70442110D01*
X113831915Y-70483591D01*
X113821607Y-70517569D01*
X113804867Y-70548887D01*
X113782339Y-70576339D01*
X113754887Y-70598867D01*
X113723569Y-70615607D01*
X113689591Y-70625915D01*
X113648110Y-70630000D01*
X113046890Y-70630000D01*
X113005409Y-70625915D01*
X112971431Y-70615607D01*
X112940113Y-70598867D01*
X112912661Y-70576339D01*
X112890133Y-70548887D01*
X112873393Y-70517569D01*
X112863085Y-70483591D01*
X112859000Y-70442110D01*
X112859000Y-69765890D01*
X112863085Y-69724409D01*
X112873393Y-69690431D01*
X112890133Y-69659113D01*
X112912661Y-69631661D01*
X112940113Y-69609133D01*
X112971431Y-69592393D01*
X113005409Y-69582085D01*
X113046890Y-69578000D01*
X113648110Y-69578000D01*
X113689591Y-69582085D01*
X113689591Y-69582085D01*
G37*
G36*
X112114591Y-69582085D02*
X112148569Y-69592393D01*
X112179887Y-69609133D01*
X112207339Y-69631661D01*
X112229867Y-69659113D01*
X112246607Y-69690431D01*
X112256915Y-69724409D01*
X112261000Y-69765890D01*
X112261000Y-70442110D01*
X112256915Y-70483591D01*
X112246607Y-70517569D01*
X112229867Y-70548887D01*
X112207339Y-70576339D01*
X112179887Y-70598867D01*
X112148569Y-70615607D01*
X112114591Y-70625915D01*
X112073110Y-70630000D01*
X111471890Y-70630000D01*
X111430409Y-70625915D01*
X111396431Y-70615607D01*
X111365113Y-70598867D01*
X111337661Y-70576339D01*
X111315133Y-70548887D01*
X111298393Y-70517569D01*
X111288085Y-70483591D01*
X111284000Y-70442110D01*
X111284000Y-69765890D01*
X111288085Y-69724409D01*
X111298393Y-69690431D01*
X111315133Y-69659113D01*
X111337661Y-69631661D01*
X111365113Y-69609133D01*
X111396431Y-69592393D01*
X111430409Y-69582085D01*
X111471890Y-69578000D01*
X112073110Y-69578000D01*
X112114591Y-69582085D01*
X112114591Y-69582085D01*
G37*
G36*
X90842091Y-69391585D02*
X90876069Y-69401893D01*
X90907387Y-69418633D01*
X90934839Y-69441161D01*
X90957367Y-69468613D01*
X90974107Y-69499931D01*
X90984415Y-69533909D01*
X90988500Y-69575390D01*
X90988500Y-70251610D01*
X90984415Y-70293091D01*
X90974107Y-70327069D01*
X90957367Y-70358387D01*
X90934839Y-70385839D01*
X90907387Y-70408367D01*
X90876069Y-70425107D01*
X90842091Y-70435415D01*
X90800610Y-70439500D01*
X90199390Y-70439500D01*
X90157909Y-70435415D01*
X90123931Y-70425107D01*
X90092613Y-70408367D01*
X90065161Y-70385839D01*
X90042633Y-70358387D01*
X90025893Y-70327069D01*
X90015585Y-70293091D01*
X90011500Y-70251610D01*
X90011500Y-69575390D01*
X90015585Y-69533909D01*
X90025893Y-69499931D01*
X90042633Y-69468613D01*
X90065161Y-69441161D01*
X90092613Y-69418633D01*
X90123931Y-69401893D01*
X90157909Y-69391585D01*
X90199390Y-69387500D01*
X90800610Y-69387500D01*
X90842091Y-69391585D01*
X90842091Y-69391585D01*
G37*
G36*
X92417091Y-69391585D02*
X92451069Y-69401893D01*
X92482387Y-69418633D01*
X92509839Y-69441161D01*
X92532367Y-69468613D01*
X92549107Y-69499931D01*
X92559415Y-69533909D01*
X92563500Y-69575390D01*
X92563500Y-70251610D01*
X92559415Y-70293091D01*
X92549107Y-70327069D01*
X92532367Y-70358387D01*
X92509839Y-70385839D01*
X92482387Y-70408367D01*
X92451069Y-70425107D01*
X92417091Y-70435415D01*
X92375610Y-70439500D01*
X91774390Y-70439500D01*
X91732909Y-70435415D01*
X91698931Y-70425107D01*
X91667613Y-70408367D01*
X91640161Y-70385839D01*
X91617633Y-70358387D01*
X91600893Y-70327069D01*
X91590585Y-70293091D01*
X91586500Y-70251610D01*
X91586500Y-69575390D01*
X91590585Y-69533909D01*
X91600893Y-69499931D01*
X91617633Y-69468613D01*
X91640161Y-69441161D01*
X91667613Y-69418633D01*
X91698931Y-69401893D01*
X91732909Y-69391585D01*
X91774390Y-69387500D01*
X92375610Y-69387500D01*
X92417091Y-69391585D01*
X92417091Y-69391585D01*
G37*
G36*
X110672500Y-70247000D02*
X109670500Y-70247000D01*
X109670500Y-68945000D01*
X110672500Y-68945000D01*
X110672500Y-70247000D01*
X110672500Y-70247000D01*
G37*
G36*
X107372500Y-70247000D02*
X106370500Y-70247000D01*
X106370500Y-68945000D01*
X107372500Y-68945000D01*
X107372500Y-70247000D01*
X107372500Y-70247000D01*
G37*
G36*
X93915091Y-68425585D02*
X93949069Y-68435893D01*
X93980387Y-68452633D01*
X94007839Y-68475161D01*
X94030367Y-68502613D01*
X94047107Y-68533931D01*
X94057415Y-68567909D01*
X94061500Y-68609390D01*
X94061500Y-69210610D01*
X94057415Y-69252091D01*
X94047107Y-69286069D01*
X94030367Y-69317387D01*
X94007839Y-69344839D01*
X93980387Y-69367367D01*
X93949069Y-69384107D01*
X93915091Y-69394415D01*
X93873610Y-69398500D01*
X93197390Y-69398500D01*
X93155909Y-69394415D01*
X93121931Y-69384107D01*
X93090613Y-69367367D01*
X93063161Y-69344839D01*
X93040633Y-69317387D01*
X93023893Y-69286069D01*
X93013585Y-69252091D01*
X93009500Y-69210610D01*
X93009500Y-68609390D01*
X93013585Y-68567909D01*
X93023893Y-68533931D01*
X93040633Y-68502613D01*
X93063161Y-68475161D01*
X93090613Y-68452633D01*
X93121931Y-68435893D01*
X93155909Y-68425585D01*
X93197390Y-68421500D01*
X93873610Y-68421500D01*
X93915091Y-68425585D01*
X93915091Y-68425585D01*
G37*
G36*
X90837142Y-66972742D02*
X90985102Y-67034030D01*
X91002326Y-67045539D01*
X91118257Y-67123001D01*
X91231499Y-67236243D01*
X91253386Y-67269000D01*
X91318868Y-67367000D01*
X91320471Y-67369400D01*
X91326295Y-67383461D01*
X91381758Y-67517358D01*
X91413000Y-67674425D01*
X91413000Y-67834575D01*
X91381758Y-67991642D01*
X91320470Y-68139602D01*
X91231498Y-68272758D01*
X91118258Y-68385998D01*
X90985102Y-68474970D01*
X90837142Y-68536258D01*
X90680075Y-68567500D01*
X90519925Y-68567500D01*
X90362858Y-68536258D01*
X90214898Y-68474970D01*
X90081742Y-68385998D01*
X89968502Y-68272758D01*
X89879530Y-68139602D01*
X89818242Y-67991642D01*
X89787000Y-67834575D01*
X89787000Y-67674425D01*
X89818242Y-67517358D01*
X89873705Y-67383461D01*
X89879529Y-67369400D01*
X89881133Y-67367000D01*
X89946614Y-67269000D01*
X89968501Y-67236243D01*
X90081743Y-67123001D01*
X90197674Y-67045539D01*
X90214898Y-67034030D01*
X90362858Y-66972742D01*
X90519925Y-66941500D01*
X90680075Y-66941500D01*
X90837142Y-66972742D01*
X90837142Y-66972742D01*
G37*
G36*
X113837142Y-66972742D02*
X113985102Y-67034030D01*
X114002326Y-67045539D01*
X114118257Y-67123001D01*
X114231499Y-67236243D01*
X114253386Y-67269000D01*
X114318868Y-67367000D01*
X114320471Y-67369400D01*
X114326295Y-67383461D01*
X114381758Y-67517358D01*
X114413000Y-67674425D01*
X114413000Y-67834575D01*
X114381758Y-67991642D01*
X114320470Y-68139602D01*
X114231498Y-68272758D01*
X114118258Y-68385998D01*
X113985102Y-68474970D01*
X113837142Y-68536258D01*
X113680075Y-68567500D01*
X113519925Y-68567500D01*
X113362858Y-68536258D01*
X113214898Y-68474970D01*
X113081742Y-68385998D01*
X112968502Y-68272758D01*
X112879530Y-68139602D01*
X112818242Y-67991642D01*
X112787000Y-67834575D01*
X112787000Y-67674425D01*
X112818242Y-67517358D01*
X112873705Y-67383461D01*
X112879529Y-67369400D01*
X112881133Y-67367000D01*
X112946614Y-67269000D01*
X112968501Y-67236243D01*
X113081743Y-67123001D01*
X113197674Y-67045539D01*
X113214898Y-67034030D01*
X113362858Y-66972742D01*
X113519925Y-66941500D01*
X113680075Y-66941500D01*
X113837142Y-66972742D01*
X113837142Y-66972742D01*
G37*
G36*
X108440000Y-68165500D02*
X107338000Y-68165500D01*
X107338000Y-66663500D01*
X108440000Y-66663500D01*
X108440000Y-68165500D01*
X108440000Y-68165500D01*
G37*
G36*
X110806091Y-66978085D02*
X110840069Y-66988393D01*
X110871387Y-67005133D01*
X110898839Y-67027661D01*
X110921367Y-67055113D01*
X110938107Y-67086431D01*
X110948415Y-67120409D01*
X110952500Y-67161890D01*
X110952500Y-67763110D01*
X110948415Y-67804591D01*
X110938107Y-67838569D01*
X110921367Y-67869887D01*
X110898839Y-67897339D01*
X110871387Y-67919867D01*
X110840069Y-67936607D01*
X110806091Y-67946915D01*
X110764610Y-67951000D01*
X110088390Y-67951000D01*
X110046909Y-67946915D01*
X110012931Y-67936607D01*
X109981613Y-67919867D01*
X109954161Y-67897339D01*
X109931633Y-67869887D01*
X109914893Y-67838569D01*
X109904585Y-67804591D01*
X109900500Y-67763110D01*
X109900500Y-67161890D01*
X109904585Y-67120409D01*
X109914893Y-67086431D01*
X109931633Y-67055113D01*
X109954161Y-67027661D01*
X109981613Y-67005133D01*
X110012931Y-66988393D01*
X110046909Y-66978085D01*
X110088390Y-66974000D01*
X110764610Y-66974000D01*
X110806091Y-66978085D01*
X110806091Y-66978085D01*
G37*
G36*
X112330091Y-66952585D02*
X112364069Y-66962893D01*
X112395387Y-66979633D01*
X112422839Y-67002161D01*
X112445367Y-67029613D01*
X112462107Y-67060931D01*
X112472415Y-67094909D01*
X112476500Y-67136390D01*
X112476500Y-67737610D01*
X112472415Y-67779091D01*
X112462107Y-67813069D01*
X112445367Y-67844387D01*
X112422839Y-67871839D01*
X112395387Y-67894367D01*
X112364069Y-67911107D01*
X112330091Y-67921415D01*
X112288610Y-67925500D01*
X111612390Y-67925500D01*
X111570909Y-67921415D01*
X111536931Y-67911107D01*
X111505613Y-67894367D01*
X111478161Y-67871839D01*
X111455633Y-67844387D01*
X111438893Y-67813069D01*
X111428585Y-67779091D01*
X111424500Y-67737610D01*
X111424500Y-67136390D01*
X111428585Y-67094909D01*
X111438893Y-67060931D01*
X111455633Y-67029613D01*
X111478161Y-67002161D01*
X111505613Y-66979633D01*
X111536931Y-66962893D01*
X111570909Y-66952585D01*
X111612390Y-66948500D01*
X112288610Y-66948500D01*
X112330091Y-66952585D01*
X112330091Y-66952585D01*
G37*
G36*
X92480591Y-66407085D02*
X92514569Y-66417393D01*
X92545887Y-66434133D01*
X92573339Y-66456661D01*
X92595867Y-66484113D01*
X92612607Y-66515431D01*
X92622915Y-66549409D01*
X92627000Y-66590890D01*
X92627000Y-67267110D01*
X92622915Y-67308591D01*
X92612607Y-67342569D01*
X92595867Y-67373887D01*
X92573339Y-67401339D01*
X92545887Y-67423867D01*
X92514569Y-67440607D01*
X92480591Y-67450915D01*
X92439110Y-67455000D01*
X91837890Y-67455000D01*
X91796409Y-67450915D01*
X91762431Y-67440607D01*
X91731113Y-67423867D01*
X91703661Y-67401339D01*
X91681133Y-67373887D01*
X91664393Y-67342569D01*
X91654085Y-67308591D01*
X91650000Y-67267110D01*
X91650000Y-66590890D01*
X91654085Y-66549409D01*
X91664393Y-66515431D01*
X91681133Y-66484113D01*
X91703661Y-66456661D01*
X91731113Y-66434133D01*
X91762431Y-66417393D01*
X91796409Y-66407085D01*
X91837890Y-66403000D01*
X92439110Y-66403000D01*
X92480591Y-66407085D01*
X92480591Y-66407085D01*
G37*
G36*
X94055591Y-66407085D02*
X94089569Y-66417393D01*
X94120887Y-66434133D01*
X94148339Y-66456661D01*
X94170867Y-66484113D01*
X94187607Y-66515431D01*
X94197915Y-66549409D01*
X94202000Y-66590890D01*
X94202000Y-67267110D01*
X94197915Y-67308591D01*
X94187607Y-67342569D01*
X94170867Y-67373887D01*
X94148339Y-67401339D01*
X94120887Y-67423867D01*
X94089569Y-67440607D01*
X94055591Y-67450915D01*
X94014110Y-67455000D01*
X93412890Y-67455000D01*
X93371409Y-67450915D01*
X93337431Y-67440607D01*
X93306113Y-67423867D01*
X93278661Y-67401339D01*
X93256133Y-67373887D01*
X93239393Y-67342569D01*
X93229085Y-67308591D01*
X93225000Y-67267110D01*
X93225000Y-66590890D01*
X93229085Y-66549409D01*
X93239393Y-66515431D01*
X93256133Y-66484113D01*
X93278661Y-66456661D01*
X93306113Y-66434133D01*
X93337431Y-66417393D01*
X93371409Y-66407085D01*
X93412890Y-66403000D01*
X94014110Y-66403000D01*
X94055591Y-66407085D01*
X94055591Y-66407085D01*
G37*
G36*
X95630500Y-64606000D02*
X95632902Y-64630386D01*
X95640015Y-64653835D01*
X95651566Y-64675446D01*
X95667112Y-64694388D01*
X95686054Y-64709934D01*
X95707665Y-64721485D01*
X95731114Y-64728598D01*
X95755500Y-64731000D01*
X95953500Y-64731000D01*
X95977886Y-64728598D01*
X96001335Y-64721485D01*
X96022946Y-64709934D01*
X96041888Y-64694388D01*
X96057434Y-64675446D01*
X96068985Y-64653835D01*
X96076098Y-64630386D01*
X96078500Y-64606000D01*
X96078500Y-63781000D01*
X96580500Y-63781000D01*
X96580500Y-64606000D01*
X96582902Y-64630386D01*
X96590015Y-64653835D01*
X96601566Y-64675446D01*
X96617112Y-64694388D01*
X96636054Y-64709934D01*
X96657665Y-64721485D01*
X96681114Y-64728598D01*
X96705500Y-64731000D01*
X96903500Y-64731000D01*
X96927886Y-64728598D01*
X96951335Y-64721485D01*
X96972946Y-64709934D01*
X96991888Y-64694388D01*
X97007434Y-64675446D01*
X97018985Y-64653835D01*
X97026098Y-64630386D01*
X97028500Y-64606000D01*
X97028500Y-63781000D01*
X97530500Y-63781000D01*
X97530500Y-64606000D01*
X97532902Y-64630386D01*
X97540015Y-64653835D01*
X97551566Y-64675446D01*
X97567112Y-64694388D01*
X97580500Y-64705376D01*
X97580500Y-66358624D01*
X97567112Y-66369612D01*
X97551566Y-66388554D01*
X97540015Y-66410165D01*
X97532902Y-66433614D01*
X97530500Y-66458000D01*
X97530500Y-67283000D01*
X97028500Y-67283000D01*
X97028500Y-66458000D01*
X97026098Y-66433614D01*
X97018985Y-66410165D01*
X97007434Y-66388554D01*
X96991888Y-66369612D01*
X96972946Y-66354066D01*
X96951335Y-66342515D01*
X96927886Y-66335402D01*
X96903500Y-66333000D01*
X96705500Y-66333000D01*
X96681114Y-66335402D01*
X96657665Y-66342515D01*
X96636054Y-66354066D01*
X96617112Y-66369612D01*
X96601566Y-66388554D01*
X96590015Y-66410165D01*
X96582902Y-66433614D01*
X96580500Y-66458000D01*
X96580500Y-67283000D01*
X96078500Y-67283000D01*
X96078500Y-66458000D01*
X96076098Y-66433614D01*
X96068985Y-66410165D01*
X96057434Y-66388554D01*
X96041888Y-66369612D01*
X96022946Y-66354066D01*
X96001335Y-66342515D01*
X95977886Y-66335402D01*
X95953500Y-66333000D01*
X95755500Y-66333000D01*
X95731114Y-66335402D01*
X95707665Y-66342515D01*
X95686054Y-66354066D01*
X95667112Y-66369612D01*
X95651566Y-66388554D01*
X95640015Y-66410165D01*
X95632902Y-66433614D01*
X95630500Y-66458000D01*
X95630500Y-67283000D01*
X95128500Y-67283000D01*
X95128500Y-66458000D01*
X95126098Y-66433614D01*
X95118985Y-66410165D01*
X95107434Y-66388554D01*
X95091888Y-66369612D01*
X95078500Y-66358624D01*
X95078500Y-64705376D01*
X95091888Y-64694388D01*
X95107434Y-64675446D01*
X95118985Y-64653835D01*
X95126098Y-64630386D01*
X95128500Y-64606000D01*
X95128500Y-63781000D01*
X95630500Y-63781000D01*
X95630500Y-64606000D01*
X95630500Y-64606000D01*
G37*
G36*
X110806091Y-65403085D02*
X110840069Y-65413393D01*
X110871387Y-65430133D01*
X110898839Y-65452661D01*
X110921367Y-65480113D01*
X110938107Y-65511431D01*
X110948415Y-65545409D01*
X110952500Y-65586890D01*
X110952500Y-66188110D01*
X110948415Y-66229591D01*
X110938107Y-66263569D01*
X110921367Y-66294887D01*
X110898839Y-66322339D01*
X110871387Y-66344867D01*
X110840069Y-66361607D01*
X110806091Y-66371915D01*
X110764610Y-66376000D01*
X110088390Y-66376000D01*
X110046909Y-66371915D01*
X110012931Y-66361607D01*
X109981613Y-66344867D01*
X109954161Y-66322339D01*
X109931633Y-66294887D01*
X109914893Y-66263569D01*
X109904585Y-66229591D01*
X109900500Y-66188110D01*
X109900500Y-65586890D01*
X109904585Y-65545409D01*
X109914893Y-65511431D01*
X109931633Y-65480113D01*
X109954161Y-65452661D01*
X109981613Y-65430133D01*
X110012931Y-65413393D01*
X110046909Y-65403085D01*
X110088390Y-65399000D01*
X110764610Y-65399000D01*
X110806091Y-65403085D01*
X110806091Y-65403085D01*
G37*
G36*
X112330091Y-65377585D02*
X112364069Y-65387893D01*
X112395387Y-65404633D01*
X112422839Y-65427161D01*
X112445367Y-65454613D01*
X112462107Y-65485931D01*
X112472415Y-65519909D01*
X112476500Y-65561390D01*
X112476500Y-66162610D01*
X112472415Y-66204091D01*
X112462107Y-66238069D01*
X112445367Y-66269387D01*
X112422839Y-66296839D01*
X112395387Y-66319367D01*
X112364069Y-66336107D01*
X112330091Y-66346415D01*
X112288610Y-66350500D01*
X111612390Y-66350500D01*
X111570909Y-66346415D01*
X111536931Y-66336107D01*
X111505613Y-66319367D01*
X111478161Y-66296839D01*
X111455633Y-66269387D01*
X111438893Y-66238069D01*
X111428585Y-66204091D01*
X111424500Y-66162610D01*
X111424500Y-65561390D01*
X111428585Y-65519909D01*
X111438893Y-65485931D01*
X111455633Y-65454613D01*
X111478161Y-65427161D01*
X111505613Y-65404633D01*
X111536931Y-65387893D01*
X111570909Y-65377585D01*
X111612390Y-65373500D01*
X112288610Y-65373500D01*
X112330091Y-65377585D01*
X112330091Y-65377585D01*
G37*
G36*
X109390000Y-65965500D02*
X108288000Y-65965500D01*
X108288000Y-64463500D01*
X109390000Y-64463500D01*
X109390000Y-65965500D01*
X109390000Y-65965500D01*
G37*
G36*
X107490000Y-65965500D02*
X106388000Y-65965500D01*
X106388000Y-64463500D01*
X107490000Y-64463500D01*
X107490000Y-65965500D01*
X107490000Y-65965500D01*
G37*
G36*
X94055591Y-64883085D02*
X94089569Y-64893393D01*
X94120887Y-64910133D01*
X94148339Y-64932661D01*
X94170867Y-64960113D01*
X94187607Y-64991431D01*
X94197915Y-65025409D01*
X94202000Y-65066890D01*
X94202000Y-65743110D01*
X94197915Y-65784591D01*
X94187607Y-65818569D01*
X94170867Y-65849887D01*
X94148339Y-65877339D01*
X94120887Y-65899867D01*
X94089569Y-65916607D01*
X94055591Y-65926915D01*
X94014110Y-65931000D01*
X93412890Y-65931000D01*
X93371409Y-65926915D01*
X93337431Y-65916607D01*
X93306113Y-65899867D01*
X93278661Y-65877339D01*
X93256133Y-65849887D01*
X93239393Y-65818569D01*
X93229085Y-65784591D01*
X93225000Y-65743110D01*
X93225000Y-65066890D01*
X93229085Y-65025409D01*
X93239393Y-64991431D01*
X93256133Y-64960113D01*
X93278661Y-64932661D01*
X93306113Y-64910133D01*
X93337431Y-64893393D01*
X93371409Y-64883085D01*
X93412890Y-64879000D01*
X94014110Y-64879000D01*
X94055591Y-64883085D01*
X94055591Y-64883085D01*
G37*
G36*
X92480591Y-64883085D02*
X92514569Y-64893393D01*
X92545887Y-64910133D01*
X92573339Y-64932661D01*
X92595867Y-64960113D01*
X92612607Y-64991431D01*
X92622915Y-65025409D01*
X92627000Y-65066890D01*
X92627000Y-65743110D01*
X92622915Y-65784591D01*
X92612607Y-65818569D01*
X92595867Y-65849887D01*
X92573339Y-65877339D01*
X92545887Y-65899867D01*
X92514569Y-65916607D01*
X92480591Y-65926915D01*
X92439110Y-65931000D01*
X91837890Y-65931000D01*
X91796409Y-65926915D01*
X91762431Y-65916607D01*
X91731113Y-65899867D01*
X91703661Y-65877339D01*
X91681133Y-65849887D01*
X91664393Y-65818569D01*
X91654085Y-65784591D01*
X91650000Y-65743110D01*
X91650000Y-65066890D01*
X91654085Y-65025409D01*
X91664393Y-64991431D01*
X91681133Y-64960113D01*
X91703661Y-64932661D01*
X91731113Y-64910133D01*
X91762431Y-64893393D01*
X91796409Y-64883085D01*
X91837890Y-64879000D01*
X92439110Y-64879000D01*
X92480591Y-64883085D01*
X92480591Y-64883085D01*
G37*
G36*
X112548811Y-63526105D02*
X112587867Y-63537953D01*
X112623863Y-63557193D01*
X112655414Y-63583086D01*
X112681307Y-63614637D01*
X112700547Y-63650633D01*
X112712395Y-63689689D01*
X112717000Y-63736449D01*
X112717000Y-64533551D01*
X112712395Y-64580311D01*
X112700547Y-64619367D01*
X112681307Y-64655363D01*
X112655414Y-64686914D01*
X112623863Y-64712807D01*
X112587867Y-64732047D01*
X112548811Y-64743895D01*
X112502051Y-64748500D01*
X111779949Y-64748500D01*
X111733189Y-64743895D01*
X111694133Y-64732047D01*
X111658137Y-64712807D01*
X111626586Y-64686914D01*
X111600693Y-64655363D01*
X111581453Y-64619367D01*
X111569605Y-64580311D01*
X111565000Y-64533551D01*
X111565000Y-63736449D01*
X111569605Y-63689689D01*
X111581453Y-63650633D01*
X111600693Y-63614637D01*
X111626586Y-63583086D01*
X111658137Y-63557193D01*
X111694133Y-63537953D01*
X111733189Y-63526105D01*
X111779949Y-63521500D01*
X112502051Y-63521500D01*
X112548811Y-63526105D01*
X112548811Y-63526105D01*
G37*
G36*
X90212828Y-63156961D02*
X90222641Y-63159114D01*
X90222646Y-63159116D01*
X90228672Y-63160438D01*
X90820910Y-63352868D01*
X90843873Y-63362911D01*
X90855334Y-63367267D01*
X90879157Y-63375008D01*
X90899670Y-63383980D01*
X90997558Y-63438800D01*
X91015934Y-63451607D01*
X91101252Y-63524476D01*
X91116763Y-63540609D01*
X91186225Y-63628721D01*
X91198295Y-63647576D01*
X91249237Y-63747555D01*
X91257392Y-63768390D01*
X91287850Y-63876387D01*
X91291785Y-63898419D01*
X91300588Y-64010279D01*
X91300149Y-64032666D01*
X91286961Y-64144082D01*
X91282164Y-64165945D01*
X91247490Y-64272660D01*
X91238519Y-64293171D01*
X91183700Y-64391058D01*
X91170893Y-64409434D01*
X91098024Y-64494752D01*
X91081891Y-64510263D01*
X90993779Y-64579725D01*
X90974924Y-64591795D01*
X90874945Y-64642737D01*
X90854110Y-64650892D01*
X90746113Y-64681350D01*
X90724081Y-64685285D01*
X90612221Y-64694088D01*
X90589834Y-64693649D01*
X90478420Y-64680461D01*
X90456557Y-64675664D01*
X90432724Y-64667921D01*
X90420890Y-64664709D01*
X90412249Y-64662813D01*
X90412248Y-64662813D01*
X90409401Y-64662188D01*
X90396411Y-64659338D01*
X89804173Y-64466908D01*
X89796382Y-64463500D01*
X89789313Y-64460408D01*
X89789312Y-64460407D01*
X89789309Y-64460406D01*
X89781074Y-64454666D01*
X89781071Y-64454664D01*
X89774108Y-64447422D01*
X89768692Y-64438961D01*
X89765030Y-64429605D01*
X89763264Y-64419716D01*
X89763461Y-64409672D01*
X89765614Y-64399859D01*
X89765616Y-64399854D01*
X89766938Y-64393828D01*
X90155592Y-63197673D01*
X90162094Y-63182809D01*
X90167834Y-63174574D01*
X90167836Y-63174571D01*
X90175078Y-63167608D01*
X90175079Y-63167607D01*
X90183537Y-63162193D01*
X90183538Y-63162193D01*
X90183539Y-63162192D01*
X90192895Y-63158530D01*
X90192896Y-63158530D01*
X90192898Y-63158529D01*
X90202783Y-63156764D01*
X90202784Y-63156764D01*
X90212828Y-63156961D01*
X90212828Y-63156961D01*
G37*
G36*
X92518091Y-63396585D02*
X92552069Y-63406893D01*
X92583387Y-63423633D01*
X92610839Y-63446161D01*
X92633367Y-63473613D01*
X92650107Y-63504931D01*
X92660415Y-63538909D01*
X92664500Y-63580390D01*
X92664500Y-64181610D01*
X92660415Y-64223091D01*
X92650107Y-64257069D01*
X92633367Y-64288387D01*
X92610839Y-64315839D01*
X92583387Y-64338367D01*
X92552069Y-64355107D01*
X92518091Y-64365415D01*
X92476610Y-64369500D01*
X91800390Y-64369500D01*
X91758909Y-64365415D01*
X91724931Y-64355107D01*
X91693613Y-64338367D01*
X91666161Y-64315839D01*
X91643633Y-64288387D01*
X91626893Y-64257069D01*
X91616585Y-64223091D01*
X91612500Y-64181610D01*
X91612500Y-63580390D01*
X91616585Y-63538909D01*
X91626893Y-63504931D01*
X91643633Y-63473613D01*
X91666161Y-63446161D01*
X91693613Y-63423633D01*
X91724931Y-63406893D01*
X91758909Y-63396585D01*
X91800390Y-63392500D01*
X92476610Y-63392500D01*
X92518091Y-63396585D01*
X92518091Y-63396585D01*
G37*
G36*
X108709500Y-63911000D02*
X107957500Y-63911000D01*
X107957500Y-62749000D01*
X108709500Y-62749000D01*
X108709500Y-63911000D01*
X108709500Y-63911000D01*
G37*
G36*
X110609500Y-63911000D02*
X109857500Y-63911000D01*
X109857500Y-62749000D01*
X110609500Y-62749000D01*
X110609500Y-63911000D01*
X110609500Y-63911000D01*
G37*
G36*
X106536015Y-60741473D02*
X106639879Y-60772979D01*
X106735600Y-60824144D01*
X106819501Y-60892999D01*
X106888356Y-60976900D01*
X106939521Y-61072621D01*
X106971027Y-61176485D01*
X106979000Y-61257433D01*
X106979000Y-62411567D01*
X106971027Y-62492515D01*
X106939521Y-62596379D01*
X106888356Y-62692100D01*
X106819501Y-62776001D01*
X106735600Y-62844856D01*
X106639878Y-62896021D01*
X106536014Y-62927527D01*
X106428000Y-62938166D01*
X106319985Y-62927527D01*
X106216121Y-62896021D01*
X106120400Y-62844856D01*
X106036499Y-62776001D01*
X105967644Y-62692100D01*
X105919234Y-62601531D01*
X105905626Y-62581166D01*
X105888299Y-62563839D01*
X105867924Y-62550226D01*
X105845285Y-62540848D01*
X105821252Y-62536068D01*
X105796747Y-62536068D01*
X105772714Y-62540849D01*
X105750075Y-62550226D01*
X105729700Y-62563840D01*
X105712373Y-62581167D01*
X105698760Y-62601542D01*
X105689382Y-62624181D01*
X105684000Y-62660466D01*
X105684000Y-63525500D01*
X98532000Y-63525500D01*
X98532000Y-62660467D01*
X98529598Y-62636081D01*
X98522485Y-62612632D01*
X98510934Y-62591021D01*
X98495388Y-62572079D01*
X98476446Y-62556533D01*
X98454835Y-62544982D01*
X98431386Y-62537869D01*
X98407000Y-62535467D01*
X98382614Y-62537869D01*
X98359165Y-62544982D01*
X98337554Y-62556533D01*
X98318612Y-62572079D01*
X98296765Y-62601536D01*
X98248356Y-62692100D01*
X98179501Y-62776001D01*
X98095600Y-62844856D01*
X97999878Y-62896021D01*
X97896014Y-62927527D01*
X97788000Y-62938166D01*
X97679985Y-62927527D01*
X97576121Y-62896021D01*
X97480400Y-62844856D01*
X97396499Y-62776001D01*
X97327644Y-62692100D01*
X97276479Y-62596378D01*
X97244973Y-62492514D01*
X97237000Y-62411566D01*
X97237001Y-61257433D01*
X97244974Y-61176485D01*
X97276480Y-61072621D01*
X97327645Y-60976900D01*
X97396500Y-60892999D01*
X97480401Y-60824144D01*
X97576122Y-60772979D01*
X97679986Y-60741473D01*
X97788000Y-60730834D01*
X97896015Y-60741473D01*
X97999879Y-60772979D01*
X98095600Y-60824144D01*
X98179501Y-60892999D01*
X98248356Y-60976900D01*
X98299521Y-61072621D01*
X98331027Y-61176485D01*
X98339000Y-61257433D01*
X98339000Y-61848500D01*
X98341402Y-61872886D01*
X98348515Y-61896335D01*
X98360066Y-61917946D01*
X98375612Y-61936888D01*
X98394554Y-61952434D01*
X98416165Y-61963985D01*
X98439614Y-61971098D01*
X98464000Y-61973500D01*
X105752000Y-61973500D01*
X105776386Y-61971098D01*
X105799835Y-61963985D01*
X105821446Y-61952434D01*
X105840388Y-61936888D01*
X105855934Y-61917946D01*
X105867485Y-61896335D01*
X105874598Y-61872886D01*
X105877000Y-61848500D01*
X105877001Y-61257439D01*
X105877001Y-61257433D01*
X105884974Y-61176485D01*
X105916480Y-61072621D01*
X105967645Y-60976900D01*
X106036500Y-60892999D01*
X106120401Y-60824144D01*
X106216122Y-60772979D01*
X106319986Y-60741473D01*
X106428000Y-60730834D01*
X106536015Y-60741473D01*
X106536015Y-60741473D01*
G37*
G36*
X112548811Y-61751105D02*
X112587867Y-61762953D01*
X112623863Y-61782193D01*
X112655414Y-61808086D01*
X112681307Y-61839637D01*
X112700547Y-61875633D01*
X112712395Y-61914689D01*
X112717000Y-61961449D01*
X112717000Y-62758551D01*
X112712395Y-62805311D01*
X112700547Y-62844367D01*
X112681307Y-62880363D01*
X112655414Y-62911914D01*
X112623863Y-62937807D01*
X112587867Y-62957047D01*
X112548811Y-62968895D01*
X112502051Y-62973500D01*
X111779949Y-62973500D01*
X111733189Y-62968895D01*
X111694133Y-62957047D01*
X111658137Y-62937807D01*
X111626586Y-62911914D01*
X111600693Y-62880363D01*
X111581453Y-62844367D01*
X111569605Y-62805311D01*
X111565000Y-62758551D01*
X111565000Y-61961449D01*
X111569605Y-61914689D01*
X111581453Y-61875633D01*
X111600693Y-61839637D01*
X111626586Y-61808086D01*
X111658137Y-61782193D01*
X111694133Y-61762953D01*
X111733189Y-61751105D01*
X111779949Y-61746500D01*
X112502051Y-61746500D01*
X112548811Y-61751105D01*
X112548811Y-61751105D01*
G37*
G36*
X92518091Y-61821585D02*
X92552069Y-61831893D01*
X92583387Y-61848633D01*
X92610839Y-61871161D01*
X92633367Y-61898613D01*
X92650107Y-61929931D01*
X92660415Y-61963909D01*
X92664500Y-62005390D01*
X92664500Y-62606610D01*
X92660415Y-62648091D01*
X92650107Y-62682069D01*
X92633367Y-62713387D01*
X92610839Y-62740839D01*
X92583387Y-62763367D01*
X92552069Y-62780107D01*
X92518091Y-62790415D01*
X92476610Y-62794500D01*
X91800390Y-62794500D01*
X91758909Y-62790415D01*
X91724931Y-62780107D01*
X91693613Y-62763367D01*
X91666161Y-62740839D01*
X91643633Y-62713387D01*
X91626893Y-62682069D01*
X91616585Y-62648091D01*
X91612500Y-62606610D01*
X91612500Y-62005390D01*
X91616585Y-61963909D01*
X91626893Y-61929931D01*
X91643633Y-61898613D01*
X91666161Y-61871161D01*
X91693613Y-61848633D01*
X91724931Y-61831893D01*
X91758909Y-61821585D01*
X91800390Y-61817500D01*
X92476610Y-61817500D01*
X92518091Y-61821585D01*
X92518091Y-61821585D01*
G37*
G36*
X95223591Y-61327085D02*
X95257569Y-61337393D01*
X95288887Y-61354133D01*
X95316339Y-61376661D01*
X95338867Y-61404113D01*
X95355607Y-61435431D01*
X95365915Y-61469409D01*
X95370000Y-61510890D01*
X95370000Y-62187110D01*
X95365915Y-62228591D01*
X95355607Y-62262569D01*
X95338867Y-62293887D01*
X95316339Y-62321339D01*
X95288887Y-62343867D01*
X95257569Y-62360607D01*
X95223591Y-62370915D01*
X95182110Y-62375000D01*
X94580890Y-62375000D01*
X94539409Y-62370915D01*
X94505431Y-62360607D01*
X94474113Y-62343867D01*
X94446661Y-62321339D01*
X94424133Y-62293887D01*
X94407393Y-62262569D01*
X94397085Y-62228591D01*
X94393000Y-62187110D01*
X94393000Y-61510890D01*
X94397085Y-61469409D01*
X94407393Y-61435431D01*
X94424133Y-61404113D01*
X94446661Y-61376661D01*
X94474113Y-61354133D01*
X94505431Y-61337393D01*
X94539409Y-61327085D01*
X94580890Y-61323000D01*
X95182110Y-61323000D01*
X95223591Y-61327085D01*
X95223591Y-61327085D01*
G37*
G36*
X96798591Y-61327085D02*
X96832569Y-61337393D01*
X96863887Y-61354133D01*
X96891339Y-61376661D01*
X96913867Y-61404113D01*
X96930607Y-61435431D01*
X96940915Y-61469409D01*
X96945000Y-61510890D01*
X96945000Y-62187110D01*
X96940915Y-62228591D01*
X96930607Y-62262569D01*
X96913867Y-62293887D01*
X96891339Y-62321339D01*
X96863887Y-62343867D01*
X96832569Y-62360607D01*
X96798591Y-62370915D01*
X96757110Y-62375000D01*
X96155890Y-62375000D01*
X96114409Y-62370915D01*
X96080431Y-62360607D01*
X96049113Y-62343867D01*
X96021661Y-62321339D01*
X95999133Y-62293887D01*
X95982393Y-62262569D01*
X95972085Y-62228591D01*
X95968000Y-62187110D01*
X95968000Y-61510890D01*
X95972085Y-61469409D01*
X95982393Y-61435431D01*
X95999133Y-61404113D01*
X96021661Y-61376661D01*
X96049113Y-61354133D01*
X96080431Y-61337393D01*
X96114409Y-61327085D01*
X96155890Y-61323000D01*
X96757110Y-61323000D01*
X96798591Y-61327085D01*
X96798591Y-61327085D01*
G37*
G36*
X110609500Y-61711000D02*
X107957500Y-61711000D01*
X107957500Y-60549000D01*
X110609500Y-60549000D01*
X110609500Y-61711000D01*
X110609500Y-61711000D01*
G37*
G36*
X105107672Y-60942949D02*
X105107674Y-60942950D01*
X105107675Y-60942950D01*
X105176103Y-60971293D01*
X105237409Y-61012257D01*
X105237689Y-61012444D01*
X105290056Y-61064811D01*
X105290058Y-61064814D01*
X105331207Y-61126397D01*
X105351954Y-61176487D01*
X105359551Y-61194828D01*
X105374000Y-61267466D01*
X105374000Y-61341534D01*
X105367013Y-61376661D01*
X105359550Y-61414175D01*
X105331207Y-61482603D01*
X105290243Y-61543909D01*
X105290056Y-61544189D01*
X105237689Y-61596556D01*
X105237686Y-61596558D01*
X105176103Y-61637707D01*
X105107675Y-61666050D01*
X105107674Y-61666050D01*
X105107672Y-61666051D01*
X105035034Y-61680500D01*
X104960966Y-61680500D01*
X104888328Y-61666051D01*
X104888326Y-61666050D01*
X104888325Y-61666050D01*
X104819897Y-61637707D01*
X104758314Y-61596558D01*
X104758311Y-61596556D01*
X104705944Y-61544189D01*
X104705757Y-61543909D01*
X104664793Y-61482603D01*
X104636450Y-61414175D01*
X104628988Y-61376661D01*
X104622000Y-61341534D01*
X104622000Y-61267466D01*
X104636449Y-61194828D01*
X104644046Y-61176487D01*
X104664793Y-61126397D01*
X104705942Y-61064814D01*
X104705944Y-61064811D01*
X104758311Y-61012444D01*
X104758591Y-61012257D01*
X104819897Y-60971293D01*
X104888325Y-60942950D01*
X104888326Y-60942950D01*
X104888328Y-60942949D01*
X104960966Y-60928500D01*
X105035034Y-60928500D01*
X105107672Y-60942949D01*
X105107672Y-60942949D01*
G37*
G36*
X99327672Y-60942949D02*
X99327674Y-60942950D01*
X99327675Y-60942950D01*
X99396103Y-60971293D01*
X99457409Y-61012257D01*
X99457689Y-61012444D01*
X99510056Y-61064811D01*
X99510058Y-61064814D01*
X99551207Y-61126397D01*
X99571954Y-61176487D01*
X99579551Y-61194828D01*
X99594000Y-61267466D01*
X99594000Y-61341534D01*
X99587013Y-61376661D01*
X99579550Y-61414175D01*
X99551207Y-61482603D01*
X99510243Y-61543909D01*
X99510056Y-61544189D01*
X99457689Y-61596556D01*
X99457686Y-61596558D01*
X99396103Y-61637707D01*
X99327675Y-61666050D01*
X99327674Y-61666050D01*
X99327672Y-61666051D01*
X99255034Y-61680500D01*
X99180966Y-61680500D01*
X99108328Y-61666051D01*
X99108326Y-61666050D01*
X99108325Y-61666050D01*
X99039897Y-61637707D01*
X98978314Y-61596558D01*
X98978311Y-61596556D01*
X98925944Y-61544189D01*
X98925757Y-61543909D01*
X98884793Y-61482603D01*
X98856450Y-61414175D01*
X98848988Y-61376661D01*
X98842000Y-61341534D01*
X98842000Y-61267466D01*
X98856449Y-61194828D01*
X98864046Y-61176487D01*
X98884793Y-61126397D01*
X98925942Y-61064814D01*
X98925944Y-61064811D01*
X98978311Y-61012444D01*
X98978591Y-61012257D01*
X99039897Y-60971293D01*
X99108325Y-60942950D01*
X99108326Y-60942950D01*
X99108328Y-60942949D01*
X99180966Y-60928500D01*
X99255034Y-60928500D01*
X99327672Y-60942949D01*
X99327672Y-60942949D01*
G37*
G36*
X95249091Y-59803085D02*
X95283069Y-59813393D01*
X95314387Y-59830133D01*
X95341839Y-59852661D01*
X95364367Y-59880113D01*
X95381107Y-59911431D01*
X95391415Y-59945409D01*
X95395500Y-59986890D01*
X95395500Y-60663110D01*
X95391415Y-60704591D01*
X95381107Y-60738569D01*
X95364367Y-60769887D01*
X95341839Y-60797339D01*
X95314387Y-60819867D01*
X95283069Y-60836607D01*
X95249091Y-60846915D01*
X95207610Y-60851000D01*
X94606390Y-60851000D01*
X94564909Y-60846915D01*
X94530931Y-60836607D01*
X94499613Y-60819867D01*
X94472161Y-60797339D01*
X94449633Y-60769887D01*
X94432893Y-60738569D01*
X94422585Y-60704591D01*
X94418500Y-60663110D01*
X94418500Y-59986890D01*
X94422585Y-59945409D01*
X94432893Y-59911431D01*
X94449633Y-59880113D01*
X94472161Y-59852661D01*
X94499613Y-59830133D01*
X94530931Y-59813393D01*
X94564909Y-59803085D01*
X94606390Y-59799000D01*
X95207610Y-59799000D01*
X95249091Y-59803085D01*
X95249091Y-59803085D01*
G37*
G36*
X96824091Y-59803085D02*
X96858069Y-59813393D01*
X96889387Y-59830133D01*
X96916839Y-59852661D01*
X96939367Y-59880113D01*
X96956107Y-59911431D01*
X96966415Y-59945409D01*
X96970500Y-59986890D01*
X96970500Y-60663110D01*
X96966415Y-60704591D01*
X96956107Y-60738569D01*
X96939367Y-60769887D01*
X96916839Y-60797339D01*
X96889387Y-60819867D01*
X96858069Y-60836607D01*
X96824091Y-60846915D01*
X96782610Y-60851000D01*
X96181390Y-60851000D01*
X96139909Y-60846915D01*
X96105931Y-60836607D01*
X96074613Y-60819867D01*
X96047161Y-60797339D01*
X96024633Y-60769887D01*
X96007893Y-60738569D01*
X95997585Y-60704591D01*
X95993500Y-60663110D01*
X95993500Y-59986890D01*
X95997585Y-59945409D01*
X96007893Y-59911431D01*
X96024633Y-59880113D01*
X96047161Y-59852661D01*
X96074613Y-59830133D01*
X96105931Y-59813393D01*
X96139909Y-59803085D01*
X96181390Y-59799000D01*
X96782610Y-59799000D01*
X96824091Y-59803085D01*
X96824091Y-59803085D01*
G37*
G36*
X93401944Y-58424181D02*
X93411610Y-58426930D01*
X93420140Y-58431300D01*
X93420550Y-58431510D01*
X93421805Y-58432504D01*
X93433266Y-58441579D01*
X93881213Y-58874156D01*
X93897446Y-58893247D01*
X93905839Y-58902189D01*
X93923859Y-58919592D01*
X93938362Y-58936647D01*
X94002310Y-59028827D01*
X94005315Y-59034219D01*
X94005318Y-59034224D01*
X94010208Y-59043000D01*
X94013215Y-59048397D01*
X94057948Y-59151277D01*
X94059842Y-59157150D01*
X94059845Y-59157157D01*
X94062928Y-59166719D01*
X94064822Y-59172593D01*
X94088629Y-59282240D01*
X94091211Y-59304472D01*
X94093170Y-59416656D01*
X94091364Y-59438974D01*
X94071399Y-59549382D01*
X94065275Y-59570917D01*
X94024152Y-59675312D01*
X94013950Y-59695226D01*
X93953246Y-59789601D01*
X93939354Y-59807144D01*
X93861408Y-59887860D01*
X93856709Y-59891855D01*
X93849056Y-59898363D01*
X93849052Y-59898366D01*
X93844352Y-59902362D01*
X93752173Y-59966310D01*
X93746781Y-59969315D01*
X93746776Y-59969318D01*
X93738000Y-59974208D01*
X93737997Y-59974209D01*
X93732603Y-59977215D01*
X93629723Y-60021948D01*
X93623850Y-60023842D01*
X93623843Y-60023845D01*
X93614281Y-60026928D01*
X93614279Y-60026929D01*
X93608407Y-60028822D01*
X93498760Y-60052629D01*
X93476528Y-60055211D01*
X93364344Y-60057170D01*
X93353185Y-60056267D01*
X93348178Y-60055862D01*
X93348176Y-60055862D01*
X93342026Y-60055364D01*
X93231618Y-60035399D01*
X93210083Y-60029275D01*
X93105688Y-59988152D01*
X93085774Y-59977950D01*
X92991401Y-59917247D01*
X92973847Y-59903347D01*
X92955813Y-59885932D01*
X92946575Y-59877848D01*
X92939677Y-59872386D01*
X92939674Y-59872385D01*
X92931793Y-59866145D01*
X92931791Y-59866143D01*
X92926951Y-59862311D01*
X92479009Y-59429738D01*
X92468504Y-59417384D01*
X92463615Y-59408609D01*
X92463614Y-59408608D01*
X92460531Y-59399046D01*
X92460530Y-59399044D01*
X92459371Y-59389067D01*
X92460181Y-59379056D01*
X92462930Y-59369390D01*
X92467509Y-59360452D01*
X92467510Y-59360450D01*
X92473747Y-59352574D01*
X92477579Y-59347734D01*
X93351262Y-58443009D01*
X93363616Y-58432504D01*
X93365402Y-58431509D01*
X93372392Y-58427614D01*
X93378667Y-58425591D01*
X93381956Y-58424530D01*
X93391933Y-58423371D01*
X93401944Y-58424181D01*
X93401944Y-58424181D01*
G37*
G36*
X108334811Y-58737605D02*
X108373867Y-58749453D01*
X108409863Y-58768693D01*
X108441414Y-58794586D01*
X108467307Y-58826137D01*
X108486547Y-58862133D01*
X108498395Y-58901189D01*
X108503000Y-58947949D01*
X108503000Y-59670051D01*
X108498395Y-59716811D01*
X108486547Y-59755867D01*
X108467307Y-59791863D01*
X108441414Y-59823414D01*
X108409863Y-59849307D01*
X108373867Y-59868547D01*
X108334811Y-59880395D01*
X108288051Y-59885000D01*
X107490949Y-59885000D01*
X107444189Y-59880395D01*
X107405133Y-59868547D01*
X107369137Y-59849307D01*
X107337586Y-59823414D01*
X107311693Y-59791863D01*
X107292453Y-59755867D01*
X107280605Y-59716811D01*
X107276000Y-59670051D01*
X107276000Y-58947949D01*
X107280605Y-58901189D01*
X107292453Y-58862133D01*
X107311693Y-58826137D01*
X107337586Y-58794586D01*
X107369137Y-58768693D01*
X107405133Y-58749453D01*
X107444189Y-58737605D01*
X107490949Y-58733000D01*
X108288051Y-58733000D01*
X108334811Y-58737605D01*
X108334811Y-58737605D01*
G37*
G36*
X110109811Y-58737605D02*
X110148867Y-58749453D01*
X110184863Y-58768693D01*
X110216414Y-58794586D01*
X110242307Y-58826137D01*
X110261547Y-58862133D01*
X110273395Y-58901189D01*
X110278000Y-58947949D01*
X110278000Y-59670051D01*
X110273395Y-59716811D01*
X110261547Y-59755867D01*
X110242307Y-59791863D01*
X110216414Y-59823414D01*
X110184863Y-59849307D01*
X110148867Y-59868547D01*
X110109811Y-59880395D01*
X110063051Y-59885000D01*
X109265949Y-59885000D01*
X109219189Y-59880395D01*
X109180133Y-59868547D01*
X109144137Y-59849307D01*
X109112586Y-59823414D01*
X109086693Y-59791863D01*
X109067453Y-59755867D01*
X109055605Y-59716811D01*
X109051000Y-59670051D01*
X109051000Y-58947949D01*
X109055605Y-58901189D01*
X109067453Y-58862133D01*
X109086693Y-58826137D01*
X109112586Y-58794586D01*
X109144137Y-58768693D01*
X109180133Y-58749453D01*
X109219189Y-58737605D01*
X109265949Y-58733000D01*
X110063051Y-58733000D01*
X110109811Y-58737605D01*
X110109811Y-58737605D01*
G37*
G36*
X96798591Y-58279085D02*
X96832569Y-58289393D01*
X96863887Y-58306133D01*
X96891339Y-58328661D01*
X96913867Y-58356113D01*
X96930607Y-58387431D01*
X96940915Y-58421409D01*
X96945000Y-58462890D01*
X96945000Y-59139110D01*
X96940915Y-59180591D01*
X96930607Y-59214569D01*
X96913867Y-59245887D01*
X96891339Y-59273339D01*
X96863887Y-59295867D01*
X96832569Y-59312607D01*
X96798591Y-59322915D01*
X96757110Y-59327000D01*
X96155890Y-59327000D01*
X96114409Y-59322915D01*
X96080431Y-59312607D01*
X96049113Y-59295867D01*
X96021661Y-59273339D01*
X95999133Y-59245887D01*
X95982393Y-59214569D01*
X95972085Y-59180591D01*
X95968000Y-59139110D01*
X95968000Y-58462890D01*
X95972085Y-58421409D01*
X95982393Y-58387431D01*
X95999133Y-58356113D01*
X96021661Y-58328661D01*
X96049113Y-58306133D01*
X96080431Y-58289393D01*
X96114409Y-58279085D01*
X96155890Y-58275000D01*
X96757110Y-58275000D01*
X96798591Y-58279085D01*
X96798591Y-58279085D01*
G37*
G36*
X95223591Y-58279085D02*
X95257569Y-58289393D01*
X95288887Y-58306133D01*
X95316339Y-58328661D01*
X95338867Y-58356113D01*
X95355607Y-58387431D01*
X95365915Y-58421409D01*
X95370000Y-58462890D01*
X95370000Y-59139110D01*
X95365915Y-59180591D01*
X95355607Y-59214569D01*
X95338867Y-59245887D01*
X95316339Y-59273339D01*
X95288887Y-59295867D01*
X95257569Y-59312607D01*
X95223591Y-59322915D01*
X95182110Y-59327000D01*
X94580890Y-59327000D01*
X94539409Y-59322915D01*
X94505431Y-59312607D01*
X94474113Y-59295867D01*
X94446661Y-59273339D01*
X94424133Y-59245887D01*
X94407393Y-59214569D01*
X94397085Y-59180591D01*
X94393000Y-59139110D01*
X94393000Y-58462890D01*
X94397085Y-58421409D01*
X94407393Y-58387431D01*
X94424133Y-58356113D01*
X94446661Y-58328661D01*
X94474113Y-58306133D01*
X94505431Y-58289393D01*
X94539409Y-58279085D01*
X94580890Y-58275000D01*
X95182110Y-58275000D01*
X95223591Y-58279085D01*
X95223591Y-58279085D01*
G37*
G36*
X106536015Y-56811473D02*
X106639879Y-56842979D01*
X106735600Y-56894144D01*
X106819501Y-56962999D01*
X106888356Y-57046900D01*
X106939521Y-57142621D01*
X106971027Y-57246485D01*
X106979000Y-57327433D01*
X106979000Y-57981567D01*
X106971027Y-58062515D01*
X106939521Y-58166379D01*
X106888356Y-58262100D01*
X106819501Y-58346001D01*
X106735600Y-58414856D01*
X106639878Y-58466021D01*
X106536014Y-58497527D01*
X106428000Y-58508166D01*
X106319985Y-58497527D01*
X106216121Y-58466021D01*
X106120400Y-58414856D01*
X106036499Y-58346001D01*
X105967644Y-58262100D01*
X105916479Y-58166378D01*
X105884973Y-58062514D01*
X105877000Y-57981566D01*
X105877000Y-57327433D01*
X105884973Y-57246485D01*
X105916480Y-57142621D01*
X105967645Y-57046900D01*
X106036500Y-56962999D01*
X106120401Y-56894144D01*
X106216122Y-56842979D01*
X106319986Y-56811473D01*
X106428000Y-56800834D01*
X106536015Y-56811473D01*
X106536015Y-56811473D01*
G37*
G36*
X97896015Y-56811473D02*
X97999879Y-56842979D01*
X98095600Y-56894144D01*
X98179501Y-56962999D01*
X98248356Y-57046900D01*
X98299521Y-57142621D01*
X98331027Y-57246485D01*
X98339000Y-57327433D01*
X98339000Y-57981567D01*
X98331027Y-58062515D01*
X98299521Y-58166379D01*
X98248356Y-58262100D01*
X98179501Y-58346001D01*
X98095600Y-58414856D01*
X97999878Y-58466021D01*
X97896014Y-58497527D01*
X97788000Y-58508166D01*
X97679985Y-58497527D01*
X97576121Y-58466021D01*
X97480400Y-58414856D01*
X97396499Y-58346001D01*
X97327644Y-58262100D01*
X97276479Y-58166378D01*
X97244973Y-58062514D01*
X97237000Y-57981566D01*
X97237000Y-57327433D01*
X97244973Y-57246485D01*
X97276480Y-57142621D01*
X97327645Y-57046900D01*
X97396500Y-56962999D01*
X97480401Y-56894144D01*
X97576122Y-56842979D01*
X97679986Y-56811473D01*
X97788000Y-56800834D01*
X97896015Y-56811473D01*
X97896015Y-56811473D01*
G37*
G36*
X107978264Y-56422265D02*
X107988046Y-56424546D01*
X108002819Y-56431240D01*
X109092035Y-57060099D01*
X109105216Y-57069544D01*
X109111308Y-57076050D01*
X109112083Y-57076877D01*
X109117388Y-57085408D01*
X109117390Y-57085412D01*
X109120926Y-57094806D01*
X109122563Y-57104724D01*
X109122235Y-57114764D01*
X109119954Y-57124546D01*
X109113260Y-57139319D01*
X108801901Y-57678608D01*
X108787307Y-57698975D01*
X108780662Y-57709281D01*
X108768131Y-57730985D01*
X108755100Y-57749169D01*
X108681114Y-57833535D01*
X108676613Y-57837751D01*
X108676611Y-57837753D01*
X108669278Y-57844621D01*
X108664767Y-57848846D01*
X108575765Y-57917138D01*
X108556750Y-57928963D01*
X108456115Y-57978592D01*
X108435172Y-57986474D01*
X108326792Y-58015514D01*
X108320710Y-58016518D01*
X108320703Y-58016520D01*
X108310790Y-58018156D01*
X108310789Y-58018156D01*
X108304696Y-58019162D01*
X108192744Y-58026499D01*
X108183906Y-58026210D01*
X108176534Y-58025969D01*
X108176530Y-58025969D01*
X108170371Y-58025767D01*
X108059121Y-58011121D01*
X108037325Y-58006038D01*
X107931083Y-57969974D01*
X107910683Y-57960731D01*
X107813525Y-57904636D01*
X107808508Y-57901041D01*
X107808503Y-57901038D01*
X107800338Y-57895187D01*
X107800334Y-57895184D01*
X107795322Y-57891592D01*
X107710965Y-57817614D01*
X107695654Y-57801267D01*
X107627362Y-57712265D01*
X107623799Y-57706535D01*
X107618795Y-57698489D01*
X107615537Y-57693250D01*
X107565908Y-57592615D01*
X107558026Y-57571672D01*
X107528986Y-57463292D01*
X107527982Y-57457210D01*
X107527980Y-57457203D01*
X107526344Y-57447290D01*
X107526344Y-57447289D01*
X107525338Y-57441196D01*
X107518001Y-57329244D01*
X107518733Y-57306871D01*
X107533379Y-57195621D01*
X107538462Y-57173825D01*
X107574529Y-57067574D01*
X107583765Y-57047191D01*
X107596288Y-57025500D01*
X107601891Y-57014593D01*
X107612240Y-56991756D01*
X107923599Y-56452465D01*
X107933044Y-56439284D01*
X107940375Y-56432419D01*
X107940377Y-56432417D01*
X107948908Y-56427112D01*
X107948912Y-56427110D01*
X107958306Y-56423574D01*
X107958308Y-56423574D01*
X107958310Y-56423573D01*
X107968222Y-56421937D01*
X107968224Y-56421937D01*
X107978264Y-56422265D01*
X107978264Y-56422265D01*
G37*
G36*
X96448190Y-56296573D02*
X96448192Y-56296574D01*
X96448194Y-56296574D01*
X96457588Y-56300110D01*
X96457592Y-56300112D01*
X96466123Y-56305417D01*
X96466125Y-56305419D01*
X96473456Y-56312284D01*
X96482901Y-56325465D01*
X96794258Y-56864752D01*
X96796804Y-56870371D01*
X96796807Y-56870376D01*
X96800953Y-56879527D01*
X96804599Y-56887574D01*
X96810203Y-56898483D01*
X96822734Y-56920189D01*
X96831971Y-56940574D01*
X96868038Y-57046825D01*
X96873121Y-57068621D01*
X96887767Y-57179871D01*
X96888499Y-57202244D01*
X96881162Y-57314196D01*
X96880156Y-57320289D01*
X96880156Y-57320290D01*
X96878520Y-57330203D01*
X96878518Y-57330210D01*
X96877514Y-57336292D01*
X96848474Y-57444672D01*
X96840592Y-57465615D01*
X96790963Y-57566250D01*
X96787705Y-57571489D01*
X96784003Y-57577443D01*
X96779138Y-57585265D01*
X96710846Y-57674267D01*
X96695535Y-57690614D01*
X96611178Y-57764592D01*
X96606166Y-57768184D01*
X96606162Y-57768187D01*
X96597997Y-57774038D01*
X96597992Y-57774041D01*
X96592975Y-57777636D01*
X96495817Y-57833731D01*
X96475417Y-57842974D01*
X96369175Y-57879038D01*
X96347379Y-57884121D01*
X96236129Y-57898767D01*
X96229970Y-57898969D01*
X96229966Y-57898969D01*
X96222594Y-57899210D01*
X96213756Y-57899499D01*
X96101804Y-57892162D01*
X96095711Y-57891156D01*
X96095710Y-57891156D01*
X96085797Y-57889520D01*
X96085790Y-57889518D01*
X96079708Y-57888514D01*
X95971328Y-57859474D01*
X95950385Y-57851592D01*
X95849750Y-57801963D01*
X95830735Y-57790138D01*
X95741733Y-57721846D01*
X95737222Y-57717621D01*
X95729889Y-57710753D01*
X95729887Y-57710751D01*
X95725386Y-57706535D01*
X95651400Y-57622169D01*
X95638367Y-57603981D01*
X95625836Y-57582278D01*
X95619189Y-57571969D01*
X95604600Y-57551611D01*
X95293240Y-57012319D01*
X95286546Y-56997546D01*
X95284265Y-56987764D01*
X95283937Y-56977724D01*
X95285574Y-56967806D01*
X95289110Y-56958412D01*
X95289112Y-56958408D01*
X95294417Y-56949877D01*
X95295192Y-56949050D01*
X95301284Y-56942544D01*
X95314465Y-56933099D01*
X96403681Y-56304240D01*
X96418454Y-56297546D01*
X96428236Y-56295265D01*
X96438276Y-56294937D01*
X96438278Y-56294937D01*
X96448190Y-56296573D01*
X96448190Y-56296573D01*
G37*
M02*
