M48
;DRILL file {KiCad (5.0.1)-4} date 04/06/2019 13:38:52
;FORMAT={-:-/ absolute / inch / decimal}
FMAT,2
INCH,TZ
T1C0.0079
T2C0.0118
T3C0.0138
T4C0.0236
T5C0.0300
%
G90
G05
M72
T1
X3.9811Y-2.515
X4.01Y-2.515
X4.0425Y-2.515
T2
X3.6275Y-2.7
X3.635Y-2.945
X3.655Y-2.4075
X3.6725Y-2.44
X3.7Y-2.3825
X3.7Y-2.5075
X3.74Y-2.5
X3.74Y-2.8875
X3.7525Y-2.8625
X3.755Y-2.665
X3.7575Y-2.565
X3.7575Y-2.595
X3.79Y-2.8625
X3.82Y-2.69
X3.8635Y-2.5285
X3.8675Y-2.8425
X3.87Y-3.093
X3.9275Y-2.5775
X3.9275Y-2.7625
X3.9275Y-2.84
X3.94Y-3.055
X3.945Y-2.9625
X3.9725Y-2.985
X3.9875Y-2.205
X4.01Y-3.055
X4.0112Y-2.8555
X4.0175Y-2.94
X4.02Y-2.205
X4.02Y-2.5775
X4.02Y-2.67
X4.0225Y-2.7625
X4.042Y-2.8595
X4.0425Y-2.8275
X4.05Y-3.055
X4.0525Y-2.205
X4.0775Y-2.8675
X4.1125Y-2.5775
X4.1125Y-2.7625
X4.1125Y-2.9825
X4.1395Y-2.858
X4.15Y-3.0525
X4.1849Y-2.62
X4.1849Y-2.695
X4.1975Y-2.975
X4.2275Y-2.975
X4.2575Y-2.975
X4.375Y-2.5275
X4.4Y-2.7175
X4.455Y-2.825
X4.465Y-2.8025
T3
X3.8625Y-2.585
X3.9304Y-2.39
X4.09Y-2.39
X4.2226Y-2.5154
X4.2476Y-2.5611
X4.26Y-2.715
X4.3825Y-2.3725
X4.41Y-2.3975
T4
X4.095Y-3.137
X4.3375Y-3.02
X4.1615Y-3.1215
X4.0275Y-3.143
X3.7875Y-2.2525
X3.6775Y-2.3375
X4.3875Y-2.97
X4.26Y-2.2575
X3.8925Y-3.1255
X3.9595Y-3.139
X3.5675Y-2.52
T5
X3.5669Y-2.6675
X4.4724Y-2.6675
T4
X3.8499Y-2.2817G85X3.8499Y-2.2581
G05
X3.8499Y-2.4561G85X3.8499Y-2.4128
G05
X4.1901Y-2.2817G85X4.1901Y-2.2581
G05
X4.1901Y-2.4561G85X4.1901Y-2.4128
G05
T0
M30
