%TF.GenerationSoftware,KiCad,Pcbnew,(5.0.1)-4*%
%TF.CreationDate,2019-06-04T13:38:29+02:00*%
%TF.ProjectId,ESPesh,4553506573682E6B696361645F706362,rev?*%
%TF.SameCoordinates,Original*%
%TF.FileFunction,Copper,L2,Bot,Signal*%
%TF.FilePolarity,Positive*%
%FSLAX46Y46*%
G04 Gerber Fmt 4.6, Leading zero omitted, Abs format (unit mm)*
G04 Created by KiCad (PCBNEW (5.0.1)-4) date 04/06/2019 13:38:29*
%MOMM*%
%LPD*%
G01*
G04 APERTURE LIST*
%ADD10C,0.200000*%
%ADD11C,1.270000*%
%ADD12C,0.100000*%
%ADD13C,1.524000*%
%ADD14O,1.000000X1.600000*%
%ADD15O,1.000000X2.100000*%
%ADD16C,0.600000*%
%ADD17C,0.500000*%
%ADD18C,0.250000*%
%ADD19C,0.150000*%
%ADD20C,0.254000*%
G04 APERTURE END LIST*
D10*
X114808000Y-67754500D02*
G75*
G03X114808000Y-67754500I-12700000J0D01*
G01*
D11*
X96202500Y-57213500D03*
D12*
G36*
X96434926Y-56346074D02*
X96752426Y-56896000D01*
X96751764Y-56896383D01*
X96767343Y-56923366D01*
X96793061Y-56980128D01*
X96813092Y-57039136D01*
X96827242Y-57099824D01*
X96835376Y-57161607D01*
X96837415Y-57223889D01*
X96833339Y-57286072D01*
X96823188Y-57347556D01*
X96807060Y-57407748D01*
X96785109Y-57466070D01*
X96757547Y-57521960D01*
X96724640Y-57574879D01*
X96686704Y-57624317D01*
X96644106Y-57669800D01*
X96597255Y-57710887D01*
X96546601Y-57747185D01*
X96492634Y-57778343D01*
X96435872Y-57804061D01*
X96376864Y-57824092D01*
X96316176Y-57838242D01*
X96254393Y-57846376D01*
X96192111Y-57848415D01*
X96129928Y-57844339D01*
X96068444Y-57834188D01*
X96008252Y-57818060D01*
X95949930Y-57796109D01*
X95894040Y-57768547D01*
X95841121Y-57735640D01*
X95791683Y-57697704D01*
X95746200Y-57655106D01*
X95705113Y-57608255D01*
X95668815Y-57557601D01*
X95653236Y-57530617D01*
X95652574Y-57531000D01*
X95335074Y-56981074D01*
X96434926Y-56346074D01*
X96434926Y-56346074D01*
G37*
D11*
X111442500Y-75438000D03*
D12*
G36*
X111520768Y-76332608D02*
X111034330Y-75924438D01*
X111034822Y-75923852D01*
X111010953Y-75903824D01*
X110967372Y-75859282D01*
X110928368Y-75810683D01*
X110894314Y-75758494D01*
X110865540Y-75703220D01*
X110842322Y-75645391D01*
X110824884Y-75585564D01*
X110813394Y-75524317D01*
X110807963Y-75462238D01*
X110808642Y-75399925D01*
X110815427Y-75337980D01*
X110828250Y-75276997D01*
X110846989Y-75217566D01*
X110871463Y-75160257D01*
X110901436Y-75105623D01*
X110936620Y-75054190D01*
X110976676Y-75006453D01*
X111021218Y-74962872D01*
X111069817Y-74923868D01*
X111122006Y-74889814D01*
X111177280Y-74861040D01*
X111235109Y-74837822D01*
X111294936Y-74820384D01*
X111356183Y-74808894D01*
X111418262Y-74803463D01*
X111480575Y-74804142D01*
X111542520Y-74810927D01*
X111603503Y-74823750D01*
X111662934Y-74842489D01*
X111720243Y-74866963D01*
X111774877Y-74896936D01*
X111826310Y-74932120D01*
X111850178Y-74952148D01*
X111850670Y-74951562D01*
X112337108Y-75359732D01*
X111520768Y-76332608D01*
X111520768Y-76332608D01*
G37*
D11*
X93408500Y-59372500D03*
D12*
G36*
X93392827Y-58474611D02*
X93849608Y-58915719D01*
X93849077Y-58916270D01*
X93871490Y-58937914D01*
X93911857Y-58985387D01*
X93947377Y-59036588D01*
X93977707Y-59091026D01*
X94002555Y-59148173D01*
X94021683Y-59207481D01*
X94034905Y-59268378D01*
X94042095Y-59330278D01*
X94043182Y-59392584D01*
X94038158Y-59454698D01*
X94027069Y-59516019D01*
X94010022Y-59575958D01*
X93987184Y-59633938D01*
X93958772Y-59689400D01*
X93925061Y-59741810D01*
X93886375Y-59790663D01*
X93843086Y-59835490D01*
X93795613Y-59875857D01*
X93744412Y-59911377D01*
X93689974Y-59941707D01*
X93632827Y-59966555D01*
X93573519Y-59985683D01*
X93512622Y-59998905D01*
X93450722Y-60006095D01*
X93388416Y-60007182D01*
X93326302Y-60002158D01*
X93264981Y-59991069D01*
X93205042Y-59974022D01*
X93147062Y-59951184D01*
X93091600Y-59922772D01*
X93039190Y-59889061D01*
X92990337Y-59850375D01*
X92967923Y-59828730D01*
X92967392Y-59829281D01*
X92510611Y-59388173D01*
X93392827Y-58474611D01*
X93392827Y-58474611D01*
G37*
D11*
X110172500Y-76708000D03*
D12*
G36*
X110125501Y-77604795D02*
X109700603Y-77132898D01*
X109701172Y-77132386D01*
X109680323Y-77109231D01*
X109643365Y-77059057D01*
X109611504Y-77005503D01*
X109585045Y-76949083D01*
X109564243Y-76890341D01*
X109549299Y-76829844D01*
X109540357Y-76768173D01*
X109537503Y-76705922D01*
X109540765Y-76643691D01*
X109550110Y-76582080D01*
X109565449Y-76521681D01*
X109586635Y-76463077D01*
X109613463Y-76406832D01*
X109645674Y-76353487D01*
X109682959Y-76303556D01*
X109724959Y-76257520D01*
X109771269Y-76215823D01*
X109821443Y-76178865D01*
X109874997Y-76147004D01*
X109931417Y-76120545D01*
X109990159Y-76099743D01*
X110050656Y-76084799D01*
X110112327Y-76075857D01*
X110174578Y-76073003D01*
X110236809Y-76076265D01*
X110298420Y-76085610D01*
X110358819Y-76100949D01*
X110417423Y-76122135D01*
X110473668Y-76148963D01*
X110527013Y-76181174D01*
X110576944Y-76218459D01*
X110622980Y-76260459D01*
X110643828Y-76283614D01*
X110644397Y-76283102D01*
X111069295Y-76754999D01*
X110125501Y-77604795D01*
X110125501Y-77604795D01*
G37*
D11*
X90614500Y-64008000D03*
D12*
G36*
X90206805Y-63207853D02*
X90810726Y-63404079D01*
X90810489Y-63404807D01*
X90840122Y-63414435D01*
X90897216Y-63439408D01*
X90951586Y-63469857D01*
X91002710Y-63505489D01*
X91050095Y-63545959D01*
X91093286Y-63590880D01*
X91131865Y-63639818D01*
X91165462Y-63692301D01*
X91193753Y-63747825D01*
X91216466Y-63805855D01*
X91233381Y-63865831D01*
X91244335Y-63927177D01*
X91249224Y-63989300D01*
X91248001Y-64051605D01*
X91240677Y-64113488D01*
X91227322Y-64174356D01*
X91208065Y-64233622D01*
X91183092Y-64290716D01*
X91152643Y-64345086D01*
X91117011Y-64396210D01*
X91076541Y-64443595D01*
X91031620Y-64486786D01*
X90982682Y-64525365D01*
X90930199Y-64558962D01*
X90874675Y-64587253D01*
X90816645Y-64609966D01*
X90756669Y-64626881D01*
X90695323Y-64637835D01*
X90633200Y-64642724D01*
X90570895Y-64641501D01*
X90509012Y-64634177D01*
X90448144Y-64620822D01*
X90418511Y-64611193D01*
X90418274Y-64611921D01*
X89814353Y-64415695D01*
X90206805Y-63207853D01*
X90206805Y-63207853D01*
G37*
D11*
X105702100Y-79286100D03*
D12*
G36*
X105280503Y-80079010D02*
X105094846Y-79471756D01*
X105095578Y-79471532D01*
X105086468Y-79441736D01*
X105074178Y-79380644D01*
X105067934Y-79318642D01*
X105067799Y-79256326D01*
X105073771Y-79194297D01*
X105085795Y-79133152D01*
X105103754Y-79073480D01*
X105127476Y-79015855D01*
X105156731Y-78960834D01*
X105191239Y-78908944D01*
X105230667Y-78860687D01*
X105274635Y-78816528D01*
X105322719Y-78776890D01*
X105374458Y-78742156D01*
X105429351Y-78712661D01*
X105486871Y-78688688D01*
X105546464Y-78670468D01*
X105607556Y-78658178D01*
X105669558Y-78651934D01*
X105731874Y-78651799D01*
X105793903Y-78657771D01*
X105855048Y-78669795D01*
X105914720Y-78687754D01*
X105972345Y-78711476D01*
X106027366Y-78740731D01*
X106079256Y-78775239D01*
X106127513Y-78814667D01*
X106171672Y-78858635D01*
X106211310Y-78906719D01*
X106246044Y-78958458D01*
X106275539Y-79013351D01*
X106299512Y-79070871D01*
X106308622Y-79100668D01*
X106309354Y-79100444D01*
X106495010Y-79707697D01*
X105280503Y-80079010D01*
X105280503Y-80079010D01*
G37*
D11*
X98869500Y-79387700D03*
D12*
G36*
X98091787Y-79836713D02*
X98256137Y-79223350D01*
X98256876Y-79223548D01*
X98264940Y-79193452D01*
X98286891Y-79135130D01*
X98314452Y-79079241D01*
X98347360Y-79026322D01*
X98385295Y-78976883D01*
X98427894Y-78931401D01*
X98474745Y-78890313D01*
X98525399Y-78854015D01*
X98579366Y-78822857D01*
X98636127Y-78797139D01*
X98695137Y-78777108D01*
X98755825Y-78762958D01*
X98817607Y-78754824D01*
X98879890Y-78752785D01*
X98942072Y-78756861D01*
X99003556Y-78767012D01*
X99063748Y-78783140D01*
X99122070Y-78805091D01*
X99177959Y-78832652D01*
X99230878Y-78865560D01*
X99280317Y-78903495D01*
X99325799Y-78946094D01*
X99366887Y-78992945D01*
X99403185Y-79043599D01*
X99434343Y-79097566D01*
X99460061Y-79154327D01*
X99480092Y-79213337D01*
X99494242Y-79274025D01*
X99502376Y-79335807D01*
X99504415Y-79398090D01*
X99500339Y-79460272D01*
X99490188Y-79521756D01*
X99482124Y-79551852D01*
X99482863Y-79552050D01*
X99318513Y-80165413D01*
X98091787Y-79836713D01*
X98091787Y-79836713D01*
G37*
D11*
X102298500Y-79832200D03*
D12*
G36*
X101674679Y-80478186D02*
X101663597Y-79843282D01*
X101664362Y-79843269D01*
X101663818Y-79812116D01*
X101668843Y-79750003D01*
X101679931Y-79688682D01*
X101696978Y-79628742D01*
X101719816Y-79570763D01*
X101748228Y-79515300D01*
X101781939Y-79462890D01*
X101820625Y-79414036D01*
X101863914Y-79369210D01*
X101911387Y-79328842D01*
X101962589Y-79293322D01*
X102017026Y-79262993D01*
X102074173Y-79238145D01*
X102133481Y-79219017D01*
X102194378Y-79205795D01*
X102256278Y-79198605D01*
X102318584Y-79197518D01*
X102380697Y-79202543D01*
X102442018Y-79213631D01*
X102501958Y-79230678D01*
X102559937Y-79253516D01*
X102615400Y-79281928D01*
X102667810Y-79315639D01*
X102716664Y-79354325D01*
X102761490Y-79397614D01*
X102801858Y-79445087D01*
X102837378Y-79496289D01*
X102867707Y-79550726D01*
X102892555Y-79607873D01*
X102911683Y-79667181D01*
X102924905Y-79728078D01*
X102932095Y-79789978D01*
X102932638Y-79821131D01*
X102933403Y-79821118D01*
X102944486Y-80456021D01*
X101674679Y-80478186D01*
X101674679Y-80478186D01*
G37*
D11*
X104013000Y-79679800D03*
D12*
G36*
X103485154Y-80406318D02*
X103385818Y-79779136D01*
X103386573Y-79779016D01*
X103381699Y-79748242D01*
X103378031Y-79686034D01*
X103380477Y-79623767D01*
X103389016Y-79562038D01*
X103403563Y-79501444D01*
X103423979Y-79442567D01*
X103450068Y-79385975D01*
X103481579Y-79332213D01*
X103518207Y-79281799D01*
X103559601Y-79235217D01*
X103605361Y-79192916D01*
X103655047Y-79155306D01*
X103708180Y-79122746D01*
X103764249Y-79095550D01*
X103822712Y-79073982D01*
X103883009Y-79058248D01*
X103944558Y-79048499D01*
X104006766Y-79044831D01*
X104069033Y-79047277D01*
X104130762Y-79055816D01*
X104191356Y-79070363D01*
X104250233Y-79090779D01*
X104306825Y-79116868D01*
X104360587Y-79148379D01*
X104411001Y-79185007D01*
X104457583Y-79226401D01*
X104499884Y-79272161D01*
X104537494Y-79321847D01*
X104570054Y-79374980D01*
X104597250Y-79431049D01*
X104618818Y-79489512D01*
X104634552Y-79549809D01*
X104639427Y-79580584D01*
X104640182Y-79580464D01*
X104739518Y-80207646D01*
X103485154Y-80406318D01*
X103485154Y-80406318D01*
G37*
D11*
X100571300Y-79730600D03*
D12*
G36*
X99854105Y-80271045D02*
X99942480Y-79642225D01*
X99943237Y-79642332D01*
X99947574Y-79611477D01*
X99962253Y-79550914D01*
X99982798Y-79492083D01*
X100009011Y-79435548D01*
X100040639Y-79381855D01*
X100077376Y-79331520D01*
X100118872Y-79285029D01*
X100164724Y-79242829D01*
X100214492Y-79205326D01*
X100267696Y-79172882D01*
X100323824Y-79145809D01*
X100382335Y-79124368D01*
X100442666Y-79108766D01*
X100504236Y-79099151D01*
X100566451Y-79095619D01*
X100628714Y-79098201D01*
X100690423Y-79106874D01*
X100750986Y-79121553D01*
X100809817Y-79142098D01*
X100866352Y-79168311D01*
X100920045Y-79199939D01*
X100970380Y-79236676D01*
X101016871Y-79278172D01*
X101059071Y-79324024D01*
X101096574Y-79373792D01*
X101129018Y-79426996D01*
X101156091Y-79483124D01*
X101177532Y-79541635D01*
X101193134Y-79601966D01*
X101202749Y-79663536D01*
X101206281Y-79725751D01*
X101203699Y-79788014D01*
X101199363Y-79818868D01*
X101200120Y-79818975D01*
X101111745Y-80447795D01*
X99854105Y-80271045D01*
X99854105Y-80271045D01*
G37*
D11*
X108204000Y-57340500D03*
D12*
G36*
X109071426Y-57108074D02*
X108753926Y-57658000D01*
X108753264Y-57657618D01*
X108737685Y-57684601D01*
X108701387Y-57735255D01*
X108660300Y-57782106D01*
X108614817Y-57824704D01*
X108565379Y-57862640D01*
X108512460Y-57895547D01*
X108456570Y-57923109D01*
X108398248Y-57945060D01*
X108338056Y-57961188D01*
X108276572Y-57971339D01*
X108214389Y-57975415D01*
X108152107Y-57973376D01*
X108090324Y-57965242D01*
X108029636Y-57951092D01*
X107970628Y-57931061D01*
X107913866Y-57905343D01*
X107859899Y-57874185D01*
X107809245Y-57837887D01*
X107762394Y-57796800D01*
X107719796Y-57751317D01*
X107681860Y-57701879D01*
X107648953Y-57648960D01*
X107621391Y-57593070D01*
X107599440Y-57534748D01*
X107583312Y-57474556D01*
X107573161Y-57413072D01*
X107569085Y-57350889D01*
X107571124Y-57288607D01*
X107579258Y-57226824D01*
X107593408Y-57166136D01*
X107613439Y-57107128D01*
X107639157Y-57050366D01*
X107654736Y-57023382D01*
X107654074Y-57023000D01*
X107971574Y-56473074D01*
X109071426Y-57108074D01*
X109071426Y-57108074D01*
G37*
D13*
X113600000Y-67754500D03*
X90600000Y-67754500D03*
D14*
X97788000Y-57654500D03*
X106428000Y-57654500D03*
D15*
X97788000Y-61834500D03*
X106428000Y-61834500D03*
D16*
X102171500Y-70167500D03*
X102108000Y-65468500D03*
X95440500Y-65913000D03*
X95440500Y-65151000D03*
X99758500Y-70167500D03*
X104457500Y-70167500D03*
X102108000Y-67818000D03*
X104457500Y-65468500D03*
X99758500Y-65468500D03*
X104457500Y-75755500D03*
X106616500Y-75565000D03*
X107378500Y-75565000D03*
X108140500Y-75565000D03*
X95313500Y-72707500D03*
X96266000Y-72707500D03*
X94996000Y-73342500D03*
X102044500Y-74676000D03*
X102108000Y-56007000D03*
X102933500Y-56007000D03*
X101282500Y-56007000D03*
X111315506Y-60261500D03*
X112013984Y-60896500D03*
X111760000Y-69024500D03*
X113157000Y-71755000D03*
X113411000Y-71183500D03*
X97028000Y-68326000D03*
X92138500Y-68580000D03*
X93980000Y-63690500D03*
X92329000Y-74803000D03*
X92837000Y-61150500D03*
X93281500Y-61976000D03*
X93980000Y-60515500D03*
X106296500Y-66548000D03*
X103568500Y-72834500D03*
X106296500Y-68453000D03*
X111125000Y-64198500D03*
X105143500Y-72593000D03*
X98133087Y-64224087D03*
X99758500Y-72136000D03*
D17*
X101854000Y-63880960D03*
D16*
X102679510Y-71818500D03*
X102870000Y-77597000D03*
X100203000Y-75247500D03*
X100901500Y-75819000D03*
X101854000Y-77597000D03*
X101885051Y-72528514D03*
X100076000Y-77597000D03*
X102667381Y-72631914D03*
X105410000Y-77533456D03*
X99833000Y-60706000D03*
X103886000Y-60706000D03*
X107889011Y-65053111D03*
X98107500Y-65659000D03*
X108204000Y-68961000D03*
X107252947Y-63891377D03*
X98234500Y-72199500D03*
X98298000Y-78562602D03*
X94996000Y-63500000D03*
D17*
X102679484Y-63881000D03*
D16*
X95377000Y-67691000D03*
D17*
X101121022Y-63881000D03*
D18*
X109029500Y-75565000D02*
X110172500Y-76708000D01*
X108140500Y-75565000D02*
X109029500Y-75565000D01*
X110172500Y-76263500D02*
X110172500Y-76708000D01*
X109029500Y-75120500D02*
X110172500Y-76263500D01*
X107378500Y-75565000D02*
X107823000Y-75120500D01*
X107823000Y-75120500D02*
X109029500Y-75120500D01*
X90614500Y-64008000D02*
X90614500Y-65722500D01*
X90614500Y-65722500D02*
X90487500Y-65849500D01*
D19*
X103568500Y-68453000D02*
X103568500Y-72834500D01*
X106296500Y-66548000D02*
X105473500Y-66548000D01*
X105473500Y-66548000D02*
X103568500Y-68453000D01*
X102583041Y-64610001D02*
X102103999Y-64130959D01*
X103345001Y-64363001D02*
X103098001Y-64610001D01*
X103345001Y-63906999D02*
X103345001Y-64363001D01*
X103098001Y-64610001D02*
X102583041Y-64610001D01*
X102103999Y-64130959D02*
X101854000Y-63880960D01*
X102734492Y-63099500D02*
X103345001Y-63710009D01*
X99758500Y-72136000D02*
X100076000Y-71818500D01*
X102255246Y-71818500D02*
X102679510Y-71818500D01*
X100076000Y-71818500D02*
X102255246Y-71818500D01*
D18*
X106296500Y-68453000D02*
X106870500Y-68453000D01*
X98433086Y-63924088D02*
X98133087Y-64224087D01*
X99307673Y-63049501D02*
X98433086Y-63924088D01*
X102684493Y-63049501D02*
X99307673Y-63049501D01*
X102734492Y-63099500D02*
X102684493Y-63049501D01*
X103345001Y-63710009D02*
X103345001Y-63906999D01*
X102684493Y-63049501D02*
X103345001Y-63710009D01*
X106871501Y-68451999D02*
X106870500Y-68453000D01*
X106870500Y-68453000D02*
X109410500Y-65913000D01*
X105143500Y-69606000D02*
X106296500Y-68453000D01*
X105143500Y-72593000D02*
X105143500Y-69606000D01*
X109169000Y-72593000D02*
X111061500Y-74485500D01*
X105143500Y-72593000D02*
X109169000Y-72593000D01*
X111061500Y-75057000D02*
X111442500Y-75438000D01*
X111061500Y-74485500D02*
X111061500Y-75057000D01*
X109834764Y-65913000D02*
X111125000Y-64622764D01*
X111125000Y-64622764D02*
X111125000Y-64198500D01*
X109410500Y-65913000D02*
X109834764Y-65913000D01*
X103345001Y-63906999D02*
X104506501Y-63906999D01*
X104506501Y-63906999D02*
X106512502Y-65913000D01*
X106512502Y-65913000D02*
X109410500Y-65913000D01*
D19*
X101219000Y-75247500D02*
X100203000Y-75247500D01*
X102870000Y-77597000D02*
X102870000Y-76898500D01*
X102870000Y-76898500D02*
X101219000Y-75247500D01*
X100901500Y-75819000D02*
X101854000Y-76771500D01*
X101854000Y-76771500D02*
X101854000Y-77597000D01*
X101585052Y-72828513D02*
X101885051Y-72528514D01*
X99677999Y-74735566D02*
X101585052Y-72828513D01*
X99677999Y-76774735D02*
X99677999Y-74735566D01*
X100076000Y-77172736D02*
X99677999Y-76774735D01*
X100076000Y-77597000D02*
X100076000Y-77172736D01*
X102667381Y-74790837D02*
X105110001Y-77233457D01*
X105110001Y-77233457D02*
X105410000Y-77533456D01*
X102667381Y-72631914D02*
X102667381Y-74790837D01*
D18*
X103568500Y-60388500D02*
X103886000Y-60706000D01*
X99833000Y-60706000D02*
X100150500Y-60388500D01*
X100150500Y-60388500D02*
X103568500Y-60388500D01*
X104185999Y-60406001D02*
X103886000Y-60706000D01*
X106645530Y-60406001D02*
X104185999Y-60406001D01*
X108077000Y-61837471D02*
X106645530Y-60406001D01*
X107889011Y-65053111D02*
X108077000Y-64865122D01*
X108077000Y-64865122D02*
X108077000Y-61837471D01*
X110972498Y-68961000D02*
X108204000Y-68961000D01*
X113600000Y-67754500D02*
X112178998Y-67754500D01*
X112178998Y-67754500D02*
X110972498Y-68961000D01*
X97345500Y-64198500D02*
X99060000Y-62484000D01*
X105119752Y-62484000D02*
X106527129Y-63891377D01*
X98107500Y-65659000D02*
X97345500Y-64897000D01*
X106527129Y-63891377D02*
X106828683Y-63891377D01*
X99060000Y-62484000D02*
X105119752Y-62484000D01*
X106828683Y-63891377D02*
X107252947Y-63891377D01*
X97345500Y-64897000D02*
X97345500Y-64198500D01*
D19*
X98234500Y-72199500D02*
X98234500Y-78499102D01*
X98234500Y-78499102D02*
X98298000Y-78562602D01*
X102197995Y-63399511D02*
X102429485Y-63631001D01*
X98679000Y-64643000D02*
X99922489Y-63399511D01*
X98679000Y-65864502D02*
X98679000Y-64643000D01*
X99922489Y-63399511D02*
X102197995Y-63399511D01*
X98359501Y-66184001D02*
X98679000Y-65864502D01*
X97680001Y-66184001D02*
X98359501Y-66184001D01*
X102429485Y-63631001D02*
X102679484Y-63881000D01*
X94996000Y-63500000D02*
X97680001Y-66184001D01*
X101121022Y-64234553D02*
X101121022Y-63881000D01*
X101121022Y-64882980D02*
X101121022Y-64234553D01*
X98313002Y-67691000D02*
X101121022Y-64882980D01*
X95377000Y-67691000D02*
X98313002Y-67691000D01*
D20*
G36*
X103554778Y-55621454D02*
X104898219Y-55858339D01*
X106206883Y-56243500D01*
X106300998Y-56283062D01*
X106300998Y-56386545D01*
X106126126Y-56260381D01*
X105715237Y-56462132D01*
X105427998Y-56802822D01*
X105293000Y-57227500D01*
X105293000Y-57527500D01*
X106301000Y-57527500D01*
X106301000Y-57507500D01*
X106555000Y-57507500D01*
X106555000Y-57527500D01*
X106575000Y-57527500D01*
X106575000Y-57781500D01*
X106555000Y-57781500D01*
X106555000Y-58922454D01*
X106729874Y-59048619D01*
X107140763Y-58846868D01*
X107428002Y-58506178D01*
X107549559Y-58123782D01*
X107577997Y-58148721D01*
X107639894Y-58193076D01*
X107747698Y-58255317D01*
X107817062Y-58286746D01*
X107934938Y-58326760D01*
X108009102Y-58344053D01*
X108132518Y-58360301D01*
X108208628Y-58362792D01*
X108332844Y-58354651D01*
X108407980Y-58342247D01*
X108528220Y-58310029D01*
X108599495Y-58283202D01*
X108711139Y-58228144D01*
X108775804Y-58187933D01*
X108874562Y-58112154D01*
X108930145Y-58060094D01*
X109012221Y-57966503D01*
X109056575Y-57904608D01*
X109080011Y-57864017D01*
X109090346Y-57852232D01*
X109132458Y-57779292D01*
X109764472Y-58231769D01*
X110778245Y-59144575D01*
X111683950Y-60164695D01*
X112470300Y-61279417D01*
X113127492Y-62474844D01*
X113647335Y-63736078D01*
X114023350Y-65047399D01*
X114250850Y-66392461D01*
X114274327Y-66812380D01*
X114247458Y-66785511D01*
X113827357Y-66611500D01*
X113372643Y-66611500D01*
X112952542Y-66785511D01*
X112631011Y-67107042D01*
X112572417Y-67248500D01*
X112228833Y-67248500D01*
X112178998Y-67238587D01*
X111981566Y-67277859D01*
X111940582Y-67305244D01*
X111814192Y-67389694D01*
X111785961Y-67431945D01*
X110762907Y-68455000D01*
X108661080Y-68455000D01*
X108589756Y-68383676D01*
X108339459Y-68280000D01*
X108068541Y-68280000D01*
X107818244Y-68383676D01*
X107626676Y-68575244D01*
X107523000Y-68825541D01*
X107523000Y-69096459D01*
X107626676Y-69346756D01*
X107818244Y-69538324D01*
X108068541Y-69642000D01*
X108339459Y-69642000D01*
X108589756Y-69538324D01*
X108661080Y-69467000D01*
X110922664Y-69467000D01*
X110972498Y-69476913D01*
X111022332Y-69467000D01*
X111022333Y-69467000D01*
X111169929Y-69437641D01*
X111337304Y-69325806D01*
X111365536Y-69283553D01*
X112388590Y-68260500D01*
X112572417Y-68260500D01*
X112631011Y-68401958D01*
X112952542Y-68723489D01*
X113372643Y-68897500D01*
X113827357Y-68897500D01*
X114247458Y-68723489D01*
X114271539Y-68699408D01*
X114208086Y-69455056D01*
X113943118Y-70793242D01*
X113530635Y-72093552D01*
X112975779Y-73339780D01*
X112285465Y-74516391D01*
X112150848Y-74696337D01*
X112100370Y-74653981D01*
X112086620Y-74646436D01*
X112050723Y-74616315D01*
X111987874Y-74573321D01*
X111878738Y-74513446D01*
X111808701Y-74483537D01*
X111689980Y-74446105D01*
X111615462Y-74430435D01*
X111565368Y-74424948D01*
X111545667Y-74325905D01*
X111538141Y-74288069D01*
X111426306Y-74120694D01*
X111384056Y-74092464D01*
X109562039Y-72270447D01*
X109533806Y-72228194D01*
X109366431Y-72116359D01*
X109218835Y-72087000D01*
X109218834Y-72087000D01*
X109169000Y-72077087D01*
X109119166Y-72087000D01*
X105649500Y-72087000D01*
X105649500Y-69815591D01*
X106331092Y-69134000D01*
X106431959Y-69134000D01*
X106682256Y-69030324D01*
X106753580Y-68959000D01*
X106820666Y-68959000D01*
X106870500Y-68968913D01*
X106920334Y-68959000D01*
X106920335Y-68959000D01*
X107067931Y-68929641D01*
X107235306Y-68817806D01*
X107263539Y-68775552D01*
X107264535Y-68774556D01*
X109620092Y-66419000D01*
X109784930Y-66419000D01*
X109834764Y-66428913D01*
X109884598Y-66419000D01*
X109884599Y-66419000D01*
X110032195Y-66389641D01*
X110199570Y-66277806D01*
X110227802Y-66235553D01*
X111447556Y-65015800D01*
X111489806Y-64987570D01*
X111601641Y-64820195D01*
X111631000Y-64672599D01*
X111631000Y-64672598D01*
X111635226Y-64651354D01*
X111702324Y-64584256D01*
X111806000Y-64333959D01*
X111806000Y-64063041D01*
X111702324Y-63812744D01*
X111510756Y-63621176D01*
X111260459Y-63517500D01*
X110989541Y-63517500D01*
X110739244Y-63621176D01*
X110547676Y-63812744D01*
X110444000Y-64063041D01*
X110444000Y-64333959D01*
X110518457Y-64513715D01*
X109625173Y-65407000D01*
X109460333Y-65407000D01*
X109410499Y-65397087D01*
X109360665Y-65407000D01*
X108479535Y-65407000D01*
X108570011Y-65188570D01*
X108570011Y-64980256D01*
X108583000Y-64914957D01*
X108583000Y-64914956D01*
X108592913Y-64865122D01*
X108583000Y-64815287D01*
X108583000Y-61887304D01*
X108592913Y-61837470D01*
X108582486Y-61785050D01*
X108553641Y-61640040D01*
X108441806Y-61472665D01*
X108399555Y-61444434D01*
X107038569Y-60083448D01*
X107010336Y-60041195D01*
X106842961Y-59929360D01*
X106695365Y-59900001D01*
X106695364Y-59900001D01*
X106645530Y-59890088D01*
X106595696Y-59900001D01*
X104235834Y-59900001D01*
X104185999Y-59890088D01*
X103988567Y-59929360D01*
X103950464Y-59954820D01*
X103890346Y-59994989D01*
X103765931Y-59911859D01*
X103618335Y-59882500D01*
X103618334Y-59882500D01*
X103568500Y-59872587D01*
X103518666Y-59882500D01*
X100200335Y-59882500D01*
X100150500Y-59872587D01*
X99953068Y-59911859D01*
X99926875Y-59929361D01*
X99785694Y-60023694D01*
X99784821Y-60025000D01*
X99697541Y-60025000D01*
X99447244Y-60128676D01*
X99255676Y-60320244D01*
X99152000Y-60570541D01*
X99152000Y-60598500D01*
X99077568Y-60598500D01*
X98818083Y-60705982D01*
X98788784Y-60735281D01*
X98788002Y-60732822D01*
X98500763Y-60392132D01*
X98089874Y-60190381D01*
X97915000Y-60316546D01*
X97915000Y-61707500D01*
X97935000Y-61707500D01*
X97935000Y-61961500D01*
X97915000Y-61961500D01*
X97915000Y-61981500D01*
X97661000Y-61981500D01*
X97661000Y-61961500D01*
X96653000Y-61961500D01*
X96653000Y-62511500D01*
X96787998Y-62936178D01*
X97075237Y-63276868D01*
X97394687Y-63433722D01*
X97022945Y-63805463D01*
X96980695Y-63833694D01*
X96914035Y-63933459D01*
X96868860Y-64001069D01*
X96829587Y-64198500D01*
X96839501Y-64248338D01*
X96839500Y-64698619D01*
X95677000Y-63536119D01*
X95677000Y-63364541D01*
X95573324Y-63114244D01*
X95381756Y-62922676D01*
X95131459Y-62819000D01*
X94860541Y-62819000D01*
X94610244Y-62922676D01*
X94418676Y-63114244D01*
X94315000Y-63364541D01*
X94315000Y-63635459D01*
X94418676Y-63885756D01*
X94610244Y-64077324D01*
X94860541Y-64181000D01*
X95032119Y-64181000D01*
X97325805Y-66474686D01*
X97351244Y-66512758D01*
X97502079Y-66613543D01*
X97635092Y-66640001D01*
X97635096Y-66640001D01*
X97680001Y-66648933D01*
X97724906Y-66640001D01*
X98314597Y-66640001D01*
X98359501Y-66648933D01*
X98404405Y-66640001D01*
X98404410Y-66640001D01*
X98537423Y-66613543D01*
X98688258Y-66512758D01*
X98713697Y-66474687D01*
X98969688Y-66218696D01*
X99007757Y-66193259D01*
X99033194Y-66155190D01*
X99033196Y-66155188D01*
X99108542Y-66042425D01*
X99115771Y-66006079D01*
X99135000Y-65909411D01*
X99135000Y-65909408D01*
X99143932Y-65864502D01*
X99135000Y-65819597D01*
X99135000Y-64831881D01*
X100111371Y-63855511D01*
X100490022Y-63855511D01*
X100490022Y-64006514D01*
X100586086Y-64238433D01*
X100665023Y-64317370D01*
X100665022Y-64694098D01*
X98124121Y-67235000D01*
X95884080Y-67235000D01*
X95762756Y-67113676D01*
X95512459Y-67010000D01*
X95241541Y-67010000D01*
X94991244Y-67113676D01*
X94799676Y-67305244D01*
X94696000Y-67555541D01*
X94696000Y-67826459D01*
X94799676Y-68076756D01*
X94991244Y-68268324D01*
X95241541Y-68372000D01*
X95512459Y-68372000D01*
X95762756Y-68268324D01*
X95884080Y-68147000D01*
X98268098Y-68147000D01*
X98313002Y-68155932D01*
X98357906Y-68147000D01*
X98357911Y-68147000D01*
X98490924Y-68120542D01*
X98641759Y-68019757D01*
X98667198Y-67981685D01*
X101411711Y-65237173D01*
X101449779Y-65211737D01*
X101475216Y-65173668D01*
X101475218Y-65173666D01*
X101549461Y-65062553D01*
X101550564Y-65060902D01*
X101577022Y-64927889D01*
X101577022Y-64927884D01*
X101585954Y-64882980D01*
X101577022Y-64838076D01*
X101577022Y-64449222D01*
X101728486Y-64511960D01*
X101840119Y-64511960D01*
X102228847Y-64900689D01*
X102254284Y-64938758D01*
X102292353Y-64964195D01*
X102292355Y-64964197D01*
X102341742Y-64997196D01*
X102405119Y-65039543D01*
X102538132Y-65066001D01*
X102538136Y-65066001D01*
X102583041Y-65074933D01*
X102627946Y-65066001D01*
X103053097Y-65066001D01*
X103098001Y-65074933D01*
X103142905Y-65066001D01*
X103142910Y-65066001D01*
X103275923Y-65039543D01*
X103426758Y-64938758D01*
X103452197Y-64900686D01*
X103635686Y-64717197D01*
X103673758Y-64691758D01*
X103723629Y-64617121D01*
X103774543Y-64540924D01*
X103788909Y-64468701D01*
X103799989Y-64412999D01*
X104296910Y-64412999D01*
X105882665Y-65998755D01*
X105789420Y-66092000D01*
X105518405Y-66092000D01*
X105473500Y-66083068D01*
X105428594Y-66092000D01*
X105428591Y-66092000D01*
X105325625Y-66112481D01*
X105295577Y-66118458D01*
X105182814Y-66193804D01*
X105182812Y-66193806D01*
X105144743Y-66219243D01*
X105119306Y-66257312D01*
X103277815Y-68098804D01*
X103239743Y-68124243D01*
X103138958Y-68275079D01*
X103112500Y-68408092D01*
X103112500Y-68408096D01*
X103103568Y-68453000D01*
X103112500Y-68497904D01*
X103112501Y-71288411D01*
X103065266Y-71241176D01*
X102814969Y-71137500D01*
X102544051Y-71137500D01*
X102293754Y-71241176D01*
X102172430Y-71362500D01*
X100120905Y-71362500D01*
X100076000Y-71353568D01*
X100031094Y-71362500D01*
X100031091Y-71362500D01*
X99928125Y-71382981D01*
X99898077Y-71388958D01*
X99799238Y-71455000D01*
X99623041Y-71455000D01*
X99372744Y-71558676D01*
X99181176Y-71750244D01*
X99077500Y-72000541D01*
X99077500Y-72271459D01*
X99181176Y-72521756D01*
X99372744Y-72713324D01*
X99623041Y-72817000D01*
X99893959Y-72817000D01*
X100144256Y-72713324D01*
X100335824Y-72521756D01*
X100438240Y-72274500D01*
X101253158Y-72274500D01*
X101204051Y-72393055D01*
X101204051Y-72564633D01*
X99387312Y-74381372D01*
X99349243Y-74406809D01*
X99323806Y-74444878D01*
X99323803Y-74444881D01*
X99248458Y-74557644D01*
X99213067Y-74735566D01*
X99222000Y-74780475D01*
X99221999Y-76729831D01*
X99213067Y-76774735D01*
X99221999Y-76819639D01*
X99221999Y-76819643D01*
X99248457Y-76952656D01*
X99248458Y-76952657D01*
X99317198Y-77055534D01*
X99349242Y-77103492D01*
X99387314Y-77128931D01*
X99490168Y-77231785D01*
X99395000Y-77461541D01*
X99395000Y-77732459D01*
X99498676Y-77982756D01*
X99690244Y-78174324D01*
X99940541Y-78278000D01*
X100211459Y-78278000D01*
X100461756Y-78174324D01*
X100653324Y-77982756D01*
X100757000Y-77732459D01*
X100757000Y-77461541D01*
X100653324Y-77211244D01*
X100522588Y-77080508D01*
X100505542Y-76994814D01*
X100404757Y-76843979D01*
X100366685Y-76818540D01*
X100133999Y-76585854D01*
X100133999Y-75928500D01*
X100220500Y-75928500D01*
X100220500Y-75954459D01*
X100324176Y-76204756D01*
X100515744Y-76396324D01*
X100766041Y-76500000D01*
X100937619Y-76500000D01*
X101398000Y-76960381D01*
X101398000Y-77089920D01*
X101276676Y-77211244D01*
X101173000Y-77461541D01*
X101173000Y-77732459D01*
X101276676Y-77982756D01*
X101468244Y-78174324D01*
X101718541Y-78278000D01*
X101989459Y-78278000D01*
X102239756Y-78174324D01*
X102362000Y-78052080D01*
X102484244Y-78174324D01*
X102734541Y-78278000D01*
X103005459Y-78278000D01*
X103255756Y-78174324D01*
X103447324Y-77982756D01*
X103551000Y-77732459D01*
X103551000Y-77461541D01*
X103447324Y-77211244D01*
X103326000Y-77089920D01*
X103326000Y-76943405D01*
X103334932Y-76898500D01*
X103326000Y-76853595D01*
X103326000Y-76853591D01*
X103299542Y-76720578D01*
X103198757Y-76569743D01*
X103160685Y-76544304D01*
X101573196Y-74956815D01*
X101547757Y-74918743D01*
X101396922Y-74817958D01*
X101263909Y-74791500D01*
X101263904Y-74791500D01*
X101219000Y-74782568D01*
X101174096Y-74791500D01*
X100710080Y-74791500D01*
X100588756Y-74670176D01*
X100446991Y-74611455D01*
X101848932Y-73209514D01*
X102020510Y-73209514D01*
X102205342Y-73132955D01*
X102211381Y-73138994D01*
X102211382Y-74745928D01*
X102202449Y-74790837D01*
X102237840Y-74968759D01*
X102313185Y-75081522D01*
X102313188Y-75081525D01*
X102338625Y-75119594D01*
X102376694Y-75145031D01*
X104729000Y-77497337D01*
X104729000Y-77668915D01*
X104832676Y-77919212D01*
X105024244Y-78110780D01*
X105274541Y-78214456D01*
X105545459Y-78214456D01*
X105795756Y-78110780D01*
X105987324Y-77919212D01*
X106091000Y-77668915D01*
X106091000Y-77397997D01*
X105987324Y-77147700D01*
X105795756Y-76956132D01*
X105545459Y-76852456D01*
X105373881Y-76852456D01*
X103123381Y-74601956D01*
X103123381Y-73352461D01*
X103182744Y-73411824D01*
X103433041Y-73515500D01*
X103703959Y-73515500D01*
X103954256Y-73411824D01*
X104145824Y-73220256D01*
X104249500Y-72969959D01*
X104249500Y-72699041D01*
X104145824Y-72448744D01*
X104024500Y-72327420D01*
X104024500Y-68641881D01*
X105662382Y-67004000D01*
X105789420Y-67004000D01*
X105910744Y-67125324D01*
X106161041Y-67229000D01*
X106431959Y-67229000D01*
X106682256Y-67125324D01*
X106873824Y-66933756D01*
X106977500Y-66683459D01*
X106977500Y-66419000D01*
X108188908Y-66419000D01*
X106707244Y-67900664D01*
X106682256Y-67875676D01*
X106431959Y-67772000D01*
X106161041Y-67772000D01*
X105910744Y-67875676D01*
X105719176Y-68067244D01*
X105615500Y-68317541D01*
X105615500Y-68418408D01*
X104820945Y-69212964D01*
X104778695Y-69241194D01*
X104722160Y-69325806D01*
X104666860Y-69408569D01*
X104627587Y-69606000D01*
X104637501Y-69655839D01*
X104637500Y-72135920D01*
X104566176Y-72207244D01*
X104462500Y-72457541D01*
X104462500Y-72728459D01*
X104566176Y-72978756D01*
X104757744Y-73170324D01*
X105008041Y-73274000D01*
X105278959Y-73274000D01*
X105529256Y-73170324D01*
X105600580Y-73099000D01*
X108959409Y-73099000D01*
X110555500Y-74695092D01*
X110555501Y-74933310D01*
X110517946Y-75001762D01*
X110488037Y-75071799D01*
X110450605Y-75190520D01*
X110434935Y-75265038D01*
X110421382Y-75388779D01*
X110420551Y-75464932D01*
X110431259Y-75587317D01*
X110395227Y-75578166D01*
X110294837Y-75562939D01*
X110170526Y-75556424D01*
X110069097Y-75561074D01*
X109945903Y-75578936D01*
X109847327Y-75603285D01*
X109729986Y-75644838D01*
X109638058Y-75687950D01*
X109531077Y-75751597D01*
X109449323Y-75811816D01*
X109356815Y-75895111D01*
X109288385Y-75970117D01*
X109213904Y-76069858D01*
X109161415Y-76156784D01*
X109107825Y-76269140D01*
X109073308Y-76364622D01*
X109042666Y-76485273D01*
X109027439Y-76585663D01*
X109020924Y-76709974D01*
X109025574Y-76811403D01*
X109043436Y-76934597D01*
X109067785Y-77033173D01*
X109109338Y-77150514D01*
X109152450Y-77242442D01*
X109216097Y-77349423D01*
X109276318Y-77431179D01*
X109307675Y-77466004D01*
X109315690Y-77479476D01*
X109388050Y-77559840D01*
X108364652Y-78250131D01*
X107155723Y-78882144D01*
X106702565Y-79057913D01*
X106680844Y-78986868D01*
X106673424Y-78973056D01*
X106659723Y-78928243D01*
X106630426Y-78857949D01*
X106571506Y-78748294D01*
X106529060Y-78685068D01*
X106449880Y-78589015D01*
X106395918Y-78535287D01*
X106299521Y-78456526D01*
X106236108Y-78414355D01*
X106126197Y-78355914D01*
X106055774Y-78326924D01*
X105936573Y-78291050D01*
X105861856Y-78276357D01*
X105737948Y-78264426D01*
X105661798Y-78264592D01*
X105537942Y-78277063D01*
X105463283Y-78292083D01*
X105344241Y-78328478D01*
X105273949Y-78357774D01*
X105164294Y-78416694D01*
X105101068Y-78459140D01*
X105005015Y-78538320D01*
X104951287Y-78592282D01*
X104872526Y-78688679D01*
X104830355Y-78752092D01*
X104771914Y-78862003D01*
X104742924Y-78932426D01*
X104735261Y-78957888D01*
X104720060Y-78941443D01*
X104663135Y-78890859D01*
X104562427Y-78817690D01*
X104496725Y-78779181D01*
X104383677Y-78727066D01*
X104311728Y-78702117D01*
X104190686Y-78673058D01*
X104115254Y-78662624D01*
X103990868Y-78657737D01*
X103914848Y-78662221D01*
X103791899Y-78681694D01*
X103718215Y-78700921D01*
X103601427Y-78744006D01*
X103532909Y-78777239D01*
X103426771Y-78842280D01*
X103366053Y-78888242D01*
X103274643Y-78972740D01*
X103224059Y-79029665D01*
X103150890Y-79130373D01*
X103112381Y-79196075D01*
X103107082Y-79207569D01*
X103101437Y-79199432D01*
X103052107Y-79141418D01*
X102962562Y-79054945D01*
X102902860Y-79007668D01*
X102798166Y-78940327D01*
X102730389Y-78905607D01*
X102614569Y-78859985D01*
X102541324Y-78839155D01*
X102418829Y-78817004D01*
X102342922Y-78810863D01*
X102218459Y-78813036D01*
X102142818Y-78821822D01*
X102021170Y-78848234D01*
X101948695Y-78871607D01*
X101834538Y-78921243D01*
X101768012Y-78958309D01*
X101665732Y-79029263D01*
X101607718Y-79078593D01*
X101521245Y-79168138D01*
X101473968Y-79227840D01*
X101466959Y-79238736D01*
X101463338Y-79231228D01*
X101423690Y-79166211D01*
X101348775Y-79066796D01*
X101297206Y-79010764D01*
X101204336Y-78927874D01*
X101142824Y-78882978D01*
X101035567Y-78819799D01*
X100966481Y-78787767D01*
X100848959Y-78746726D01*
X100774947Y-78728786D01*
X100651676Y-78711462D01*
X100575592Y-78708307D01*
X100451310Y-78715364D01*
X100376070Y-78727112D01*
X100255554Y-78758279D01*
X100184049Y-78784481D01*
X100071928Y-78838562D01*
X100006911Y-78878210D01*
X99907496Y-78953125D01*
X99851464Y-79004694D01*
X99826555Y-79032602D01*
X99815748Y-79000765D01*
X99784319Y-78931400D01*
X99722078Y-78823595D01*
X99677720Y-78761693D01*
X99595643Y-78668103D01*
X99540062Y-78616046D01*
X99441304Y-78540267D01*
X99376637Y-78500055D01*
X99264993Y-78444998D01*
X99193719Y-78418172D01*
X99073478Y-78385954D01*
X98998346Y-78373550D01*
X98955642Y-78370751D01*
X98875324Y-78176846D01*
X98690500Y-77992022D01*
X98690500Y-72706580D01*
X98811824Y-72585256D01*
X98915500Y-72334959D01*
X98915500Y-72064041D01*
X98811824Y-71813744D01*
X98620256Y-71622176D01*
X98369959Y-71518500D01*
X98099041Y-71518500D01*
X97848744Y-71622176D01*
X97657176Y-71813744D01*
X97553500Y-72064041D01*
X97553500Y-72334959D01*
X97657176Y-72585256D01*
X97778500Y-72706580D01*
X97778501Y-78119021D01*
X97720676Y-78176846D01*
X97617000Y-78427143D01*
X97617000Y-78698061D01*
X97720676Y-78948358D01*
X97885605Y-79113287D01*
X97880910Y-79122808D01*
X97857582Y-79209868D01*
X97848798Y-79207149D01*
X96598727Y-78661006D01*
X95417325Y-77978923D01*
X94319316Y-77169401D01*
X93318387Y-76242531D01*
X92427013Y-75209864D01*
X91656304Y-74084272D01*
X91015867Y-72879785D01*
X90513684Y-71611416D01*
X90156014Y-70294973D01*
X89947316Y-68946865D01*
X89937316Y-68708263D01*
X89952542Y-68723489D01*
X90372643Y-68897500D01*
X90827357Y-68897500D01*
X91247458Y-68723489D01*
X91568989Y-68401958D01*
X91743000Y-67981857D01*
X91743000Y-67527143D01*
X91568989Y-67107042D01*
X91247458Y-66785511D01*
X90827357Y-66611500D01*
X90372643Y-66611500D01*
X89952542Y-66785511D01*
X89945529Y-66792524D01*
X89985350Y-66223053D01*
X90194443Y-65083801D01*
X90258218Y-65104523D01*
X90273788Y-65106366D01*
X90318363Y-65120849D01*
X90417532Y-65142607D01*
X90541151Y-65157239D01*
X90642672Y-65159233D01*
X90766770Y-65149466D01*
X90866723Y-65131617D01*
X90986531Y-65097828D01*
X91081086Y-65060820D01*
X91192000Y-65004306D01*
X91277515Y-64949563D01*
X91375272Y-64872497D01*
X91448461Y-64802128D01*
X91529306Y-64707472D01*
X91587367Y-64624167D01*
X91648191Y-64515557D01*
X91688881Y-64422531D01*
X91727348Y-64304141D01*
X91749107Y-64204968D01*
X91763739Y-64081349D01*
X91765733Y-63979828D01*
X91755966Y-63855730D01*
X91738117Y-63755777D01*
X91704328Y-63635969D01*
X91667320Y-63541414D01*
X91610806Y-63430500D01*
X91556063Y-63344985D01*
X91478997Y-63247228D01*
X91408628Y-63174039D01*
X91313972Y-63093194D01*
X91230667Y-63035133D01*
X91122057Y-62974309D01*
X91029035Y-62933620D01*
X90984457Y-62919136D01*
X90970782Y-62911477D01*
X90917812Y-62894266D01*
X91163298Y-62321503D01*
X91824543Y-61157500D01*
X96653000Y-61157500D01*
X96653000Y-61707500D01*
X97661000Y-61707500D01*
X97661000Y-60316546D01*
X97486126Y-60190381D01*
X97075237Y-60392132D01*
X96787998Y-60732822D01*
X96653000Y-61157500D01*
X91824543Y-61157500D01*
X91837117Y-61135367D01*
X92630240Y-60043726D01*
X92697542Y-60108719D01*
X92710725Y-60117197D01*
X92744442Y-60149757D01*
X92804139Y-60197030D01*
X92908833Y-60264372D01*
X92976609Y-60299092D01*
X93092428Y-60344715D01*
X93165676Y-60365546D01*
X93288171Y-60387697D01*
X93364078Y-60393838D01*
X93488541Y-60391665D01*
X93564182Y-60382879D01*
X93685830Y-60356467D01*
X93758308Y-60333093D01*
X93872465Y-60283456D01*
X93938990Y-60246390D01*
X94041270Y-60175435D01*
X94099284Y-60126105D01*
X94185756Y-60036560D01*
X94233030Y-59976861D01*
X94300372Y-59872167D01*
X94335092Y-59804391D01*
X94380715Y-59688572D01*
X94401546Y-59615324D01*
X94423697Y-59492829D01*
X94429838Y-59416922D01*
X94427665Y-59292459D01*
X94418879Y-59216818D01*
X94392467Y-59095170D01*
X94369093Y-59022692D01*
X94319456Y-58908535D01*
X94282390Y-58842010D01*
X94211435Y-58739730D01*
X94162106Y-58681718D01*
X94128395Y-58649163D01*
X94119458Y-58636281D01*
X94063661Y-58582398D01*
X94585232Y-58125797D01*
X95271887Y-57648559D01*
X95316154Y-57725232D01*
X95326488Y-57737015D01*
X95349925Y-57777608D01*
X95394279Y-57839503D01*
X95476355Y-57933094D01*
X95531938Y-57985154D01*
X95630696Y-58060933D01*
X95695361Y-58101144D01*
X95807005Y-58156202D01*
X95878280Y-58183029D01*
X95998520Y-58215247D01*
X96073656Y-58227651D01*
X96197872Y-58235792D01*
X96273982Y-58233301D01*
X96397398Y-58217053D01*
X96471562Y-58199760D01*
X96589438Y-58159746D01*
X96658802Y-58128317D01*
X96666474Y-58123887D01*
X96787998Y-58506178D01*
X97075237Y-58846868D01*
X97486126Y-59048619D01*
X97661000Y-58922454D01*
X97661000Y-57781500D01*
X97915000Y-57781500D01*
X97915000Y-58922454D01*
X98089874Y-59048619D01*
X98500763Y-58846868D01*
X98788002Y-58506178D01*
X98923000Y-58081500D01*
X98923000Y-57781500D01*
X105293000Y-57781500D01*
X105293000Y-58081500D01*
X105427998Y-58506178D01*
X105715237Y-58846868D01*
X106126126Y-59048619D01*
X106301000Y-58922454D01*
X106301000Y-57781500D01*
X105293000Y-57781500D01*
X98923000Y-57781500D01*
X97915000Y-57781500D01*
X97661000Y-57781500D01*
X97641000Y-57781500D01*
X97641000Y-57527500D01*
X97661000Y-57527500D01*
X97661000Y-57507500D01*
X97915000Y-57507500D01*
X97915000Y-57527500D01*
X98923000Y-57527500D01*
X98923000Y-57227500D01*
X98788002Y-56802822D01*
X98500763Y-56462132D01*
X98089874Y-56260381D01*
X97915002Y-56386545D01*
X97915002Y-56290514D01*
X98170235Y-56187393D01*
X99484149Y-55820541D01*
X100830767Y-55602437D01*
X102193304Y-55535798D01*
X103554778Y-55621454D01*
X103554778Y-55621454D01*
G37*
X103554778Y-55621454D02*
X104898219Y-55858339D01*
X106206883Y-56243500D01*
X106300998Y-56283062D01*
X106300998Y-56386545D01*
X106126126Y-56260381D01*
X105715237Y-56462132D01*
X105427998Y-56802822D01*
X105293000Y-57227500D01*
X105293000Y-57527500D01*
X106301000Y-57527500D01*
X106301000Y-57507500D01*
X106555000Y-57507500D01*
X106555000Y-57527500D01*
X106575000Y-57527500D01*
X106575000Y-57781500D01*
X106555000Y-57781500D01*
X106555000Y-58922454D01*
X106729874Y-59048619D01*
X107140763Y-58846868D01*
X107428002Y-58506178D01*
X107549559Y-58123782D01*
X107577997Y-58148721D01*
X107639894Y-58193076D01*
X107747698Y-58255317D01*
X107817062Y-58286746D01*
X107934938Y-58326760D01*
X108009102Y-58344053D01*
X108132518Y-58360301D01*
X108208628Y-58362792D01*
X108332844Y-58354651D01*
X108407980Y-58342247D01*
X108528220Y-58310029D01*
X108599495Y-58283202D01*
X108711139Y-58228144D01*
X108775804Y-58187933D01*
X108874562Y-58112154D01*
X108930145Y-58060094D01*
X109012221Y-57966503D01*
X109056575Y-57904608D01*
X109080011Y-57864017D01*
X109090346Y-57852232D01*
X109132458Y-57779292D01*
X109764472Y-58231769D01*
X110778245Y-59144575D01*
X111683950Y-60164695D01*
X112470300Y-61279417D01*
X113127492Y-62474844D01*
X113647335Y-63736078D01*
X114023350Y-65047399D01*
X114250850Y-66392461D01*
X114274327Y-66812380D01*
X114247458Y-66785511D01*
X113827357Y-66611500D01*
X113372643Y-66611500D01*
X112952542Y-66785511D01*
X112631011Y-67107042D01*
X112572417Y-67248500D01*
X112228833Y-67248500D01*
X112178998Y-67238587D01*
X111981566Y-67277859D01*
X111940582Y-67305244D01*
X111814192Y-67389694D01*
X111785961Y-67431945D01*
X110762907Y-68455000D01*
X108661080Y-68455000D01*
X108589756Y-68383676D01*
X108339459Y-68280000D01*
X108068541Y-68280000D01*
X107818244Y-68383676D01*
X107626676Y-68575244D01*
X107523000Y-68825541D01*
X107523000Y-69096459D01*
X107626676Y-69346756D01*
X107818244Y-69538324D01*
X108068541Y-69642000D01*
X108339459Y-69642000D01*
X108589756Y-69538324D01*
X108661080Y-69467000D01*
X110922664Y-69467000D01*
X110972498Y-69476913D01*
X111022332Y-69467000D01*
X111022333Y-69467000D01*
X111169929Y-69437641D01*
X111337304Y-69325806D01*
X111365536Y-69283553D01*
X112388590Y-68260500D01*
X112572417Y-68260500D01*
X112631011Y-68401958D01*
X112952542Y-68723489D01*
X113372643Y-68897500D01*
X113827357Y-68897500D01*
X114247458Y-68723489D01*
X114271539Y-68699408D01*
X114208086Y-69455056D01*
X113943118Y-70793242D01*
X113530635Y-72093552D01*
X112975779Y-73339780D01*
X112285465Y-74516391D01*
X112150848Y-74696337D01*
X112100370Y-74653981D01*
X112086620Y-74646436D01*
X112050723Y-74616315D01*
X111987874Y-74573321D01*
X111878738Y-74513446D01*
X111808701Y-74483537D01*
X111689980Y-74446105D01*
X111615462Y-74430435D01*
X111565368Y-74424948D01*
X111545667Y-74325905D01*
X111538141Y-74288069D01*
X111426306Y-74120694D01*
X111384056Y-74092464D01*
X109562039Y-72270447D01*
X109533806Y-72228194D01*
X109366431Y-72116359D01*
X109218835Y-72087000D01*
X109218834Y-72087000D01*
X109169000Y-72077087D01*
X109119166Y-72087000D01*
X105649500Y-72087000D01*
X105649500Y-69815591D01*
X106331092Y-69134000D01*
X106431959Y-69134000D01*
X106682256Y-69030324D01*
X106753580Y-68959000D01*
X106820666Y-68959000D01*
X106870500Y-68968913D01*
X106920334Y-68959000D01*
X106920335Y-68959000D01*
X107067931Y-68929641D01*
X107235306Y-68817806D01*
X107263539Y-68775552D01*
X107264535Y-68774556D01*
X109620092Y-66419000D01*
X109784930Y-66419000D01*
X109834764Y-66428913D01*
X109884598Y-66419000D01*
X109884599Y-66419000D01*
X110032195Y-66389641D01*
X110199570Y-66277806D01*
X110227802Y-66235553D01*
X111447556Y-65015800D01*
X111489806Y-64987570D01*
X111601641Y-64820195D01*
X111631000Y-64672599D01*
X111631000Y-64672598D01*
X111635226Y-64651354D01*
X111702324Y-64584256D01*
X111806000Y-64333959D01*
X111806000Y-64063041D01*
X111702324Y-63812744D01*
X111510756Y-63621176D01*
X111260459Y-63517500D01*
X110989541Y-63517500D01*
X110739244Y-63621176D01*
X110547676Y-63812744D01*
X110444000Y-64063041D01*
X110444000Y-64333959D01*
X110518457Y-64513715D01*
X109625173Y-65407000D01*
X109460333Y-65407000D01*
X109410499Y-65397087D01*
X109360665Y-65407000D01*
X108479535Y-65407000D01*
X108570011Y-65188570D01*
X108570011Y-64980256D01*
X108583000Y-64914957D01*
X108583000Y-64914956D01*
X108592913Y-64865122D01*
X108583000Y-64815287D01*
X108583000Y-61887304D01*
X108592913Y-61837470D01*
X108582486Y-61785050D01*
X108553641Y-61640040D01*
X108441806Y-61472665D01*
X108399555Y-61444434D01*
X107038569Y-60083448D01*
X107010336Y-60041195D01*
X106842961Y-59929360D01*
X106695365Y-59900001D01*
X106695364Y-59900001D01*
X106645530Y-59890088D01*
X106595696Y-59900001D01*
X104235834Y-59900001D01*
X104185999Y-59890088D01*
X103988567Y-59929360D01*
X103950464Y-59954820D01*
X103890346Y-59994989D01*
X103765931Y-59911859D01*
X103618335Y-59882500D01*
X103618334Y-59882500D01*
X103568500Y-59872587D01*
X103518666Y-59882500D01*
X100200335Y-59882500D01*
X100150500Y-59872587D01*
X99953068Y-59911859D01*
X99926875Y-59929361D01*
X99785694Y-60023694D01*
X99784821Y-60025000D01*
X99697541Y-60025000D01*
X99447244Y-60128676D01*
X99255676Y-60320244D01*
X99152000Y-60570541D01*
X99152000Y-60598500D01*
X99077568Y-60598500D01*
X98818083Y-60705982D01*
X98788784Y-60735281D01*
X98788002Y-60732822D01*
X98500763Y-60392132D01*
X98089874Y-60190381D01*
X97915000Y-60316546D01*
X97915000Y-61707500D01*
X97935000Y-61707500D01*
X97935000Y-61961500D01*
X97915000Y-61961500D01*
X97915000Y-61981500D01*
X97661000Y-61981500D01*
X97661000Y-61961500D01*
X96653000Y-61961500D01*
X96653000Y-62511500D01*
X96787998Y-62936178D01*
X97075237Y-63276868D01*
X97394687Y-63433722D01*
X97022945Y-63805463D01*
X96980695Y-63833694D01*
X96914035Y-63933459D01*
X96868860Y-64001069D01*
X96829587Y-64198500D01*
X96839501Y-64248338D01*
X96839500Y-64698619D01*
X95677000Y-63536119D01*
X95677000Y-63364541D01*
X95573324Y-63114244D01*
X95381756Y-62922676D01*
X95131459Y-62819000D01*
X94860541Y-62819000D01*
X94610244Y-62922676D01*
X94418676Y-63114244D01*
X94315000Y-63364541D01*
X94315000Y-63635459D01*
X94418676Y-63885756D01*
X94610244Y-64077324D01*
X94860541Y-64181000D01*
X95032119Y-64181000D01*
X97325805Y-66474686D01*
X97351244Y-66512758D01*
X97502079Y-66613543D01*
X97635092Y-66640001D01*
X97635096Y-66640001D01*
X97680001Y-66648933D01*
X97724906Y-66640001D01*
X98314597Y-66640001D01*
X98359501Y-66648933D01*
X98404405Y-66640001D01*
X98404410Y-66640001D01*
X98537423Y-66613543D01*
X98688258Y-66512758D01*
X98713697Y-66474687D01*
X98969688Y-66218696D01*
X99007757Y-66193259D01*
X99033194Y-66155190D01*
X99033196Y-66155188D01*
X99108542Y-66042425D01*
X99115771Y-66006079D01*
X99135000Y-65909411D01*
X99135000Y-65909408D01*
X99143932Y-65864502D01*
X99135000Y-65819597D01*
X99135000Y-64831881D01*
X100111371Y-63855511D01*
X100490022Y-63855511D01*
X100490022Y-64006514D01*
X100586086Y-64238433D01*
X100665023Y-64317370D01*
X100665022Y-64694098D01*
X98124121Y-67235000D01*
X95884080Y-67235000D01*
X95762756Y-67113676D01*
X95512459Y-67010000D01*
X95241541Y-67010000D01*
X94991244Y-67113676D01*
X94799676Y-67305244D01*
X94696000Y-67555541D01*
X94696000Y-67826459D01*
X94799676Y-68076756D01*
X94991244Y-68268324D01*
X95241541Y-68372000D01*
X95512459Y-68372000D01*
X95762756Y-68268324D01*
X95884080Y-68147000D01*
X98268098Y-68147000D01*
X98313002Y-68155932D01*
X98357906Y-68147000D01*
X98357911Y-68147000D01*
X98490924Y-68120542D01*
X98641759Y-68019757D01*
X98667198Y-67981685D01*
X101411711Y-65237173D01*
X101449779Y-65211737D01*
X101475216Y-65173668D01*
X101475218Y-65173666D01*
X101549461Y-65062553D01*
X101550564Y-65060902D01*
X101577022Y-64927889D01*
X101577022Y-64927884D01*
X101585954Y-64882980D01*
X101577022Y-64838076D01*
X101577022Y-64449222D01*
X101728486Y-64511960D01*
X101840119Y-64511960D01*
X102228847Y-64900689D01*
X102254284Y-64938758D01*
X102292353Y-64964195D01*
X102292355Y-64964197D01*
X102341742Y-64997196D01*
X102405119Y-65039543D01*
X102538132Y-65066001D01*
X102538136Y-65066001D01*
X102583041Y-65074933D01*
X102627946Y-65066001D01*
X103053097Y-65066001D01*
X103098001Y-65074933D01*
X103142905Y-65066001D01*
X103142910Y-65066001D01*
X103275923Y-65039543D01*
X103426758Y-64938758D01*
X103452197Y-64900686D01*
X103635686Y-64717197D01*
X103673758Y-64691758D01*
X103723629Y-64617121D01*
X103774543Y-64540924D01*
X103788909Y-64468701D01*
X103799989Y-64412999D01*
X104296910Y-64412999D01*
X105882665Y-65998755D01*
X105789420Y-66092000D01*
X105518405Y-66092000D01*
X105473500Y-66083068D01*
X105428594Y-66092000D01*
X105428591Y-66092000D01*
X105325625Y-66112481D01*
X105295577Y-66118458D01*
X105182814Y-66193804D01*
X105182812Y-66193806D01*
X105144743Y-66219243D01*
X105119306Y-66257312D01*
X103277815Y-68098804D01*
X103239743Y-68124243D01*
X103138958Y-68275079D01*
X103112500Y-68408092D01*
X103112500Y-68408096D01*
X103103568Y-68453000D01*
X103112500Y-68497904D01*
X103112501Y-71288411D01*
X103065266Y-71241176D01*
X102814969Y-71137500D01*
X102544051Y-71137500D01*
X102293754Y-71241176D01*
X102172430Y-71362500D01*
X100120905Y-71362500D01*
X100076000Y-71353568D01*
X100031094Y-71362500D01*
X100031091Y-71362500D01*
X99928125Y-71382981D01*
X99898077Y-71388958D01*
X99799238Y-71455000D01*
X99623041Y-71455000D01*
X99372744Y-71558676D01*
X99181176Y-71750244D01*
X99077500Y-72000541D01*
X99077500Y-72271459D01*
X99181176Y-72521756D01*
X99372744Y-72713324D01*
X99623041Y-72817000D01*
X99893959Y-72817000D01*
X100144256Y-72713324D01*
X100335824Y-72521756D01*
X100438240Y-72274500D01*
X101253158Y-72274500D01*
X101204051Y-72393055D01*
X101204051Y-72564633D01*
X99387312Y-74381372D01*
X99349243Y-74406809D01*
X99323806Y-74444878D01*
X99323803Y-74444881D01*
X99248458Y-74557644D01*
X99213067Y-74735566D01*
X99222000Y-74780475D01*
X99221999Y-76729831D01*
X99213067Y-76774735D01*
X99221999Y-76819639D01*
X99221999Y-76819643D01*
X99248457Y-76952656D01*
X99248458Y-76952657D01*
X99317198Y-77055534D01*
X99349242Y-77103492D01*
X99387314Y-77128931D01*
X99490168Y-77231785D01*
X99395000Y-77461541D01*
X99395000Y-77732459D01*
X99498676Y-77982756D01*
X99690244Y-78174324D01*
X99940541Y-78278000D01*
X100211459Y-78278000D01*
X100461756Y-78174324D01*
X100653324Y-77982756D01*
X100757000Y-77732459D01*
X100757000Y-77461541D01*
X100653324Y-77211244D01*
X100522588Y-77080508D01*
X100505542Y-76994814D01*
X100404757Y-76843979D01*
X100366685Y-76818540D01*
X100133999Y-76585854D01*
X100133999Y-75928500D01*
X100220500Y-75928500D01*
X100220500Y-75954459D01*
X100324176Y-76204756D01*
X100515744Y-76396324D01*
X100766041Y-76500000D01*
X100937619Y-76500000D01*
X101398000Y-76960381D01*
X101398000Y-77089920D01*
X101276676Y-77211244D01*
X101173000Y-77461541D01*
X101173000Y-77732459D01*
X101276676Y-77982756D01*
X101468244Y-78174324D01*
X101718541Y-78278000D01*
X101989459Y-78278000D01*
X102239756Y-78174324D01*
X102362000Y-78052080D01*
X102484244Y-78174324D01*
X102734541Y-78278000D01*
X103005459Y-78278000D01*
X103255756Y-78174324D01*
X103447324Y-77982756D01*
X103551000Y-77732459D01*
X103551000Y-77461541D01*
X103447324Y-77211244D01*
X103326000Y-77089920D01*
X103326000Y-76943405D01*
X103334932Y-76898500D01*
X103326000Y-76853595D01*
X103326000Y-76853591D01*
X103299542Y-76720578D01*
X103198757Y-76569743D01*
X103160685Y-76544304D01*
X101573196Y-74956815D01*
X101547757Y-74918743D01*
X101396922Y-74817958D01*
X101263909Y-74791500D01*
X101263904Y-74791500D01*
X101219000Y-74782568D01*
X101174096Y-74791500D01*
X100710080Y-74791500D01*
X100588756Y-74670176D01*
X100446991Y-74611455D01*
X101848932Y-73209514D01*
X102020510Y-73209514D01*
X102205342Y-73132955D01*
X102211381Y-73138994D01*
X102211382Y-74745928D01*
X102202449Y-74790837D01*
X102237840Y-74968759D01*
X102313185Y-75081522D01*
X102313188Y-75081525D01*
X102338625Y-75119594D01*
X102376694Y-75145031D01*
X104729000Y-77497337D01*
X104729000Y-77668915D01*
X104832676Y-77919212D01*
X105024244Y-78110780D01*
X105274541Y-78214456D01*
X105545459Y-78214456D01*
X105795756Y-78110780D01*
X105987324Y-77919212D01*
X106091000Y-77668915D01*
X106091000Y-77397997D01*
X105987324Y-77147700D01*
X105795756Y-76956132D01*
X105545459Y-76852456D01*
X105373881Y-76852456D01*
X103123381Y-74601956D01*
X103123381Y-73352461D01*
X103182744Y-73411824D01*
X103433041Y-73515500D01*
X103703959Y-73515500D01*
X103954256Y-73411824D01*
X104145824Y-73220256D01*
X104249500Y-72969959D01*
X104249500Y-72699041D01*
X104145824Y-72448744D01*
X104024500Y-72327420D01*
X104024500Y-68641881D01*
X105662382Y-67004000D01*
X105789420Y-67004000D01*
X105910744Y-67125324D01*
X106161041Y-67229000D01*
X106431959Y-67229000D01*
X106682256Y-67125324D01*
X106873824Y-66933756D01*
X106977500Y-66683459D01*
X106977500Y-66419000D01*
X108188908Y-66419000D01*
X106707244Y-67900664D01*
X106682256Y-67875676D01*
X106431959Y-67772000D01*
X106161041Y-67772000D01*
X105910744Y-67875676D01*
X105719176Y-68067244D01*
X105615500Y-68317541D01*
X105615500Y-68418408D01*
X104820945Y-69212964D01*
X104778695Y-69241194D01*
X104722160Y-69325806D01*
X104666860Y-69408569D01*
X104627587Y-69606000D01*
X104637501Y-69655839D01*
X104637500Y-72135920D01*
X104566176Y-72207244D01*
X104462500Y-72457541D01*
X104462500Y-72728459D01*
X104566176Y-72978756D01*
X104757744Y-73170324D01*
X105008041Y-73274000D01*
X105278959Y-73274000D01*
X105529256Y-73170324D01*
X105600580Y-73099000D01*
X108959409Y-73099000D01*
X110555500Y-74695092D01*
X110555501Y-74933310D01*
X110517946Y-75001762D01*
X110488037Y-75071799D01*
X110450605Y-75190520D01*
X110434935Y-75265038D01*
X110421382Y-75388779D01*
X110420551Y-75464932D01*
X110431259Y-75587317D01*
X110395227Y-75578166D01*
X110294837Y-75562939D01*
X110170526Y-75556424D01*
X110069097Y-75561074D01*
X109945903Y-75578936D01*
X109847327Y-75603285D01*
X109729986Y-75644838D01*
X109638058Y-75687950D01*
X109531077Y-75751597D01*
X109449323Y-75811816D01*
X109356815Y-75895111D01*
X109288385Y-75970117D01*
X109213904Y-76069858D01*
X109161415Y-76156784D01*
X109107825Y-76269140D01*
X109073308Y-76364622D01*
X109042666Y-76485273D01*
X109027439Y-76585663D01*
X109020924Y-76709974D01*
X109025574Y-76811403D01*
X109043436Y-76934597D01*
X109067785Y-77033173D01*
X109109338Y-77150514D01*
X109152450Y-77242442D01*
X109216097Y-77349423D01*
X109276318Y-77431179D01*
X109307675Y-77466004D01*
X109315690Y-77479476D01*
X109388050Y-77559840D01*
X108364652Y-78250131D01*
X107155723Y-78882144D01*
X106702565Y-79057913D01*
X106680844Y-78986868D01*
X106673424Y-78973056D01*
X106659723Y-78928243D01*
X106630426Y-78857949D01*
X106571506Y-78748294D01*
X106529060Y-78685068D01*
X106449880Y-78589015D01*
X106395918Y-78535287D01*
X106299521Y-78456526D01*
X106236108Y-78414355D01*
X106126197Y-78355914D01*
X106055774Y-78326924D01*
X105936573Y-78291050D01*
X105861856Y-78276357D01*
X105737948Y-78264426D01*
X105661798Y-78264592D01*
X105537942Y-78277063D01*
X105463283Y-78292083D01*
X105344241Y-78328478D01*
X105273949Y-78357774D01*
X105164294Y-78416694D01*
X105101068Y-78459140D01*
X105005015Y-78538320D01*
X104951287Y-78592282D01*
X104872526Y-78688679D01*
X104830355Y-78752092D01*
X104771914Y-78862003D01*
X104742924Y-78932426D01*
X104735261Y-78957888D01*
X104720060Y-78941443D01*
X104663135Y-78890859D01*
X104562427Y-78817690D01*
X104496725Y-78779181D01*
X104383677Y-78727066D01*
X104311728Y-78702117D01*
X104190686Y-78673058D01*
X104115254Y-78662624D01*
X103990868Y-78657737D01*
X103914848Y-78662221D01*
X103791899Y-78681694D01*
X103718215Y-78700921D01*
X103601427Y-78744006D01*
X103532909Y-78777239D01*
X103426771Y-78842280D01*
X103366053Y-78888242D01*
X103274643Y-78972740D01*
X103224059Y-79029665D01*
X103150890Y-79130373D01*
X103112381Y-79196075D01*
X103107082Y-79207569D01*
X103101437Y-79199432D01*
X103052107Y-79141418D01*
X102962562Y-79054945D01*
X102902860Y-79007668D01*
X102798166Y-78940327D01*
X102730389Y-78905607D01*
X102614569Y-78859985D01*
X102541324Y-78839155D01*
X102418829Y-78817004D01*
X102342922Y-78810863D01*
X102218459Y-78813036D01*
X102142818Y-78821822D01*
X102021170Y-78848234D01*
X101948695Y-78871607D01*
X101834538Y-78921243D01*
X101768012Y-78958309D01*
X101665732Y-79029263D01*
X101607718Y-79078593D01*
X101521245Y-79168138D01*
X101473968Y-79227840D01*
X101466959Y-79238736D01*
X101463338Y-79231228D01*
X101423690Y-79166211D01*
X101348775Y-79066796D01*
X101297206Y-79010764D01*
X101204336Y-78927874D01*
X101142824Y-78882978D01*
X101035567Y-78819799D01*
X100966481Y-78787767D01*
X100848959Y-78746726D01*
X100774947Y-78728786D01*
X100651676Y-78711462D01*
X100575592Y-78708307D01*
X100451310Y-78715364D01*
X100376070Y-78727112D01*
X100255554Y-78758279D01*
X100184049Y-78784481D01*
X100071928Y-78838562D01*
X100006911Y-78878210D01*
X99907496Y-78953125D01*
X99851464Y-79004694D01*
X99826555Y-79032602D01*
X99815748Y-79000765D01*
X99784319Y-78931400D01*
X99722078Y-78823595D01*
X99677720Y-78761693D01*
X99595643Y-78668103D01*
X99540062Y-78616046D01*
X99441304Y-78540267D01*
X99376637Y-78500055D01*
X99264993Y-78444998D01*
X99193719Y-78418172D01*
X99073478Y-78385954D01*
X98998346Y-78373550D01*
X98955642Y-78370751D01*
X98875324Y-78176846D01*
X98690500Y-77992022D01*
X98690500Y-72706580D01*
X98811824Y-72585256D01*
X98915500Y-72334959D01*
X98915500Y-72064041D01*
X98811824Y-71813744D01*
X98620256Y-71622176D01*
X98369959Y-71518500D01*
X98099041Y-71518500D01*
X97848744Y-71622176D01*
X97657176Y-71813744D01*
X97553500Y-72064041D01*
X97553500Y-72334959D01*
X97657176Y-72585256D01*
X97778500Y-72706580D01*
X97778501Y-78119021D01*
X97720676Y-78176846D01*
X97617000Y-78427143D01*
X97617000Y-78698061D01*
X97720676Y-78948358D01*
X97885605Y-79113287D01*
X97880910Y-79122808D01*
X97857582Y-79209868D01*
X97848798Y-79207149D01*
X96598727Y-78661006D01*
X95417325Y-77978923D01*
X94319316Y-77169401D01*
X93318387Y-76242531D01*
X92427013Y-75209864D01*
X91656304Y-74084272D01*
X91015867Y-72879785D01*
X90513684Y-71611416D01*
X90156014Y-70294973D01*
X89947316Y-68946865D01*
X89937316Y-68708263D01*
X89952542Y-68723489D01*
X90372643Y-68897500D01*
X90827357Y-68897500D01*
X91247458Y-68723489D01*
X91568989Y-68401958D01*
X91743000Y-67981857D01*
X91743000Y-67527143D01*
X91568989Y-67107042D01*
X91247458Y-66785511D01*
X90827357Y-66611500D01*
X90372643Y-66611500D01*
X89952542Y-66785511D01*
X89945529Y-66792524D01*
X89985350Y-66223053D01*
X90194443Y-65083801D01*
X90258218Y-65104523D01*
X90273788Y-65106366D01*
X90318363Y-65120849D01*
X90417532Y-65142607D01*
X90541151Y-65157239D01*
X90642672Y-65159233D01*
X90766770Y-65149466D01*
X90866723Y-65131617D01*
X90986531Y-65097828D01*
X91081086Y-65060820D01*
X91192000Y-65004306D01*
X91277515Y-64949563D01*
X91375272Y-64872497D01*
X91448461Y-64802128D01*
X91529306Y-64707472D01*
X91587367Y-64624167D01*
X91648191Y-64515557D01*
X91688881Y-64422531D01*
X91727348Y-64304141D01*
X91749107Y-64204968D01*
X91763739Y-64081349D01*
X91765733Y-63979828D01*
X91755966Y-63855730D01*
X91738117Y-63755777D01*
X91704328Y-63635969D01*
X91667320Y-63541414D01*
X91610806Y-63430500D01*
X91556063Y-63344985D01*
X91478997Y-63247228D01*
X91408628Y-63174039D01*
X91313972Y-63093194D01*
X91230667Y-63035133D01*
X91122057Y-62974309D01*
X91029035Y-62933620D01*
X90984457Y-62919136D01*
X90970782Y-62911477D01*
X90917812Y-62894266D01*
X91163298Y-62321503D01*
X91824543Y-61157500D01*
X96653000Y-61157500D01*
X96653000Y-61707500D01*
X97661000Y-61707500D01*
X97661000Y-60316546D01*
X97486126Y-60190381D01*
X97075237Y-60392132D01*
X96787998Y-60732822D01*
X96653000Y-61157500D01*
X91824543Y-61157500D01*
X91837117Y-61135367D01*
X92630240Y-60043726D01*
X92697542Y-60108719D01*
X92710725Y-60117197D01*
X92744442Y-60149757D01*
X92804139Y-60197030D01*
X92908833Y-60264372D01*
X92976609Y-60299092D01*
X93092428Y-60344715D01*
X93165676Y-60365546D01*
X93288171Y-60387697D01*
X93364078Y-60393838D01*
X93488541Y-60391665D01*
X93564182Y-60382879D01*
X93685830Y-60356467D01*
X93758308Y-60333093D01*
X93872465Y-60283456D01*
X93938990Y-60246390D01*
X94041270Y-60175435D01*
X94099284Y-60126105D01*
X94185756Y-60036560D01*
X94233030Y-59976861D01*
X94300372Y-59872167D01*
X94335092Y-59804391D01*
X94380715Y-59688572D01*
X94401546Y-59615324D01*
X94423697Y-59492829D01*
X94429838Y-59416922D01*
X94427665Y-59292459D01*
X94418879Y-59216818D01*
X94392467Y-59095170D01*
X94369093Y-59022692D01*
X94319456Y-58908535D01*
X94282390Y-58842010D01*
X94211435Y-58739730D01*
X94162106Y-58681718D01*
X94128395Y-58649163D01*
X94119458Y-58636281D01*
X94063661Y-58582398D01*
X94585232Y-58125797D01*
X95271887Y-57648559D01*
X95316154Y-57725232D01*
X95326488Y-57737015D01*
X95349925Y-57777608D01*
X95394279Y-57839503D01*
X95476355Y-57933094D01*
X95531938Y-57985154D01*
X95630696Y-58060933D01*
X95695361Y-58101144D01*
X95807005Y-58156202D01*
X95878280Y-58183029D01*
X95998520Y-58215247D01*
X96073656Y-58227651D01*
X96197872Y-58235792D01*
X96273982Y-58233301D01*
X96397398Y-58217053D01*
X96471562Y-58199760D01*
X96589438Y-58159746D01*
X96658802Y-58128317D01*
X96666474Y-58123887D01*
X96787998Y-58506178D01*
X97075237Y-58846868D01*
X97486126Y-59048619D01*
X97661000Y-58922454D01*
X97661000Y-57781500D01*
X97915000Y-57781500D01*
X97915000Y-58922454D01*
X98089874Y-59048619D01*
X98500763Y-58846868D01*
X98788002Y-58506178D01*
X98923000Y-58081500D01*
X98923000Y-57781500D01*
X105293000Y-57781500D01*
X105293000Y-58081500D01*
X105427998Y-58506178D01*
X105715237Y-58846868D01*
X106126126Y-59048619D01*
X106301000Y-58922454D01*
X106301000Y-57781500D01*
X105293000Y-57781500D01*
X98923000Y-57781500D01*
X97915000Y-57781500D01*
X97661000Y-57781500D01*
X97641000Y-57781500D01*
X97641000Y-57527500D01*
X97661000Y-57527500D01*
X97661000Y-57507500D01*
X97915000Y-57507500D01*
X97915000Y-57527500D01*
X98923000Y-57527500D01*
X98923000Y-57227500D01*
X98788002Y-56802822D01*
X98500763Y-56462132D01*
X98089874Y-56260381D01*
X97915002Y-56386545D01*
X97915002Y-56290514D01*
X98170235Y-56187393D01*
X99484149Y-55820541D01*
X100830767Y-55602437D01*
X102193304Y-55535798D01*
X103554778Y-55621454D01*
G36*
X106555000Y-61707500D02*
X106575000Y-61707500D01*
X106575000Y-61961500D01*
X106555000Y-61961500D01*
X106555000Y-61981500D01*
X106301000Y-61981500D01*
X106301000Y-61961500D01*
X106281000Y-61961500D01*
X106281000Y-61707500D01*
X106301000Y-61707500D01*
X106301000Y-61687500D01*
X106555000Y-61687500D01*
X106555000Y-61707500D01*
X106555000Y-61707500D01*
G37*
X106555000Y-61707500D02*
X106575000Y-61707500D01*
X106575000Y-61961500D01*
X106555000Y-61961500D01*
X106555000Y-61981500D01*
X106301000Y-61981500D01*
X106301000Y-61961500D01*
X106281000Y-61961500D01*
X106281000Y-61707500D01*
X106301000Y-61707500D01*
X106301000Y-61687500D01*
X106555000Y-61687500D01*
X106555000Y-61707500D01*
M02*
