M48
;DRILL file {KiCad (5.0.1)-4} date 07/05/2019 7:57:21
;FORMAT={-:-/ absolute / inch / decimal}
FMAT,2
INCH,TZ
T1C0.0079
T2C0.0118
T3C0.0138
T4C0.0236
T5C0.0300
%
G90
G05
M72
T1
X5.9886Y-3.655
X6.0175Y-3.655
X6.05Y-3.655
T2
X5.565Y-3.7375
X5.635Y-3.84
X5.6428Y-4.0625
X5.6575Y-3.5225
X5.6775Y-3.5525
X5.6975Y-3.6475
X5.7475Y-3.64
X5.7475Y-4.0275
X5.76Y-4.0025
X5.7625Y-3.805
X5.765Y-3.705
X5.765Y-3.735
X5.7975Y-4.0025
X5.8275Y-3.83
X5.871Y-3.6685
X5.875Y-3.9825
X5.8775Y-4.233
X5.9043Y-3.9858
X5.935Y-3.7175
X5.935Y-3.9025
X5.935Y-3.98
X5.9475Y-4.195
X5.9575Y-4.0933
X5.985Y-4.1111
X5.995Y-3.345
X6.0175Y-4.1975
X6.025Y-4.08
X6.0275Y-3.345
X6.0275Y-3.7175
X6.0275Y-3.81
X6.03Y-3.9025
X6.0373Y-3.9702
X6.0496Y-3.997
X6.0575Y-4.195
X6.06Y-3.345
X6.085Y-4.0075
X6.12Y-3.7175
X6.12Y-3.9025
X6.12Y-4.1225
X6.147Y-3.998
X6.165Y-4.21
X6.1924Y-3.76
X6.1924Y-3.835
X6.205Y-4.115
X6.235Y-4.115
X6.265Y-4.115
X6.3825Y-3.6675
X6.4075Y-3.8575
X6.4625Y-3.965
X6.4725Y-3.9425
T3
X5.87Y-3.725
X5.9379Y-3.53
X6.0975Y-3.53
X6.1875Y-3.685
X6.22Y-3.6622
X6.3175Y-3.795
X6.365Y-3.595
X6.39Y-3.5125
X6.4175Y-3.5375
T5
X5.5744Y-3.8075
X6.4799Y-3.8075
T4
X5.8574Y-3.4217G85X5.8574Y-3.3981
G05
X5.8574Y-3.5961G85X5.8574Y-3.5528
G05
X6.1976Y-3.4217G85X6.1976Y-3.3981
G05
X6.1976Y-3.5961G85X6.1976Y-3.5528
G05
T0
M30
