%TF.GenerationSoftware,KiCad,Pcbnew,(5.0.1)-4*%
%TF.CreationDate,2019-05-08T05:57:42+02:00*%
%TF.ProjectId,ESPesh,4553506573682E6B696361645F706362,rev?*%
%TF.SameCoordinates,Original*%
%TF.FileFunction,Soldermask,Bot*%
%TF.FilePolarity,Negative*%
%FSLAX46Y46*%
G04 Gerber Fmt 4.6, Leading zero omitted, Abs format (unit mm)*
G04 Created by KiCad (PCBNEW (5.0.1)-4) date 08/05/2019 5:57:42*
%MOMM*%
%LPD*%
G01*
G04 APERTURE LIST*
%ADD10C,0.100000*%
G04 APERTURE END LIST*
D10*
G36*
X153344315Y-108104434D02*
X153349322Y-108104839D01*
X153349324Y-108104839D01*
X153355474Y-108105337D01*
X153465879Y-108125302D01*
X153471814Y-108126989D01*
X153471817Y-108126990D01*
X153476727Y-108128386D01*
X153487425Y-108131428D01*
X153591809Y-108172546D01*
X153611731Y-108182752D01*
X153706098Y-108243450D01*
X153723644Y-108257345D01*
X153804361Y-108335293D01*
X153808356Y-108339991D01*
X153809166Y-108340943D01*
X153818862Y-108352346D01*
X153882815Y-108444534D01*
X153893709Y-108464086D01*
X153938451Y-108566989D01*
X153945320Y-108588288D01*
X153969128Y-108697940D01*
X153971710Y-108720172D01*
X153972147Y-108745202D01*
X153972962Y-108757436D01*
X153975854Y-108782348D01*
X153986723Y-109404979D01*
X153985416Y-109421139D01*
X153982667Y-109430803D01*
X153978087Y-109439745D01*
X153971851Y-109447620D01*
X153965041Y-109453410D01*
X153964197Y-109454128D01*
X153955421Y-109459018D01*
X153946297Y-109461960D01*
X153945857Y-109462102D01*
X153929754Y-109463972D01*
X152672221Y-109485923D01*
X152656062Y-109484616D01*
X152646396Y-109481867D01*
X152637458Y-109477288D01*
X152637456Y-109477287D01*
X152633518Y-109474169D01*
X152629578Y-109471049D01*
X152623072Y-109463397D01*
X152620632Y-109459018D01*
X152618182Y-109454621D01*
X152615099Y-109445059D01*
X152615098Y-109445057D01*
X152613228Y-109428953D01*
X152602360Y-108806323D01*
X152604380Y-108781348D01*
X152604768Y-108769091D01*
X152604331Y-108744045D01*
X152606137Y-108721726D01*
X152626102Y-108611321D01*
X152632228Y-108589775D01*
X152673346Y-108485391D01*
X152683552Y-108465469D01*
X152744250Y-108371102D01*
X152758145Y-108353556D01*
X152836093Y-108272839D01*
X152853146Y-108258338D01*
X152945334Y-108194385D01*
X152964886Y-108183491D01*
X153067789Y-108138749D01*
X153073656Y-108136857D01*
X153073658Y-108136856D01*
X153078439Y-108135314D01*
X153089088Y-108131880D01*
X153198740Y-108108072D01*
X153220972Y-108105490D01*
X153333156Y-108103531D01*
X153344315Y-108104434D01*
X153344315Y-108104434D01*
G37*
G36*
X151601410Y-108001653D02*
X151712529Y-108017270D01*
X151734273Y-108022540D01*
X151840210Y-108059535D01*
X151860510Y-108068947D01*
X151957187Y-108125895D01*
X151962167Y-108129530D01*
X151962174Y-108129534D01*
X151970289Y-108135457D01*
X151970297Y-108135464D01*
X151975277Y-108139099D01*
X152058979Y-108213805D01*
X152074143Y-108230281D01*
X152141660Y-108319880D01*
X152144873Y-108325148D01*
X152144877Y-108325154D01*
X152149322Y-108332444D01*
X152153321Y-108339002D01*
X152202066Y-108440059D01*
X152209766Y-108461073D01*
X152237861Y-108569712D01*
X152241314Y-108591822D01*
X152247675Y-108703839D01*
X152246747Y-108726210D01*
X152243263Y-108750998D01*
X152242155Y-108763205D01*
X152241114Y-108788260D01*
X152154446Y-109404935D01*
X152151357Y-109417680D01*
X152150627Y-109420691D01*
X152146796Y-109428953D01*
X152146401Y-109429805D01*
X152140477Y-109437922D01*
X152133091Y-109444719D01*
X152133089Y-109444720D01*
X152133086Y-109444723D01*
X152124509Y-109449953D01*
X152124505Y-109449955D01*
X152124504Y-109449955D01*
X152115076Y-109453410D01*
X152105154Y-109454960D01*
X152105150Y-109454960D01*
X152103012Y-109454871D01*
X152088949Y-109454288D01*
X150843465Y-109279246D01*
X150830720Y-109276157D01*
X150827709Y-109275427D01*
X150818595Y-109271201D01*
X150810478Y-109265277D01*
X150803681Y-109257891D01*
X150803680Y-109257889D01*
X150803677Y-109257886D01*
X150798447Y-109249309D01*
X150794990Y-109239876D01*
X150793440Y-109229954D01*
X150794112Y-109213749D01*
X150880780Y-108597079D01*
X150886679Y-108572741D01*
X150888980Y-108560694D01*
X150892468Y-108535879D01*
X150897740Y-108514127D01*
X150934735Y-108408190D01*
X150944147Y-108387890D01*
X151001095Y-108291213D01*
X151004730Y-108286233D01*
X151004734Y-108286226D01*
X151010657Y-108278111D01*
X151010664Y-108278103D01*
X151014299Y-108273123D01*
X151089005Y-108189421D01*
X151105481Y-108174257D01*
X151195080Y-108106740D01*
X151200348Y-108103527D01*
X151200354Y-108103523D01*
X151208931Y-108098293D01*
X151208934Y-108098292D01*
X151214202Y-108095079D01*
X151315259Y-108046334D01*
X151336273Y-108038634D01*
X151444912Y-108010539D01*
X151467022Y-108007086D01*
X151579039Y-108000725D01*
X151601410Y-108001653D01*
X151601410Y-108001653D01*
G37*
G36*
X155086407Y-107954736D02*
X155108581Y-107957803D01*
X155217670Y-107983993D01*
X155223506Y-107986016D01*
X155223508Y-107986017D01*
X155233000Y-107989308D01*
X155233004Y-107989310D01*
X155238833Y-107991331D01*
X155340723Y-108038302D01*
X155346047Y-108041422D01*
X155346048Y-108041423D01*
X155354427Y-108046334D01*
X155360041Y-108049625D01*
X155450815Y-108115577D01*
X155467538Y-108130437D01*
X155543709Y-108212838D01*
X155557219Y-108230686D01*
X155615842Y-108326352D01*
X155625613Y-108346495D01*
X155664446Y-108451758D01*
X155666004Y-108457727D01*
X155666005Y-108457731D01*
X155666877Y-108461073D01*
X155670098Y-108473418D01*
X155674016Y-108498152D01*
X155676526Y-108510151D01*
X155682856Y-108534413D01*
X155780272Y-109149470D01*
X155781226Y-109165658D01*
X155779850Y-109175606D01*
X155779849Y-109175609D01*
X155776558Y-109185101D01*
X155771478Y-109193768D01*
X155764805Y-109201278D01*
X155758360Y-109206156D01*
X155756793Y-109207342D01*
X155747757Y-109211725D01*
X155732061Y-109215821D01*
X154489830Y-109412572D01*
X154473642Y-109413526D01*
X154463694Y-109412150D01*
X154463691Y-109412149D01*
X154454199Y-109408858D01*
X154454197Y-109408857D01*
X154445533Y-109403779D01*
X154444696Y-109403035D01*
X154438022Y-109397105D01*
X154431959Y-109389094D01*
X154431958Y-109389093D01*
X154427575Y-109380057D01*
X154423479Y-109364361D01*
X154326064Y-108749312D01*
X154324589Y-108724295D01*
X154323267Y-108712103D01*
X154319349Y-108687361D01*
X154318031Y-108665017D01*
X154322436Y-108552893D01*
X154325503Y-108530719D01*
X154351693Y-108421630D01*
X154359031Y-108400467D01*
X154406002Y-108298577D01*
X154417325Y-108279259D01*
X154483277Y-108188485D01*
X154498137Y-108171762D01*
X154580538Y-108095591D01*
X154598386Y-108082081D01*
X154694052Y-108023458D01*
X154704123Y-108018573D01*
X154708643Y-108016380D01*
X154708644Y-108016379D01*
X154714195Y-108013687D01*
X154819457Y-107974854D01*
X154825429Y-107973296D01*
X154825431Y-107973295D01*
X154835151Y-107970759D01*
X154841126Y-107969200D01*
X154951942Y-107951648D01*
X154974283Y-107950331D01*
X155086407Y-107954736D01*
X155086407Y-107954736D01*
G37*
G36*
X149960695Y-107665039D02*
X149966788Y-107666045D01*
X149966790Y-107666045D01*
X149976702Y-107667681D01*
X149976708Y-107667683D01*
X149982792Y-107668687D01*
X150091171Y-107697726D01*
X150112122Y-107705612D01*
X150212748Y-107755235D01*
X150231762Y-107767059D01*
X150320772Y-107835358D01*
X150337110Y-107850660D01*
X150411098Y-107935027D01*
X150424132Y-107953217D01*
X150480232Y-108050385D01*
X150489477Y-108070787D01*
X150525537Y-108177018D01*
X150530621Y-108198822D01*
X150545267Y-108310071D01*
X150545999Y-108332444D01*
X150538661Y-108444395D01*
X150537655Y-108450488D01*
X150537655Y-108450490D01*
X150536300Y-108458701D01*
X150535012Y-108466499D01*
X150528524Y-108490711D01*
X150525931Y-108502715D01*
X150524501Y-108511383D01*
X150524501Y-108511393D01*
X150522864Y-108521314D01*
X150522859Y-108521333D01*
X150521856Y-108527411D01*
X150360686Y-109128907D01*
X150358514Y-109134677D01*
X150354975Y-109144079D01*
X150349670Y-109152610D01*
X150342803Y-109159943D01*
X150334637Y-109165794D01*
X150330062Y-109167867D01*
X150325485Y-109169941D01*
X150315703Y-109172222D01*
X150305663Y-109172550D01*
X150305661Y-109172550D01*
X150295749Y-109170914D01*
X150295743Y-109170912D01*
X150289659Y-109169908D01*
X149074793Y-108844386D01*
X149059625Y-108838677D01*
X149059621Y-108838675D01*
X149051090Y-108833370D01*
X149043757Y-108826503D01*
X149037906Y-108818337D01*
X149035833Y-108813761D01*
X149033759Y-108809185D01*
X149031478Y-108799403D01*
X149031150Y-108789363D01*
X149031332Y-108788260D01*
X149032786Y-108779449D01*
X149032788Y-108779443D01*
X149033792Y-108773359D01*
X149194962Y-108171862D01*
X149203791Y-108148404D01*
X149207543Y-108136726D01*
X149214026Y-108112530D01*
X149221912Y-108091578D01*
X149271535Y-107990952D01*
X149283359Y-107971938D01*
X149351658Y-107882928D01*
X149366960Y-107866590D01*
X149451327Y-107792602D01*
X149469517Y-107779568D01*
X149566685Y-107723468D01*
X149587087Y-107714223D01*
X149693318Y-107678163D01*
X149715122Y-107673079D01*
X149826371Y-107658433D01*
X149832530Y-107658231D01*
X149832534Y-107658231D01*
X149839444Y-107658005D01*
X149848744Y-107657701D01*
X149960695Y-107665039D01*
X149960695Y-107665039D01*
G37*
G36*
X156813986Y-107566832D02*
X156835944Y-107571150D01*
X156943389Y-107603486D01*
X156964091Y-107612008D01*
X157063156Y-107664682D01*
X157081797Y-107677079D01*
X157168683Y-107748069D01*
X157184546Y-107763863D01*
X157255916Y-107850441D01*
X157268397Y-107869032D01*
X157321502Y-107967866D01*
X157330113Y-107988527D01*
X157337434Y-108012472D01*
X157341589Y-108024005D01*
X157351234Y-108047152D01*
X157533299Y-108642658D01*
X157534516Y-108648708D01*
X157534518Y-108648714D01*
X157536499Y-108658563D01*
X157536521Y-108668609D01*
X157534583Y-108678466D01*
X157531485Y-108685989D01*
X157530757Y-108687759D01*
X157525196Y-108696121D01*
X157518109Y-108703239D01*
X157513936Y-108706040D01*
X157509766Y-108708840D01*
X157509765Y-108708841D01*
X157509764Y-108708841D01*
X157494803Y-108715077D01*
X156292031Y-109082802D01*
X156276140Y-109085999D01*
X156266092Y-109086021D01*
X156266091Y-109086021D01*
X156256234Y-109084083D01*
X156248711Y-109080985D01*
X156246941Y-109080257D01*
X156238579Y-109074696D01*
X156231461Y-109067609D01*
X156225859Y-109059264D01*
X156219623Y-109044302D01*
X156037554Y-108448784D01*
X156032612Y-108424220D01*
X156029606Y-108412328D01*
X156022283Y-108388376D01*
X156021067Y-108382330D01*
X156021065Y-108382325D01*
X156019084Y-108372475D01*
X156017866Y-108366423D01*
X156006627Y-108254793D01*
X156006577Y-108232404D01*
X156017332Y-108120714D01*
X156021650Y-108098756D01*
X156053986Y-107991311D01*
X156062508Y-107970609D01*
X156115182Y-107871544D01*
X156127579Y-107852903D01*
X156198569Y-107766017D01*
X156214363Y-107750154D01*
X156300941Y-107678784D01*
X156319532Y-107666303D01*
X156418365Y-107613198D01*
X156439025Y-107604588D01*
X156546323Y-107571783D01*
X156552373Y-107570566D01*
X156552376Y-107570565D01*
X156562225Y-107568584D01*
X156562224Y-107568584D01*
X156568279Y-107567366D01*
X156679907Y-107556127D01*
X156686079Y-107556113D01*
X156686081Y-107556113D01*
X156690975Y-107556102D01*
X156702296Y-107556077D01*
X156813986Y-107566832D01*
X156813986Y-107566832D01*
G37*
G36*
X161254811Y-104984079D02*
X161260908Y-104985004D01*
X161260911Y-104985004D01*
X161270844Y-104986511D01*
X161270845Y-104986511D01*
X161276941Y-104987436D01*
X161385694Y-105015056D01*
X161406746Y-105022666D01*
X161508017Y-105070969D01*
X161527185Y-105082543D01*
X161617080Y-105149672D01*
X161633619Y-105164761D01*
X161650369Y-105183364D01*
X161659011Y-105192064D01*
X161677542Y-105208972D01*
X162094220Y-105671740D01*
X162103838Y-105684797D01*
X162108103Y-105693891D01*
X162108103Y-105693892D01*
X162110512Y-105703645D01*
X162110972Y-105713681D01*
X162109465Y-105723614D01*
X162106050Y-105733061D01*
X162100857Y-105741661D01*
X162094086Y-105749083D01*
X162094083Y-105749086D01*
X162089920Y-105753649D01*
X161155260Y-106595220D01*
X161142203Y-106604838D01*
X161133109Y-106609103D01*
X161123356Y-106611512D01*
X161113319Y-106611972D01*
X161103386Y-106610465D01*
X161093939Y-106607050D01*
X161085341Y-106601858D01*
X161085339Y-106601857D01*
X161077917Y-106595086D01*
X161077914Y-106595083D01*
X161073351Y-106590920D01*
X160656680Y-106128159D01*
X160641819Y-106107984D01*
X160634066Y-106098473D01*
X160617303Y-106079857D01*
X160604027Y-106061832D01*
X160546659Y-105965405D01*
X160544039Y-105959819D01*
X160539773Y-105950724D01*
X160539770Y-105950715D01*
X160537152Y-105945133D01*
X160499702Y-105839379D01*
X160498222Y-105833390D01*
X160498220Y-105833383D01*
X160495811Y-105823629D01*
X160494329Y-105817630D01*
X160478232Y-105706607D01*
X160477206Y-105684236D01*
X160483079Y-105572189D01*
X160486436Y-105550059D01*
X160514056Y-105441306D01*
X160521666Y-105420254D01*
X160569969Y-105318983D01*
X160581543Y-105299815D01*
X160648672Y-105209920D01*
X160663756Y-105193387D01*
X160747147Y-105118301D01*
X160752109Y-105114646D01*
X160752111Y-105114644D01*
X160760200Y-105108686D01*
X160765167Y-105105027D01*
X160861595Y-105047659D01*
X160867178Y-105045041D01*
X160867181Y-105045039D01*
X160876276Y-105040773D01*
X160876285Y-105040770D01*
X160881867Y-105038152D01*
X160987621Y-105000702D01*
X160993610Y-104999222D01*
X160993617Y-104999220D01*
X161003371Y-104996811D01*
X161009370Y-104995329D01*
X161120393Y-104979232D01*
X161142764Y-104978206D01*
X161254811Y-104984079D01*
X161254811Y-104984079D01*
G37*
G36*
X162435457Y-103707985D02*
X162435460Y-103707985D01*
X162440878Y-103708044D01*
X162451681Y-103708162D01*
X162563207Y-103720377D01*
X162585116Y-103724984D01*
X162692122Y-103758723D01*
X162697796Y-103761146D01*
X162697799Y-103761147D01*
X162698775Y-103761564D01*
X162712722Y-103767520D01*
X162811075Y-103821479D01*
X162816175Y-103824968D01*
X162824466Y-103830639D01*
X162824470Y-103830642D01*
X162829561Y-103834125D01*
X162848730Y-103850209D01*
X162858488Y-103857613D01*
X162879197Y-103871783D01*
X163356236Y-104272066D01*
X163362915Y-104278893D01*
X163367575Y-104283655D01*
X163373065Y-104292069D01*
X163373066Y-104292071D01*
X163376808Y-104301390D01*
X163378660Y-104311263D01*
X163378550Y-104321313D01*
X163376483Y-104331145D01*
X163372539Y-104340381D01*
X163363385Y-104353761D01*
X162554934Y-105317236D01*
X162548107Y-105323915D01*
X162543345Y-105328575D01*
X162535737Y-105333539D01*
X162534929Y-105334066D01*
X162525610Y-105337808D01*
X162515737Y-105339660D01*
X162515734Y-105339660D01*
X162509707Y-105339594D01*
X162505687Y-105339550D01*
X162495855Y-105337483D01*
X162486619Y-105333539D01*
X162473239Y-105324385D01*
X161996203Y-104924104D01*
X161991889Y-104919695D01*
X161984863Y-104912515D01*
X161984861Y-104912512D01*
X161978684Y-104906199D01*
X161969684Y-104897861D01*
X161950493Y-104881759D01*
X161946179Y-104877349D01*
X161946175Y-104877346D01*
X161939149Y-104870165D01*
X161939143Y-104870158D01*
X161934830Y-104865749D01*
X161864607Y-104778254D01*
X161852371Y-104759502D01*
X161800564Y-104659981D01*
X161798264Y-104654253D01*
X161794521Y-104644931D01*
X161794519Y-104644925D01*
X161792220Y-104639198D01*
X161760825Y-104531489D01*
X161756697Y-104509482D01*
X161746918Y-104397718D01*
X161747162Y-104375319D01*
X161759377Y-104263793D01*
X161763984Y-104241884D01*
X161797723Y-104134878D01*
X161806520Y-104114278D01*
X161860479Y-104015925D01*
X161873125Y-103997438D01*
X161945240Y-103911495D01*
X161949647Y-103907183D01*
X161949654Y-103907175D01*
X161956835Y-103900149D01*
X161956844Y-103900142D01*
X161961251Y-103895830D01*
X162048746Y-103825607D01*
X162053913Y-103822236D01*
X162053916Y-103822233D01*
X162062330Y-103816743D01*
X162062332Y-103816742D01*
X162067498Y-103813371D01*
X162167019Y-103761564D01*
X162172744Y-103759265D01*
X162172747Y-103759264D01*
X162182069Y-103755521D01*
X162182075Y-103755519D01*
X162187802Y-103753220D01*
X162295511Y-103721825D01*
X162301575Y-103720687D01*
X162301577Y-103720687D01*
X162311451Y-103718835D01*
X162317518Y-103717697D01*
X162429282Y-103707918D01*
X162435457Y-103707985D01*
X162435457Y-103707985D01*
G37*
G36*
X141827642Y-95928742D02*
X141975602Y-95990030D01*
X142108758Y-96079002D01*
X142221998Y-96192242D01*
X142310970Y-96325398D01*
X142372258Y-96473358D01*
X142403500Y-96630425D01*
X142403500Y-96790575D01*
X142372258Y-96947642D01*
X142310970Y-97095602D01*
X142221998Y-97228758D01*
X142108758Y-97341998D01*
X141975602Y-97430970D01*
X141827642Y-97492258D01*
X141670575Y-97523500D01*
X141510425Y-97523500D01*
X141353358Y-97492258D01*
X141205398Y-97430970D01*
X141072242Y-97341998D01*
X140959002Y-97228758D01*
X140870030Y-97095602D01*
X140808742Y-96947642D01*
X140777500Y-96790575D01*
X140777500Y-96630425D01*
X140808742Y-96473358D01*
X140870030Y-96325398D01*
X140959002Y-96192242D01*
X141072242Y-96079002D01*
X141205398Y-95990030D01*
X141353358Y-95928742D01*
X141510425Y-95897500D01*
X141670575Y-95897500D01*
X141827642Y-95928742D01*
X141827642Y-95928742D01*
G37*
G36*
X164827642Y-95928742D02*
X164975602Y-95990030D01*
X165108758Y-96079002D01*
X165221998Y-96192242D01*
X165310970Y-96325398D01*
X165372258Y-96473358D01*
X165403500Y-96630425D01*
X165403500Y-96790575D01*
X165372258Y-96947642D01*
X165310970Y-97095602D01*
X165221998Y-97228758D01*
X165108758Y-97341998D01*
X164975602Y-97430970D01*
X164827642Y-97492258D01*
X164670575Y-97523500D01*
X164510425Y-97523500D01*
X164353358Y-97492258D01*
X164205398Y-97430970D01*
X164072242Y-97341998D01*
X163959002Y-97228758D01*
X163870030Y-97095602D01*
X163808742Y-96947642D01*
X163777500Y-96790575D01*
X163777500Y-96630425D01*
X163808742Y-96473358D01*
X163870030Y-96325398D01*
X163959002Y-96192242D01*
X164072242Y-96079002D01*
X164205398Y-95990030D01*
X164353358Y-95928742D01*
X164510425Y-95897500D01*
X164670575Y-95897500D01*
X164827642Y-95928742D01*
X164827642Y-95928742D01*
G37*
G36*
X141203328Y-92112961D02*
X141213141Y-92115114D01*
X141213146Y-92115116D01*
X141219172Y-92116438D01*
X141811410Y-92308868D01*
X141834373Y-92318911D01*
X141845834Y-92323267D01*
X141869657Y-92331008D01*
X141890170Y-92339980D01*
X141988058Y-92394800D01*
X142006434Y-92407607D01*
X142091752Y-92480476D01*
X142107263Y-92496609D01*
X142176725Y-92584721D01*
X142188795Y-92603576D01*
X142239737Y-92703555D01*
X142247892Y-92724390D01*
X142278350Y-92832387D01*
X142282285Y-92854419D01*
X142291088Y-92966279D01*
X142290649Y-92988666D01*
X142277461Y-93100082D01*
X142272664Y-93121945D01*
X142237990Y-93228660D01*
X142229019Y-93249171D01*
X142174200Y-93347058D01*
X142161393Y-93365434D01*
X142088524Y-93450752D01*
X142072391Y-93466263D01*
X141984279Y-93535725D01*
X141965424Y-93547795D01*
X141865445Y-93598737D01*
X141844610Y-93606892D01*
X141736613Y-93637350D01*
X141714581Y-93641285D01*
X141602721Y-93650088D01*
X141580334Y-93649649D01*
X141468920Y-93636461D01*
X141447057Y-93631664D01*
X141423224Y-93623921D01*
X141411390Y-93620709D01*
X141402749Y-93618813D01*
X141402748Y-93618813D01*
X141399901Y-93618188D01*
X141386911Y-93615338D01*
X140794673Y-93422908D01*
X140789017Y-93420434D01*
X140779813Y-93416408D01*
X140779812Y-93416407D01*
X140779809Y-93416406D01*
X140771574Y-93410666D01*
X140771571Y-93410664D01*
X140764608Y-93403422D01*
X140759192Y-93394961D01*
X140755530Y-93385605D01*
X140753764Y-93375716D01*
X140753961Y-93365672D01*
X140756114Y-93355859D01*
X140756116Y-93355854D01*
X140757438Y-93349828D01*
X141146092Y-92153673D01*
X141152594Y-92138809D01*
X141158334Y-92130574D01*
X141158336Y-92130571D01*
X141165578Y-92123608D01*
X141165579Y-92123607D01*
X141174037Y-92118193D01*
X141174038Y-92118193D01*
X141174039Y-92118192D01*
X141183395Y-92114530D01*
X141183396Y-92114530D01*
X141183398Y-92114529D01*
X141193283Y-92112764D01*
X141193284Y-92112764D01*
X141203328Y-92112961D01*
X141203328Y-92112961D01*
G37*
G36*
X157526515Y-89697473D02*
X157630379Y-89728979D01*
X157726100Y-89780144D01*
X157810001Y-89848999D01*
X157878856Y-89932900D01*
X157930021Y-90028621D01*
X157961527Y-90132485D01*
X157969500Y-90213433D01*
X157969500Y-91367567D01*
X157961527Y-91448515D01*
X157930021Y-91552379D01*
X157878856Y-91648100D01*
X157810001Y-91732001D01*
X157726100Y-91800856D01*
X157630378Y-91852021D01*
X157526514Y-91883527D01*
X157418500Y-91894166D01*
X157310485Y-91883527D01*
X157206621Y-91852021D01*
X157110900Y-91800856D01*
X157026999Y-91732001D01*
X156958144Y-91648100D01*
X156906979Y-91552378D01*
X156875473Y-91448514D01*
X156867500Y-91367566D01*
X156867501Y-90213433D01*
X156875474Y-90132485D01*
X156906980Y-90028621D01*
X156958145Y-89932900D01*
X157027000Y-89848999D01*
X157110901Y-89780144D01*
X157206622Y-89728979D01*
X157310486Y-89697473D01*
X157418500Y-89686834D01*
X157526515Y-89697473D01*
X157526515Y-89697473D01*
G37*
G36*
X148886515Y-89697473D02*
X148990379Y-89728979D01*
X149086100Y-89780144D01*
X149170001Y-89848999D01*
X149238856Y-89932900D01*
X149290021Y-90028621D01*
X149321527Y-90132485D01*
X149329500Y-90213433D01*
X149329500Y-91367567D01*
X149321527Y-91448515D01*
X149290021Y-91552379D01*
X149238856Y-91648100D01*
X149170001Y-91732001D01*
X149086100Y-91800856D01*
X148990378Y-91852021D01*
X148886514Y-91883527D01*
X148778500Y-91894166D01*
X148670485Y-91883527D01*
X148566621Y-91852021D01*
X148470900Y-91800856D01*
X148386999Y-91732001D01*
X148318144Y-91648100D01*
X148266979Y-91552378D01*
X148235473Y-91448514D01*
X148227500Y-91367566D01*
X148227501Y-90213433D01*
X148235474Y-90132485D01*
X148266980Y-90028621D01*
X148318145Y-89932900D01*
X148387000Y-89848999D01*
X148470901Y-89780144D01*
X148566622Y-89728979D01*
X148670486Y-89697473D01*
X148778500Y-89686834D01*
X148886515Y-89697473D01*
X148886515Y-89697473D01*
G37*
G36*
X150318172Y-89898949D02*
X150318174Y-89898950D01*
X150318175Y-89898950D01*
X150386603Y-89927293D01*
X150447909Y-89968257D01*
X150448189Y-89968444D01*
X150500556Y-90020811D01*
X150500558Y-90020814D01*
X150541707Y-90082397D01*
X150570050Y-90150825D01*
X150584500Y-90223467D01*
X150584500Y-90297533D01*
X150570050Y-90370175D01*
X150541707Y-90438603D01*
X150500743Y-90499909D01*
X150500556Y-90500189D01*
X150448189Y-90552556D01*
X150448186Y-90552558D01*
X150386603Y-90593707D01*
X150318175Y-90622050D01*
X150318174Y-90622050D01*
X150318172Y-90622051D01*
X150245534Y-90636500D01*
X150171466Y-90636500D01*
X150098828Y-90622051D01*
X150098826Y-90622050D01*
X150098825Y-90622050D01*
X150030397Y-90593707D01*
X149968814Y-90552558D01*
X149968811Y-90552556D01*
X149916444Y-90500189D01*
X149916257Y-90499909D01*
X149875293Y-90438603D01*
X149846950Y-90370175D01*
X149832500Y-90297533D01*
X149832500Y-90223467D01*
X149846950Y-90150825D01*
X149875293Y-90082397D01*
X149916442Y-90020814D01*
X149916444Y-90020811D01*
X149968811Y-89968444D01*
X149969091Y-89968257D01*
X150030397Y-89927293D01*
X150098825Y-89898950D01*
X150098826Y-89898950D01*
X150098828Y-89898949D01*
X150171466Y-89884500D01*
X150245534Y-89884500D01*
X150318172Y-89898949D01*
X150318172Y-89898949D01*
G37*
G36*
X156098172Y-89898949D02*
X156098174Y-89898950D01*
X156098175Y-89898950D01*
X156166603Y-89927293D01*
X156227909Y-89968257D01*
X156228189Y-89968444D01*
X156280556Y-90020811D01*
X156280558Y-90020814D01*
X156321707Y-90082397D01*
X156350050Y-90150825D01*
X156364500Y-90223467D01*
X156364500Y-90297533D01*
X156350050Y-90370175D01*
X156321707Y-90438603D01*
X156280743Y-90499909D01*
X156280556Y-90500189D01*
X156228189Y-90552556D01*
X156228186Y-90552558D01*
X156166603Y-90593707D01*
X156098175Y-90622050D01*
X156098174Y-90622050D01*
X156098172Y-90622051D01*
X156025534Y-90636500D01*
X155951466Y-90636500D01*
X155878828Y-90622051D01*
X155878826Y-90622050D01*
X155878825Y-90622050D01*
X155810397Y-90593707D01*
X155748814Y-90552558D01*
X155748811Y-90552556D01*
X155696444Y-90500189D01*
X155696257Y-90499909D01*
X155655293Y-90438603D01*
X155626950Y-90370175D01*
X155612500Y-90297533D01*
X155612500Y-90223467D01*
X155626950Y-90150825D01*
X155655293Y-90082397D01*
X155696442Y-90020814D01*
X155696444Y-90020811D01*
X155748811Y-89968444D01*
X155749091Y-89968257D01*
X155810397Y-89927293D01*
X155878825Y-89898950D01*
X155878826Y-89898950D01*
X155878828Y-89898949D01*
X155951466Y-89884500D01*
X156025534Y-89884500D01*
X156098172Y-89898949D01*
X156098172Y-89898949D01*
G37*
G36*
X144392444Y-87380181D02*
X144402110Y-87382930D01*
X144410640Y-87387300D01*
X144411050Y-87387510D01*
X144412305Y-87388504D01*
X144423766Y-87397579D01*
X144871713Y-87830156D01*
X144887946Y-87849247D01*
X144896339Y-87858189D01*
X144914359Y-87875592D01*
X144928862Y-87892647D01*
X144992810Y-87984827D01*
X144995815Y-87990219D01*
X144995818Y-87990224D01*
X145000708Y-87999000D01*
X145003715Y-88004397D01*
X145048448Y-88107277D01*
X145050342Y-88113150D01*
X145050345Y-88113157D01*
X145053428Y-88122719D01*
X145055322Y-88128593D01*
X145079129Y-88238240D01*
X145081711Y-88260472D01*
X145083670Y-88372656D01*
X145081864Y-88394974D01*
X145061899Y-88505382D01*
X145055775Y-88526917D01*
X145014652Y-88631312D01*
X145004450Y-88651226D01*
X144943746Y-88745601D01*
X144929854Y-88763144D01*
X144851908Y-88843860D01*
X144847209Y-88847855D01*
X144839556Y-88854363D01*
X144839552Y-88854366D01*
X144834852Y-88858362D01*
X144742673Y-88922310D01*
X144737281Y-88925315D01*
X144737276Y-88925318D01*
X144728500Y-88930208D01*
X144728497Y-88930209D01*
X144723103Y-88933215D01*
X144620223Y-88977948D01*
X144614350Y-88979842D01*
X144614343Y-88979845D01*
X144604781Y-88982928D01*
X144604779Y-88982929D01*
X144598907Y-88984822D01*
X144489260Y-89008629D01*
X144467028Y-89011211D01*
X144354844Y-89013170D01*
X144343685Y-89012267D01*
X144338678Y-89011862D01*
X144338676Y-89011862D01*
X144332526Y-89011364D01*
X144222118Y-88991399D01*
X144200583Y-88985275D01*
X144096188Y-88944152D01*
X144076274Y-88933950D01*
X143981901Y-88873247D01*
X143964347Y-88859347D01*
X143946313Y-88841932D01*
X143937075Y-88833848D01*
X143930177Y-88828386D01*
X143930174Y-88828385D01*
X143922293Y-88822145D01*
X143922291Y-88822143D01*
X143917451Y-88818311D01*
X143469509Y-88385738D01*
X143459004Y-88373384D01*
X143454115Y-88364609D01*
X143454114Y-88364608D01*
X143451031Y-88355046D01*
X143451030Y-88355044D01*
X143449871Y-88345067D01*
X143450681Y-88335056D01*
X143453430Y-88325390D01*
X143458009Y-88316452D01*
X143458010Y-88316450D01*
X143464247Y-88308574D01*
X143468079Y-88303734D01*
X144341762Y-87399009D01*
X144354116Y-87388504D01*
X144355902Y-87387509D01*
X144362892Y-87383614D01*
X144369167Y-87381591D01*
X144372456Y-87380530D01*
X144382433Y-87379371D01*
X144392444Y-87380181D01*
X144392444Y-87380181D01*
G37*
G36*
X148886515Y-85767473D02*
X148990379Y-85798979D01*
X149086100Y-85850144D01*
X149170001Y-85918999D01*
X149238856Y-86002900D01*
X149290021Y-86098621D01*
X149321527Y-86202485D01*
X149329500Y-86283433D01*
X149329500Y-86937567D01*
X149321527Y-87018515D01*
X149290021Y-87122379D01*
X149238856Y-87218100D01*
X149170001Y-87302001D01*
X149086100Y-87370856D01*
X148990378Y-87422021D01*
X148886514Y-87453527D01*
X148778500Y-87464166D01*
X148670485Y-87453527D01*
X148566621Y-87422021D01*
X148470900Y-87370856D01*
X148386999Y-87302001D01*
X148318144Y-87218100D01*
X148266979Y-87122378D01*
X148235473Y-87018514D01*
X148227500Y-86937566D01*
X148227500Y-86283433D01*
X148235473Y-86202485D01*
X148266980Y-86098621D01*
X148318145Y-86002900D01*
X148387000Y-85918999D01*
X148470901Y-85850144D01*
X148566622Y-85798979D01*
X148670486Y-85767473D01*
X148778500Y-85756834D01*
X148886515Y-85767473D01*
X148886515Y-85767473D01*
G37*
G36*
X157526515Y-85767473D02*
X157630379Y-85798979D01*
X157726100Y-85850144D01*
X157810001Y-85918999D01*
X157878856Y-86002900D01*
X157930021Y-86098621D01*
X157961527Y-86202485D01*
X157969500Y-86283433D01*
X157969500Y-86937567D01*
X157961527Y-87018515D01*
X157930021Y-87122379D01*
X157878856Y-87218100D01*
X157810001Y-87302001D01*
X157726100Y-87370856D01*
X157630378Y-87422021D01*
X157526514Y-87453527D01*
X157418500Y-87464166D01*
X157310485Y-87453527D01*
X157206621Y-87422021D01*
X157110900Y-87370856D01*
X157026999Y-87302001D01*
X156958144Y-87218100D01*
X156906979Y-87122378D01*
X156875473Y-87018514D01*
X156867500Y-86937566D01*
X156867500Y-86283433D01*
X156875473Y-86202485D01*
X156906980Y-86098621D01*
X156958145Y-86002900D01*
X157027000Y-85918999D01*
X157110901Y-85850144D01*
X157206622Y-85798979D01*
X157310486Y-85767473D01*
X157418500Y-85756834D01*
X157526515Y-85767473D01*
X157526515Y-85767473D01*
G37*
G36*
X158968764Y-85378265D02*
X158978546Y-85380546D01*
X158993319Y-85387240D01*
X160082535Y-86016099D01*
X160095716Y-86025544D01*
X160101808Y-86032050D01*
X160102583Y-86032877D01*
X160107888Y-86041408D01*
X160107890Y-86041412D01*
X160111426Y-86050806D01*
X160113063Y-86060724D01*
X160112735Y-86070764D01*
X160110454Y-86080546D01*
X160103760Y-86095319D01*
X159792401Y-86634608D01*
X159777807Y-86654975D01*
X159771162Y-86665281D01*
X159758631Y-86686985D01*
X159745600Y-86705169D01*
X159671614Y-86789535D01*
X159655267Y-86804846D01*
X159566265Y-86873138D01*
X159547250Y-86884963D01*
X159446615Y-86934592D01*
X159425672Y-86942474D01*
X159317292Y-86971514D01*
X159311210Y-86972518D01*
X159311203Y-86972520D01*
X159301290Y-86974156D01*
X159301289Y-86974156D01*
X159295196Y-86975162D01*
X159183244Y-86982499D01*
X159174406Y-86982210D01*
X159167034Y-86981969D01*
X159167030Y-86981969D01*
X159160871Y-86981767D01*
X159049621Y-86967121D01*
X159027825Y-86962038D01*
X158921583Y-86925974D01*
X158901183Y-86916731D01*
X158804025Y-86860636D01*
X158799008Y-86857041D01*
X158799003Y-86857038D01*
X158790838Y-86851187D01*
X158790834Y-86851184D01*
X158785822Y-86847592D01*
X158701465Y-86773614D01*
X158686154Y-86757267D01*
X158617862Y-86668265D01*
X158606037Y-86649250D01*
X158556408Y-86548615D01*
X158548526Y-86527672D01*
X158519486Y-86419292D01*
X158518482Y-86413210D01*
X158518480Y-86413203D01*
X158516844Y-86403290D01*
X158516844Y-86403289D01*
X158515838Y-86397196D01*
X158508501Y-86285244D01*
X158509233Y-86262871D01*
X158523879Y-86151621D01*
X158528962Y-86129825D01*
X158565029Y-86023574D01*
X158574265Y-86003191D01*
X158586788Y-85981500D01*
X158592391Y-85970593D01*
X158602740Y-85947756D01*
X158914099Y-85408465D01*
X158923544Y-85395284D01*
X158930875Y-85388419D01*
X158930877Y-85388417D01*
X158939408Y-85383112D01*
X158939412Y-85383110D01*
X158948806Y-85379574D01*
X158948808Y-85379574D01*
X158948810Y-85379573D01*
X158958722Y-85377937D01*
X158958724Y-85377937D01*
X158968764Y-85378265D01*
X158968764Y-85378265D01*
G37*
M02*
