%TF.GenerationSoftware,KiCad,Pcbnew,(5.0.1)-4*%
%TF.CreationDate,2019-06-04T13:38:29+02:00*%
%TF.ProjectId,ESPesh,4553506573682E6B696361645F706362,rev?*%
%TF.SameCoordinates,Original*%
%TF.FileFunction,Copper,L1,Top,Signal*%
%TF.FilePolarity,Positive*%
%FSLAX46Y46*%
G04 Gerber Fmt 4.6, Leading zero omitted, Abs format (unit mm)*
G04 Created by KiCad (PCBNEW (5.0.1)-4) date 04/06/2019 13:38:29*
%MOMM*%
%LPD*%
G01*
G04 APERTURE LIST*
%ADD10C,0.200000*%
%ADD11C,1.270000*%
%ADD12C,0.100000*%
%ADD13C,1.050000*%
%ADD14R,0.500000X0.300000*%
%ADD15R,0.300000X0.500000*%
%ADD16R,5.400000X5.400000*%
%ADD17C,1.524000*%
%ADD18R,1.000000X1.400000*%
%ADD19C,0.875000*%
%ADD20O,1.000000X1.600000*%
%ADD21O,1.000000X2.100000*%
%ADD22R,0.300000X1.450000*%
%ADD23R,0.600000X1.450000*%
%ADD24R,1.500000X1.900000*%
%ADD25R,1.400000X1.900000*%
%ADD26R,0.650000X1.060000*%
%ADD27R,1.000000X0.600000*%
%ADD28R,0.900000X1.200000*%
%ADD29R,1.060000X0.650000*%
%ADD30R,0.650000X0.350000*%
%ADD31R,1.000000X1.600000*%
%ADD32R,2.400000X1.500000*%
%ADD33R,0.400000X0.600000*%
%ADD34C,0.600000*%
%ADD35C,0.500000*%
%ADD36C,0.150000*%
%ADD37C,0.250000*%
%ADD38C,0.254000*%
G04 APERTURE END LIST*
D10*
X114808000Y-67754500D02*
G75*
G03X114808000Y-67754500I-12700000J0D01*
G01*
D11*
X96202500Y-57213500D03*
D12*
G36*
X96434926Y-56346074D02*
X96752426Y-56896000D01*
X96751764Y-56896383D01*
X96767343Y-56923366D01*
X96793061Y-56980128D01*
X96813092Y-57039136D01*
X96827242Y-57099824D01*
X96835376Y-57161607D01*
X96837415Y-57223889D01*
X96833339Y-57286072D01*
X96823188Y-57347556D01*
X96807060Y-57407748D01*
X96785109Y-57466070D01*
X96757547Y-57521960D01*
X96724640Y-57574879D01*
X96686704Y-57624317D01*
X96644106Y-57669800D01*
X96597255Y-57710887D01*
X96546601Y-57747185D01*
X96492634Y-57778343D01*
X96435872Y-57804061D01*
X96376864Y-57824092D01*
X96316176Y-57838242D01*
X96254393Y-57846376D01*
X96192111Y-57848415D01*
X96129928Y-57844339D01*
X96068444Y-57834188D01*
X96008252Y-57818060D01*
X95949930Y-57796109D01*
X95894040Y-57768547D01*
X95841121Y-57735640D01*
X95791683Y-57697704D01*
X95746200Y-57655106D01*
X95705113Y-57608255D01*
X95668815Y-57557601D01*
X95653236Y-57530617D01*
X95652574Y-57531000D01*
X95335074Y-56981074D01*
X96434926Y-56346074D01*
X96434926Y-56346074D01*
G37*
G36*
X112440505Y-61798704D02*
X112464773Y-61802304D01*
X112488572Y-61808265D01*
X112511671Y-61816530D01*
X112533850Y-61827020D01*
X112554893Y-61839632D01*
X112574599Y-61854247D01*
X112592777Y-61870723D01*
X112609253Y-61888901D01*
X112623868Y-61908607D01*
X112636480Y-61929650D01*
X112646970Y-61951829D01*
X112655235Y-61974928D01*
X112661196Y-61998727D01*
X112664796Y-62022995D01*
X112666000Y-62047499D01*
X112666000Y-62672501D01*
X112664796Y-62697005D01*
X112661196Y-62721273D01*
X112655235Y-62745072D01*
X112646970Y-62768171D01*
X112636480Y-62790350D01*
X112623868Y-62811393D01*
X112609253Y-62831099D01*
X112592777Y-62849277D01*
X112574599Y-62865753D01*
X112554893Y-62880368D01*
X112533850Y-62892980D01*
X112511671Y-62903470D01*
X112488572Y-62911735D01*
X112464773Y-62917696D01*
X112440505Y-62921296D01*
X112416001Y-62922500D01*
X111865999Y-62922500D01*
X111841495Y-62921296D01*
X111817227Y-62917696D01*
X111793428Y-62911735D01*
X111770329Y-62903470D01*
X111748150Y-62892980D01*
X111727107Y-62880368D01*
X111707401Y-62865753D01*
X111689223Y-62849277D01*
X111672747Y-62831099D01*
X111658132Y-62811393D01*
X111645520Y-62790350D01*
X111635030Y-62768171D01*
X111626765Y-62745072D01*
X111620804Y-62721273D01*
X111617204Y-62697005D01*
X111616000Y-62672501D01*
X111616000Y-62047499D01*
X111617204Y-62022995D01*
X111620804Y-61998727D01*
X111626765Y-61974928D01*
X111635030Y-61951829D01*
X111645520Y-61929650D01*
X111658132Y-61908607D01*
X111672747Y-61888901D01*
X111689223Y-61870723D01*
X111707401Y-61854247D01*
X111727107Y-61839632D01*
X111748150Y-61827020D01*
X111770329Y-61816530D01*
X111793428Y-61808265D01*
X111817227Y-61802304D01*
X111841495Y-61798704D01*
X111865999Y-61797500D01*
X112416001Y-61797500D01*
X112440505Y-61798704D01*
X112440505Y-61798704D01*
G37*
D13*
X112141000Y-62360000D03*
D12*
G36*
X112440505Y-63573704D02*
X112464773Y-63577304D01*
X112488572Y-63583265D01*
X112511671Y-63591530D01*
X112533850Y-63602020D01*
X112554893Y-63614632D01*
X112574599Y-63629247D01*
X112592777Y-63645723D01*
X112609253Y-63663901D01*
X112623868Y-63683607D01*
X112636480Y-63704650D01*
X112646970Y-63726829D01*
X112655235Y-63749928D01*
X112661196Y-63773727D01*
X112664796Y-63797995D01*
X112666000Y-63822499D01*
X112666000Y-64447501D01*
X112664796Y-64472005D01*
X112661196Y-64496273D01*
X112655235Y-64520072D01*
X112646970Y-64543171D01*
X112636480Y-64565350D01*
X112623868Y-64586393D01*
X112609253Y-64606099D01*
X112592777Y-64624277D01*
X112574599Y-64640753D01*
X112554893Y-64655368D01*
X112533850Y-64667980D01*
X112511671Y-64678470D01*
X112488572Y-64686735D01*
X112464773Y-64692696D01*
X112440505Y-64696296D01*
X112416001Y-64697500D01*
X111865999Y-64697500D01*
X111841495Y-64696296D01*
X111817227Y-64692696D01*
X111793428Y-64686735D01*
X111770329Y-64678470D01*
X111748150Y-64667980D01*
X111727107Y-64655368D01*
X111707401Y-64640753D01*
X111689223Y-64624277D01*
X111672747Y-64606099D01*
X111658132Y-64586393D01*
X111645520Y-64565350D01*
X111635030Y-64543171D01*
X111626765Y-64520072D01*
X111620804Y-64496273D01*
X111617204Y-64472005D01*
X111616000Y-64447501D01*
X111616000Y-63822499D01*
X111617204Y-63797995D01*
X111620804Y-63773727D01*
X111626765Y-63749928D01*
X111635030Y-63726829D01*
X111645520Y-63704650D01*
X111658132Y-63683607D01*
X111672747Y-63663901D01*
X111689223Y-63645723D01*
X111707401Y-63629247D01*
X111727107Y-63614632D01*
X111748150Y-63602020D01*
X111770329Y-63591530D01*
X111793428Y-63583265D01*
X111817227Y-63577304D01*
X111841495Y-63573704D01*
X111865999Y-63572500D01*
X112416001Y-63572500D01*
X112440505Y-63573704D01*
X112440505Y-63573704D01*
G37*
D13*
X112141000Y-64135000D03*
D11*
X111442500Y-75438000D03*
D12*
G36*
X111520768Y-76332608D02*
X111034330Y-75924438D01*
X111034822Y-75923852D01*
X111010953Y-75903824D01*
X110967372Y-75859282D01*
X110928368Y-75810683D01*
X110894314Y-75758494D01*
X110865540Y-75703220D01*
X110842322Y-75645391D01*
X110824884Y-75585564D01*
X110813394Y-75524317D01*
X110807963Y-75462238D01*
X110808642Y-75399925D01*
X110815427Y-75337980D01*
X110828250Y-75276997D01*
X110846989Y-75217566D01*
X110871463Y-75160257D01*
X110901436Y-75105623D01*
X110936620Y-75054190D01*
X110976676Y-75006453D01*
X111021218Y-74962872D01*
X111069817Y-74923868D01*
X111122006Y-74889814D01*
X111177280Y-74861040D01*
X111235109Y-74837822D01*
X111294936Y-74820384D01*
X111356183Y-74808894D01*
X111418262Y-74803463D01*
X111480575Y-74804142D01*
X111542520Y-74810927D01*
X111603503Y-74823750D01*
X111662934Y-74842489D01*
X111720243Y-74866963D01*
X111774877Y-74896936D01*
X111826310Y-74932120D01*
X111850178Y-74952148D01*
X111850670Y-74951562D01*
X112337108Y-75359732D01*
X111520768Y-76332608D01*
X111520768Y-76332608D01*
G37*
D11*
X93408500Y-59372500D03*
D12*
G36*
X93392827Y-58474611D02*
X93849608Y-58915719D01*
X93849077Y-58916270D01*
X93871490Y-58937914D01*
X93911857Y-58985387D01*
X93947377Y-59036588D01*
X93977707Y-59091026D01*
X94002555Y-59148173D01*
X94021683Y-59207481D01*
X94034905Y-59268378D01*
X94042095Y-59330278D01*
X94043182Y-59392584D01*
X94038158Y-59454698D01*
X94027069Y-59516019D01*
X94010022Y-59575958D01*
X93987184Y-59633938D01*
X93958772Y-59689400D01*
X93925061Y-59741810D01*
X93886375Y-59790663D01*
X93843086Y-59835490D01*
X93795613Y-59875857D01*
X93744412Y-59911377D01*
X93689974Y-59941707D01*
X93632827Y-59966555D01*
X93573519Y-59985683D01*
X93512622Y-59998905D01*
X93450722Y-60006095D01*
X93388416Y-60007182D01*
X93326302Y-60002158D01*
X93264981Y-59991069D01*
X93205042Y-59974022D01*
X93147062Y-59951184D01*
X93091600Y-59922772D01*
X93039190Y-59889061D01*
X92990337Y-59850375D01*
X92967923Y-59828730D01*
X92967392Y-59829281D01*
X92510611Y-59388173D01*
X93392827Y-58474611D01*
X93392827Y-58474611D01*
G37*
D11*
X110172500Y-76708000D03*
D12*
G36*
X110125501Y-77604795D02*
X109700603Y-77132898D01*
X109701172Y-77132386D01*
X109680323Y-77109231D01*
X109643365Y-77059057D01*
X109611504Y-77005503D01*
X109585045Y-76949083D01*
X109564243Y-76890341D01*
X109549299Y-76829844D01*
X109540357Y-76768173D01*
X109537503Y-76705922D01*
X109540765Y-76643691D01*
X109550110Y-76582080D01*
X109565449Y-76521681D01*
X109586635Y-76463077D01*
X109613463Y-76406832D01*
X109645674Y-76353487D01*
X109682959Y-76303556D01*
X109724959Y-76257520D01*
X109771269Y-76215823D01*
X109821443Y-76178865D01*
X109874997Y-76147004D01*
X109931417Y-76120545D01*
X109990159Y-76099743D01*
X110050656Y-76084799D01*
X110112327Y-76075857D01*
X110174578Y-76073003D01*
X110236809Y-76076265D01*
X110298420Y-76085610D01*
X110358819Y-76100949D01*
X110417423Y-76122135D01*
X110473668Y-76148963D01*
X110527013Y-76181174D01*
X110576944Y-76218459D01*
X110622980Y-76260459D01*
X110643828Y-76283614D01*
X110644397Y-76283102D01*
X111069295Y-76754999D01*
X110125501Y-77604795D01*
X110125501Y-77604795D01*
G37*
D11*
X90614500Y-64008000D03*
D12*
G36*
X90206805Y-63207853D02*
X90810726Y-63404079D01*
X90810489Y-63404807D01*
X90840122Y-63414435D01*
X90897216Y-63439408D01*
X90951586Y-63469857D01*
X91002710Y-63505489D01*
X91050095Y-63545959D01*
X91093286Y-63590880D01*
X91131865Y-63639818D01*
X91165462Y-63692301D01*
X91193753Y-63747825D01*
X91216466Y-63805855D01*
X91233381Y-63865831D01*
X91244335Y-63927177D01*
X91249224Y-63989300D01*
X91248001Y-64051605D01*
X91240677Y-64113488D01*
X91227322Y-64174356D01*
X91208065Y-64233622D01*
X91183092Y-64290716D01*
X91152643Y-64345086D01*
X91117011Y-64396210D01*
X91076541Y-64443595D01*
X91031620Y-64486786D01*
X90982682Y-64525365D01*
X90930199Y-64558962D01*
X90874675Y-64587253D01*
X90816645Y-64609966D01*
X90756669Y-64626881D01*
X90695323Y-64637835D01*
X90633200Y-64642724D01*
X90570895Y-64641501D01*
X90509012Y-64634177D01*
X90448144Y-64620822D01*
X90418511Y-64611193D01*
X90418274Y-64611921D01*
X89814353Y-64415695D01*
X90206805Y-63207853D01*
X90206805Y-63207853D01*
G37*
D11*
X105702100Y-79286100D03*
D12*
G36*
X105280503Y-80079010D02*
X105094846Y-79471756D01*
X105095578Y-79471532D01*
X105086468Y-79441736D01*
X105074178Y-79380644D01*
X105067934Y-79318642D01*
X105067799Y-79256326D01*
X105073771Y-79194297D01*
X105085795Y-79133152D01*
X105103754Y-79073480D01*
X105127476Y-79015855D01*
X105156731Y-78960834D01*
X105191239Y-78908944D01*
X105230667Y-78860687D01*
X105274635Y-78816528D01*
X105322719Y-78776890D01*
X105374458Y-78742156D01*
X105429351Y-78712661D01*
X105486871Y-78688688D01*
X105546464Y-78670468D01*
X105607556Y-78658178D01*
X105669558Y-78651934D01*
X105731874Y-78651799D01*
X105793903Y-78657771D01*
X105855048Y-78669795D01*
X105914720Y-78687754D01*
X105972345Y-78711476D01*
X106027366Y-78740731D01*
X106079256Y-78775239D01*
X106127513Y-78814667D01*
X106171672Y-78858635D01*
X106211310Y-78906719D01*
X106246044Y-78958458D01*
X106275539Y-79013351D01*
X106299512Y-79070871D01*
X106308622Y-79100668D01*
X106309354Y-79100444D01*
X106495010Y-79707697D01*
X105280503Y-80079010D01*
X105280503Y-80079010D01*
G37*
D11*
X98869500Y-79387700D03*
D12*
G36*
X98091787Y-79836713D02*
X98256137Y-79223350D01*
X98256876Y-79223548D01*
X98264940Y-79193452D01*
X98286891Y-79135130D01*
X98314452Y-79079241D01*
X98347360Y-79026322D01*
X98385295Y-78976883D01*
X98427894Y-78931401D01*
X98474745Y-78890313D01*
X98525399Y-78854015D01*
X98579366Y-78822857D01*
X98636127Y-78797139D01*
X98695137Y-78777108D01*
X98755825Y-78762958D01*
X98817607Y-78754824D01*
X98879890Y-78752785D01*
X98942072Y-78756861D01*
X99003556Y-78767012D01*
X99063748Y-78783140D01*
X99122070Y-78805091D01*
X99177959Y-78832652D01*
X99230878Y-78865560D01*
X99280317Y-78903495D01*
X99325799Y-78946094D01*
X99366887Y-78992945D01*
X99403185Y-79043599D01*
X99434343Y-79097566D01*
X99460061Y-79154327D01*
X99480092Y-79213337D01*
X99494242Y-79274025D01*
X99502376Y-79335807D01*
X99504415Y-79398090D01*
X99500339Y-79460272D01*
X99490188Y-79521756D01*
X99482124Y-79551852D01*
X99482863Y-79552050D01*
X99318513Y-80165413D01*
X98091787Y-79836713D01*
X98091787Y-79836713D01*
G37*
D11*
X102298500Y-79832200D03*
D12*
G36*
X101674679Y-80478186D02*
X101663597Y-79843282D01*
X101664362Y-79843269D01*
X101663818Y-79812116D01*
X101668843Y-79750003D01*
X101679931Y-79688682D01*
X101696978Y-79628742D01*
X101719816Y-79570763D01*
X101748228Y-79515300D01*
X101781939Y-79462890D01*
X101820625Y-79414036D01*
X101863914Y-79369210D01*
X101911387Y-79328842D01*
X101962589Y-79293322D01*
X102017026Y-79262993D01*
X102074173Y-79238145D01*
X102133481Y-79219017D01*
X102194378Y-79205795D01*
X102256278Y-79198605D01*
X102318584Y-79197518D01*
X102380697Y-79202543D01*
X102442018Y-79213631D01*
X102501958Y-79230678D01*
X102559937Y-79253516D01*
X102615400Y-79281928D01*
X102667810Y-79315639D01*
X102716664Y-79354325D01*
X102761490Y-79397614D01*
X102801858Y-79445087D01*
X102837378Y-79496289D01*
X102867707Y-79550726D01*
X102892555Y-79607873D01*
X102911683Y-79667181D01*
X102924905Y-79728078D01*
X102932095Y-79789978D01*
X102932638Y-79821131D01*
X102933403Y-79821118D01*
X102944486Y-80456021D01*
X101674679Y-80478186D01*
X101674679Y-80478186D01*
G37*
D11*
X104013000Y-79679800D03*
D12*
G36*
X103485154Y-80406318D02*
X103385818Y-79779136D01*
X103386573Y-79779016D01*
X103381699Y-79748242D01*
X103378031Y-79686034D01*
X103380477Y-79623767D01*
X103389016Y-79562038D01*
X103403563Y-79501444D01*
X103423979Y-79442567D01*
X103450068Y-79385975D01*
X103481579Y-79332213D01*
X103518207Y-79281799D01*
X103559601Y-79235217D01*
X103605361Y-79192916D01*
X103655047Y-79155306D01*
X103708180Y-79122746D01*
X103764249Y-79095550D01*
X103822712Y-79073982D01*
X103883009Y-79058248D01*
X103944558Y-79048499D01*
X104006766Y-79044831D01*
X104069033Y-79047277D01*
X104130762Y-79055816D01*
X104191356Y-79070363D01*
X104250233Y-79090779D01*
X104306825Y-79116868D01*
X104360587Y-79148379D01*
X104411001Y-79185007D01*
X104457583Y-79226401D01*
X104499884Y-79272161D01*
X104537494Y-79321847D01*
X104570054Y-79374980D01*
X104597250Y-79431049D01*
X104618818Y-79489512D01*
X104634552Y-79549809D01*
X104639427Y-79580584D01*
X104640182Y-79580464D01*
X104739518Y-80207646D01*
X103485154Y-80406318D01*
X103485154Y-80406318D01*
G37*
D11*
X100571300Y-79730600D03*
D12*
G36*
X99854105Y-80271045D02*
X99942480Y-79642225D01*
X99943237Y-79642332D01*
X99947574Y-79611477D01*
X99962253Y-79550914D01*
X99982798Y-79492083D01*
X100009011Y-79435548D01*
X100040639Y-79381855D01*
X100077376Y-79331520D01*
X100118872Y-79285029D01*
X100164724Y-79242829D01*
X100214492Y-79205326D01*
X100267696Y-79172882D01*
X100323824Y-79145809D01*
X100382335Y-79124368D01*
X100442666Y-79108766D01*
X100504236Y-79099151D01*
X100566451Y-79095619D01*
X100628714Y-79098201D01*
X100690423Y-79106874D01*
X100750986Y-79121553D01*
X100809817Y-79142098D01*
X100866352Y-79168311D01*
X100920045Y-79199939D01*
X100970380Y-79236676D01*
X101016871Y-79278172D01*
X101059071Y-79324024D01*
X101096574Y-79373792D01*
X101129018Y-79426996D01*
X101156091Y-79483124D01*
X101177532Y-79541635D01*
X101193134Y-79601966D01*
X101202749Y-79663536D01*
X101206281Y-79725751D01*
X101203699Y-79788014D01*
X101199363Y-79818868D01*
X101200120Y-79818975D01*
X101111745Y-80447795D01*
X99854105Y-80271045D01*
X99854105Y-80271045D01*
G37*
D11*
X108204000Y-57340500D03*
D12*
G36*
X109071426Y-57108074D02*
X108753926Y-57658000D01*
X108753264Y-57657618D01*
X108737685Y-57684601D01*
X108701387Y-57735255D01*
X108660300Y-57782106D01*
X108614817Y-57824704D01*
X108565379Y-57862640D01*
X108512460Y-57895547D01*
X108456570Y-57923109D01*
X108398248Y-57945060D01*
X108338056Y-57961188D01*
X108276572Y-57971339D01*
X108214389Y-57975415D01*
X108152107Y-57973376D01*
X108090324Y-57965242D01*
X108029636Y-57951092D01*
X107970628Y-57931061D01*
X107913866Y-57905343D01*
X107859899Y-57874185D01*
X107809245Y-57837887D01*
X107762394Y-57796800D01*
X107719796Y-57751317D01*
X107681860Y-57701879D01*
X107648953Y-57648960D01*
X107621391Y-57593070D01*
X107599440Y-57534748D01*
X107583312Y-57474556D01*
X107573161Y-57413072D01*
X107569085Y-57350889D01*
X107571124Y-57288607D01*
X107579258Y-57226824D01*
X107593408Y-57166136D01*
X107613439Y-57107128D01*
X107639157Y-57050366D01*
X107654736Y-57023382D01*
X107654074Y-57023000D01*
X107971574Y-56473074D01*
X109071426Y-57108074D01*
X109071426Y-57108074D01*
G37*
D14*
X105408000Y-70568000D03*
X105408000Y-70068000D03*
X105408000Y-69568000D03*
X105408000Y-69068000D03*
X105408000Y-68568000D03*
X105408000Y-68068000D03*
X105408000Y-67568000D03*
X105408000Y-67068000D03*
X105408000Y-66568000D03*
X105408000Y-66068000D03*
X105408000Y-65568000D03*
X105408000Y-65068000D03*
D15*
X104858000Y-64518000D03*
X104358000Y-64518000D03*
X103858000Y-64518000D03*
X103358000Y-64518000D03*
X102858000Y-64518000D03*
X102358000Y-64518000D03*
X101858000Y-64518000D03*
X101358000Y-64518000D03*
X100858000Y-64518000D03*
X100358000Y-64518000D03*
X99858000Y-64518000D03*
X99358000Y-64518000D03*
D14*
X98808000Y-65068000D03*
X98808000Y-65568000D03*
X98808000Y-66068000D03*
X98808000Y-66568000D03*
X98808000Y-67068000D03*
X98808000Y-67568000D03*
X98808000Y-68068000D03*
X98808000Y-68568000D03*
X98808000Y-69068000D03*
X98808000Y-69568000D03*
X98808000Y-70068000D03*
X98808000Y-70568000D03*
D15*
X99358000Y-71118000D03*
X99858000Y-71118000D03*
X100358000Y-71118000D03*
X100858000Y-71118000D03*
X101358000Y-71118000D03*
X101858000Y-71118000D03*
X102358000Y-71118000D03*
X102858000Y-71118000D03*
X103358000Y-71118000D03*
X103858000Y-71118000D03*
X104358000Y-71118000D03*
X104858000Y-71118000D03*
D16*
X102108000Y-67818000D03*
D17*
X113600000Y-67754500D03*
X90600000Y-67754500D03*
D18*
X107889000Y-67414500D03*
X106939000Y-65214500D03*
X108839000Y-65214500D03*
D12*
G36*
X96696691Y-58327053D02*
X96717926Y-58330203D01*
X96738750Y-58335419D01*
X96758962Y-58342651D01*
X96778368Y-58351830D01*
X96796781Y-58362866D01*
X96814024Y-58375654D01*
X96829930Y-58390070D01*
X96844346Y-58405976D01*
X96857134Y-58423219D01*
X96868170Y-58441632D01*
X96877349Y-58461038D01*
X96884581Y-58481250D01*
X96889797Y-58502074D01*
X96892947Y-58523309D01*
X96894000Y-58544750D01*
X96894000Y-59057250D01*
X96892947Y-59078691D01*
X96889797Y-59099926D01*
X96884581Y-59120750D01*
X96877349Y-59140962D01*
X96868170Y-59160368D01*
X96857134Y-59178781D01*
X96844346Y-59196024D01*
X96829930Y-59211930D01*
X96814024Y-59226346D01*
X96796781Y-59239134D01*
X96778368Y-59250170D01*
X96758962Y-59259349D01*
X96738750Y-59266581D01*
X96717926Y-59271797D01*
X96696691Y-59274947D01*
X96675250Y-59276000D01*
X96237750Y-59276000D01*
X96216309Y-59274947D01*
X96195074Y-59271797D01*
X96174250Y-59266581D01*
X96154038Y-59259349D01*
X96134632Y-59250170D01*
X96116219Y-59239134D01*
X96098976Y-59226346D01*
X96083070Y-59211930D01*
X96068654Y-59196024D01*
X96055866Y-59178781D01*
X96044830Y-59160368D01*
X96035651Y-59140962D01*
X96028419Y-59120750D01*
X96023203Y-59099926D01*
X96020053Y-59078691D01*
X96019000Y-59057250D01*
X96019000Y-58544750D01*
X96020053Y-58523309D01*
X96023203Y-58502074D01*
X96028419Y-58481250D01*
X96035651Y-58461038D01*
X96044830Y-58441632D01*
X96055866Y-58423219D01*
X96068654Y-58405976D01*
X96083070Y-58390070D01*
X96098976Y-58375654D01*
X96116219Y-58362866D01*
X96134632Y-58351830D01*
X96154038Y-58342651D01*
X96174250Y-58335419D01*
X96195074Y-58330203D01*
X96216309Y-58327053D01*
X96237750Y-58326000D01*
X96675250Y-58326000D01*
X96696691Y-58327053D01*
X96696691Y-58327053D01*
G37*
D19*
X96456500Y-58801000D03*
D12*
G36*
X95121691Y-58327053D02*
X95142926Y-58330203D01*
X95163750Y-58335419D01*
X95183962Y-58342651D01*
X95203368Y-58351830D01*
X95221781Y-58362866D01*
X95239024Y-58375654D01*
X95254930Y-58390070D01*
X95269346Y-58405976D01*
X95282134Y-58423219D01*
X95293170Y-58441632D01*
X95302349Y-58461038D01*
X95309581Y-58481250D01*
X95314797Y-58502074D01*
X95317947Y-58523309D01*
X95319000Y-58544750D01*
X95319000Y-59057250D01*
X95317947Y-59078691D01*
X95314797Y-59099926D01*
X95309581Y-59120750D01*
X95302349Y-59140962D01*
X95293170Y-59160368D01*
X95282134Y-59178781D01*
X95269346Y-59196024D01*
X95254930Y-59211930D01*
X95239024Y-59226346D01*
X95221781Y-59239134D01*
X95203368Y-59250170D01*
X95183962Y-59259349D01*
X95163750Y-59266581D01*
X95142926Y-59271797D01*
X95121691Y-59274947D01*
X95100250Y-59276000D01*
X94662750Y-59276000D01*
X94641309Y-59274947D01*
X94620074Y-59271797D01*
X94599250Y-59266581D01*
X94579038Y-59259349D01*
X94559632Y-59250170D01*
X94541219Y-59239134D01*
X94523976Y-59226346D01*
X94508070Y-59211930D01*
X94493654Y-59196024D01*
X94480866Y-59178781D01*
X94469830Y-59160368D01*
X94460651Y-59140962D01*
X94453419Y-59120750D01*
X94448203Y-59099926D01*
X94445053Y-59078691D01*
X94444000Y-59057250D01*
X94444000Y-58544750D01*
X94445053Y-58523309D01*
X94448203Y-58502074D01*
X94453419Y-58481250D01*
X94460651Y-58461038D01*
X94469830Y-58441632D01*
X94480866Y-58423219D01*
X94493654Y-58405976D01*
X94508070Y-58390070D01*
X94523976Y-58375654D01*
X94541219Y-58362866D01*
X94559632Y-58351830D01*
X94579038Y-58342651D01*
X94599250Y-58335419D01*
X94620074Y-58330203D01*
X94641309Y-58327053D01*
X94662750Y-58326000D01*
X95100250Y-58326000D01*
X95121691Y-58327053D01*
X95121691Y-58327053D01*
G37*
D19*
X94881500Y-58801000D03*
D12*
G36*
X95147191Y-59851053D02*
X95168426Y-59854203D01*
X95189250Y-59859419D01*
X95209462Y-59866651D01*
X95228868Y-59875830D01*
X95247281Y-59886866D01*
X95264524Y-59899654D01*
X95280430Y-59914070D01*
X95294846Y-59929976D01*
X95307634Y-59947219D01*
X95318670Y-59965632D01*
X95327849Y-59985038D01*
X95335081Y-60005250D01*
X95340297Y-60026074D01*
X95343447Y-60047309D01*
X95344500Y-60068750D01*
X95344500Y-60581250D01*
X95343447Y-60602691D01*
X95340297Y-60623926D01*
X95335081Y-60644750D01*
X95327849Y-60664962D01*
X95318670Y-60684368D01*
X95307634Y-60702781D01*
X95294846Y-60720024D01*
X95280430Y-60735930D01*
X95264524Y-60750346D01*
X95247281Y-60763134D01*
X95228868Y-60774170D01*
X95209462Y-60783349D01*
X95189250Y-60790581D01*
X95168426Y-60795797D01*
X95147191Y-60798947D01*
X95125750Y-60800000D01*
X94688250Y-60800000D01*
X94666809Y-60798947D01*
X94645574Y-60795797D01*
X94624750Y-60790581D01*
X94604538Y-60783349D01*
X94585132Y-60774170D01*
X94566719Y-60763134D01*
X94549476Y-60750346D01*
X94533570Y-60735930D01*
X94519154Y-60720024D01*
X94506366Y-60702781D01*
X94495330Y-60684368D01*
X94486151Y-60664962D01*
X94478919Y-60644750D01*
X94473703Y-60623926D01*
X94470553Y-60602691D01*
X94469500Y-60581250D01*
X94469500Y-60068750D01*
X94470553Y-60047309D01*
X94473703Y-60026074D01*
X94478919Y-60005250D01*
X94486151Y-59985038D01*
X94495330Y-59965632D01*
X94506366Y-59947219D01*
X94519154Y-59929976D01*
X94533570Y-59914070D01*
X94549476Y-59899654D01*
X94566719Y-59886866D01*
X94585132Y-59875830D01*
X94604538Y-59866651D01*
X94624750Y-59859419D01*
X94645574Y-59854203D01*
X94666809Y-59851053D01*
X94688250Y-59850000D01*
X95125750Y-59850000D01*
X95147191Y-59851053D01*
X95147191Y-59851053D01*
G37*
D19*
X94907000Y-60325000D03*
D12*
G36*
X96722191Y-59851053D02*
X96743426Y-59854203D01*
X96764250Y-59859419D01*
X96784462Y-59866651D01*
X96803868Y-59875830D01*
X96822281Y-59886866D01*
X96839524Y-59899654D01*
X96855430Y-59914070D01*
X96869846Y-59929976D01*
X96882634Y-59947219D01*
X96893670Y-59965632D01*
X96902849Y-59985038D01*
X96910081Y-60005250D01*
X96915297Y-60026074D01*
X96918447Y-60047309D01*
X96919500Y-60068750D01*
X96919500Y-60581250D01*
X96918447Y-60602691D01*
X96915297Y-60623926D01*
X96910081Y-60644750D01*
X96902849Y-60664962D01*
X96893670Y-60684368D01*
X96882634Y-60702781D01*
X96869846Y-60720024D01*
X96855430Y-60735930D01*
X96839524Y-60750346D01*
X96822281Y-60763134D01*
X96803868Y-60774170D01*
X96784462Y-60783349D01*
X96764250Y-60790581D01*
X96743426Y-60795797D01*
X96722191Y-60798947D01*
X96700750Y-60800000D01*
X96263250Y-60800000D01*
X96241809Y-60798947D01*
X96220574Y-60795797D01*
X96199750Y-60790581D01*
X96179538Y-60783349D01*
X96160132Y-60774170D01*
X96141719Y-60763134D01*
X96124476Y-60750346D01*
X96108570Y-60735930D01*
X96094154Y-60720024D01*
X96081366Y-60702781D01*
X96070330Y-60684368D01*
X96061151Y-60664962D01*
X96053919Y-60644750D01*
X96048703Y-60623926D01*
X96045553Y-60602691D01*
X96044500Y-60581250D01*
X96044500Y-60068750D01*
X96045553Y-60047309D01*
X96048703Y-60026074D01*
X96053919Y-60005250D01*
X96061151Y-59985038D01*
X96070330Y-59965632D01*
X96081366Y-59947219D01*
X96094154Y-59929976D01*
X96108570Y-59914070D01*
X96124476Y-59899654D01*
X96141719Y-59886866D01*
X96160132Y-59875830D01*
X96179538Y-59866651D01*
X96199750Y-59859419D01*
X96220574Y-59854203D01*
X96241809Y-59851053D01*
X96263250Y-59850000D01*
X96700750Y-59850000D01*
X96722191Y-59851053D01*
X96722191Y-59851053D01*
G37*
D19*
X96482000Y-60325000D03*
D12*
G36*
X94575191Y-75827053D02*
X94596426Y-75830203D01*
X94617250Y-75835419D01*
X94637462Y-75842651D01*
X94656868Y-75851830D01*
X94675281Y-75862866D01*
X94692524Y-75875654D01*
X94708430Y-75890070D01*
X94722846Y-75905976D01*
X94735634Y-75923219D01*
X94746670Y-75941632D01*
X94755849Y-75961038D01*
X94763081Y-75981250D01*
X94768297Y-76002074D01*
X94771447Y-76023309D01*
X94772500Y-76044750D01*
X94772500Y-76482250D01*
X94771447Y-76503691D01*
X94768297Y-76524926D01*
X94763081Y-76545750D01*
X94755849Y-76565962D01*
X94746670Y-76585368D01*
X94735634Y-76603781D01*
X94722846Y-76621024D01*
X94708430Y-76636930D01*
X94692524Y-76651346D01*
X94675281Y-76664134D01*
X94656868Y-76675170D01*
X94637462Y-76684349D01*
X94617250Y-76691581D01*
X94596426Y-76696797D01*
X94575191Y-76699947D01*
X94553750Y-76701000D01*
X94041250Y-76701000D01*
X94019809Y-76699947D01*
X93998574Y-76696797D01*
X93977750Y-76691581D01*
X93957538Y-76684349D01*
X93938132Y-76675170D01*
X93919719Y-76664134D01*
X93902476Y-76651346D01*
X93886570Y-76636930D01*
X93872154Y-76621024D01*
X93859366Y-76603781D01*
X93848330Y-76585368D01*
X93839151Y-76565962D01*
X93831919Y-76545750D01*
X93826703Y-76524926D01*
X93823553Y-76503691D01*
X93822500Y-76482250D01*
X93822500Y-76044750D01*
X93823553Y-76023309D01*
X93826703Y-76002074D01*
X93831919Y-75981250D01*
X93839151Y-75961038D01*
X93848330Y-75941632D01*
X93859366Y-75923219D01*
X93872154Y-75905976D01*
X93886570Y-75890070D01*
X93902476Y-75875654D01*
X93919719Y-75862866D01*
X93938132Y-75851830D01*
X93957538Y-75842651D01*
X93977750Y-75835419D01*
X93998574Y-75830203D01*
X94019809Y-75827053D01*
X94041250Y-75826000D01*
X94553750Y-75826000D01*
X94575191Y-75827053D01*
X94575191Y-75827053D01*
G37*
D19*
X94297500Y-76263500D03*
D12*
G36*
X94575191Y-74252053D02*
X94596426Y-74255203D01*
X94617250Y-74260419D01*
X94637462Y-74267651D01*
X94656868Y-74276830D01*
X94675281Y-74287866D01*
X94692524Y-74300654D01*
X94708430Y-74315070D01*
X94722846Y-74330976D01*
X94735634Y-74348219D01*
X94746670Y-74366632D01*
X94755849Y-74386038D01*
X94763081Y-74406250D01*
X94768297Y-74427074D01*
X94771447Y-74448309D01*
X94772500Y-74469750D01*
X94772500Y-74907250D01*
X94771447Y-74928691D01*
X94768297Y-74949926D01*
X94763081Y-74970750D01*
X94755849Y-74990962D01*
X94746670Y-75010368D01*
X94735634Y-75028781D01*
X94722846Y-75046024D01*
X94708430Y-75061930D01*
X94692524Y-75076346D01*
X94675281Y-75089134D01*
X94656868Y-75100170D01*
X94637462Y-75109349D01*
X94617250Y-75116581D01*
X94596426Y-75121797D01*
X94575191Y-75124947D01*
X94553750Y-75126000D01*
X94041250Y-75126000D01*
X94019809Y-75124947D01*
X93998574Y-75121797D01*
X93977750Y-75116581D01*
X93957538Y-75109349D01*
X93938132Y-75100170D01*
X93919719Y-75089134D01*
X93902476Y-75076346D01*
X93886570Y-75061930D01*
X93872154Y-75046024D01*
X93859366Y-75028781D01*
X93848330Y-75010368D01*
X93839151Y-74990962D01*
X93831919Y-74970750D01*
X93826703Y-74949926D01*
X93823553Y-74928691D01*
X93822500Y-74907250D01*
X93822500Y-74469750D01*
X93823553Y-74448309D01*
X93826703Y-74427074D01*
X93831919Y-74406250D01*
X93839151Y-74386038D01*
X93848330Y-74366632D01*
X93859366Y-74348219D01*
X93872154Y-74330976D01*
X93886570Y-74315070D01*
X93902476Y-74300654D01*
X93919719Y-74287866D01*
X93938132Y-74276830D01*
X93957538Y-74267651D01*
X93977750Y-74260419D01*
X93998574Y-74255203D01*
X94019809Y-74252053D01*
X94041250Y-74251000D01*
X94553750Y-74251000D01*
X94575191Y-74252053D01*
X94575191Y-74252053D01*
G37*
D19*
X94297500Y-74688500D03*
D12*
G36*
X96226191Y-76513053D02*
X96247426Y-76516203D01*
X96268250Y-76521419D01*
X96288462Y-76528651D01*
X96307868Y-76537830D01*
X96326281Y-76548866D01*
X96343524Y-76561654D01*
X96359430Y-76576070D01*
X96373846Y-76591976D01*
X96386634Y-76609219D01*
X96397670Y-76627632D01*
X96406849Y-76647038D01*
X96414081Y-76667250D01*
X96419297Y-76688074D01*
X96422447Y-76709309D01*
X96423500Y-76730750D01*
X96423500Y-77168250D01*
X96422447Y-77189691D01*
X96419297Y-77210926D01*
X96414081Y-77231750D01*
X96406849Y-77251962D01*
X96397670Y-77271368D01*
X96386634Y-77289781D01*
X96373846Y-77307024D01*
X96359430Y-77322930D01*
X96343524Y-77337346D01*
X96326281Y-77350134D01*
X96307868Y-77361170D01*
X96288462Y-77370349D01*
X96268250Y-77377581D01*
X96247426Y-77382797D01*
X96226191Y-77385947D01*
X96204750Y-77387000D01*
X95692250Y-77387000D01*
X95670809Y-77385947D01*
X95649574Y-77382797D01*
X95628750Y-77377581D01*
X95608538Y-77370349D01*
X95589132Y-77361170D01*
X95570719Y-77350134D01*
X95553476Y-77337346D01*
X95537570Y-77322930D01*
X95523154Y-77307024D01*
X95510366Y-77289781D01*
X95499330Y-77271368D01*
X95490151Y-77251962D01*
X95482919Y-77231750D01*
X95477703Y-77210926D01*
X95474553Y-77189691D01*
X95473500Y-77168250D01*
X95473500Y-76730750D01*
X95474553Y-76709309D01*
X95477703Y-76688074D01*
X95482919Y-76667250D01*
X95490151Y-76647038D01*
X95499330Y-76627632D01*
X95510366Y-76609219D01*
X95523154Y-76591976D01*
X95537570Y-76576070D01*
X95553476Y-76561654D01*
X95570719Y-76548866D01*
X95589132Y-76537830D01*
X95608538Y-76528651D01*
X95628750Y-76521419D01*
X95649574Y-76516203D01*
X95670809Y-76513053D01*
X95692250Y-76512000D01*
X96204750Y-76512000D01*
X96226191Y-76513053D01*
X96226191Y-76513053D01*
G37*
D19*
X95948500Y-76949500D03*
D12*
G36*
X96226191Y-74938053D02*
X96247426Y-74941203D01*
X96268250Y-74946419D01*
X96288462Y-74953651D01*
X96307868Y-74962830D01*
X96326281Y-74973866D01*
X96343524Y-74986654D01*
X96359430Y-75001070D01*
X96373846Y-75016976D01*
X96386634Y-75034219D01*
X96397670Y-75052632D01*
X96406849Y-75072038D01*
X96414081Y-75092250D01*
X96419297Y-75113074D01*
X96422447Y-75134309D01*
X96423500Y-75155750D01*
X96423500Y-75593250D01*
X96422447Y-75614691D01*
X96419297Y-75635926D01*
X96414081Y-75656750D01*
X96406849Y-75676962D01*
X96397670Y-75696368D01*
X96386634Y-75714781D01*
X96373846Y-75732024D01*
X96359430Y-75747930D01*
X96343524Y-75762346D01*
X96326281Y-75775134D01*
X96307868Y-75786170D01*
X96288462Y-75795349D01*
X96268250Y-75802581D01*
X96247426Y-75807797D01*
X96226191Y-75810947D01*
X96204750Y-75812000D01*
X95692250Y-75812000D01*
X95670809Y-75810947D01*
X95649574Y-75807797D01*
X95628750Y-75802581D01*
X95608538Y-75795349D01*
X95589132Y-75786170D01*
X95570719Y-75775134D01*
X95553476Y-75762346D01*
X95537570Y-75747930D01*
X95523154Y-75732024D01*
X95510366Y-75714781D01*
X95499330Y-75696368D01*
X95490151Y-75676962D01*
X95482919Y-75656750D01*
X95477703Y-75635926D01*
X95474553Y-75614691D01*
X95473500Y-75593250D01*
X95473500Y-75155750D01*
X95474553Y-75134309D01*
X95477703Y-75113074D01*
X95482919Y-75092250D01*
X95490151Y-75072038D01*
X95499330Y-75052632D01*
X95510366Y-75034219D01*
X95523154Y-75016976D01*
X95537570Y-75001070D01*
X95553476Y-74986654D01*
X95570719Y-74973866D01*
X95589132Y-74962830D01*
X95608538Y-74953651D01*
X95628750Y-74946419D01*
X95649574Y-74941203D01*
X95670809Y-74938053D01*
X95692250Y-74937000D01*
X96204750Y-74937000D01*
X96226191Y-74938053D01*
X96226191Y-74938053D01*
G37*
D19*
X95948500Y-75374500D03*
D12*
G36*
X102322191Y-74747553D02*
X102343426Y-74750703D01*
X102364250Y-74755919D01*
X102384462Y-74763151D01*
X102403868Y-74772330D01*
X102422281Y-74783366D01*
X102439524Y-74796154D01*
X102455430Y-74810570D01*
X102469846Y-74826476D01*
X102482634Y-74843719D01*
X102493670Y-74862132D01*
X102502849Y-74881538D01*
X102510081Y-74901750D01*
X102515297Y-74922574D01*
X102518447Y-74943809D01*
X102519500Y-74965250D01*
X102519500Y-75402750D01*
X102518447Y-75424191D01*
X102515297Y-75445426D01*
X102510081Y-75466250D01*
X102502849Y-75486462D01*
X102493670Y-75505868D01*
X102482634Y-75524281D01*
X102469846Y-75541524D01*
X102455430Y-75557430D01*
X102439524Y-75571846D01*
X102422281Y-75584634D01*
X102403868Y-75595670D01*
X102384462Y-75604849D01*
X102364250Y-75612081D01*
X102343426Y-75617297D01*
X102322191Y-75620447D01*
X102300750Y-75621500D01*
X101788250Y-75621500D01*
X101766809Y-75620447D01*
X101745574Y-75617297D01*
X101724750Y-75612081D01*
X101704538Y-75604849D01*
X101685132Y-75595670D01*
X101666719Y-75584634D01*
X101649476Y-75571846D01*
X101633570Y-75557430D01*
X101619154Y-75541524D01*
X101606366Y-75524281D01*
X101595330Y-75505868D01*
X101586151Y-75486462D01*
X101578919Y-75466250D01*
X101573703Y-75445426D01*
X101570553Y-75424191D01*
X101569500Y-75402750D01*
X101569500Y-74965250D01*
X101570553Y-74943809D01*
X101573703Y-74922574D01*
X101578919Y-74901750D01*
X101586151Y-74881538D01*
X101595330Y-74862132D01*
X101606366Y-74843719D01*
X101619154Y-74826476D01*
X101633570Y-74810570D01*
X101649476Y-74796154D01*
X101666719Y-74783366D01*
X101685132Y-74772330D01*
X101704538Y-74763151D01*
X101724750Y-74755919D01*
X101745574Y-74750703D01*
X101766809Y-74747553D01*
X101788250Y-74746500D01*
X102300750Y-74746500D01*
X102322191Y-74747553D01*
X102322191Y-74747553D01*
G37*
D19*
X102044500Y-75184000D03*
D12*
G36*
X102322191Y-73172553D02*
X102343426Y-73175703D01*
X102364250Y-73180919D01*
X102384462Y-73188151D01*
X102403868Y-73197330D01*
X102422281Y-73208366D01*
X102439524Y-73221154D01*
X102455430Y-73235570D01*
X102469846Y-73251476D01*
X102482634Y-73268719D01*
X102493670Y-73287132D01*
X102502849Y-73306538D01*
X102510081Y-73326750D01*
X102515297Y-73347574D01*
X102518447Y-73368809D01*
X102519500Y-73390250D01*
X102519500Y-73827750D01*
X102518447Y-73849191D01*
X102515297Y-73870426D01*
X102510081Y-73891250D01*
X102502849Y-73911462D01*
X102493670Y-73930868D01*
X102482634Y-73949281D01*
X102469846Y-73966524D01*
X102455430Y-73982430D01*
X102439524Y-73996846D01*
X102422281Y-74009634D01*
X102403868Y-74020670D01*
X102384462Y-74029849D01*
X102364250Y-74037081D01*
X102343426Y-74042297D01*
X102322191Y-74045447D01*
X102300750Y-74046500D01*
X101788250Y-74046500D01*
X101766809Y-74045447D01*
X101745574Y-74042297D01*
X101724750Y-74037081D01*
X101704538Y-74029849D01*
X101685132Y-74020670D01*
X101666719Y-74009634D01*
X101649476Y-73996846D01*
X101633570Y-73982430D01*
X101619154Y-73966524D01*
X101606366Y-73949281D01*
X101595330Y-73930868D01*
X101586151Y-73911462D01*
X101578919Y-73891250D01*
X101573703Y-73870426D01*
X101570553Y-73849191D01*
X101569500Y-73827750D01*
X101569500Y-73390250D01*
X101570553Y-73368809D01*
X101573703Y-73347574D01*
X101578919Y-73326750D01*
X101586151Y-73306538D01*
X101595330Y-73287132D01*
X101606366Y-73268719D01*
X101619154Y-73251476D01*
X101633570Y-73235570D01*
X101649476Y-73221154D01*
X101666719Y-73208366D01*
X101685132Y-73197330D01*
X101704538Y-73188151D01*
X101724750Y-73180919D01*
X101745574Y-73175703D01*
X101766809Y-73172553D01*
X101788250Y-73171500D01*
X102300750Y-73171500D01*
X102322191Y-73172553D01*
X102322191Y-73172553D01*
G37*
D19*
X102044500Y-73609000D03*
D20*
X97788000Y-57654500D03*
X106428000Y-57654500D03*
D21*
X97788000Y-61834500D03*
X106428000Y-61834500D03*
D22*
X102358000Y-62749500D03*
X101858000Y-62749500D03*
X101358000Y-62749500D03*
X102858000Y-62749500D03*
X100858000Y-62749500D03*
X103358000Y-62749500D03*
X100358000Y-62749500D03*
X103858000Y-62749500D03*
D23*
X104558000Y-62749500D03*
X99658000Y-62749500D03*
X105333000Y-62749500D03*
X98883000Y-62749500D03*
D24*
X97809500Y-73612600D03*
X100059500Y-73612600D03*
X97809500Y-77162600D03*
D25*
X108559500Y-77162600D03*
D12*
G36*
X105383691Y-74710053D02*
X105404926Y-74713203D01*
X105425750Y-74718419D01*
X105445962Y-74725651D01*
X105465368Y-74734830D01*
X105483781Y-74745866D01*
X105501024Y-74758654D01*
X105516930Y-74773070D01*
X105531346Y-74788976D01*
X105544134Y-74806219D01*
X105555170Y-74824632D01*
X105564349Y-74844038D01*
X105571581Y-74864250D01*
X105576797Y-74885074D01*
X105579947Y-74906309D01*
X105581000Y-74927750D01*
X105581000Y-75440250D01*
X105579947Y-75461691D01*
X105576797Y-75482926D01*
X105571581Y-75503750D01*
X105564349Y-75523962D01*
X105555170Y-75543368D01*
X105544134Y-75561781D01*
X105531346Y-75579024D01*
X105516930Y-75594930D01*
X105501024Y-75609346D01*
X105483781Y-75622134D01*
X105465368Y-75633170D01*
X105445962Y-75642349D01*
X105425750Y-75649581D01*
X105404926Y-75654797D01*
X105383691Y-75657947D01*
X105362250Y-75659000D01*
X104924750Y-75659000D01*
X104903309Y-75657947D01*
X104882074Y-75654797D01*
X104861250Y-75649581D01*
X104841038Y-75642349D01*
X104821632Y-75633170D01*
X104803219Y-75622134D01*
X104785976Y-75609346D01*
X104770070Y-75594930D01*
X104755654Y-75579024D01*
X104742866Y-75561781D01*
X104731830Y-75543368D01*
X104722651Y-75523962D01*
X104715419Y-75503750D01*
X104710203Y-75482926D01*
X104707053Y-75461691D01*
X104706000Y-75440250D01*
X104706000Y-74927750D01*
X104707053Y-74906309D01*
X104710203Y-74885074D01*
X104715419Y-74864250D01*
X104722651Y-74844038D01*
X104731830Y-74824632D01*
X104742866Y-74806219D01*
X104755654Y-74788976D01*
X104770070Y-74773070D01*
X104785976Y-74758654D01*
X104803219Y-74745866D01*
X104821632Y-74734830D01*
X104841038Y-74725651D01*
X104861250Y-74718419D01*
X104882074Y-74713203D01*
X104903309Y-74710053D01*
X104924750Y-74709000D01*
X105362250Y-74709000D01*
X105383691Y-74710053D01*
X105383691Y-74710053D01*
G37*
D19*
X105143500Y-75184000D03*
D12*
G36*
X103808691Y-74710053D02*
X103829926Y-74713203D01*
X103850750Y-74718419D01*
X103870962Y-74725651D01*
X103890368Y-74734830D01*
X103908781Y-74745866D01*
X103926024Y-74758654D01*
X103941930Y-74773070D01*
X103956346Y-74788976D01*
X103969134Y-74806219D01*
X103980170Y-74824632D01*
X103989349Y-74844038D01*
X103996581Y-74864250D01*
X104001797Y-74885074D01*
X104004947Y-74906309D01*
X104006000Y-74927750D01*
X104006000Y-75440250D01*
X104004947Y-75461691D01*
X104001797Y-75482926D01*
X103996581Y-75503750D01*
X103989349Y-75523962D01*
X103980170Y-75543368D01*
X103969134Y-75561781D01*
X103956346Y-75579024D01*
X103941930Y-75594930D01*
X103926024Y-75609346D01*
X103908781Y-75622134D01*
X103890368Y-75633170D01*
X103870962Y-75642349D01*
X103850750Y-75649581D01*
X103829926Y-75654797D01*
X103808691Y-75657947D01*
X103787250Y-75659000D01*
X103349750Y-75659000D01*
X103328309Y-75657947D01*
X103307074Y-75654797D01*
X103286250Y-75649581D01*
X103266038Y-75642349D01*
X103246632Y-75633170D01*
X103228219Y-75622134D01*
X103210976Y-75609346D01*
X103195070Y-75594930D01*
X103180654Y-75579024D01*
X103167866Y-75561781D01*
X103156830Y-75543368D01*
X103147651Y-75523962D01*
X103140419Y-75503750D01*
X103135203Y-75482926D01*
X103132053Y-75461691D01*
X103131000Y-75440250D01*
X103131000Y-74927750D01*
X103132053Y-74906309D01*
X103135203Y-74885074D01*
X103140419Y-74864250D01*
X103147651Y-74844038D01*
X103156830Y-74824632D01*
X103167866Y-74806219D01*
X103180654Y-74788976D01*
X103195070Y-74773070D01*
X103210976Y-74758654D01*
X103228219Y-74745866D01*
X103246632Y-74734830D01*
X103266038Y-74725651D01*
X103286250Y-74718419D01*
X103307074Y-74713203D01*
X103328309Y-74710053D01*
X103349750Y-74709000D01*
X103787250Y-74709000D01*
X103808691Y-74710053D01*
X103808691Y-74710053D01*
G37*
D19*
X103568500Y-75184000D03*
D12*
G36*
X105383691Y-73186053D02*
X105404926Y-73189203D01*
X105425750Y-73194419D01*
X105445962Y-73201651D01*
X105465368Y-73210830D01*
X105483781Y-73221866D01*
X105501024Y-73234654D01*
X105516930Y-73249070D01*
X105531346Y-73264976D01*
X105544134Y-73282219D01*
X105555170Y-73300632D01*
X105564349Y-73320038D01*
X105571581Y-73340250D01*
X105576797Y-73361074D01*
X105579947Y-73382309D01*
X105581000Y-73403750D01*
X105581000Y-73916250D01*
X105579947Y-73937691D01*
X105576797Y-73958926D01*
X105571581Y-73979750D01*
X105564349Y-73999962D01*
X105555170Y-74019368D01*
X105544134Y-74037781D01*
X105531346Y-74055024D01*
X105516930Y-74070930D01*
X105501024Y-74085346D01*
X105483781Y-74098134D01*
X105465368Y-74109170D01*
X105445962Y-74118349D01*
X105425750Y-74125581D01*
X105404926Y-74130797D01*
X105383691Y-74133947D01*
X105362250Y-74135000D01*
X104924750Y-74135000D01*
X104903309Y-74133947D01*
X104882074Y-74130797D01*
X104861250Y-74125581D01*
X104841038Y-74118349D01*
X104821632Y-74109170D01*
X104803219Y-74098134D01*
X104785976Y-74085346D01*
X104770070Y-74070930D01*
X104755654Y-74055024D01*
X104742866Y-74037781D01*
X104731830Y-74019368D01*
X104722651Y-73999962D01*
X104715419Y-73979750D01*
X104710203Y-73958926D01*
X104707053Y-73937691D01*
X104706000Y-73916250D01*
X104706000Y-73403750D01*
X104707053Y-73382309D01*
X104710203Y-73361074D01*
X104715419Y-73340250D01*
X104722651Y-73320038D01*
X104731830Y-73300632D01*
X104742866Y-73282219D01*
X104755654Y-73264976D01*
X104770070Y-73249070D01*
X104785976Y-73234654D01*
X104803219Y-73221866D01*
X104821632Y-73210830D01*
X104841038Y-73201651D01*
X104861250Y-73194419D01*
X104882074Y-73189203D01*
X104903309Y-73186053D01*
X104924750Y-73185000D01*
X105362250Y-73185000D01*
X105383691Y-73186053D01*
X105383691Y-73186053D01*
G37*
D19*
X105143500Y-73660000D03*
D12*
G36*
X103808691Y-73186053D02*
X103829926Y-73189203D01*
X103850750Y-73194419D01*
X103870962Y-73201651D01*
X103890368Y-73210830D01*
X103908781Y-73221866D01*
X103926024Y-73234654D01*
X103941930Y-73249070D01*
X103956346Y-73264976D01*
X103969134Y-73282219D01*
X103980170Y-73300632D01*
X103989349Y-73320038D01*
X103996581Y-73340250D01*
X104001797Y-73361074D01*
X104004947Y-73382309D01*
X104006000Y-73403750D01*
X104006000Y-73916250D01*
X104004947Y-73937691D01*
X104001797Y-73958926D01*
X103996581Y-73979750D01*
X103989349Y-73999962D01*
X103980170Y-74019368D01*
X103969134Y-74037781D01*
X103956346Y-74055024D01*
X103941930Y-74070930D01*
X103926024Y-74085346D01*
X103908781Y-74098134D01*
X103890368Y-74109170D01*
X103870962Y-74118349D01*
X103850750Y-74125581D01*
X103829926Y-74130797D01*
X103808691Y-74133947D01*
X103787250Y-74135000D01*
X103349750Y-74135000D01*
X103328309Y-74133947D01*
X103307074Y-74130797D01*
X103286250Y-74125581D01*
X103266038Y-74118349D01*
X103246632Y-74109170D01*
X103228219Y-74098134D01*
X103210976Y-74085346D01*
X103195070Y-74070930D01*
X103180654Y-74055024D01*
X103167866Y-74037781D01*
X103156830Y-74019368D01*
X103147651Y-73999962D01*
X103140419Y-73979750D01*
X103135203Y-73958926D01*
X103132053Y-73937691D01*
X103131000Y-73916250D01*
X103131000Y-73403750D01*
X103132053Y-73382309D01*
X103135203Y-73361074D01*
X103140419Y-73340250D01*
X103147651Y-73320038D01*
X103156830Y-73300632D01*
X103167866Y-73282219D01*
X103180654Y-73264976D01*
X103195070Y-73249070D01*
X103210976Y-73234654D01*
X103228219Y-73221866D01*
X103246632Y-73210830D01*
X103266038Y-73201651D01*
X103286250Y-73194419D01*
X103307074Y-73189203D01*
X103328309Y-73186053D01*
X103349750Y-73185000D01*
X103787250Y-73185000D01*
X103808691Y-73186053D01*
X103808691Y-73186053D01*
G37*
D19*
X103568500Y-73660000D03*
D26*
X110233500Y-61130000D03*
X109283500Y-61130000D03*
X108333500Y-61130000D03*
X108333500Y-63330000D03*
X110233500Y-63330000D03*
D12*
G36*
X108226505Y-58785204D02*
X108250773Y-58788804D01*
X108274572Y-58794765D01*
X108297671Y-58803030D01*
X108319850Y-58813520D01*
X108340893Y-58826132D01*
X108360599Y-58840747D01*
X108378777Y-58857223D01*
X108395253Y-58875401D01*
X108409868Y-58895107D01*
X108422480Y-58916150D01*
X108432970Y-58938329D01*
X108441235Y-58961428D01*
X108447196Y-58985227D01*
X108450796Y-59009495D01*
X108452000Y-59033999D01*
X108452000Y-59584001D01*
X108450796Y-59608505D01*
X108447196Y-59632773D01*
X108441235Y-59656572D01*
X108432970Y-59679671D01*
X108422480Y-59701850D01*
X108409868Y-59722893D01*
X108395253Y-59742599D01*
X108378777Y-59760777D01*
X108360599Y-59777253D01*
X108340893Y-59791868D01*
X108319850Y-59804480D01*
X108297671Y-59814970D01*
X108274572Y-59823235D01*
X108250773Y-59829196D01*
X108226505Y-59832796D01*
X108202001Y-59834000D01*
X107576999Y-59834000D01*
X107552495Y-59832796D01*
X107528227Y-59829196D01*
X107504428Y-59823235D01*
X107481329Y-59814970D01*
X107459150Y-59804480D01*
X107438107Y-59791868D01*
X107418401Y-59777253D01*
X107400223Y-59760777D01*
X107383747Y-59742599D01*
X107369132Y-59722893D01*
X107356520Y-59701850D01*
X107346030Y-59679671D01*
X107337765Y-59656572D01*
X107331804Y-59632773D01*
X107328204Y-59608505D01*
X107327000Y-59584001D01*
X107327000Y-59033999D01*
X107328204Y-59009495D01*
X107331804Y-58985227D01*
X107337765Y-58961428D01*
X107346030Y-58938329D01*
X107356520Y-58916150D01*
X107369132Y-58895107D01*
X107383747Y-58875401D01*
X107400223Y-58857223D01*
X107418401Y-58840747D01*
X107438107Y-58826132D01*
X107459150Y-58813520D01*
X107481329Y-58803030D01*
X107504428Y-58794765D01*
X107528227Y-58788804D01*
X107552495Y-58785204D01*
X107576999Y-58784000D01*
X108202001Y-58784000D01*
X108226505Y-58785204D01*
X108226505Y-58785204D01*
G37*
D13*
X107889500Y-59309000D03*
D12*
G36*
X110001505Y-58785204D02*
X110025773Y-58788804D01*
X110049572Y-58794765D01*
X110072671Y-58803030D01*
X110094850Y-58813520D01*
X110115893Y-58826132D01*
X110135599Y-58840747D01*
X110153777Y-58857223D01*
X110170253Y-58875401D01*
X110184868Y-58895107D01*
X110197480Y-58916150D01*
X110207970Y-58938329D01*
X110216235Y-58961428D01*
X110222196Y-58985227D01*
X110225796Y-59009495D01*
X110227000Y-59033999D01*
X110227000Y-59584001D01*
X110225796Y-59608505D01*
X110222196Y-59632773D01*
X110216235Y-59656572D01*
X110207970Y-59679671D01*
X110197480Y-59701850D01*
X110184868Y-59722893D01*
X110170253Y-59742599D01*
X110153777Y-59760777D01*
X110135599Y-59777253D01*
X110115893Y-59791868D01*
X110094850Y-59804480D01*
X110072671Y-59814970D01*
X110049572Y-59823235D01*
X110025773Y-59829196D01*
X110001505Y-59832796D01*
X109977001Y-59834000D01*
X109351999Y-59834000D01*
X109327495Y-59832796D01*
X109303227Y-59829196D01*
X109279428Y-59823235D01*
X109256329Y-59814970D01*
X109234150Y-59804480D01*
X109213107Y-59791868D01*
X109193401Y-59777253D01*
X109175223Y-59760777D01*
X109158747Y-59742599D01*
X109144132Y-59722893D01*
X109131520Y-59701850D01*
X109121030Y-59679671D01*
X109112765Y-59656572D01*
X109106804Y-59632773D01*
X109103204Y-59608505D01*
X109102000Y-59584001D01*
X109102000Y-59033999D01*
X109103204Y-59009495D01*
X109106804Y-58985227D01*
X109112765Y-58961428D01*
X109121030Y-58938329D01*
X109131520Y-58916150D01*
X109144132Y-58895107D01*
X109158747Y-58875401D01*
X109175223Y-58857223D01*
X109193401Y-58840747D01*
X109213107Y-58826132D01*
X109234150Y-58813520D01*
X109256329Y-58803030D01*
X109279428Y-58794765D01*
X109303227Y-58788804D01*
X109327495Y-58785204D01*
X109351999Y-58784000D01*
X109977001Y-58784000D01*
X110001505Y-58785204D01*
X110001505Y-58785204D01*
G37*
D13*
X109664500Y-59309000D03*
D12*
G36*
X112012691Y-69630053D02*
X112033926Y-69633203D01*
X112054750Y-69638419D01*
X112074962Y-69645651D01*
X112094368Y-69654830D01*
X112112781Y-69665866D01*
X112130024Y-69678654D01*
X112145930Y-69693070D01*
X112160346Y-69708976D01*
X112173134Y-69726219D01*
X112184170Y-69744632D01*
X112193349Y-69764038D01*
X112200581Y-69784250D01*
X112205797Y-69805074D01*
X112208947Y-69826309D01*
X112210000Y-69847750D01*
X112210000Y-70360250D01*
X112208947Y-70381691D01*
X112205797Y-70402926D01*
X112200581Y-70423750D01*
X112193349Y-70443962D01*
X112184170Y-70463368D01*
X112173134Y-70481781D01*
X112160346Y-70499024D01*
X112145930Y-70514930D01*
X112130024Y-70529346D01*
X112112781Y-70542134D01*
X112094368Y-70553170D01*
X112074962Y-70562349D01*
X112054750Y-70569581D01*
X112033926Y-70574797D01*
X112012691Y-70577947D01*
X111991250Y-70579000D01*
X111553750Y-70579000D01*
X111532309Y-70577947D01*
X111511074Y-70574797D01*
X111490250Y-70569581D01*
X111470038Y-70562349D01*
X111450632Y-70553170D01*
X111432219Y-70542134D01*
X111414976Y-70529346D01*
X111399070Y-70514930D01*
X111384654Y-70499024D01*
X111371866Y-70481781D01*
X111360830Y-70463368D01*
X111351651Y-70443962D01*
X111344419Y-70423750D01*
X111339203Y-70402926D01*
X111336053Y-70381691D01*
X111335000Y-70360250D01*
X111335000Y-69847750D01*
X111336053Y-69826309D01*
X111339203Y-69805074D01*
X111344419Y-69784250D01*
X111351651Y-69764038D01*
X111360830Y-69744632D01*
X111371866Y-69726219D01*
X111384654Y-69708976D01*
X111399070Y-69693070D01*
X111414976Y-69678654D01*
X111432219Y-69665866D01*
X111450632Y-69654830D01*
X111470038Y-69645651D01*
X111490250Y-69638419D01*
X111511074Y-69633203D01*
X111532309Y-69630053D01*
X111553750Y-69629000D01*
X111991250Y-69629000D01*
X112012691Y-69630053D01*
X112012691Y-69630053D01*
G37*
D19*
X111772500Y-70104000D03*
D12*
G36*
X113587691Y-69630053D02*
X113608926Y-69633203D01*
X113629750Y-69638419D01*
X113649962Y-69645651D01*
X113669368Y-69654830D01*
X113687781Y-69665866D01*
X113705024Y-69678654D01*
X113720930Y-69693070D01*
X113735346Y-69708976D01*
X113748134Y-69726219D01*
X113759170Y-69744632D01*
X113768349Y-69764038D01*
X113775581Y-69784250D01*
X113780797Y-69805074D01*
X113783947Y-69826309D01*
X113785000Y-69847750D01*
X113785000Y-70360250D01*
X113783947Y-70381691D01*
X113780797Y-70402926D01*
X113775581Y-70423750D01*
X113768349Y-70443962D01*
X113759170Y-70463368D01*
X113748134Y-70481781D01*
X113735346Y-70499024D01*
X113720930Y-70514930D01*
X113705024Y-70529346D01*
X113687781Y-70542134D01*
X113669368Y-70553170D01*
X113649962Y-70562349D01*
X113629750Y-70569581D01*
X113608926Y-70574797D01*
X113587691Y-70577947D01*
X113566250Y-70579000D01*
X113128750Y-70579000D01*
X113107309Y-70577947D01*
X113086074Y-70574797D01*
X113065250Y-70569581D01*
X113045038Y-70562349D01*
X113025632Y-70553170D01*
X113007219Y-70542134D01*
X112989976Y-70529346D01*
X112974070Y-70514930D01*
X112959654Y-70499024D01*
X112946866Y-70481781D01*
X112935830Y-70463368D01*
X112926651Y-70443962D01*
X112919419Y-70423750D01*
X112914203Y-70402926D01*
X112911053Y-70381691D01*
X112910000Y-70360250D01*
X112910000Y-69847750D01*
X112911053Y-69826309D01*
X112914203Y-69805074D01*
X112919419Y-69784250D01*
X112926651Y-69764038D01*
X112935830Y-69744632D01*
X112946866Y-69726219D01*
X112959654Y-69708976D01*
X112974070Y-69693070D01*
X112989976Y-69678654D01*
X113007219Y-69665866D01*
X113025632Y-69654830D01*
X113045038Y-69645651D01*
X113065250Y-69638419D01*
X113086074Y-69633203D01*
X113107309Y-69630053D01*
X113128750Y-69629000D01*
X113566250Y-69629000D01*
X113587691Y-69630053D01*
X113587691Y-69630053D01*
G37*
D19*
X113347500Y-70104000D03*
D12*
G36*
X92315191Y-69439553D02*
X92336426Y-69442703D01*
X92357250Y-69447919D01*
X92377462Y-69455151D01*
X92396868Y-69464330D01*
X92415281Y-69475366D01*
X92432524Y-69488154D01*
X92448430Y-69502570D01*
X92462846Y-69518476D01*
X92475634Y-69535719D01*
X92486670Y-69554132D01*
X92495849Y-69573538D01*
X92503081Y-69593750D01*
X92508297Y-69614574D01*
X92511447Y-69635809D01*
X92512500Y-69657250D01*
X92512500Y-70169750D01*
X92511447Y-70191191D01*
X92508297Y-70212426D01*
X92503081Y-70233250D01*
X92495849Y-70253462D01*
X92486670Y-70272868D01*
X92475634Y-70291281D01*
X92462846Y-70308524D01*
X92448430Y-70324430D01*
X92432524Y-70338846D01*
X92415281Y-70351634D01*
X92396868Y-70362670D01*
X92377462Y-70371849D01*
X92357250Y-70379081D01*
X92336426Y-70384297D01*
X92315191Y-70387447D01*
X92293750Y-70388500D01*
X91856250Y-70388500D01*
X91834809Y-70387447D01*
X91813574Y-70384297D01*
X91792750Y-70379081D01*
X91772538Y-70371849D01*
X91753132Y-70362670D01*
X91734719Y-70351634D01*
X91717476Y-70338846D01*
X91701570Y-70324430D01*
X91687154Y-70308524D01*
X91674366Y-70291281D01*
X91663330Y-70272868D01*
X91654151Y-70253462D01*
X91646919Y-70233250D01*
X91641703Y-70212426D01*
X91638553Y-70191191D01*
X91637500Y-70169750D01*
X91637500Y-69657250D01*
X91638553Y-69635809D01*
X91641703Y-69614574D01*
X91646919Y-69593750D01*
X91654151Y-69573538D01*
X91663330Y-69554132D01*
X91674366Y-69535719D01*
X91687154Y-69518476D01*
X91701570Y-69502570D01*
X91717476Y-69488154D01*
X91734719Y-69475366D01*
X91753132Y-69464330D01*
X91772538Y-69455151D01*
X91792750Y-69447919D01*
X91813574Y-69442703D01*
X91834809Y-69439553D01*
X91856250Y-69438500D01*
X92293750Y-69438500D01*
X92315191Y-69439553D01*
X92315191Y-69439553D01*
G37*
D19*
X92075000Y-69913500D03*
D12*
G36*
X90740191Y-69439553D02*
X90761426Y-69442703D01*
X90782250Y-69447919D01*
X90802462Y-69455151D01*
X90821868Y-69464330D01*
X90840281Y-69475366D01*
X90857524Y-69488154D01*
X90873430Y-69502570D01*
X90887846Y-69518476D01*
X90900634Y-69535719D01*
X90911670Y-69554132D01*
X90920849Y-69573538D01*
X90928081Y-69593750D01*
X90933297Y-69614574D01*
X90936447Y-69635809D01*
X90937500Y-69657250D01*
X90937500Y-70169750D01*
X90936447Y-70191191D01*
X90933297Y-70212426D01*
X90928081Y-70233250D01*
X90920849Y-70253462D01*
X90911670Y-70272868D01*
X90900634Y-70291281D01*
X90887846Y-70308524D01*
X90873430Y-70324430D01*
X90857524Y-70338846D01*
X90840281Y-70351634D01*
X90821868Y-70362670D01*
X90802462Y-70371849D01*
X90782250Y-70379081D01*
X90761426Y-70384297D01*
X90740191Y-70387447D01*
X90718750Y-70388500D01*
X90281250Y-70388500D01*
X90259809Y-70387447D01*
X90238574Y-70384297D01*
X90217750Y-70379081D01*
X90197538Y-70371849D01*
X90178132Y-70362670D01*
X90159719Y-70351634D01*
X90142476Y-70338846D01*
X90126570Y-70324430D01*
X90112154Y-70308524D01*
X90099366Y-70291281D01*
X90088330Y-70272868D01*
X90079151Y-70253462D01*
X90071919Y-70233250D01*
X90066703Y-70212426D01*
X90063553Y-70191191D01*
X90062500Y-70169750D01*
X90062500Y-69657250D01*
X90063553Y-69635809D01*
X90066703Y-69614574D01*
X90071919Y-69593750D01*
X90079151Y-69573538D01*
X90088330Y-69554132D01*
X90099366Y-69535719D01*
X90112154Y-69518476D01*
X90126570Y-69502570D01*
X90142476Y-69488154D01*
X90159719Y-69475366D01*
X90178132Y-69464330D01*
X90197538Y-69455151D01*
X90217750Y-69447919D01*
X90238574Y-69442703D01*
X90259809Y-69439553D01*
X90281250Y-69438500D01*
X90718750Y-69438500D01*
X90740191Y-69439553D01*
X90740191Y-69439553D01*
G37*
D19*
X90500000Y-69913500D03*
D12*
G36*
X110704191Y-65451053D02*
X110725426Y-65454203D01*
X110746250Y-65459419D01*
X110766462Y-65466651D01*
X110785868Y-65475830D01*
X110804281Y-65486866D01*
X110821524Y-65499654D01*
X110837430Y-65514070D01*
X110851846Y-65529976D01*
X110864634Y-65547219D01*
X110875670Y-65565632D01*
X110884849Y-65585038D01*
X110892081Y-65605250D01*
X110897297Y-65626074D01*
X110900447Y-65647309D01*
X110901500Y-65668750D01*
X110901500Y-66106250D01*
X110900447Y-66127691D01*
X110897297Y-66148926D01*
X110892081Y-66169750D01*
X110884849Y-66189962D01*
X110875670Y-66209368D01*
X110864634Y-66227781D01*
X110851846Y-66245024D01*
X110837430Y-66260930D01*
X110821524Y-66275346D01*
X110804281Y-66288134D01*
X110785868Y-66299170D01*
X110766462Y-66308349D01*
X110746250Y-66315581D01*
X110725426Y-66320797D01*
X110704191Y-66323947D01*
X110682750Y-66325000D01*
X110170250Y-66325000D01*
X110148809Y-66323947D01*
X110127574Y-66320797D01*
X110106750Y-66315581D01*
X110086538Y-66308349D01*
X110067132Y-66299170D01*
X110048719Y-66288134D01*
X110031476Y-66275346D01*
X110015570Y-66260930D01*
X110001154Y-66245024D01*
X109988366Y-66227781D01*
X109977330Y-66209368D01*
X109968151Y-66189962D01*
X109960919Y-66169750D01*
X109955703Y-66148926D01*
X109952553Y-66127691D01*
X109951500Y-66106250D01*
X109951500Y-65668750D01*
X109952553Y-65647309D01*
X109955703Y-65626074D01*
X109960919Y-65605250D01*
X109968151Y-65585038D01*
X109977330Y-65565632D01*
X109988366Y-65547219D01*
X110001154Y-65529976D01*
X110015570Y-65514070D01*
X110031476Y-65499654D01*
X110048719Y-65486866D01*
X110067132Y-65475830D01*
X110086538Y-65466651D01*
X110106750Y-65459419D01*
X110127574Y-65454203D01*
X110148809Y-65451053D01*
X110170250Y-65450000D01*
X110682750Y-65450000D01*
X110704191Y-65451053D01*
X110704191Y-65451053D01*
G37*
D19*
X110426500Y-65887500D03*
D12*
G36*
X110704191Y-67026053D02*
X110725426Y-67029203D01*
X110746250Y-67034419D01*
X110766462Y-67041651D01*
X110785868Y-67050830D01*
X110804281Y-67061866D01*
X110821524Y-67074654D01*
X110837430Y-67089070D01*
X110851846Y-67104976D01*
X110864634Y-67122219D01*
X110875670Y-67140632D01*
X110884849Y-67160038D01*
X110892081Y-67180250D01*
X110897297Y-67201074D01*
X110900447Y-67222309D01*
X110901500Y-67243750D01*
X110901500Y-67681250D01*
X110900447Y-67702691D01*
X110897297Y-67723926D01*
X110892081Y-67744750D01*
X110884849Y-67764962D01*
X110875670Y-67784368D01*
X110864634Y-67802781D01*
X110851846Y-67820024D01*
X110837430Y-67835930D01*
X110821524Y-67850346D01*
X110804281Y-67863134D01*
X110785868Y-67874170D01*
X110766462Y-67883349D01*
X110746250Y-67890581D01*
X110725426Y-67895797D01*
X110704191Y-67898947D01*
X110682750Y-67900000D01*
X110170250Y-67900000D01*
X110148809Y-67898947D01*
X110127574Y-67895797D01*
X110106750Y-67890581D01*
X110086538Y-67883349D01*
X110067132Y-67874170D01*
X110048719Y-67863134D01*
X110031476Y-67850346D01*
X110015570Y-67835930D01*
X110001154Y-67820024D01*
X109988366Y-67802781D01*
X109977330Y-67784368D01*
X109968151Y-67764962D01*
X109960919Y-67744750D01*
X109955703Y-67723926D01*
X109952553Y-67702691D01*
X109951500Y-67681250D01*
X109951500Y-67243750D01*
X109952553Y-67222309D01*
X109955703Y-67201074D01*
X109960919Y-67180250D01*
X109968151Y-67160038D01*
X109977330Y-67140632D01*
X109988366Y-67122219D01*
X110001154Y-67104976D01*
X110015570Y-67089070D01*
X110031476Y-67074654D01*
X110048719Y-67061866D01*
X110067132Y-67050830D01*
X110086538Y-67041651D01*
X110106750Y-67034419D01*
X110127574Y-67029203D01*
X110148809Y-67026053D01*
X110170250Y-67025000D01*
X110682750Y-67025000D01*
X110704191Y-67026053D01*
X110704191Y-67026053D01*
G37*
D19*
X110426500Y-67462500D03*
D27*
X97304100Y-71706500D03*
X97304100Y-70406500D03*
X95304100Y-71706500D03*
X95304100Y-70406500D03*
D28*
X106871500Y-69596000D03*
X110171500Y-69596000D03*
D12*
G36*
X112228191Y-67000553D02*
X112249426Y-67003703D01*
X112270250Y-67008919D01*
X112290462Y-67016151D01*
X112309868Y-67025330D01*
X112328281Y-67036366D01*
X112345524Y-67049154D01*
X112361430Y-67063570D01*
X112375846Y-67079476D01*
X112388634Y-67096719D01*
X112399670Y-67115132D01*
X112408849Y-67134538D01*
X112416081Y-67154750D01*
X112421297Y-67175574D01*
X112424447Y-67196809D01*
X112425500Y-67218250D01*
X112425500Y-67655750D01*
X112424447Y-67677191D01*
X112421297Y-67698426D01*
X112416081Y-67719250D01*
X112408849Y-67739462D01*
X112399670Y-67758868D01*
X112388634Y-67777281D01*
X112375846Y-67794524D01*
X112361430Y-67810430D01*
X112345524Y-67824846D01*
X112328281Y-67837634D01*
X112309868Y-67848670D01*
X112290462Y-67857849D01*
X112270250Y-67865081D01*
X112249426Y-67870297D01*
X112228191Y-67873447D01*
X112206750Y-67874500D01*
X111694250Y-67874500D01*
X111672809Y-67873447D01*
X111651574Y-67870297D01*
X111630750Y-67865081D01*
X111610538Y-67857849D01*
X111591132Y-67848670D01*
X111572719Y-67837634D01*
X111555476Y-67824846D01*
X111539570Y-67810430D01*
X111525154Y-67794524D01*
X111512366Y-67777281D01*
X111501330Y-67758868D01*
X111492151Y-67739462D01*
X111484919Y-67719250D01*
X111479703Y-67698426D01*
X111476553Y-67677191D01*
X111475500Y-67655750D01*
X111475500Y-67218250D01*
X111476553Y-67196809D01*
X111479703Y-67175574D01*
X111484919Y-67154750D01*
X111492151Y-67134538D01*
X111501330Y-67115132D01*
X111512366Y-67096719D01*
X111525154Y-67079476D01*
X111539570Y-67063570D01*
X111555476Y-67049154D01*
X111572719Y-67036366D01*
X111591132Y-67025330D01*
X111610538Y-67016151D01*
X111630750Y-67008919D01*
X111651574Y-67003703D01*
X111672809Y-67000553D01*
X111694250Y-66999500D01*
X112206750Y-66999500D01*
X112228191Y-67000553D01*
X112228191Y-67000553D01*
G37*
D19*
X111950500Y-67437000D03*
D12*
G36*
X112228191Y-65425553D02*
X112249426Y-65428703D01*
X112270250Y-65433919D01*
X112290462Y-65441151D01*
X112309868Y-65450330D01*
X112328281Y-65461366D01*
X112345524Y-65474154D01*
X112361430Y-65488570D01*
X112375846Y-65504476D01*
X112388634Y-65521719D01*
X112399670Y-65540132D01*
X112408849Y-65559538D01*
X112416081Y-65579750D01*
X112421297Y-65600574D01*
X112424447Y-65621809D01*
X112425500Y-65643250D01*
X112425500Y-66080750D01*
X112424447Y-66102191D01*
X112421297Y-66123426D01*
X112416081Y-66144250D01*
X112408849Y-66164462D01*
X112399670Y-66183868D01*
X112388634Y-66202281D01*
X112375846Y-66219524D01*
X112361430Y-66235430D01*
X112345524Y-66249846D01*
X112328281Y-66262634D01*
X112309868Y-66273670D01*
X112290462Y-66282849D01*
X112270250Y-66290081D01*
X112249426Y-66295297D01*
X112228191Y-66298447D01*
X112206750Y-66299500D01*
X111694250Y-66299500D01*
X111672809Y-66298447D01*
X111651574Y-66295297D01*
X111630750Y-66290081D01*
X111610538Y-66282849D01*
X111591132Y-66273670D01*
X111572719Y-66262634D01*
X111555476Y-66249846D01*
X111539570Y-66235430D01*
X111525154Y-66219524D01*
X111512366Y-66202281D01*
X111501330Y-66183868D01*
X111492151Y-66164462D01*
X111484919Y-66144250D01*
X111479703Y-66123426D01*
X111476553Y-66102191D01*
X111475500Y-66080750D01*
X111475500Y-65643250D01*
X111476553Y-65621809D01*
X111479703Y-65600574D01*
X111484919Y-65579750D01*
X111492151Y-65559538D01*
X111501330Y-65540132D01*
X111512366Y-65521719D01*
X111525154Y-65504476D01*
X111539570Y-65488570D01*
X111555476Y-65474154D01*
X111572719Y-65461366D01*
X111591132Y-65450330D01*
X111610538Y-65441151D01*
X111630750Y-65433919D01*
X111651574Y-65428703D01*
X111672809Y-65425553D01*
X111694250Y-65424500D01*
X112206750Y-65424500D01*
X112228191Y-65425553D01*
X112228191Y-65425553D01*
G37*
D19*
X111950500Y-65862000D03*
D12*
G36*
X106856691Y-73186053D02*
X106877926Y-73189203D01*
X106898750Y-73194419D01*
X106918962Y-73201651D01*
X106938368Y-73210830D01*
X106956781Y-73221866D01*
X106974024Y-73234654D01*
X106989930Y-73249070D01*
X107004346Y-73264976D01*
X107017134Y-73282219D01*
X107028170Y-73300632D01*
X107037349Y-73320038D01*
X107044581Y-73340250D01*
X107049797Y-73361074D01*
X107052947Y-73382309D01*
X107054000Y-73403750D01*
X107054000Y-73916250D01*
X107052947Y-73937691D01*
X107049797Y-73958926D01*
X107044581Y-73979750D01*
X107037349Y-73999962D01*
X107028170Y-74019368D01*
X107017134Y-74037781D01*
X107004346Y-74055024D01*
X106989930Y-74070930D01*
X106974024Y-74085346D01*
X106956781Y-74098134D01*
X106938368Y-74109170D01*
X106918962Y-74118349D01*
X106898750Y-74125581D01*
X106877926Y-74130797D01*
X106856691Y-74133947D01*
X106835250Y-74135000D01*
X106397750Y-74135000D01*
X106376309Y-74133947D01*
X106355074Y-74130797D01*
X106334250Y-74125581D01*
X106314038Y-74118349D01*
X106294632Y-74109170D01*
X106276219Y-74098134D01*
X106258976Y-74085346D01*
X106243070Y-74070930D01*
X106228654Y-74055024D01*
X106215866Y-74037781D01*
X106204830Y-74019368D01*
X106195651Y-73999962D01*
X106188419Y-73979750D01*
X106183203Y-73958926D01*
X106180053Y-73937691D01*
X106179000Y-73916250D01*
X106179000Y-73403750D01*
X106180053Y-73382309D01*
X106183203Y-73361074D01*
X106188419Y-73340250D01*
X106195651Y-73320038D01*
X106204830Y-73300632D01*
X106215866Y-73282219D01*
X106228654Y-73264976D01*
X106243070Y-73249070D01*
X106258976Y-73234654D01*
X106276219Y-73221866D01*
X106294632Y-73210830D01*
X106314038Y-73201651D01*
X106334250Y-73194419D01*
X106355074Y-73189203D01*
X106376309Y-73186053D01*
X106397750Y-73185000D01*
X106835250Y-73185000D01*
X106856691Y-73186053D01*
X106856691Y-73186053D01*
G37*
D19*
X106616500Y-73660000D03*
D12*
G36*
X108431691Y-73186053D02*
X108452926Y-73189203D01*
X108473750Y-73194419D01*
X108493962Y-73201651D01*
X108513368Y-73210830D01*
X108531781Y-73221866D01*
X108549024Y-73234654D01*
X108564930Y-73249070D01*
X108579346Y-73264976D01*
X108592134Y-73282219D01*
X108603170Y-73300632D01*
X108612349Y-73320038D01*
X108619581Y-73340250D01*
X108624797Y-73361074D01*
X108627947Y-73382309D01*
X108629000Y-73403750D01*
X108629000Y-73916250D01*
X108627947Y-73937691D01*
X108624797Y-73958926D01*
X108619581Y-73979750D01*
X108612349Y-73999962D01*
X108603170Y-74019368D01*
X108592134Y-74037781D01*
X108579346Y-74055024D01*
X108564930Y-74070930D01*
X108549024Y-74085346D01*
X108531781Y-74098134D01*
X108513368Y-74109170D01*
X108493962Y-74118349D01*
X108473750Y-74125581D01*
X108452926Y-74130797D01*
X108431691Y-74133947D01*
X108410250Y-74135000D01*
X107972750Y-74135000D01*
X107951309Y-74133947D01*
X107930074Y-74130797D01*
X107909250Y-74125581D01*
X107889038Y-74118349D01*
X107869632Y-74109170D01*
X107851219Y-74098134D01*
X107833976Y-74085346D01*
X107818070Y-74070930D01*
X107803654Y-74055024D01*
X107790866Y-74037781D01*
X107779830Y-74019368D01*
X107770651Y-73999962D01*
X107763419Y-73979750D01*
X107758203Y-73958926D01*
X107755053Y-73937691D01*
X107754000Y-73916250D01*
X107754000Y-73403750D01*
X107755053Y-73382309D01*
X107758203Y-73361074D01*
X107763419Y-73340250D01*
X107770651Y-73320038D01*
X107779830Y-73300632D01*
X107790866Y-73282219D01*
X107803654Y-73264976D01*
X107818070Y-73249070D01*
X107833976Y-73234654D01*
X107851219Y-73221866D01*
X107869632Y-73210830D01*
X107889038Y-73201651D01*
X107909250Y-73194419D01*
X107930074Y-73189203D01*
X107951309Y-73186053D01*
X107972750Y-73185000D01*
X108410250Y-73185000D01*
X108431691Y-73186053D01*
X108431691Y-73186053D01*
G37*
D19*
X108191500Y-73660000D03*
D12*
G36*
X93813191Y-70048553D02*
X93834426Y-70051703D01*
X93855250Y-70056919D01*
X93875462Y-70064151D01*
X93894868Y-70073330D01*
X93913281Y-70084366D01*
X93930524Y-70097154D01*
X93946430Y-70111570D01*
X93960846Y-70127476D01*
X93973634Y-70144719D01*
X93984670Y-70163132D01*
X93993849Y-70182538D01*
X94001081Y-70202750D01*
X94006297Y-70223574D01*
X94009447Y-70244809D01*
X94010500Y-70266250D01*
X94010500Y-70703750D01*
X94009447Y-70725191D01*
X94006297Y-70746426D01*
X94001081Y-70767250D01*
X93993849Y-70787462D01*
X93984670Y-70806868D01*
X93973634Y-70825281D01*
X93960846Y-70842524D01*
X93946430Y-70858430D01*
X93930524Y-70872846D01*
X93913281Y-70885634D01*
X93894868Y-70896670D01*
X93875462Y-70905849D01*
X93855250Y-70913081D01*
X93834426Y-70918297D01*
X93813191Y-70921447D01*
X93791750Y-70922500D01*
X93279250Y-70922500D01*
X93257809Y-70921447D01*
X93236574Y-70918297D01*
X93215750Y-70913081D01*
X93195538Y-70905849D01*
X93176132Y-70896670D01*
X93157719Y-70885634D01*
X93140476Y-70872846D01*
X93124570Y-70858430D01*
X93110154Y-70842524D01*
X93097366Y-70825281D01*
X93086330Y-70806868D01*
X93077151Y-70787462D01*
X93069919Y-70767250D01*
X93064703Y-70746426D01*
X93061553Y-70725191D01*
X93060500Y-70703750D01*
X93060500Y-70266250D01*
X93061553Y-70244809D01*
X93064703Y-70223574D01*
X93069919Y-70202750D01*
X93077151Y-70182538D01*
X93086330Y-70163132D01*
X93097366Y-70144719D01*
X93110154Y-70127476D01*
X93124570Y-70111570D01*
X93140476Y-70097154D01*
X93157719Y-70084366D01*
X93176132Y-70073330D01*
X93195538Y-70064151D01*
X93215750Y-70056919D01*
X93236574Y-70051703D01*
X93257809Y-70048553D01*
X93279250Y-70047500D01*
X93791750Y-70047500D01*
X93813191Y-70048553D01*
X93813191Y-70048553D01*
G37*
D19*
X93535500Y-70485000D03*
D12*
G36*
X93813191Y-68473553D02*
X93834426Y-68476703D01*
X93855250Y-68481919D01*
X93875462Y-68489151D01*
X93894868Y-68498330D01*
X93913281Y-68509366D01*
X93930524Y-68522154D01*
X93946430Y-68536570D01*
X93960846Y-68552476D01*
X93973634Y-68569719D01*
X93984670Y-68588132D01*
X93993849Y-68607538D01*
X94001081Y-68627750D01*
X94006297Y-68648574D01*
X94009447Y-68669809D01*
X94010500Y-68691250D01*
X94010500Y-69128750D01*
X94009447Y-69150191D01*
X94006297Y-69171426D01*
X94001081Y-69192250D01*
X93993849Y-69212462D01*
X93984670Y-69231868D01*
X93973634Y-69250281D01*
X93960846Y-69267524D01*
X93946430Y-69283430D01*
X93930524Y-69297846D01*
X93913281Y-69310634D01*
X93894868Y-69321670D01*
X93875462Y-69330849D01*
X93855250Y-69338081D01*
X93834426Y-69343297D01*
X93813191Y-69346447D01*
X93791750Y-69347500D01*
X93279250Y-69347500D01*
X93257809Y-69346447D01*
X93236574Y-69343297D01*
X93215750Y-69338081D01*
X93195538Y-69330849D01*
X93176132Y-69321670D01*
X93157719Y-69310634D01*
X93140476Y-69297846D01*
X93124570Y-69283430D01*
X93110154Y-69267524D01*
X93097366Y-69250281D01*
X93086330Y-69231868D01*
X93077151Y-69212462D01*
X93069919Y-69192250D01*
X93064703Y-69171426D01*
X93061553Y-69150191D01*
X93060500Y-69128750D01*
X93060500Y-68691250D01*
X93061553Y-68669809D01*
X93064703Y-68648574D01*
X93069919Y-68627750D01*
X93077151Y-68607538D01*
X93086330Y-68588132D01*
X93097366Y-68569719D01*
X93110154Y-68552476D01*
X93124570Y-68536570D01*
X93140476Y-68522154D01*
X93157719Y-68509366D01*
X93176132Y-68498330D01*
X93195538Y-68489151D01*
X93215750Y-68481919D01*
X93236574Y-68476703D01*
X93257809Y-68473553D01*
X93279250Y-68472500D01*
X93791750Y-68472500D01*
X93813191Y-68473553D01*
X93813191Y-68473553D01*
G37*
D19*
X93535500Y-68910000D03*
D12*
G36*
X106856691Y-71154053D02*
X106877926Y-71157203D01*
X106898750Y-71162419D01*
X106918962Y-71169651D01*
X106938368Y-71178830D01*
X106956781Y-71189866D01*
X106974024Y-71202654D01*
X106989930Y-71217070D01*
X107004346Y-71232976D01*
X107017134Y-71250219D01*
X107028170Y-71268632D01*
X107037349Y-71288038D01*
X107044581Y-71308250D01*
X107049797Y-71329074D01*
X107052947Y-71350309D01*
X107054000Y-71371750D01*
X107054000Y-71884250D01*
X107052947Y-71905691D01*
X107049797Y-71926926D01*
X107044581Y-71947750D01*
X107037349Y-71967962D01*
X107028170Y-71987368D01*
X107017134Y-72005781D01*
X107004346Y-72023024D01*
X106989930Y-72038930D01*
X106974024Y-72053346D01*
X106956781Y-72066134D01*
X106938368Y-72077170D01*
X106918962Y-72086349D01*
X106898750Y-72093581D01*
X106877926Y-72098797D01*
X106856691Y-72101947D01*
X106835250Y-72103000D01*
X106397750Y-72103000D01*
X106376309Y-72101947D01*
X106355074Y-72098797D01*
X106334250Y-72093581D01*
X106314038Y-72086349D01*
X106294632Y-72077170D01*
X106276219Y-72066134D01*
X106258976Y-72053346D01*
X106243070Y-72038930D01*
X106228654Y-72023024D01*
X106215866Y-72005781D01*
X106204830Y-71987368D01*
X106195651Y-71967962D01*
X106188419Y-71947750D01*
X106183203Y-71926926D01*
X106180053Y-71905691D01*
X106179000Y-71884250D01*
X106179000Y-71371750D01*
X106180053Y-71350309D01*
X106183203Y-71329074D01*
X106188419Y-71308250D01*
X106195651Y-71288038D01*
X106204830Y-71268632D01*
X106215866Y-71250219D01*
X106228654Y-71232976D01*
X106243070Y-71217070D01*
X106258976Y-71202654D01*
X106276219Y-71189866D01*
X106294632Y-71178830D01*
X106314038Y-71169651D01*
X106334250Y-71162419D01*
X106355074Y-71157203D01*
X106376309Y-71154053D01*
X106397750Y-71153000D01*
X106835250Y-71153000D01*
X106856691Y-71154053D01*
X106856691Y-71154053D01*
G37*
D19*
X106616500Y-71628000D03*
D12*
G36*
X108431691Y-71154053D02*
X108452926Y-71157203D01*
X108473750Y-71162419D01*
X108493962Y-71169651D01*
X108513368Y-71178830D01*
X108531781Y-71189866D01*
X108549024Y-71202654D01*
X108564930Y-71217070D01*
X108579346Y-71232976D01*
X108592134Y-71250219D01*
X108603170Y-71268632D01*
X108612349Y-71288038D01*
X108619581Y-71308250D01*
X108624797Y-71329074D01*
X108627947Y-71350309D01*
X108629000Y-71371750D01*
X108629000Y-71884250D01*
X108627947Y-71905691D01*
X108624797Y-71926926D01*
X108619581Y-71947750D01*
X108612349Y-71967962D01*
X108603170Y-71987368D01*
X108592134Y-72005781D01*
X108579346Y-72023024D01*
X108564930Y-72038930D01*
X108549024Y-72053346D01*
X108531781Y-72066134D01*
X108513368Y-72077170D01*
X108493962Y-72086349D01*
X108473750Y-72093581D01*
X108452926Y-72098797D01*
X108431691Y-72101947D01*
X108410250Y-72103000D01*
X107972750Y-72103000D01*
X107951309Y-72101947D01*
X107930074Y-72098797D01*
X107909250Y-72093581D01*
X107889038Y-72086349D01*
X107869632Y-72077170D01*
X107851219Y-72066134D01*
X107833976Y-72053346D01*
X107818070Y-72038930D01*
X107803654Y-72023024D01*
X107790866Y-72005781D01*
X107779830Y-71987368D01*
X107770651Y-71967962D01*
X107763419Y-71947750D01*
X107758203Y-71926926D01*
X107755053Y-71905691D01*
X107754000Y-71884250D01*
X107754000Y-71371750D01*
X107755053Y-71350309D01*
X107758203Y-71329074D01*
X107763419Y-71308250D01*
X107770651Y-71288038D01*
X107779830Y-71268632D01*
X107790866Y-71250219D01*
X107803654Y-71232976D01*
X107818070Y-71217070D01*
X107833976Y-71202654D01*
X107851219Y-71189866D01*
X107869632Y-71178830D01*
X107889038Y-71169651D01*
X107909250Y-71162419D01*
X107930074Y-71157203D01*
X107951309Y-71154053D01*
X107972750Y-71153000D01*
X108410250Y-71153000D01*
X108431691Y-71154053D01*
X108431691Y-71154053D01*
G37*
D19*
X108191500Y-71628000D03*
D29*
X111971000Y-73657500D03*
X111971000Y-72707500D03*
X111971000Y-71757500D03*
X109771000Y-71757500D03*
X109771000Y-73657500D03*
D30*
X93696500Y-73167000D03*
X93696500Y-72517000D03*
X93696500Y-71867000D03*
X91596500Y-71867000D03*
X91596500Y-72517000D03*
X91596500Y-73167000D03*
D31*
X92646500Y-72517000D03*
D12*
G36*
X92416191Y-61869553D02*
X92437426Y-61872703D01*
X92458250Y-61877919D01*
X92478462Y-61885151D01*
X92497868Y-61894330D01*
X92516281Y-61905366D01*
X92533524Y-61918154D01*
X92549430Y-61932570D01*
X92563846Y-61948476D01*
X92576634Y-61965719D01*
X92587670Y-61984132D01*
X92596849Y-62003538D01*
X92604081Y-62023750D01*
X92609297Y-62044574D01*
X92612447Y-62065809D01*
X92613500Y-62087250D01*
X92613500Y-62524750D01*
X92612447Y-62546191D01*
X92609297Y-62567426D01*
X92604081Y-62588250D01*
X92596849Y-62608462D01*
X92587670Y-62627868D01*
X92576634Y-62646281D01*
X92563846Y-62663524D01*
X92549430Y-62679430D01*
X92533524Y-62693846D01*
X92516281Y-62706634D01*
X92497868Y-62717670D01*
X92478462Y-62726849D01*
X92458250Y-62734081D01*
X92437426Y-62739297D01*
X92416191Y-62742447D01*
X92394750Y-62743500D01*
X91882250Y-62743500D01*
X91860809Y-62742447D01*
X91839574Y-62739297D01*
X91818750Y-62734081D01*
X91798538Y-62726849D01*
X91779132Y-62717670D01*
X91760719Y-62706634D01*
X91743476Y-62693846D01*
X91727570Y-62679430D01*
X91713154Y-62663524D01*
X91700366Y-62646281D01*
X91689330Y-62627868D01*
X91680151Y-62608462D01*
X91672919Y-62588250D01*
X91667703Y-62567426D01*
X91664553Y-62546191D01*
X91663500Y-62524750D01*
X91663500Y-62087250D01*
X91664553Y-62065809D01*
X91667703Y-62044574D01*
X91672919Y-62023750D01*
X91680151Y-62003538D01*
X91689330Y-61984132D01*
X91700366Y-61965719D01*
X91713154Y-61948476D01*
X91727570Y-61932570D01*
X91743476Y-61918154D01*
X91760719Y-61905366D01*
X91779132Y-61894330D01*
X91798538Y-61885151D01*
X91818750Y-61877919D01*
X91839574Y-61872703D01*
X91860809Y-61869553D01*
X91882250Y-61868500D01*
X92394750Y-61868500D01*
X92416191Y-61869553D01*
X92416191Y-61869553D01*
G37*
D19*
X92138500Y-62306000D03*
D12*
G36*
X92416191Y-63444553D02*
X92437426Y-63447703D01*
X92458250Y-63452919D01*
X92478462Y-63460151D01*
X92497868Y-63469330D01*
X92516281Y-63480366D01*
X92533524Y-63493154D01*
X92549430Y-63507570D01*
X92563846Y-63523476D01*
X92576634Y-63540719D01*
X92587670Y-63559132D01*
X92596849Y-63578538D01*
X92604081Y-63598750D01*
X92609297Y-63619574D01*
X92612447Y-63640809D01*
X92613500Y-63662250D01*
X92613500Y-64099750D01*
X92612447Y-64121191D01*
X92609297Y-64142426D01*
X92604081Y-64163250D01*
X92596849Y-64183462D01*
X92587670Y-64202868D01*
X92576634Y-64221281D01*
X92563846Y-64238524D01*
X92549430Y-64254430D01*
X92533524Y-64268846D01*
X92516281Y-64281634D01*
X92497868Y-64292670D01*
X92478462Y-64301849D01*
X92458250Y-64309081D01*
X92437426Y-64314297D01*
X92416191Y-64317447D01*
X92394750Y-64318500D01*
X91882250Y-64318500D01*
X91860809Y-64317447D01*
X91839574Y-64314297D01*
X91818750Y-64309081D01*
X91798538Y-64301849D01*
X91779132Y-64292670D01*
X91760719Y-64281634D01*
X91743476Y-64268846D01*
X91727570Y-64254430D01*
X91713154Y-64238524D01*
X91700366Y-64221281D01*
X91689330Y-64202868D01*
X91680151Y-64183462D01*
X91672919Y-64163250D01*
X91667703Y-64142426D01*
X91664553Y-64121191D01*
X91663500Y-64099750D01*
X91663500Y-63662250D01*
X91664553Y-63640809D01*
X91667703Y-63619574D01*
X91672919Y-63598750D01*
X91680151Y-63578538D01*
X91689330Y-63559132D01*
X91700366Y-63540719D01*
X91713154Y-63523476D01*
X91727570Y-63507570D01*
X91743476Y-63493154D01*
X91760719Y-63480366D01*
X91779132Y-63469330D01*
X91798538Y-63460151D01*
X91818750Y-63452919D01*
X91839574Y-63447703D01*
X91860809Y-63444553D01*
X91882250Y-63443500D01*
X92394750Y-63443500D01*
X92416191Y-63444553D01*
X92416191Y-63444553D01*
G37*
D19*
X92138500Y-63881000D03*
D12*
G36*
X95121691Y-61375053D02*
X95142926Y-61378203D01*
X95163750Y-61383419D01*
X95183962Y-61390651D01*
X95203368Y-61399830D01*
X95221781Y-61410866D01*
X95239024Y-61423654D01*
X95254930Y-61438070D01*
X95269346Y-61453976D01*
X95282134Y-61471219D01*
X95293170Y-61489632D01*
X95302349Y-61509038D01*
X95309581Y-61529250D01*
X95314797Y-61550074D01*
X95317947Y-61571309D01*
X95319000Y-61592750D01*
X95319000Y-62105250D01*
X95317947Y-62126691D01*
X95314797Y-62147926D01*
X95309581Y-62168750D01*
X95302349Y-62188962D01*
X95293170Y-62208368D01*
X95282134Y-62226781D01*
X95269346Y-62244024D01*
X95254930Y-62259930D01*
X95239024Y-62274346D01*
X95221781Y-62287134D01*
X95203368Y-62298170D01*
X95183962Y-62307349D01*
X95163750Y-62314581D01*
X95142926Y-62319797D01*
X95121691Y-62322947D01*
X95100250Y-62324000D01*
X94662750Y-62324000D01*
X94641309Y-62322947D01*
X94620074Y-62319797D01*
X94599250Y-62314581D01*
X94579038Y-62307349D01*
X94559632Y-62298170D01*
X94541219Y-62287134D01*
X94523976Y-62274346D01*
X94508070Y-62259930D01*
X94493654Y-62244024D01*
X94480866Y-62226781D01*
X94469830Y-62208368D01*
X94460651Y-62188962D01*
X94453419Y-62168750D01*
X94448203Y-62147926D01*
X94445053Y-62126691D01*
X94444000Y-62105250D01*
X94444000Y-61592750D01*
X94445053Y-61571309D01*
X94448203Y-61550074D01*
X94453419Y-61529250D01*
X94460651Y-61509038D01*
X94469830Y-61489632D01*
X94480866Y-61471219D01*
X94493654Y-61453976D01*
X94508070Y-61438070D01*
X94523976Y-61423654D01*
X94541219Y-61410866D01*
X94559632Y-61399830D01*
X94579038Y-61390651D01*
X94599250Y-61383419D01*
X94620074Y-61378203D01*
X94641309Y-61375053D01*
X94662750Y-61374000D01*
X95100250Y-61374000D01*
X95121691Y-61375053D01*
X95121691Y-61375053D01*
G37*
D19*
X94881500Y-61849000D03*
D12*
G36*
X96696691Y-61375053D02*
X96717926Y-61378203D01*
X96738750Y-61383419D01*
X96758962Y-61390651D01*
X96778368Y-61399830D01*
X96796781Y-61410866D01*
X96814024Y-61423654D01*
X96829930Y-61438070D01*
X96844346Y-61453976D01*
X96857134Y-61471219D01*
X96868170Y-61489632D01*
X96877349Y-61509038D01*
X96884581Y-61529250D01*
X96889797Y-61550074D01*
X96892947Y-61571309D01*
X96894000Y-61592750D01*
X96894000Y-62105250D01*
X96892947Y-62126691D01*
X96889797Y-62147926D01*
X96884581Y-62168750D01*
X96877349Y-62188962D01*
X96868170Y-62208368D01*
X96857134Y-62226781D01*
X96844346Y-62244024D01*
X96829930Y-62259930D01*
X96814024Y-62274346D01*
X96796781Y-62287134D01*
X96778368Y-62298170D01*
X96758962Y-62307349D01*
X96738750Y-62314581D01*
X96717926Y-62319797D01*
X96696691Y-62322947D01*
X96675250Y-62324000D01*
X96237750Y-62324000D01*
X96216309Y-62322947D01*
X96195074Y-62319797D01*
X96174250Y-62314581D01*
X96154038Y-62307349D01*
X96134632Y-62298170D01*
X96116219Y-62287134D01*
X96098976Y-62274346D01*
X96083070Y-62259930D01*
X96068654Y-62244024D01*
X96055866Y-62226781D01*
X96044830Y-62208368D01*
X96035651Y-62188962D01*
X96028419Y-62168750D01*
X96023203Y-62147926D01*
X96020053Y-62126691D01*
X96019000Y-62105250D01*
X96019000Y-61592750D01*
X96020053Y-61571309D01*
X96023203Y-61550074D01*
X96028419Y-61529250D01*
X96035651Y-61509038D01*
X96044830Y-61489632D01*
X96055866Y-61471219D01*
X96068654Y-61453976D01*
X96083070Y-61438070D01*
X96098976Y-61423654D01*
X96116219Y-61410866D01*
X96134632Y-61399830D01*
X96154038Y-61390651D01*
X96174250Y-61383419D01*
X96195074Y-61378203D01*
X96216309Y-61375053D01*
X96237750Y-61374000D01*
X96675250Y-61374000D01*
X96696691Y-61375053D01*
X96696691Y-61375053D01*
G37*
D19*
X96456500Y-61849000D03*
D12*
G36*
X93953691Y-64931053D02*
X93974926Y-64934203D01*
X93995750Y-64939419D01*
X94015962Y-64946651D01*
X94035368Y-64955830D01*
X94053781Y-64966866D01*
X94071024Y-64979654D01*
X94086930Y-64994070D01*
X94101346Y-65009976D01*
X94114134Y-65027219D01*
X94125170Y-65045632D01*
X94134349Y-65065038D01*
X94141581Y-65085250D01*
X94146797Y-65106074D01*
X94149947Y-65127309D01*
X94151000Y-65148750D01*
X94151000Y-65661250D01*
X94149947Y-65682691D01*
X94146797Y-65703926D01*
X94141581Y-65724750D01*
X94134349Y-65744962D01*
X94125170Y-65764368D01*
X94114134Y-65782781D01*
X94101346Y-65800024D01*
X94086930Y-65815930D01*
X94071024Y-65830346D01*
X94053781Y-65843134D01*
X94035368Y-65854170D01*
X94015962Y-65863349D01*
X93995750Y-65870581D01*
X93974926Y-65875797D01*
X93953691Y-65878947D01*
X93932250Y-65880000D01*
X93494750Y-65880000D01*
X93473309Y-65878947D01*
X93452074Y-65875797D01*
X93431250Y-65870581D01*
X93411038Y-65863349D01*
X93391632Y-65854170D01*
X93373219Y-65843134D01*
X93355976Y-65830346D01*
X93340070Y-65815930D01*
X93325654Y-65800024D01*
X93312866Y-65782781D01*
X93301830Y-65764368D01*
X93292651Y-65744962D01*
X93285419Y-65724750D01*
X93280203Y-65703926D01*
X93277053Y-65682691D01*
X93276000Y-65661250D01*
X93276000Y-65148750D01*
X93277053Y-65127309D01*
X93280203Y-65106074D01*
X93285419Y-65085250D01*
X93292651Y-65065038D01*
X93301830Y-65045632D01*
X93312866Y-65027219D01*
X93325654Y-65009976D01*
X93340070Y-64994070D01*
X93355976Y-64979654D01*
X93373219Y-64966866D01*
X93391632Y-64955830D01*
X93411038Y-64946651D01*
X93431250Y-64939419D01*
X93452074Y-64934203D01*
X93473309Y-64931053D01*
X93494750Y-64930000D01*
X93932250Y-64930000D01*
X93953691Y-64931053D01*
X93953691Y-64931053D01*
G37*
D19*
X93713500Y-65405000D03*
D12*
G36*
X92378691Y-64931053D02*
X92399926Y-64934203D01*
X92420750Y-64939419D01*
X92440962Y-64946651D01*
X92460368Y-64955830D01*
X92478781Y-64966866D01*
X92496024Y-64979654D01*
X92511930Y-64994070D01*
X92526346Y-65009976D01*
X92539134Y-65027219D01*
X92550170Y-65045632D01*
X92559349Y-65065038D01*
X92566581Y-65085250D01*
X92571797Y-65106074D01*
X92574947Y-65127309D01*
X92576000Y-65148750D01*
X92576000Y-65661250D01*
X92574947Y-65682691D01*
X92571797Y-65703926D01*
X92566581Y-65724750D01*
X92559349Y-65744962D01*
X92550170Y-65764368D01*
X92539134Y-65782781D01*
X92526346Y-65800024D01*
X92511930Y-65815930D01*
X92496024Y-65830346D01*
X92478781Y-65843134D01*
X92460368Y-65854170D01*
X92440962Y-65863349D01*
X92420750Y-65870581D01*
X92399926Y-65875797D01*
X92378691Y-65878947D01*
X92357250Y-65880000D01*
X91919750Y-65880000D01*
X91898309Y-65878947D01*
X91877074Y-65875797D01*
X91856250Y-65870581D01*
X91836038Y-65863349D01*
X91816632Y-65854170D01*
X91798219Y-65843134D01*
X91780976Y-65830346D01*
X91765070Y-65815930D01*
X91750654Y-65800024D01*
X91737866Y-65782781D01*
X91726830Y-65764368D01*
X91717651Y-65744962D01*
X91710419Y-65724750D01*
X91705203Y-65703926D01*
X91702053Y-65682691D01*
X91701000Y-65661250D01*
X91701000Y-65148750D01*
X91702053Y-65127309D01*
X91705203Y-65106074D01*
X91710419Y-65085250D01*
X91717651Y-65065038D01*
X91726830Y-65045632D01*
X91737866Y-65027219D01*
X91750654Y-65009976D01*
X91765070Y-64994070D01*
X91780976Y-64979654D01*
X91798219Y-64966866D01*
X91816632Y-64955830D01*
X91836038Y-64946651D01*
X91856250Y-64939419D01*
X91877074Y-64934203D01*
X91898309Y-64931053D01*
X91919750Y-64930000D01*
X92357250Y-64930000D01*
X92378691Y-64931053D01*
X92378691Y-64931053D01*
G37*
D19*
X92138500Y-65405000D03*
D12*
G36*
X92378691Y-66455053D02*
X92399926Y-66458203D01*
X92420750Y-66463419D01*
X92440962Y-66470651D01*
X92460368Y-66479830D01*
X92478781Y-66490866D01*
X92496024Y-66503654D01*
X92511930Y-66518070D01*
X92526346Y-66533976D01*
X92539134Y-66551219D01*
X92550170Y-66569632D01*
X92559349Y-66589038D01*
X92566581Y-66609250D01*
X92571797Y-66630074D01*
X92574947Y-66651309D01*
X92576000Y-66672750D01*
X92576000Y-67185250D01*
X92574947Y-67206691D01*
X92571797Y-67227926D01*
X92566581Y-67248750D01*
X92559349Y-67268962D01*
X92550170Y-67288368D01*
X92539134Y-67306781D01*
X92526346Y-67324024D01*
X92511930Y-67339930D01*
X92496024Y-67354346D01*
X92478781Y-67367134D01*
X92460368Y-67378170D01*
X92440962Y-67387349D01*
X92420750Y-67394581D01*
X92399926Y-67399797D01*
X92378691Y-67402947D01*
X92357250Y-67404000D01*
X91919750Y-67404000D01*
X91898309Y-67402947D01*
X91877074Y-67399797D01*
X91856250Y-67394581D01*
X91836038Y-67387349D01*
X91816632Y-67378170D01*
X91798219Y-67367134D01*
X91780976Y-67354346D01*
X91765070Y-67339930D01*
X91750654Y-67324024D01*
X91737866Y-67306781D01*
X91726830Y-67288368D01*
X91717651Y-67268962D01*
X91710419Y-67248750D01*
X91705203Y-67227926D01*
X91702053Y-67206691D01*
X91701000Y-67185250D01*
X91701000Y-66672750D01*
X91702053Y-66651309D01*
X91705203Y-66630074D01*
X91710419Y-66609250D01*
X91717651Y-66589038D01*
X91726830Y-66569632D01*
X91737866Y-66551219D01*
X91750654Y-66533976D01*
X91765070Y-66518070D01*
X91780976Y-66503654D01*
X91798219Y-66490866D01*
X91816632Y-66479830D01*
X91836038Y-66470651D01*
X91856250Y-66463419D01*
X91877074Y-66458203D01*
X91898309Y-66455053D01*
X91919750Y-66454000D01*
X92357250Y-66454000D01*
X92378691Y-66455053D01*
X92378691Y-66455053D01*
G37*
D19*
X92138500Y-66929000D03*
D12*
G36*
X93953691Y-66455053D02*
X93974926Y-66458203D01*
X93995750Y-66463419D01*
X94015962Y-66470651D01*
X94035368Y-66479830D01*
X94053781Y-66490866D01*
X94071024Y-66503654D01*
X94086930Y-66518070D01*
X94101346Y-66533976D01*
X94114134Y-66551219D01*
X94125170Y-66569632D01*
X94134349Y-66589038D01*
X94141581Y-66609250D01*
X94146797Y-66630074D01*
X94149947Y-66651309D01*
X94151000Y-66672750D01*
X94151000Y-67185250D01*
X94149947Y-67206691D01*
X94146797Y-67227926D01*
X94141581Y-67248750D01*
X94134349Y-67268962D01*
X94125170Y-67288368D01*
X94114134Y-67306781D01*
X94101346Y-67324024D01*
X94086930Y-67339930D01*
X94071024Y-67354346D01*
X94053781Y-67367134D01*
X94035368Y-67378170D01*
X94015962Y-67387349D01*
X93995750Y-67394581D01*
X93974926Y-67399797D01*
X93953691Y-67402947D01*
X93932250Y-67404000D01*
X93494750Y-67404000D01*
X93473309Y-67402947D01*
X93452074Y-67399797D01*
X93431250Y-67394581D01*
X93411038Y-67387349D01*
X93391632Y-67378170D01*
X93373219Y-67367134D01*
X93355976Y-67354346D01*
X93340070Y-67339930D01*
X93325654Y-67324024D01*
X93312866Y-67306781D01*
X93301830Y-67288368D01*
X93292651Y-67268962D01*
X93285419Y-67248750D01*
X93280203Y-67227926D01*
X93277053Y-67206691D01*
X93276000Y-67185250D01*
X93276000Y-66672750D01*
X93277053Y-66651309D01*
X93280203Y-66630074D01*
X93285419Y-66609250D01*
X93292651Y-66589038D01*
X93301830Y-66569632D01*
X93312866Y-66551219D01*
X93325654Y-66533976D01*
X93340070Y-66518070D01*
X93355976Y-66503654D01*
X93373219Y-66490866D01*
X93391632Y-66479830D01*
X93411038Y-66470651D01*
X93431250Y-66463419D01*
X93452074Y-66458203D01*
X93473309Y-66455053D01*
X93494750Y-66454000D01*
X93932250Y-66454000D01*
X93953691Y-66455053D01*
X93953691Y-66455053D01*
G37*
D19*
X93713500Y-66929000D03*
D32*
X96329500Y-65532000D03*
D33*
X95379500Y-66932000D03*
X96329500Y-66932000D03*
X97279500Y-66932000D03*
X97279500Y-64132000D03*
X96329500Y-64132000D03*
X95379500Y-64132000D03*
D34*
X102171500Y-70167500D03*
X102108000Y-65468500D03*
X95440500Y-65913000D03*
X95440500Y-65151000D03*
X99758500Y-70167500D03*
X104457500Y-70167500D03*
X102108000Y-67818000D03*
X104457500Y-65468500D03*
X99758500Y-65468500D03*
X104457500Y-75755500D03*
X106616500Y-75565000D03*
X107378500Y-75565000D03*
X108140500Y-75565000D03*
X95313500Y-72707500D03*
X96266000Y-72707500D03*
X94996000Y-73342500D03*
X102044500Y-74676000D03*
X102108000Y-56007000D03*
X102933500Y-56007000D03*
X101282500Y-56007000D03*
X111315506Y-60261500D03*
X112013984Y-60896500D03*
X111760000Y-69024500D03*
X113157000Y-71755000D03*
X113411000Y-71183500D03*
X97028000Y-68326000D03*
X92138500Y-68580000D03*
X93980000Y-63690500D03*
X92329000Y-74803000D03*
X92837000Y-61150500D03*
X93281500Y-61976000D03*
X93980000Y-60515500D03*
X106296500Y-66548000D03*
X103568500Y-72834500D03*
X106296500Y-68453000D03*
X111125000Y-64198500D03*
X105143500Y-72593000D03*
X98133087Y-64224087D03*
X99758500Y-72136000D03*
D35*
X101854000Y-63880960D03*
D34*
X102679510Y-71818500D03*
X102870000Y-77597000D03*
X100203000Y-75247500D03*
X100901500Y-75819000D03*
X101854000Y-77597000D03*
X101885051Y-72528514D03*
X100076000Y-77597000D03*
X102667381Y-72631914D03*
X105410000Y-77533456D03*
X99833000Y-60706000D03*
X103886000Y-60706000D03*
X107889011Y-65053111D03*
X98107500Y-65659000D03*
X108204000Y-68961000D03*
X107252947Y-63891377D03*
X98234500Y-72199500D03*
X98298000Y-78562602D03*
X94996000Y-63500000D03*
D35*
X102679484Y-63881000D03*
D34*
X95377000Y-67691000D03*
D35*
X101121022Y-63881000D03*
D36*
X109283500Y-59563000D02*
X109664500Y-59182000D01*
X106428000Y-62104500D02*
X106428000Y-61834500D01*
X97788000Y-62104500D02*
X97788000Y-61834500D01*
X104572000Y-75755500D02*
X105143500Y-75184000D01*
X104457500Y-75755500D02*
X104572000Y-75755500D01*
X91596500Y-73167000D02*
X91596500Y-72517000D01*
X91596500Y-72517000D02*
X91596500Y-71867000D01*
X96329500Y-65532000D02*
X96329500Y-66932000D01*
X109283500Y-59690000D02*
X109664500Y-59309000D01*
X109283500Y-61130000D02*
X109283500Y-59690000D01*
X109283500Y-61130000D02*
X109283500Y-60706000D01*
X109410500Y-59944000D02*
X109410500Y-60579000D01*
X109283500Y-60706000D02*
X109410500Y-60579000D01*
X109410500Y-59944000D02*
X109410500Y-59880500D01*
X91596500Y-73167000D02*
X91596500Y-73181500D01*
X91596500Y-73181500D02*
X91694000Y-73279000D01*
D37*
X105513000Y-62749500D02*
X106428000Y-61834500D01*
X105333000Y-62749500D02*
X105513000Y-62749500D01*
X102044500Y-74676000D02*
X102044500Y-75184000D01*
X97788000Y-61834500D02*
X97968000Y-61834500D01*
X97968000Y-61834500D02*
X98883000Y-62749500D01*
X106428000Y-57656000D02*
X106428000Y-57654500D01*
X105600500Y-58483500D02*
X106428000Y-57656000D01*
X105600500Y-62057000D02*
X105600500Y-58483500D01*
X105333000Y-62749500D02*
X105333000Y-62324500D01*
X105333000Y-62324500D02*
X105600500Y-62057000D01*
X108252559Y-75452941D02*
X108140500Y-75565000D01*
X91596500Y-73167000D02*
X91596500Y-74070500D01*
X92029001Y-74503001D02*
X92329000Y-74803000D01*
X91596500Y-74070500D02*
X92029001Y-74503001D01*
X90614500Y-63830000D02*
X92138500Y-62306000D01*
X90614500Y-64008000D02*
X90614500Y-63830000D01*
X94716500Y-60515500D02*
X94907000Y-60325000D01*
X93980000Y-60515500D02*
X94716500Y-60515500D01*
D36*
X103358000Y-60876500D02*
X103358000Y-62749500D01*
X96456500Y-58801000D02*
X101282500Y-58801000D01*
X101282500Y-58801000D02*
X103358000Y-60876500D01*
X100358000Y-61874500D02*
X100358000Y-62749500D01*
X100358000Y-60416500D02*
X100358000Y-61874500D01*
X99804888Y-59863388D02*
X100358000Y-60416500D01*
X96482000Y-60325000D02*
X96943612Y-59863388D01*
X96943612Y-59863388D02*
X99804888Y-59863388D01*
X95186500Y-75374500D02*
X95948500Y-75374500D01*
X94297500Y-76263500D02*
X95186500Y-75374500D01*
X100059500Y-73812600D02*
X100059500Y-73612600D01*
X98497600Y-75374500D02*
X100059500Y-73812600D01*
X95948500Y-75374500D02*
X98497600Y-75374500D01*
X103568500Y-74609000D02*
X103568500Y-73660000D01*
X103568500Y-75184000D02*
X103568500Y-74609000D01*
X105408000Y-66568000D02*
X106276500Y-66568000D01*
X106276500Y-66568000D02*
X106296500Y-66548000D01*
X103568500Y-72834500D02*
X103568500Y-73660000D01*
X105883001Y-70143001D02*
X105808000Y-70068000D01*
X102905990Y-74597490D02*
X102905990Y-75918490D01*
X101917500Y-73609000D02*
X102905990Y-74597490D01*
X102905990Y-75918490D02*
X103378000Y-76390500D01*
X105808000Y-70068000D02*
X105408000Y-70068000D01*
X103378000Y-76390500D02*
X105473500Y-76390500D01*
X105473500Y-76390500D02*
X105883001Y-75980999D01*
X105883001Y-75980999D02*
X105883001Y-70143001D01*
X95948500Y-76949500D02*
X97223490Y-75674510D01*
X99472008Y-75674510D02*
X100204999Y-76407501D01*
X102416979Y-76407501D02*
X102905990Y-75918490D01*
X100204999Y-76407501D02*
X102416979Y-76407501D01*
X97223490Y-75674510D02*
X99472008Y-75674510D01*
X105408000Y-69068000D02*
X105408000Y-69568000D01*
X103933001Y-71593001D02*
X103858000Y-71518000D01*
X105188001Y-71593001D02*
X103933001Y-71593001D01*
X105408000Y-71373002D02*
X105188001Y-71593001D01*
X105408000Y-70568000D02*
X105408000Y-71373002D01*
X105143500Y-71637502D02*
X105188001Y-71593001D01*
X105143500Y-73660000D02*
X105143500Y-72593000D01*
X103858000Y-71518000D02*
X103858000Y-71118000D01*
X103782999Y-71593001D02*
X103858000Y-71518000D01*
X105408000Y-69068000D02*
X105681500Y-69068000D01*
X105681500Y-69068000D02*
X106296500Y-68453000D01*
X105143500Y-72593000D02*
X105143500Y-71637502D01*
X92138500Y-66354000D02*
X92138500Y-65405000D01*
X92138500Y-66929000D02*
X92138500Y-66354000D01*
X92138500Y-65405000D02*
X92138500Y-64369554D01*
X92138500Y-64830000D02*
X92138500Y-63881000D01*
X92138500Y-65405000D02*
X92138500Y-64830000D01*
X99358000Y-71118000D02*
X99358000Y-71735500D01*
X99358000Y-71735500D02*
X99758500Y-72136000D01*
X102433001Y-71593001D02*
X102358000Y-71518000D01*
X103782999Y-71593001D02*
X102433001Y-71593001D01*
X101858000Y-63884960D02*
X101854000Y-63880960D01*
X101858000Y-64518000D02*
X101858000Y-63884960D01*
X102379010Y-71518000D02*
X102379511Y-71518501D01*
X102379511Y-71518501D02*
X102679510Y-71818500D01*
X102358000Y-71518000D02*
X102379010Y-71518000D01*
X102358000Y-71118000D02*
X102358000Y-71518000D01*
D37*
X110256500Y-63330000D02*
X111125000Y-64198500D01*
X110233500Y-63330000D02*
X110256500Y-63330000D01*
X112077500Y-64198500D02*
X112141000Y-64135000D01*
X111125000Y-64198500D02*
X112077500Y-64198500D01*
X96329500Y-63297000D02*
X94881500Y-61849000D01*
X96329500Y-64132000D02*
X96329500Y-63297000D01*
X92849500Y-63881000D02*
X92138500Y-63881000D01*
X94881500Y-61849000D02*
X92849500Y-63881000D01*
X97833088Y-63924088D02*
X98133087Y-64224087D01*
X97833088Y-63690586D02*
X97833088Y-63924088D01*
X97699501Y-63556999D02*
X97833088Y-63690586D01*
X96526501Y-63556999D02*
X97699501Y-63556999D01*
X96329500Y-64132000D02*
X96329500Y-63754000D01*
X96329500Y-63754000D02*
X96526501Y-63556999D01*
X93408500Y-60960000D02*
X93408500Y-59372500D01*
X94297500Y-61849000D02*
X93408500Y-60960000D01*
X94881500Y-61849000D02*
X94297500Y-61849000D01*
D36*
X104358000Y-64518000D02*
X104358000Y-64118000D01*
X106728308Y-63109510D02*
X107188000Y-62649818D01*
X107101990Y-59780758D02*
X107101990Y-58442510D01*
X107101990Y-58442510D02*
X107928680Y-57615820D01*
X107188000Y-59866768D02*
X107101990Y-59780758D01*
X107188000Y-62649818D02*
X107188000Y-59866768D01*
X106549987Y-63109510D02*
X106728308Y-63109510D01*
X105959997Y-63699501D02*
X106549987Y-63109510D01*
X104776499Y-63699501D02*
X105959997Y-63699501D01*
X104358000Y-64118000D02*
X104776499Y-63699501D01*
X99858000Y-64212998D02*
X99858000Y-64518000D01*
X96456500Y-62424000D02*
X97151500Y-63119000D01*
X96456500Y-61849000D02*
X96456500Y-62424000D01*
X97151500Y-63119000D02*
X97822498Y-63119000D01*
X97822498Y-63119000D02*
X98402999Y-63699501D01*
X98402999Y-63699501D02*
X99344503Y-63699501D01*
X99344503Y-63699501D02*
X99858000Y-64212998D01*
X95683981Y-57732019D02*
X96202500Y-57213500D01*
X95694500Y-57742538D02*
X95683981Y-57732019D01*
X96456500Y-61849000D02*
X95694500Y-61087000D01*
X95694500Y-61087000D02*
X95694500Y-57742538D01*
X103169999Y-77896999D02*
X103169999Y-78785999D01*
X102870000Y-77597000D02*
X103169999Y-77896999D01*
X103169999Y-78785999D02*
X104013000Y-79629000D01*
X100584000Y-75247500D02*
X100203000Y-75247500D01*
X101034501Y-74796999D02*
X100584000Y-75247500D01*
X101034501Y-72482599D02*
X101034501Y-74796999D01*
X100358000Y-71118000D02*
X100358000Y-71806098D01*
X100358000Y-71806098D02*
X101034501Y-72482599D01*
X101854000Y-79387700D02*
X102298500Y-79832200D01*
X101854000Y-77597000D02*
X101854000Y-79387700D01*
X101334510Y-75385990D02*
X100901500Y-75819000D01*
X101334510Y-72315010D02*
X101334510Y-75385990D01*
X100858000Y-71118000D02*
X100858000Y-71838500D01*
X100858000Y-71838500D02*
X101334510Y-72315010D01*
X101854000Y-72410222D02*
X101854000Y-72453500D01*
X101358000Y-71118000D02*
X101358000Y-71914222D01*
X101358000Y-71914222D02*
X101854000Y-72410222D01*
X100565731Y-78086731D02*
X100565731Y-79688163D01*
X100076000Y-77597000D02*
X100565731Y-78086731D01*
X102667381Y-72568381D02*
X102667381Y-72631914D01*
X102108000Y-72009000D02*
X102667381Y-72568381D01*
X102108000Y-71768000D02*
X102108000Y-72009000D01*
X101858000Y-71118000D02*
X101858000Y-71518000D01*
X101858000Y-71518000D02*
X102108000Y-71768000D01*
X105410000Y-77957720D02*
X105410000Y-77533456D01*
X105410000Y-78899716D02*
X105410000Y-77957720D01*
X105706884Y-79196600D02*
X105410000Y-78899716D01*
D37*
X108321000Y-71757500D02*
X108191500Y-71628000D01*
X109771000Y-71757500D02*
X108321000Y-71757500D01*
X99658000Y-62749500D02*
X99833000Y-62574500D01*
X99833000Y-62574500D02*
X99833000Y-60706000D01*
X104558000Y-61774500D02*
X104558000Y-62749500D01*
X104283001Y-61499501D02*
X104558000Y-61774500D01*
X104283001Y-61103001D02*
X104283001Y-61499501D01*
X103886000Y-60706000D02*
X104283001Y-61103001D01*
X110137000Y-67462500D02*
X110426500Y-67462500D01*
X108839000Y-66164500D02*
X110137000Y-67462500D01*
X109870500Y-69596000D02*
X110171500Y-69596000D01*
X109771000Y-69996500D02*
X110171500Y-69596000D01*
X109771000Y-71757500D02*
X109771000Y-69996500D01*
X110171500Y-69446000D02*
X110171500Y-69596000D01*
X108839000Y-66164500D02*
X108839000Y-65214500D01*
X108839000Y-68963500D02*
X108839000Y-66164500D01*
X109471500Y-69596000D02*
X108839000Y-68963500D01*
X110171500Y-69596000D02*
X109471500Y-69596000D01*
X108839000Y-65214500D02*
X108050400Y-65214500D01*
X108050400Y-65214500D02*
X107889011Y-65053111D01*
X113600000Y-69851500D02*
X113347500Y-70104000D01*
X113600000Y-67754500D02*
X113600000Y-69851500D01*
X111971000Y-71480500D02*
X113347500Y-70104000D01*
X111971000Y-71757500D02*
X111971000Y-71480500D01*
X97329500Y-69856500D02*
X97329500Y-70406500D01*
X93535500Y-68910000D02*
X96383000Y-68910000D01*
X97112000Y-69639000D02*
X97329500Y-69856500D01*
X96383000Y-68910000D02*
X97112000Y-69639000D01*
X97329500Y-69548500D02*
X97329500Y-70406500D01*
X98107500Y-65659000D02*
X98107500Y-68770500D01*
X98107500Y-68770500D02*
X97329500Y-69548500D01*
X107889000Y-67414500D02*
X107889000Y-67614500D01*
X107911500Y-67437000D02*
X107889000Y-67414500D01*
X107886500Y-67412000D02*
X107889000Y-67414500D01*
X108204000Y-68961000D02*
X107886500Y-68643500D01*
X107889000Y-68641000D02*
X107889000Y-67414500D01*
X107886500Y-68643500D02*
X107889000Y-68641000D01*
X113600000Y-67754500D02*
X113600000Y-66338216D01*
X110468992Y-65149490D02*
X109559001Y-64239499D01*
X107552946Y-64191376D02*
X107252947Y-63891377D01*
X109559001Y-64239499D02*
X107601069Y-64239499D01*
X112411274Y-65149490D02*
X110468992Y-65149490D01*
X107601069Y-64239499D02*
X107552946Y-64191376D01*
X113600000Y-66338216D02*
X112411274Y-65149490D01*
X93696500Y-72517000D02*
X93696500Y-71867000D01*
X93696500Y-72517000D02*
X92646500Y-72517000D01*
X92646500Y-71467000D02*
X92646500Y-72517000D01*
X91843010Y-70663510D02*
X92646500Y-71467000D01*
X91250010Y-70663510D02*
X91843010Y-70663510D01*
X90500000Y-69913500D02*
X91250010Y-70663510D01*
X90500000Y-67854500D02*
X90600000Y-67754500D01*
X90500000Y-69913500D02*
X90500000Y-67854500D01*
X106939000Y-65414500D02*
X106939000Y-65214500D01*
X106871500Y-69596000D02*
X106871500Y-69746000D01*
X106939000Y-65214500D02*
X106743500Y-65214500D01*
X107889500Y-60686000D02*
X108333500Y-61130000D01*
X110233500Y-61910000D02*
X110233500Y-61130000D01*
X110208499Y-61935001D02*
X110233500Y-61910000D01*
X108358501Y-61935001D02*
X110208499Y-61935001D01*
X108333500Y-61910000D02*
X108358501Y-61935001D01*
X107889500Y-60686000D02*
X107889500Y-59309000D01*
X108333500Y-61910000D02*
X108333500Y-61130000D01*
X106871500Y-65282000D02*
X106939000Y-65214500D01*
X106871500Y-69596000D02*
X106871500Y-65282000D01*
X106939000Y-65014500D02*
X106426000Y-64501500D01*
X108333500Y-61999308D02*
X108333500Y-61910000D01*
X106939000Y-65214500D02*
X106939000Y-65014500D01*
X106426000Y-64501500D02*
X106426000Y-63728487D01*
X106426000Y-63728487D02*
X106694966Y-63459521D01*
X106694966Y-63459521D02*
X106873288Y-63459520D01*
X106873288Y-63459520D02*
X108333500Y-61999308D01*
D36*
X92964000Y-69913500D02*
X92075000Y-69913500D01*
X93535500Y-70485000D02*
X92964000Y-69913500D01*
X94171500Y-73167000D02*
X93696500Y-73167000D01*
X94488000Y-72850500D02*
X94171500Y-73167000D01*
X93535500Y-70485000D02*
X94488000Y-71437500D01*
X94488000Y-71437500D02*
X94488000Y-72850500D01*
X111925000Y-65887500D02*
X111950500Y-65862000D01*
X110426500Y-65887500D02*
X111925000Y-65887500D01*
X98408000Y-69568000D02*
X98808000Y-69568000D01*
X98029101Y-69946899D02*
X98408000Y-69568000D01*
X98029101Y-71206899D02*
X98029101Y-69946899D01*
X97329500Y-71706500D02*
X97529500Y-71706500D01*
X97529500Y-71706500D02*
X98029101Y-71206899D01*
X98408000Y-70068000D02*
X98329111Y-70146889D01*
X98808000Y-70068000D02*
X98408000Y-70068000D01*
X98329111Y-70146889D02*
X98329111Y-72104889D01*
X98329111Y-72104889D02*
X98234500Y-72199500D01*
X98298000Y-78740000D02*
X98869500Y-79311500D01*
X98298000Y-78562602D02*
X98298000Y-78740000D01*
X111291000Y-73657500D02*
X111971000Y-73657500D01*
X111109990Y-73476490D02*
X111291000Y-73657500D01*
X111109990Y-68815010D02*
X111109990Y-73476490D01*
X111950500Y-67974500D02*
X111109990Y-68815010D01*
X111950500Y-67437000D02*
X111950500Y-67974500D01*
X95379500Y-64132000D02*
X95379500Y-63883500D01*
X95379500Y-63883500D02*
X94996000Y-63500000D01*
X94986500Y-64132000D02*
X93713500Y-65405000D01*
X95379500Y-64132000D02*
X94986500Y-64132000D01*
X102858000Y-64059516D02*
X102679484Y-63881000D01*
X102858000Y-64518000D02*
X102858000Y-64059516D01*
X95379500Y-66932000D02*
X95379500Y-67688500D01*
X95379500Y-67688500D02*
X95377000Y-67691000D01*
X95376500Y-66929000D02*
X95379500Y-66932000D01*
X93713500Y-66929000D02*
X95376500Y-66929000D01*
X101358000Y-64518000D02*
X101358000Y-64117978D01*
X101358000Y-64117978D02*
X101121022Y-63881000D01*
X109768500Y-73660000D02*
X109771000Y-73657500D01*
X108191500Y-73660000D02*
X109768500Y-73660000D01*
D38*
G36*
X106743500Y-71501000D02*
X106763500Y-71501000D01*
X106763500Y-71755000D01*
X106743500Y-71755000D01*
X106743500Y-72579250D01*
X106808250Y-72644000D01*
X106743500Y-72708750D01*
X106743500Y-73533000D01*
X106763500Y-73533000D01*
X106763500Y-73787000D01*
X106743500Y-73787000D01*
X106743500Y-74611250D01*
X106902250Y-74770000D01*
X107180309Y-74770000D01*
X107413698Y-74673327D01*
X107592327Y-74494699D01*
X107630084Y-74403546D01*
X107740379Y-74477243D01*
X107972750Y-74523464D01*
X108410250Y-74523464D01*
X108642621Y-74477243D01*
X108839615Y-74345615D01*
X108932508Y-74206592D01*
X108966314Y-74257186D01*
X109092341Y-74341394D01*
X109241000Y-74370964D01*
X110301000Y-74370964D01*
X110449659Y-74341394D01*
X110575686Y-74257186D01*
X110659894Y-74131159D01*
X110689464Y-73982500D01*
X110689464Y-73667904D01*
X110755794Y-73767175D01*
X110755797Y-73767178D01*
X110781234Y-73805247D01*
X110819303Y-73830684D01*
X110936803Y-73948184D01*
X110962243Y-73986257D01*
X111000315Y-74011696D01*
X111067238Y-74056413D01*
X111082106Y-74131159D01*
X111166314Y-74257186D01*
X111292341Y-74341394D01*
X111441000Y-74370964D01*
X112370787Y-74370964D01*
X112285465Y-74516391D01*
X112150848Y-74696337D01*
X112100370Y-74653981D01*
X112086620Y-74646436D01*
X112050723Y-74616315D01*
X111987874Y-74573321D01*
X111878738Y-74513446D01*
X111808701Y-74483537D01*
X111689980Y-74446105D01*
X111615462Y-74430435D01*
X111491721Y-74416882D01*
X111415568Y-74416051D01*
X111291559Y-74426901D01*
X111216713Y-74440943D01*
X111097205Y-74475777D01*
X111026538Y-74504149D01*
X110916121Y-74561628D01*
X110852344Y-74603243D01*
X110755263Y-74681159D01*
X110700830Y-74734417D01*
X110620815Y-74829776D01*
X110577821Y-74892626D01*
X110517946Y-75001762D01*
X110488037Y-75071799D01*
X110450605Y-75190520D01*
X110434935Y-75265038D01*
X110421382Y-75388779D01*
X110420551Y-75464932D01*
X110431259Y-75587317D01*
X110395227Y-75578166D01*
X110294837Y-75562939D01*
X110170526Y-75556424D01*
X110069097Y-75561074D01*
X109945903Y-75578936D01*
X109847327Y-75603285D01*
X109729986Y-75644838D01*
X109638058Y-75687950D01*
X109531077Y-75751597D01*
X109449323Y-75811816D01*
X109403769Y-75852833D01*
X109259500Y-75824136D01*
X107859500Y-75824136D01*
X107710841Y-75853706D01*
X107584814Y-75937914D01*
X107500606Y-76063941D01*
X107471036Y-76212600D01*
X107471036Y-78112600D01*
X107500606Y-78261259D01*
X107584814Y-78387286D01*
X107710841Y-78471494D01*
X107859500Y-78501064D01*
X107884662Y-78501064D01*
X107155723Y-78882144D01*
X106702565Y-79057913D01*
X106680844Y-78986868D01*
X106673424Y-78973056D01*
X106659723Y-78928243D01*
X106630426Y-78857949D01*
X106571506Y-78748294D01*
X106529060Y-78685068D01*
X106449880Y-78589015D01*
X106395918Y-78535287D01*
X106299521Y-78456526D01*
X106236108Y-78414355D01*
X106126197Y-78355914D01*
X106055774Y-78326924D01*
X105936573Y-78291050D01*
X105866000Y-78277172D01*
X105866000Y-78040536D01*
X105987324Y-77919212D01*
X106091000Y-77668915D01*
X106091000Y-77397997D01*
X105987324Y-77147700D01*
X105795756Y-76956132D01*
X105545459Y-76852456D01*
X105488461Y-76852456D01*
X105518404Y-76846500D01*
X105518409Y-76846500D01*
X105651422Y-76820042D01*
X105802257Y-76719257D01*
X105827696Y-76681186D01*
X106173689Y-76335193D01*
X106211758Y-76309756D01*
X106237195Y-76271687D01*
X106237197Y-76271685D01*
X106312543Y-76158922D01*
X106319243Y-76125237D01*
X106339001Y-76025908D01*
X106339001Y-76025905D01*
X106347933Y-75980999D01*
X106339001Y-75936094D01*
X106339001Y-74761749D01*
X106489500Y-74611250D01*
X106489500Y-73787000D01*
X106469500Y-73787000D01*
X106469500Y-73533000D01*
X106489500Y-73533000D01*
X106489500Y-72708750D01*
X106424750Y-72644000D01*
X106489500Y-72579250D01*
X106489500Y-71755000D01*
X106469500Y-71755000D01*
X106469500Y-71501000D01*
X106489500Y-71501000D01*
X106489500Y-71481000D01*
X106743500Y-71481000D01*
X106743500Y-71501000D01*
X106743500Y-71501000D01*
G37*
X106743500Y-71501000D02*
X106763500Y-71501000D01*
X106763500Y-71755000D01*
X106743500Y-71755000D01*
X106743500Y-72579250D01*
X106808250Y-72644000D01*
X106743500Y-72708750D01*
X106743500Y-73533000D01*
X106763500Y-73533000D01*
X106763500Y-73787000D01*
X106743500Y-73787000D01*
X106743500Y-74611250D01*
X106902250Y-74770000D01*
X107180309Y-74770000D01*
X107413698Y-74673327D01*
X107592327Y-74494699D01*
X107630084Y-74403546D01*
X107740379Y-74477243D01*
X107972750Y-74523464D01*
X108410250Y-74523464D01*
X108642621Y-74477243D01*
X108839615Y-74345615D01*
X108932508Y-74206592D01*
X108966314Y-74257186D01*
X109092341Y-74341394D01*
X109241000Y-74370964D01*
X110301000Y-74370964D01*
X110449659Y-74341394D01*
X110575686Y-74257186D01*
X110659894Y-74131159D01*
X110689464Y-73982500D01*
X110689464Y-73667904D01*
X110755794Y-73767175D01*
X110755797Y-73767178D01*
X110781234Y-73805247D01*
X110819303Y-73830684D01*
X110936803Y-73948184D01*
X110962243Y-73986257D01*
X111000315Y-74011696D01*
X111067238Y-74056413D01*
X111082106Y-74131159D01*
X111166314Y-74257186D01*
X111292341Y-74341394D01*
X111441000Y-74370964D01*
X112370787Y-74370964D01*
X112285465Y-74516391D01*
X112150848Y-74696337D01*
X112100370Y-74653981D01*
X112086620Y-74646436D01*
X112050723Y-74616315D01*
X111987874Y-74573321D01*
X111878738Y-74513446D01*
X111808701Y-74483537D01*
X111689980Y-74446105D01*
X111615462Y-74430435D01*
X111491721Y-74416882D01*
X111415568Y-74416051D01*
X111291559Y-74426901D01*
X111216713Y-74440943D01*
X111097205Y-74475777D01*
X111026538Y-74504149D01*
X110916121Y-74561628D01*
X110852344Y-74603243D01*
X110755263Y-74681159D01*
X110700830Y-74734417D01*
X110620815Y-74829776D01*
X110577821Y-74892626D01*
X110517946Y-75001762D01*
X110488037Y-75071799D01*
X110450605Y-75190520D01*
X110434935Y-75265038D01*
X110421382Y-75388779D01*
X110420551Y-75464932D01*
X110431259Y-75587317D01*
X110395227Y-75578166D01*
X110294837Y-75562939D01*
X110170526Y-75556424D01*
X110069097Y-75561074D01*
X109945903Y-75578936D01*
X109847327Y-75603285D01*
X109729986Y-75644838D01*
X109638058Y-75687950D01*
X109531077Y-75751597D01*
X109449323Y-75811816D01*
X109403769Y-75852833D01*
X109259500Y-75824136D01*
X107859500Y-75824136D01*
X107710841Y-75853706D01*
X107584814Y-75937914D01*
X107500606Y-76063941D01*
X107471036Y-76212600D01*
X107471036Y-78112600D01*
X107500606Y-78261259D01*
X107584814Y-78387286D01*
X107710841Y-78471494D01*
X107859500Y-78501064D01*
X107884662Y-78501064D01*
X107155723Y-78882144D01*
X106702565Y-79057913D01*
X106680844Y-78986868D01*
X106673424Y-78973056D01*
X106659723Y-78928243D01*
X106630426Y-78857949D01*
X106571506Y-78748294D01*
X106529060Y-78685068D01*
X106449880Y-78589015D01*
X106395918Y-78535287D01*
X106299521Y-78456526D01*
X106236108Y-78414355D01*
X106126197Y-78355914D01*
X106055774Y-78326924D01*
X105936573Y-78291050D01*
X105866000Y-78277172D01*
X105866000Y-78040536D01*
X105987324Y-77919212D01*
X106091000Y-77668915D01*
X106091000Y-77397997D01*
X105987324Y-77147700D01*
X105795756Y-76956132D01*
X105545459Y-76852456D01*
X105488461Y-76852456D01*
X105518404Y-76846500D01*
X105518409Y-76846500D01*
X105651422Y-76820042D01*
X105802257Y-76719257D01*
X105827696Y-76681186D01*
X106173689Y-76335193D01*
X106211758Y-76309756D01*
X106237195Y-76271687D01*
X106237197Y-76271685D01*
X106312543Y-76158922D01*
X106319243Y-76125237D01*
X106339001Y-76025908D01*
X106339001Y-76025905D01*
X106347933Y-75980999D01*
X106339001Y-75936094D01*
X106339001Y-74761749D01*
X106489500Y-74611250D01*
X106489500Y-73787000D01*
X106469500Y-73787000D01*
X106469500Y-73533000D01*
X106489500Y-73533000D01*
X106489500Y-72708750D01*
X106424750Y-72644000D01*
X106489500Y-72579250D01*
X106489500Y-71755000D01*
X106469500Y-71755000D01*
X106469500Y-71501000D01*
X106489500Y-71501000D01*
X106489500Y-71481000D01*
X106743500Y-71481000D01*
X106743500Y-71501000D01*
G36*
X95431100Y-71579500D02*
X95451100Y-71579500D01*
X95451100Y-71833500D01*
X95431100Y-71833500D01*
X95431100Y-72482750D01*
X95589850Y-72641500D01*
X95930409Y-72641500D01*
X96163798Y-72544827D01*
X96342427Y-72366199D01*
X96439100Y-72132810D01*
X96439100Y-72124462D01*
X96445206Y-72155159D01*
X96529414Y-72281186D01*
X96537491Y-72286583D01*
X96521173Y-72302901D01*
X96424500Y-72536290D01*
X96424500Y-73326850D01*
X96583250Y-73485600D01*
X97682500Y-73485600D01*
X97682500Y-73465600D01*
X97936500Y-73465600D01*
X97936500Y-73485600D01*
X97956500Y-73485600D01*
X97956500Y-73739600D01*
X97936500Y-73739600D01*
X97936500Y-73759600D01*
X97682500Y-73759600D01*
X97682500Y-73739600D01*
X96583250Y-73739600D01*
X96424500Y-73898350D01*
X96424500Y-74592247D01*
X96204750Y-74548536D01*
X95692250Y-74548536D01*
X95459879Y-74594757D01*
X95407500Y-74629756D01*
X95407500Y-74561498D01*
X95248752Y-74561498D01*
X95407500Y-74402750D01*
X95407500Y-74124691D01*
X95310827Y-73891302D01*
X95132199Y-73712673D01*
X94898810Y-73616000D01*
X94583250Y-73616000D01*
X94424500Y-73774750D01*
X94424500Y-74561500D01*
X94444500Y-74561500D01*
X94444500Y-74815500D01*
X94424500Y-74815500D01*
X94424500Y-74835500D01*
X94170500Y-74835500D01*
X94170500Y-74815500D01*
X93346250Y-74815500D01*
X93187500Y-74974250D01*
X93187500Y-75252309D01*
X93284173Y-75485698D01*
X93462801Y-75664327D01*
X93553954Y-75702084D01*
X93480257Y-75812379D01*
X93434036Y-76044750D01*
X93434036Y-76349623D01*
X93318387Y-76242531D01*
X92427013Y-75209864D01*
X91656304Y-74084272D01*
X91599266Y-73977000D01*
X91723502Y-73977000D01*
X91723502Y-73818252D01*
X91882250Y-73977000D01*
X92047809Y-73977000D01*
X92281198Y-73880327D01*
X92456062Y-73705464D01*
X93146500Y-73705464D01*
X93210599Y-73692714D01*
X93222841Y-73700894D01*
X93371500Y-73730464D01*
X93445010Y-73730464D01*
X93284173Y-73891302D01*
X93187500Y-74124691D01*
X93187500Y-74402750D01*
X93346250Y-74561500D01*
X94170500Y-74561500D01*
X94170500Y-73774750D01*
X94108841Y-73713091D01*
X94170159Y-73700894D01*
X94296186Y-73616686D01*
X94303549Y-73605667D01*
X94349422Y-73596542D01*
X94500257Y-73495757D01*
X94525696Y-73457685D01*
X94778685Y-73204696D01*
X94816757Y-73179257D01*
X94917542Y-73028422D01*
X94944000Y-72895409D01*
X94944000Y-72895405D01*
X94952932Y-72850500D01*
X94944000Y-72805595D01*
X94944000Y-72641500D01*
X95018350Y-72641500D01*
X95177100Y-72482750D01*
X95177100Y-71833500D01*
X95157100Y-71833500D01*
X95157100Y-71579500D01*
X95177100Y-71579500D01*
X95177100Y-71559500D01*
X95431100Y-71559500D01*
X95431100Y-71579500D01*
X95431100Y-71579500D01*
G37*
X95431100Y-71579500D02*
X95451100Y-71579500D01*
X95451100Y-71833500D01*
X95431100Y-71833500D01*
X95431100Y-72482750D01*
X95589850Y-72641500D01*
X95930409Y-72641500D01*
X96163798Y-72544827D01*
X96342427Y-72366199D01*
X96439100Y-72132810D01*
X96439100Y-72124462D01*
X96445206Y-72155159D01*
X96529414Y-72281186D01*
X96537491Y-72286583D01*
X96521173Y-72302901D01*
X96424500Y-72536290D01*
X96424500Y-73326850D01*
X96583250Y-73485600D01*
X97682500Y-73485600D01*
X97682500Y-73465600D01*
X97936500Y-73465600D01*
X97936500Y-73485600D01*
X97956500Y-73485600D01*
X97956500Y-73739600D01*
X97936500Y-73739600D01*
X97936500Y-73759600D01*
X97682500Y-73759600D01*
X97682500Y-73739600D01*
X96583250Y-73739600D01*
X96424500Y-73898350D01*
X96424500Y-74592247D01*
X96204750Y-74548536D01*
X95692250Y-74548536D01*
X95459879Y-74594757D01*
X95407500Y-74629756D01*
X95407500Y-74561498D01*
X95248752Y-74561498D01*
X95407500Y-74402750D01*
X95407500Y-74124691D01*
X95310827Y-73891302D01*
X95132199Y-73712673D01*
X94898810Y-73616000D01*
X94583250Y-73616000D01*
X94424500Y-73774750D01*
X94424500Y-74561500D01*
X94444500Y-74561500D01*
X94444500Y-74815500D01*
X94424500Y-74815500D01*
X94424500Y-74835500D01*
X94170500Y-74835500D01*
X94170500Y-74815500D01*
X93346250Y-74815500D01*
X93187500Y-74974250D01*
X93187500Y-75252309D01*
X93284173Y-75485698D01*
X93462801Y-75664327D01*
X93553954Y-75702084D01*
X93480257Y-75812379D01*
X93434036Y-76044750D01*
X93434036Y-76349623D01*
X93318387Y-76242531D01*
X92427013Y-75209864D01*
X91656304Y-74084272D01*
X91599266Y-73977000D01*
X91723502Y-73977000D01*
X91723502Y-73818252D01*
X91882250Y-73977000D01*
X92047809Y-73977000D01*
X92281198Y-73880327D01*
X92456062Y-73705464D01*
X93146500Y-73705464D01*
X93210599Y-73692714D01*
X93222841Y-73700894D01*
X93371500Y-73730464D01*
X93445010Y-73730464D01*
X93284173Y-73891302D01*
X93187500Y-74124691D01*
X93187500Y-74402750D01*
X93346250Y-74561500D01*
X94170500Y-74561500D01*
X94170500Y-73774750D01*
X94108841Y-73713091D01*
X94170159Y-73700894D01*
X94296186Y-73616686D01*
X94303549Y-73605667D01*
X94349422Y-73596542D01*
X94500257Y-73495757D01*
X94525696Y-73457685D01*
X94778685Y-73204696D01*
X94816757Y-73179257D01*
X94917542Y-73028422D01*
X94944000Y-72895409D01*
X94944000Y-72895405D01*
X94952932Y-72850500D01*
X94944000Y-72805595D01*
X94944000Y-72641500D01*
X95018350Y-72641500D01*
X95177100Y-72482750D01*
X95177100Y-71833500D01*
X95157100Y-71833500D01*
X95157100Y-71579500D01*
X95177100Y-71579500D01*
X95177100Y-71559500D01*
X95431100Y-71559500D01*
X95431100Y-71579500D01*
G36*
X102171500Y-75057000D02*
X102191500Y-75057000D01*
X102191500Y-75311000D01*
X102171500Y-75311000D01*
X102171500Y-75331000D01*
X101917500Y-75331000D01*
X101917500Y-75311000D01*
X101897500Y-75311000D01*
X101897500Y-75057000D01*
X101917500Y-75057000D01*
X101917500Y-75037000D01*
X102171500Y-75037000D01*
X102171500Y-75057000D01*
X102171500Y-75057000D01*
G37*
X102171500Y-75057000D02*
X102191500Y-75057000D01*
X102191500Y-75311000D01*
X102171500Y-75311000D01*
X102171500Y-75331000D01*
X101917500Y-75331000D01*
X101917500Y-75311000D01*
X101897500Y-75311000D01*
X101897500Y-75057000D01*
X101917500Y-75057000D01*
X101917500Y-75037000D01*
X102171500Y-75037000D01*
X102171500Y-75057000D01*
G36*
X105270500Y-75057000D02*
X105290500Y-75057000D01*
X105290500Y-75311000D01*
X105270500Y-75311000D01*
X105270500Y-75331000D01*
X105016500Y-75331000D01*
X105016500Y-75311000D01*
X104996500Y-75311000D01*
X104996500Y-75057000D01*
X105016500Y-75057000D01*
X105016500Y-75037000D01*
X105270500Y-75037000D01*
X105270500Y-75057000D01*
X105270500Y-75057000D01*
G37*
X105270500Y-75057000D02*
X105290500Y-75057000D01*
X105290500Y-75311000D01*
X105270500Y-75311000D01*
X105270500Y-75331000D01*
X105016500Y-75331000D01*
X105016500Y-75311000D01*
X104996500Y-75311000D01*
X104996500Y-75057000D01*
X105016500Y-75057000D01*
X105016500Y-75037000D01*
X105270500Y-75037000D01*
X105270500Y-75057000D01*
G36*
X91723500Y-71779500D02*
X91743500Y-71779500D01*
X91743500Y-71845750D01*
X91723500Y-71865750D01*
X91723500Y-73168250D01*
X91743500Y-73188250D01*
X91743500Y-73254500D01*
X91723500Y-73254500D01*
X91723500Y-73314000D01*
X91469500Y-73314000D01*
X91469500Y-73254500D01*
X91449500Y-73254500D01*
X91449500Y-73188250D01*
X91469500Y-73168250D01*
X91469500Y-71865750D01*
X91383250Y-71779500D01*
X91469500Y-71779500D01*
X91469500Y-71720000D01*
X91723500Y-71720000D01*
X91723500Y-71779500D01*
X91723500Y-71779500D01*
G37*
X91723500Y-71779500D02*
X91743500Y-71779500D01*
X91743500Y-71845750D01*
X91723500Y-71865750D01*
X91723500Y-73168250D01*
X91743500Y-73188250D01*
X91743500Y-73254500D01*
X91723500Y-73254500D01*
X91723500Y-73314000D01*
X91469500Y-73314000D01*
X91469500Y-73254500D01*
X91449500Y-73254500D01*
X91449500Y-73188250D01*
X91469500Y-73168250D01*
X91469500Y-71865750D01*
X91383250Y-71779500D01*
X91469500Y-71779500D01*
X91469500Y-71720000D01*
X91723500Y-71720000D01*
X91723500Y-71779500D01*
G36*
X113530635Y-72093552D02*
X113131893Y-72989143D01*
X112977250Y-72834500D01*
X112098000Y-72834500D01*
X112098000Y-72854500D01*
X111844000Y-72854500D01*
X111844000Y-72834500D01*
X111824000Y-72834500D01*
X111824000Y-72580500D01*
X111844000Y-72580500D01*
X111844000Y-72560500D01*
X112098000Y-72560500D01*
X112098000Y-72580500D01*
X112977250Y-72580500D01*
X113136000Y-72421750D01*
X113136000Y-72256190D01*
X113039327Y-72022801D01*
X112889464Y-71872939D01*
X112889464Y-71432500D01*
X112863769Y-71303322D01*
X113199628Y-70967464D01*
X113566250Y-70967464D01*
X113798621Y-70921243D01*
X113930458Y-70833152D01*
X113530635Y-72093552D01*
X113530635Y-72093552D01*
G37*
X113530635Y-72093552D02*
X113131893Y-72989143D01*
X112977250Y-72834500D01*
X112098000Y-72834500D01*
X112098000Y-72854500D01*
X111844000Y-72854500D01*
X111844000Y-72834500D01*
X111824000Y-72834500D01*
X111824000Y-72580500D01*
X111844000Y-72580500D01*
X111844000Y-72560500D01*
X112098000Y-72560500D01*
X112098000Y-72580500D01*
X112977250Y-72580500D01*
X113136000Y-72421750D01*
X113136000Y-72256190D01*
X113039327Y-72022801D01*
X112889464Y-71872939D01*
X112889464Y-71432500D01*
X112863769Y-71303322D01*
X113199628Y-70967464D01*
X113566250Y-70967464D01*
X113798621Y-70921243D01*
X113930458Y-70833152D01*
X113530635Y-72093552D01*
G36*
X112631011Y-68401958D02*
X112952542Y-68723489D01*
X113094000Y-68782083D01*
X113094001Y-69247448D01*
X112896379Y-69286757D01*
X112786084Y-69360454D01*
X112748327Y-69269301D01*
X112569698Y-69090673D01*
X112336309Y-68994000D01*
X112058250Y-68994000D01*
X111899500Y-69152750D01*
X111899500Y-69977000D01*
X111919500Y-69977000D01*
X111919500Y-70231000D01*
X111899500Y-70231000D01*
X111899500Y-70251000D01*
X111645500Y-70251000D01*
X111645500Y-70231000D01*
X111625500Y-70231000D01*
X111625500Y-69977000D01*
X111645500Y-69977000D01*
X111645500Y-69152750D01*
X111565990Y-69073240D01*
X111565990Y-69003891D01*
X112241185Y-68328696D01*
X112279257Y-68303257D01*
X112321421Y-68240155D01*
X112439121Y-68216743D01*
X112529327Y-68156469D01*
X112631011Y-68401958D01*
X112631011Y-68401958D01*
G37*
X112631011Y-68401958D02*
X112952542Y-68723489D01*
X113094000Y-68782083D01*
X113094001Y-69247448D01*
X112896379Y-69286757D01*
X112786084Y-69360454D01*
X112748327Y-69269301D01*
X112569698Y-69090673D01*
X112336309Y-68994000D01*
X112058250Y-68994000D01*
X111899500Y-69152750D01*
X111899500Y-69977000D01*
X111919500Y-69977000D01*
X111919500Y-70231000D01*
X111899500Y-70231000D01*
X111899500Y-70251000D01*
X111645500Y-70251000D01*
X111645500Y-70231000D01*
X111625500Y-70231000D01*
X111625500Y-69977000D01*
X111645500Y-69977000D01*
X111645500Y-69152750D01*
X111565990Y-69073240D01*
X111565990Y-69003891D01*
X112241185Y-68328696D01*
X112279257Y-68303257D01*
X112321421Y-68240155D01*
X112439121Y-68216743D01*
X112529327Y-68156469D01*
X112631011Y-68401958D01*
G36*
X96456500Y-65405000D02*
X96476500Y-65405000D01*
X96476500Y-65659000D01*
X96456500Y-65659000D01*
X96456500Y-66128750D01*
X96429500Y-66155750D01*
X96429500Y-66805000D01*
X96476500Y-66805000D01*
X96476500Y-67059000D01*
X96429500Y-67059000D01*
X96429500Y-67708250D01*
X96588250Y-67867000D01*
X96655810Y-67867000D01*
X96889199Y-67770327D01*
X97045770Y-67613755D01*
X97079500Y-67620464D01*
X97479500Y-67620464D01*
X97601501Y-67596197D01*
X97601501Y-68560907D01*
X97175500Y-68986909D01*
X96776038Y-68587447D01*
X96747806Y-68545194D01*
X96580431Y-68433359D01*
X96432835Y-68404000D01*
X96432834Y-68404000D01*
X96383000Y-68394087D01*
X96333166Y-68404000D01*
X94316074Y-68404000D01*
X94221115Y-68261885D01*
X94024121Y-68130257D01*
X93791750Y-68084036D01*
X93279250Y-68084036D01*
X93046879Y-68130257D01*
X92849885Y-68261885D01*
X92718257Y-68458879D01*
X92672036Y-68691250D01*
X92672036Y-69128750D01*
X92686948Y-69203719D01*
X92526121Y-69096257D01*
X92293750Y-69050036D01*
X91856250Y-69050036D01*
X91623879Y-69096257D01*
X91426885Y-69227885D01*
X91295257Y-69424879D01*
X91287500Y-69463876D01*
X91279743Y-69424879D01*
X91148115Y-69227885D01*
X91006000Y-69132926D01*
X91006000Y-68823504D01*
X91247458Y-68723489D01*
X91568989Y-68401958D01*
X91743000Y-67981857D01*
X91743000Y-67757307D01*
X91919750Y-67792464D01*
X92357250Y-67792464D01*
X92589621Y-67746243D01*
X92786615Y-67614615D01*
X92918243Y-67417621D01*
X92926000Y-67378624D01*
X92933757Y-67417621D01*
X93065385Y-67614615D01*
X93262379Y-67746243D01*
X93494750Y-67792464D01*
X93932250Y-67792464D01*
X94164621Y-67746243D01*
X94361615Y-67614615D01*
X94493243Y-67417621D01*
X94499732Y-67385000D01*
X94766640Y-67385000D01*
X94696000Y-67555541D01*
X94696000Y-67826459D01*
X94799676Y-68076756D01*
X94991244Y-68268324D01*
X95241541Y-68372000D01*
X95512459Y-68372000D01*
X95762756Y-68268324D01*
X95954324Y-68076756D01*
X96041207Y-67867000D01*
X96070750Y-67867000D01*
X96229500Y-67708250D01*
X96229500Y-67059000D01*
X96182500Y-67059000D01*
X96182500Y-66805000D01*
X96229500Y-66805000D01*
X96229500Y-66155750D01*
X96202500Y-66128750D01*
X96202500Y-65659000D01*
X96182500Y-65659000D01*
X96182500Y-65405000D01*
X96202500Y-65405000D01*
X96202500Y-65385000D01*
X96456500Y-65385000D01*
X96456500Y-65405000D01*
X96456500Y-65405000D01*
G37*
X96456500Y-65405000D02*
X96476500Y-65405000D01*
X96476500Y-65659000D01*
X96456500Y-65659000D01*
X96456500Y-66128750D01*
X96429500Y-66155750D01*
X96429500Y-66805000D01*
X96476500Y-66805000D01*
X96476500Y-67059000D01*
X96429500Y-67059000D01*
X96429500Y-67708250D01*
X96588250Y-67867000D01*
X96655810Y-67867000D01*
X96889199Y-67770327D01*
X97045770Y-67613755D01*
X97079500Y-67620464D01*
X97479500Y-67620464D01*
X97601501Y-67596197D01*
X97601501Y-68560907D01*
X97175500Y-68986909D01*
X96776038Y-68587447D01*
X96747806Y-68545194D01*
X96580431Y-68433359D01*
X96432835Y-68404000D01*
X96432834Y-68404000D01*
X96383000Y-68394087D01*
X96333166Y-68404000D01*
X94316074Y-68404000D01*
X94221115Y-68261885D01*
X94024121Y-68130257D01*
X93791750Y-68084036D01*
X93279250Y-68084036D01*
X93046879Y-68130257D01*
X92849885Y-68261885D01*
X92718257Y-68458879D01*
X92672036Y-68691250D01*
X92672036Y-69128750D01*
X92686948Y-69203719D01*
X92526121Y-69096257D01*
X92293750Y-69050036D01*
X91856250Y-69050036D01*
X91623879Y-69096257D01*
X91426885Y-69227885D01*
X91295257Y-69424879D01*
X91287500Y-69463876D01*
X91279743Y-69424879D01*
X91148115Y-69227885D01*
X91006000Y-69132926D01*
X91006000Y-68823504D01*
X91247458Y-68723489D01*
X91568989Y-68401958D01*
X91743000Y-67981857D01*
X91743000Y-67757307D01*
X91919750Y-67792464D01*
X92357250Y-67792464D01*
X92589621Y-67746243D01*
X92786615Y-67614615D01*
X92918243Y-67417621D01*
X92926000Y-67378624D01*
X92933757Y-67417621D01*
X93065385Y-67614615D01*
X93262379Y-67746243D01*
X93494750Y-67792464D01*
X93932250Y-67792464D01*
X94164621Y-67746243D01*
X94361615Y-67614615D01*
X94493243Y-67417621D01*
X94499732Y-67385000D01*
X94766640Y-67385000D01*
X94696000Y-67555541D01*
X94696000Y-67826459D01*
X94799676Y-68076756D01*
X94991244Y-68268324D01*
X95241541Y-68372000D01*
X95512459Y-68372000D01*
X95762756Y-68268324D01*
X95954324Y-68076756D01*
X96041207Y-67867000D01*
X96070750Y-67867000D01*
X96229500Y-67708250D01*
X96229500Y-67059000D01*
X96182500Y-67059000D01*
X96182500Y-66805000D01*
X96229500Y-66805000D01*
X96229500Y-66155750D01*
X96202500Y-66128750D01*
X96202500Y-65659000D01*
X96182500Y-65659000D01*
X96182500Y-65405000D01*
X96202500Y-65405000D01*
X96202500Y-65385000D01*
X96456500Y-65385000D01*
X96456500Y-65405000D01*
G36*
X102235000Y-67691000D02*
X102255000Y-67691000D01*
X102255000Y-67945000D01*
X102235000Y-67945000D01*
X102235000Y-67965000D01*
X101981000Y-67965000D01*
X101981000Y-67945000D01*
X101961000Y-67945000D01*
X101961000Y-67691000D01*
X101981000Y-67691000D01*
X101981000Y-67671000D01*
X102235000Y-67671000D01*
X102235000Y-67691000D01*
X102235000Y-67691000D01*
G37*
X102235000Y-67691000D02*
X102255000Y-67691000D01*
X102255000Y-67945000D01*
X102235000Y-67945000D01*
X102235000Y-67965000D01*
X101981000Y-67965000D01*
X101981000Y-67945000D01*
X101961000Y-67945000D01*
X101961000Y-67691000D01*
X101981000Y-67691000D01*
X101981000Y-67671000D01*
X102235000Y-67671000D01*
X102235000Y-67691000D01*
G36*
X95139055Y-62822146D02*
X95131459Y-62819000D01*
X94860541Y-62819000D01*
X94610244Y-62922676D01*
X94418676Y-63114244D01*
X94315000Y-63364541D01*
X94315000Y-63635459D01*
X94418676Y-63885756D01*
X94503269Y-63970349D01*
X93932083Y-64541536D01*
X93494750Y-64541536D01*
X93262379Y-64587757D01*
X93065385Y-64719385D01*
X92933757Y-64916379D01*
X92926000Y-64955376D01*
X92918243Y-64916379D01*
X92786615Y-64719385D01*
X92662986Y-64636778D01*
X92824115Y-64529115D01*
X92922099Y-64382472D01*
X93046931Y-64357641D01*
X93214306Y-64245806D01*
X93242539Y-64203553D01*
X94733628Y-62712464D01*
X95029373Y-62712464D01*
X95139055Y-62822146D01*
X95139055Y-62822146D01*
G37*
X95139055Y-62822146D02*
X95131459Y-62819000D01*
X94860541Y-62819000D01*
X94610244Y-62922676D01*
X94418676Y-63114244D01*
X94315000Y-63364541D01*
X94315000Y-63635459D01*
X94418676Y-63885756D01*
X94503269Y-63970349D01*
X93932083Y-64541536D01*
X93494750Y-64541536D01*
X93262379Y-64587757D01*
X93065385Y-64719385D01*
X92933757Y-64916379D01*
X92926000Y-64955376D01*
X92918243Y-64916379D01*
X92786615Y-64719385D01*
X92662986Y-64636778D01*
X92824115Y-64529115D01*
X92922099Y-64382472D01*
X93046931Y-64357641D01*
X93214306Y-64245806D01*
X93242539Y-64203553D01*
X94733628Y-62712464D01*
X95029373Y-62712464D01*
X95139055Y-62822146D01*
G36*
X110778245Y-59144575D02*
X111683950Y-60164695D01*
X112403925Y-61185325D01*
X112268000Y-61321250D01*
X112268000Y-62233000D01*
X112288000Y-62233000D01*
X112288000Y-62487000D01*
X112268000Y-62487000D01*
X112268000Y-62507000D01*
X112014000Y-62507000D01*
X112014000Y-62487000D01*
X111139750Y-62487000D01*
X110981000Y-62645750D01*
X110981000Y-63048809D01*
X111077673Y-63282198D01*
X111256301Y-63460827D01*
X111333246Y-63492699D01*
X111304488Y-63535737D01*
X111260459Y-63517500D01*
X111159592Y-63517500D01*
X110946964Y-63304873D01*
X110946964Y-62800000D01*
X110917394Y-62651341D01*
X110833186Y-62525314D01*
X110707159Y-62441106D01*
X110558500Y-62411536D01*
X110406089Y-62411536D01*
X110573305Y-62299807D01*
X110583319Y-62284820D01*
X110598306Y-62274806D01*
X110710141Y-62107431D01*
X110730909Y-62003025D01*
X110833186Y-61934686D01*
X110917394Y-61808659D01*
X110944737Y-61671191D01*
X110981000Y-61671191D01*
X110981000Y-62074250D01*
X111139750Y-62233000D01*
X112014000Y-62233000D01*
X112014000Y-61321250D01*
X111855250Y-61162500D01*
X111489690Y-61162500D01*
X111256301Y-61259173D01*
X111077673Y-61437802D01*
X110981000Y-61671191D01*
X110944737Y-61671191D01*
X110946964Y-61660000D01*
X110946964Y-60600000D01*
X110917394Y-60451341D01*
X110833186Y-60325314D01*
X110713610Y-60245416D01*
X110765327Y-60193699D01*
X110862000Y-59960310D01*
X110862000Y-59594750D01*
X110703250Y-59436000D01*
X109791500Y-59436000D01*
X109791500Y-59456000D01*
X109537500Y-59456000D01*
X109537500Y-59436000D01*
X109517500Y-59436000D01*
X109517500Y-59182000D01*
X109537500Y-59182000D01*
X109537500Y-59162000D01*
X109791500Y-59162000D01*
X109791500Y-59182000D01*
X110703250Y-59182000D01*
X110758476Y-59126774D01*
X110778245Y-59144575D01*
X110778245Y-59144575D01*
G37*
X110778245Y-59144575D02*
X111683950Y-60164695D01*
X112403925Y-61185325D01*
X112268000Y-61321250D01*
X112268000Y-62233000D01*
X112288000Y-62233000D01*
X112288000Y-62487000D01*
X112268000Y-62487000D01*
X112268000Y-62507000D01*
X112014000Y-62507000D01*
X112014000Y-62487000D01*
X111139750Y-62487000D01*
X110981000Y-62645750D01*
X110981000Y-63048809D01*
X111077673Y-63282198D01*
X111256301Y-63460827D01*
X111333246Y-63492699D01*
X111304488Y-63535737D01*
X111260459Y-63517500D01*
X111159592Y-63517500D01*
X110946964Y-63304873D01*
X110946964Y-62800000D01*
X110917394Y-62651341D01*
X110833186Y-62525314D01*
X110707159Y-62441106D01*
X110558500Y-62411536D01*
X110406089Y-62411536D01*
X110573305Y-62299807D01*
X110583319Y-62284820D01*
X110598306Y-62274806D01*
X110710141Y-62107431D01*
X110730909Y-62003025D01*
X110833186Y-61934686D01*
X110917394Y-61808659D01*
X110944737Y-61671191D01*
X110981000Y-61671191D01*
X110981000Y-62074250D01*
X111139750Y-62233000D01*
X112014000Y-62233000D01*
X112014000Y-61321250D01*
X111855250Y-61162500D01*
X111489690Y-61162500D01*
X111256301Y-61259173D01*
X111077673Y-61437802D01*
X110981000Y-61671191D01*
X110944737Y-61671191D01*
X110946964Y-61660000D01*
X110946964Y-60600000D01*
X110917394Y-60451341D01*
X110833186Y-60325314D01*
X110713610Y-60245416D01*
X110765327Y-60193699D01*
X110862000Y-59960310D01*
X110862000Y-59594750D01*
X110703250Y-59436000D01*
X109791500Y-59436000D01*
X109791500Y-59456000D01*
X109537500Y-59456000D01*
X109537500Y-59436000D01*
X109517500Y-59436000D01*
X109517500Y-59182000D01*
X109537500Y-59182000D01*
X109537500Y-59162000D01*
X109791500Y-59162000D01*
X109791500Y-59182000D01*
X110703250Y-59182000D01*
X110758476Y-59126774D01*
X110778245Y-59144575D01*
G36*
X105415385Y-62896500D02*
X105246464Y-62896500D01*
X105246464Y-62602500D01*
X105321927Y-62602500D01*
X105415385Y-62896500D01*
X105415385Y-62896500D01*
G37*
X105415385Y-62896500D02*
X105246464Y-62896500D01*
X105246464Y-62602500D01*
X105321927Y-62602500D01*
X105415385Y-62896500D01*
G36*
X98969536Y-62896500D02*
X98800615Y-62896500D01*
X98894073Y-62602500D01*
X98969536Y-62602500D01*
X98969536Y-62896500D01*
X98969536Y-62896500D01*
G37*
X98969536Y-62896500D02*
X98800615Y-62896500D01*
X98894073Y-62602500D01*
X98969536Y-62602500D01*
X98969536Y-62896500D01*
G36*
X92697542Y-60108719D02*
X92710725Y-60117197D01*
X92744442Y-60149757D01*
X92804139Y-60197030D01*
X92902500Y-60260299D01*
X92902500Y-60910166D01*
X92892587Y-60960000D01*
X92902500Y-61009834D01*
X92931859Y-61157430D01*
X93043694Y-61324806D01*
X93085947Y-61353038D01*
X93873908Y-62141000D01*
X93248500Y-62766409D01*
X93248500Y-62591750D01*
X93089750Y-62433000D01*
X92265500Y-62433000D01*
X92265500Y-62453000D01*
X92011500Y-62453000D01*
X92011500Y-62433000D01*
X91991500Y-62433000D01*
X91991500Y-62179000D01*
X92011500Y-62179000D01*
X92011500Y-61392250D01*
X92265500Y-61392250D01*
X92265500Y-62179000D01*
X93089750Y-62179000D01*
X93248500Y-62020250D01*
X93248500Y-61742191D01*
X93151827Y-61508802D01*
X92973199Y-61330173D01*
X92739810Y-61233500D01*
X92424250Y-61233500D01*
X92265500Y-61392250D01*
X92011500Y-61392250D01*
X91852750Y-61233500D01*
X91781370Y-61233500D01*
X91837117Y-61135367D01*
X92630240Y-60043726D01*
X92697542Y-60108719D01*
X92697542Y-60108719D01*
G37*
X92697542Y-60108719D02*
X92710725Y-60117197D01*
X92744442Y-60149757D01*
X92804139Y-60197030D01*
X92902500Y-60260299D01*
X92902500Y-60910166D01*
X92892587Y-60960000D01*
X92902500Y-61009834D01*
X92931859Y-61157430D01*
X93043694Y-61324806D01*
X93085947Y-61353038D01*
X93873908Y-62141000D01*
X93248500Y-62766409D01*
X93248500Y-62591750D01*
X93089750Y-62433000D01*
X92265500Y-62433000D01*
X92265500Y-62453000D01*
X92011500Y-62453000D01*
X92011500Y-62433000D01*
X91991500Y-62433000D01*
X91991500Y-62179000D01*
X92011500Y-62179000D01*
X92011500Y-61392250D01*
X92265500Y-61392250D01*
X92265500Y-62179000D01*
X93089750Y-62179000D01*
X93248500Y-62020250D01*
X93248500Y-61742191D01*
X93151827Y-61508802D01*
X92973199Y-61330173D01*
X92739810Y-61233500D01*
X92424250Y-61233500D01*
X92265500Y-61392250D01*
X92011500Y-61392250D01*
X91852750Y-61233500D01*
X91781370Y-61233500D01*
X91837117Y-61135367D01*
X92630240Y-60043726D01*
X92697542Y-60108719D01*
G36*
X97915000Y-61707500D02*
X97935000Y-61707500D01*
X97935000Y-61961500D01*
X97915000Y-61961500D01*
X97915000Y-61981500D01*
X97661000Y-61981500D01*
X97661000Y-61961500D01*
X97641000Y-61961500D01*
X97641000Y-61707500D01*
X97661000Y-61707500D01*
X97661000Y-61687500D01*
X97915000Y-61687500D01*
X97915000Y-61707500D01*
X97915000Y-61707500D01*
G37*
X97915000Y-61707500D02*
X97935000Y-61707500D01*
X97935000Y-61961500D01*
X97915000Y-61961500D01*
X97915000Y-61981500D01*
X97661000Y-61981500D01*
X97661000Y-61961500D01*
X97641000Y-61961500D01*
X97641000Y-61707500D01*
X97661000Y-61707500D01*
X97661000Y-61687500D01*
X97915000Y-61687500D01*
X97915000Y-61707500D01*
G36*
X103554778Y-55621454D02*
X104898219Y-55858339D01*
X106206883Y-56243500D01*
X106300998Y-56283062D01*
X106300998Y-56386545D01*
X106126126Y-56260381D01*
X105715237Y-56462132D01*
X105427998Y-56802822D01*
X105293000Y-57227500D01*
X105293000Y-57527500D01*
X106301000Y-57527500D01*
X106301000Y-57507500D01*
X106555000Y-57507500D01*
X106555000Y-57527500D01*
X106575000Y-57527500D01*
X106575000Y-57781500D01*
X106555000Y-57781500D01*
X106555000Y-58922454D01*
X106645991Y-58988100D01*
X106645990Y-59735854D01*
X106637058Y-59780758D01*
X106645990Y-59825662D01*
X106645990Y-59825666D01*
X106672448Y-59958679D01*
X106732001Y-60047807D01*
X106732001Y-60191425D01*
X106729874Y-60190381D01*
X106555000Y-60316546D01*
X106555000Y-61707500D01*
X106575000Y-61707500D01*
X106575000Y-61961500D01*
X106555000Y-61961500D01*
X106555000Y-61981500D01*
X106301000Y-61981500D01*
X106301000Y-61961500D01*
X106281000Y-61961500D01*
X106281000Y-61707500D01*
X106301000Y-61707500D01*
X106301000Y-60316546D01*
X106126126Y-60190381D01*
X105715237Y-60392132D01*
X105427998Y-60732822D01*
X105427216Y-60735281D01*
X105397917Y-60705982D01*
X105138432Y-60598500D01*
X104857568Y-60598500D01*
X104600551Y-60704960D01*
X104567000Y-60671408D01*
X104567000Y-60570541D01*
X104463324Y-60320244D01*
X104271756Y-60128676D01*
X104021459Y-60025000D01*
X103750541Y-60025000D01*
X103500244Y-60128676D01*
X103377651Y-60251270D01*
X101636696Y-58510315D01*
X101611257Y-58472243D01*
X101460422Y-58371458D01*
X101327409Y-58345000D01*
X101327404Y-58345000D01*
X101282500Y-58336068D01*
X101237596Y-58345000D01*
X98839238Y-58345000D01*
X98923000Y-58081500D01*
X98923000Y-57781500D01*
X105293000Y-57781500D01*
X105293000Y-58081500D01*
X105427998Y-58506178D01*
X105715237Y-58846868D01*
X106126126Y-59048619D01*
X106301000Y-58922454D01*
X106301000Y-57781500D01*
X105293000Y-57781500D01*
X98923000Y-57781500D01*
X97915000Y-57781500D01*
X97915000Y-57801500D01*
X97661000Y-57801500D01*
X97661000Y-57781500D01*
X97641000Y-57781500D01*
X97641000Y-57527500D01*
X97661000Y-57527500D01*
X97661000Y-57507500D01*
X97915000Y-57507500D01*
X97915000Y-57527500D01*
X98923000Y-57527500D01*
X98923000Y-57227500D01*
X98788002Y-56802822D01*
X98500763Y-56462132D01*
X98089874Y-56260381D01*
X97915002Y-56386545D01*
X97915002Y-56290514D01*
X98170235Y-56187393D01*
X99484149Y-55820541D01*
X100830767Y-55602437D01*
X102193304Y-55535798D01*
X103554778Y-55621454D01*
X103554778Y-55621454D01*
G37*
X103554778Y-55621454D02*
X104898219Y-55858339D01*
X106206883Y-56243500D01*
X106300998Y-56283062D01*
X106300998Y-56386545D01*
X106126126Y-56260381D01*
X105715237Y-56462132D01*
X105427998Y-56802822D01*
X105293000Y-57227500D01*
X105293000Y-57527500D01*
X106301000Y-57527500D01*
X106301000Y-57507500D01*
X106555000Y-57507500D01*
X106555000Y-57527500D01*
X106575000Y-57527500D01*
X106575000Y-57781500D01*
X106555000Y-57781500D01*
X106555000Y-58922454D01*
X106645991Y-58988100D01*
X106645990Y-59735854D01*
X106637058Y-59780758D01*
X106645990Y-59825662D01*
X106645990Y-59825666D01*
X106672448Y-59958679D01*
X106732001Y-60047807D01*
X106732001Y-60191425D01*
X106729874Y-60190381D01*
X106555000Y-60316546D01*
X106555000Y-61707500D01*
X106575000Y-61707500D01*
X106575000Y-61961500D01*
X106555000Y-61961500D01*
X106555000Y-61981500D01*
X106301000Y-61981500D01*
X106301000Y-61961500D01*
X106281000Y-61961500D01*
X106281000Y-61707500D01*
X106301000Y-61707500D01*
X106301000Y-60316546D01*
X106126126Y-60190381D01*
X105715237Y-60392132D01*
X105427998Y-60732822D01*
X105427216Y-60735281D01*
X105397917Y-60705982D01*
X105138432Y-60598500D01*
X104857568Y-60598500D01*
X104600551Y-60704960D01*
X104567000Y-60671408D01*
X104567000Y-60570541D01*
X104463324Y-60320244D01*
X104271756Y-60128676D01*
X104021459Y-60025000D01*
X103750541Y-60025000D01*
X103500244Y-60128676D01*
X103377651Y-60251270D01*
X101636696Y-58510315D01*
X101611257Y-58472243D01*
X101460422Y-58371458D01*
X101327409Y-58345000D01*
X101327404Y-58345000D01*
X101282500Y-58336068D01*
X101237596Y-58345000D01*
X98839238Y-58345000D01*
X98923000Y-58081500D01*
X98923000Y-57781500D01*
X105293000Y-57781500D01*
X105293000Y-58081500D01*
X105427998Y-58506178D01*
X105715237Y-58846868D01*
X106126126Y-59048619D01*
X106301000Y-58922454D01*
X106301000Y-57781500D01*
X105293000Y-57781500D01*
X98923000Y-57781500D01*
X97915000Y-57781500D01*
X97915000Y-57801500D01*
X97661000Y-57801500D01*
X97661000Y-57781500D01*
X97641000Y-57781500D01*
X97641000Y-57527500D01*
X97661000Y-57527500D01*
X97661000Y-57507500D01*
X97915000Y-57507500D01*
X97915000Y-57527500D01*
X98923000Y-57527500D01*
X98923000Y-57227500D01*
X98788002Y-56802822D01*
X98500763Y-56462132D01*
X98089874Y-56260381D01*
X97915002Y-56386545D01*
X97915002Y-56290514D01*
X98170235Y-56187393D01*
X99484149Y-55820541D01*
X100830767Y-55602437D01*
X102193304Y-55535798D01*
X103554778Y-55621454D01*
G36*
X109410500Y-61003000D02*
X109430500Y-61003000D01*
X109430500Y-61257000D01*
X109410500Y-61257000D01*
X109410500Y-61277000D01*
X109156500Y-61277000D01*
X109156500Y-61257000D01*
X109136500Y-61257000D01*
X109136500Y-61003000D01*
X109156500Y-61003000D01*
X109156500Y-60983000D01*
X109410500Y-60983000D01*
X109410500Y-61003000D01*
X109410500Y-61003000D01*
G37*
X109410500Y-61003000D02*
X109430500Y-61003000D01*
X109430500Y-61257000D01*
X109410500Y-61257000D01*
X109410500Y-61277000D01*
X109156500Y-61277000D01*
X109156500Y-61257000D01*
X109136500Y-61257000D01*
X109136500Y-61003000D01*
X109156500Y-61003000D01*
X109156500Y-60983000D01*
X109410500Y-60983000D01*
X109410500Y-61003000D01*
G36*
X93914500Y-60530750D02*
X93914500Y-60452002D01*
X93993248Y-60452002D01*
X93914500Y-60530750D01*
X93914500Y-60530750D01*
G37*
X93914500Y-60530750D02*
X93914500Y-60452002D01*
X93993248Y-60452002D01*
X93914500Y-60530750D01*
G36*
X95008500Y-58674000D02*
X95028500Y-58674000D01*
X95028500Y-58928000D01*
X95008500Y-58928000D01*
X95008500Y-59752250D01*
X95034000Y-59777750D01*
X95034000Y-60198000D01*
X95054000Y-60198000D01*
X95054000Y-60452000D01*
X95034000Y-60452000D01*
X95034000Y-60472000D01*
X94780000Y-60472000D01*
X94780000Y-60452000D01*
X94760000Y-60452000D01*
X94760000Y-60198000D01*
X94780000Y-60198000D01*
X94780000Y-59373750D01*
X94754500Y-59348250D01*
X94754500Y-58928000D01*
X94734500Y-58928000D01*
X94734500Y-58674000D01*
X94754500Y-58674000D01*
X94754500Y-58654000D01*
X95008500Y-58654000D01*
X95008500Y-58674000D01*
X95008500Y-58674000D01*
G37*
X95008500Y-58674000D02*
X95028500Y-58674000D01*
X95028500Y-58928000D01*
X95008500Y-58928000D01*
X95008500Y-59752250D01*
X95034000Y-59777750D01*
X95034000Y-60198000D01*
X95054000Y-60198000D01*
X95054000Y-60452000D01*
X95034000Y-60452000D01*
X95034000Y-60472000D01*
X94780000Y-60472000D01*
X94780000Y-60452000D01*
X94760000Y-60452000D01*
X94760000Y-60198000D01*
X94780000Y-60198000D01*
X94780000Y-59373750D01*
X94754500Y-59348250D01*
X94754500Y-58928000D01*
X94734500Y-58928000D01*
X94734500Y-58674000D01*
X94754500Y-58674000D01*
X94754500Y-58654000D01*
X95008500Y-58654000D01*
X95008500Y-58674000D01*
M02*
