%TF.GenerationSoftware,KiCad,Pcbnew,(5.0.1)-4*%
%TF.CreationDate,2019-06-04T13:38:29+02:00*%
%TF.ProjectId,ESPesh,4553506573682E6B696361645F706362,rev?*%
%TF.SameCoordinates,Original*%
%TF.FileFunction,Legend,Top*%
%TF.FilePolarity,Positive*%
%FSLAX46Y46*%
G04 Gerber Fmt 4.6, Leading zero omitted, Abs format (unit mm)*
G04 Created by KiCad (PCBNEW (5.0.1)-4) date 04/06/2019 13:38:29*
%MOMM*%
%LPD*%
G01*
G04 APERTURE LIST*
%ADD10C,0.200000*%
%ADD11C,0.120000*%
%ADD12C,0.100000*%
%ADD13C,0.150000*%
%ADD14C,0.125000*%
G04 APERTURE END LIST*
D10*
X114808000Y-67754500D02*
G75*
G03X114808000Y-67754500I-12700000J0D01*
G01*
D11*
X112926000Y-64957500D02*
X112926000Y-62247500D01*
X111356000Y-64957500D02*
X112926000Y-64957500D01*
X111356000Y-62247500D02*
X111356000Y-64957500D01*
D12*
X105608000Y-64818000D02*
X105608000Y-64318000D01*
X105608000Y-64318000D02*
X105108000Y-64318000D01*
X99108000Y-64318000D02*
X98608000Y-64318000D01*
X98608000Y-64318000D02*
X98608000Y-64818000D01*
X98608000Y-70818000D02*
X98608000Y-71318000D01*
X98608000Y-71318000D02*
X99108000Y-71318000D01*
X105608000Y-70818000D02*
X105608000Y-71318000D01*
X105608000Y-71318000D02*
X105108000Y-71318000D01*
X105908000Y-70568000D02*
X105908000Y-70568000D01*
X106008000Y-70568000D02*
X106008000Y-70568000D01*
X106008000Y-70568000D02*
G75*
G03X105908000Y-70568000I-50000J0D01*
G01*
X105908000Y-70568000D02*
G75*
G03X106008000Y-70568000I50000J0D01*
G01*
D11*
X109489000Y-67164500D02*
X108539000Y-67164500D01*
X109489000Y-64564500D02*
X109489000Y-67164500D01*
X107239000Y-67164500D02*
X106439000Y-67164500D01*
X95831779Y-59311000D02*
X95506221Y-59311000D01*
X95831779Y-58291000D02*
X95506221Y-58291000D01*
X95857279Y-59815000D02*
X95531721Y-59815000D01*
X95857279Y-60835000D02*
X95531721Y-60835000D01*
X93787500Y-75638779D02*
X93787500Y-75313221D01*
X94807500Y-75638779D02*
X94807500Y-75313221D01*
X95438500Y-75999221D02*
X95438500Y-76324779D01*
X96458500Y-75999221D02*
X96458500Y-76324779D01*
X101534500Y-74559279D02*
X101534500Y-74233721D01*
X102554500Y-74559279D02*
X102554500Y-74233721D01*
D10*
X108809500Y-72812600D02*
X100959500Y-72812600D01*
X95059500Y-72812600D02*
X95059500Y-77412600D01*
X98709500Y-78012600D02*
X107659500Y-78012600D01*
X108809500Y-72812600D02*
X108809500Y-76012600D01*
X95059500Y-72812600D02*
X96909500Y-72812600D01*
X95659500Y-78012600D02*
X96909500Y-78012600D01*
X98709500Y-72812600D02*
X99159500Y-72812600D01*
X95059500Y-77412600D02*
X95659500Y-78012600D01*
D11*
X104193221Y-75694000D02*
X104518779Y-75694000D01*
X104193221Y-74674000D02*
X104518779Y-74674000D01*
X104193221Y-74170000D02*
X104518779Y-74170000D01*
X104193221Y-73150000D02*
X104518779Y-73150000D01*
X107673500Y-61330000D02*
X107673500Y-63130000D01*
X110893500Y-63130000D02*
X110893500Y-60680000D01*
X109777000Y-58524000D02*
X107067000Y-58524000D01*
X107067000Y-58524000D02*
X107067000Y-60094000D01*
X107067000Y-60094000D02*
X109777000Y-60094000D01*
X112722779Y-69594000D02*
X112397221Y-69594000D01*
X112722779Y-70614000D02*
X112397221Y-70614000D01*
X91450279Y-70423500D02*
X91124721Y-70423500D01*
X91450279Y-69403500D02*
X91124721Y-69403500D01*
X111161500Y-67475000D02*
X111161500Y-65190000D01*
X111161500Y-65190000D02*
X109691500Y-65190000D01*
X109691500Y-65190000D02*
X109691500Y-67475000D01*
X94404100Y-69656500D02*
X98204100Y-69656500D01*
X94404100Y-72456500D02*
X98204100Y-72456500D01*
X94404100Y-72456500D02*
X94404100Y-71706500D01*
X106271500Y-68596000D02*
X106271500Y-70596000D01*
X106271500Y-70596000D02*
X110171500Y-70596000D01*
X106271500Y-68596000D02*
X110171500Y-68596000D01*
X111440500Y-66486721D02*
X111440500Y-66812279D01*
X112460500Y-66486721D02*
X112460500Y-66812279D01*
X107241221Y-73150000D02*
X107566779Y-73150000D01*
X107241221Y-74170000D02*
X107566779Y-74170000D01*
X93025500Y-69860279D02*
X93025500Y-69534721D01*
X94045500Y-69860279D02*
X94045500Y-69534721D01*
X107566779Y-71118000D02*
X107241221Y-71118000D01*
X107566779Y-72138000D02*
X107241221Y-72138000D01*
X111771000Y-71097500D02*
X109971000Y-71097500D01*
X109971000Y-74317500D02*
X112421000Y-74317500D01*
D13*
X93371500Y-71417000D02*
X91921500Y-71417000D01*
X94096500Y-73617000D02*
X91921500Y-73617000D01*
D11*
X92648500Y-62930721D02*
X92648500Y-63256279D01*
X91628500Y-62930721D02*
X91628500Y-63256279D01*
X95506221Y-61339000D02*
X95831779Y-61339000D01*
X95506221Y-62359000D02*
X95831779Y-62359000D01*
X92763221Y-65915000D02*
X93088779Y-65915000D01*
X92763221Y-64895000D02*
X93088779Y-64895000D01*
X92763221Y-66419000D02*
X93088779Y-66419000D01*
X92763221Y-67439000D02*
X93088779Y-67439000D01*
D13*
X94629500Y-64057000D02*
X94629500Y-67007000D01*
X98029500Y-64432000D02*
X98029500Y-66632000D01*
D14*
X94716161Y-58257073D02*
X94429373Y-57847497D01*
X94702423Y-57656305D02*
X94780438Y-57601679D01*
X94833102Y-57593869D01*
X94899422Y-57605563D01*
X94973552Y-57669921D01*
X95069148Y-57806446D01*
X95104271Y-57898117D01*
X95092577Y-57964438D01*
X95067226Y-58011255D01*
X94989212Y-58065881D01*
X94936548Y-58073691D01*
X94870227Y-58061996D01*
X94796098Y-57997639D01*
X94700501Y-57861113D01*
X94665379Y-57769442D01*
X94677073Y-57703122D01*
X94702423Y-57656305D01*
X95554817Y-57669840D02*
X95320773Y-57833719D01*
X95437795Y-57751780D02*
X95151007Y-57342204D01*
X95152969Y-57428028D01*
X95141275Y-57494348D01*
X95115925Y-57541165D01*
X113653071Y-64092833D02*
X113676880Y-64116642D01*
X113700690Y-64188071D01*
X113700690Y-64235690D01*
X113676880Y-64307119D01*
X113629261Y-64354738D01*
X113581642Y-64378547D01*
X113486404Y-64402357D01*
X113414976Y-64402357D01*
X113319738Y-64378547D01*
X113272119Y-64354738D01*
X113224500Y-64307119D01*
X113200690Y-64235690D01*
X113200690Y-64188071D01*
X113224500Y-64116642D01*
X113248309Y-64092833D01*
X113200690Y-63664261D02*
X113200690Y-63759500D01*
X113224500Y-63807119D01*
X113248309Y-63830928D01*
X113319738Y-63878547D01*
X113414976Y-63902357D01*
X113605452Y-63902357D01*
X113653071Y-63878547D01*
X113676880Y-63854738D01*
X113700690Y-63807119D01*
X113700690Y-63711880D01*
X113676880Y-63664261D01*
X113653071Y-63640452D01*
X113605452Y-63616642D01*
X113486404Y-63616642D01*
X113438785Y-63640452D01*
X113414976Y-63664261D01*
X113391166Y-63711880D01*
X113391166Y-63807119D01*
X113414976Y-63854738D01*
X113438785Y-63878547D01*
X113486404Y-63902357D01*
X109832172Y-74439296D02*
X110062193Y-74646408D01*
X109810882Y-74676437D01*
X109863964Y-74724232D01*
X109883420Y-74773789D01*
X109885182Y-74807415D01*
X109871013Y-74858735D01*
X109791354Y-74947204D01*
X109741797Y-74966660D01*
X109708171Y-74968423D01*
X109656852Y-74954253D01*
X109550688Y-74858663D01*
X109531232Y-74809106D01*
X109529470Y-74775480D01*
X110168356Y-74741998D02*
X109957649Y-75225092D01*
X110416071Y-74965041D01*
X110504541Y-75044700D02*
X110734562Y-75251811D01*
X110483251Y-75281841D01*
X110536333Y-75329636D01*
X110555789Y-75379193D01*
X110557551Y-75412819D01*
X110543382Y-75464138D01*
X110463723Y-75552608D01*
X110414166Y-75572064D01*
X110380540Y-75573827D01*
X110329221Y-75559657D01*
X110223057Y-75464067D01*
X110203601Y-75414510D01*
X110201839Y-75380884D01*
X91928272Y-60845110D02*
X92114548Y-60597914D01*
X92166367Y-60845651D01*
X92209354Y-60788605D01*
X92257027Y-60764904D01*
X92290371Y-60760218D01*
X92342730Y-60769861D01*
X92437806Y-60841505D01*
X92461507Y-60889178D01*
X92466193Y-60922522D01*
X92456550Y-60974882D01*
X92370577Y-61088972D01*
X92322904Y-61112674D01*
X92289560Y-61117360D01*
X92200522Y-60483823D02*
X92700142Y-60651624D01*
X92401127Y-60217611D01*
X92472772Y-60122535D02*
X92659048Y-59875339D01*
X92710866Y-60123076D01*
X92753853Y-60066030D01*
X92801526Y-60042329D01*
X92834870Y-60037643D01*
X92887229Y-60047286D01*
X92982305Y-60118930D01*
X93006006Y-60166603D01*
X93010692Y-60199947D01*
X93001050Y-60252307D01*
X92915076Y-60366397D01*
X92867403Y-60390099D01*
X92834059Y-60394785D01*
X109492888Y-75058852D02*
X109474300Y-75008963D01*
X109422060Y-74960249D01*
X109353583Y-74928948D01*
X109286280Y-74931298D01*
X109236391Y-74949886D01*
X109154026Y-75003301D01*
X109105311Y-75055541D01*
X109057772Y-75141431D01*
X109042709Y-75192496D01*
X109045060Y-75259798D01*
X109081061Y-75325926D01*
X109115887Y-75358402D01*
X109184365Y-75389703D01*
X109218016Y-75388528D01*
X109331683Y-75266635D01*
X109262030Y-75201683D01*
X109342259Y-75569496D02*
X109683258Y-75203820D01*
X109551217Y-75764353D01*
X109892216Y-75398676D01*
X109725349Y-75926734D02*
X110066348Y-75561057D01*
X110153414Y-75642247D01*
X110189415Y-75708374D01*
X110191766Y-75775677D01*
X110176703Y-75826741D01*
X110129164Y-75912632D01*
X110080450Y-75964872D01*
X109998084Y-76018286D01*
X109948195Y-76036875D01*
X109880892Y-76039225D01*
X109812415Y-76007924D01*
X109725349Y-75926734D01*
X89967711Y-65783450D02*
X89933800Y-65824493D01*
X89917732Y-65894091D01*
X89924864Y-65969045D01*
X89960550Y-66026155D01*
X90001593Y-66060066D01*
X90089034Y-66104690D01*
X90158632Y-66120758D01*
X90256785Y-66118982D01*
X90308539Y-66106495D01*
X90365650Y-66070808D01*
X90404917Y-66006566D01*
X90415629Y-65960168D01*
X90408498Y-65885214D01*
X90390654Y-65856659D01*
X90228259Y-65819167D01*
X90206836Y-65911964D01*
X90485257Y-65658577D02*
X89998072Y-65546101D01*
X90549529Y-65380186D01*
X90062344Y-65267710D01*
X90603088Y-65148193D02*
X90115903Y-65035717D01*
X90142683Y-64919721D01*
X90181950Y-64855479D01*
X90239061Y-64819792D01*
X90290816Y-64807305D01*
X90388969Y-64805530D01*
X90458567Y-64821597D01*
X90546008Y-64866221D01*
X90587050Y-64900132D01*
X90622737Y-64957242D01*
X90629868Y-65032196D01*
X90603088Y-65148193D01*
X106590502Y-79312439D02*
X106395137Y-78852186D01*
X106504721Y-78805671D01*
X106579774Y-78799678D01*
X106642214Y-78824905D01*
X106682737Y-78859436D01*
X106741866Y-78937800D01*
X106769776Y-79003550D01*
X106785071Y-79100520D01*
X106781761Y-79153657D01*
X106756533Y-79216097D01*
X106700086Y-79265923D01*
X106590502Y-79312439D01*
X106852079Y-78709957D02*
X106864692Y-78678737D01*
X106899223Y-78638214D01*
X107008807Y-78591699D01*
X107061943Y-78595009D01*
X107093163Y-78607623D01*
X107133686Y-78642153D01*
X107152292Y-78685987D01*
X107158285Y-78761040D01*
X107006921Y-79135679D01*
X107291839Y-79014739D01*
X107730175Y-78828676D02*
X107467174Y-78940314D01*
X107598674Y-78884495D02*
X107403309Y-78424243D01*
X107387384Y-78508599D01*
X107362157Y-78571039D01*
X107327627Y-78611562D01*
X96825242Y-78964979D02*
X97020607Y-78504727D01*
X97130191Y-78551243D01*
X97186639Y-78601069D01*
X97211866Y-78663508D01*
X97215176Y-78716645D01*
X97199881Y-78813615D01*
X97171971Y-78879366D01*
X97112842Y-78957730D01*
X97072319Y-78992260D01*
X97009879Y-79017488D01*
X96934826Y-79011495D01*
X96825242Y-78964979D01*
X97526579Y-79262679D02*
X97263578Y-79151042D01*
X97395078Y-79206860D02*
X97590444Y-78746608D01*
X97518701Y-78793752D01*
X97456261Y-78818979D01*
X97403124Y-78822290D01*
X97901218Y-79111315D02*
X97866687Y-79070792D01*
X97854074Y-79039572D01*
X97850763Y-78986436D01*
X97860066Y-78964519D01*
X97900589Y-78929988D01*
X97931809Y-78917375D01*
X97984946Y-78914064D01*
X98072613Y-78951277D01*
X98107143Y-78991800D01*
X98119757Y-79023020D01*
X98123068Y-79076156D01*
X98113765Y-79098073D01*
X98073241Y-79132604D01*
X98042022Y-79145217D01*
X97988885Y-79148528D01*
X97901218Y-79111315D01*
X97848081Y-79114626D01*
X97816861Y-79127240D01*
X97776338Y-79161770D01*
X97739126Y-79249437D01*
X97742436Y-79302574D01*
X97755050Y-79333794D01*
X97789580Y-79374317D01*
X97877247Y-79411529D01*
X97930384Y-79408219D01*
X97961604Y-79395605D01*
X98002127Y-79361075D01*
X98039340Y-79273407D01*
X98036029Y-79220271D01*
X98023415Y-79189051D01*
X97988885Y-79148528D01*
X101965166Y-78839190D02*
X101798500Y-78601095D01*
X101679452Y-78839190D02*
X101679452Y-78339190D01*
X101869928Y-78339190D01*
X101917547Y-78363000D01*
X101941357Y-78386809D01*
X101965166Y-78434428D01*
X101965166Y-78505857D01*
X101941357Y-78553476D01*
X101917547Y-78577285D01*
X101869928Y-78601095D01*
X101679452Y-78601095D01*
X102131833Y-78339190D02*
X102465166Y-78839190D01*
X102465166Y-78339190D02*
X102131833Y-78839190D01*
X102655642Y-78839190D02*
X102655642Y-78339190D01*
X102774690Y-78339190D01*
X102846119Y-78363000D01*
X102893738Y-78410619D01*
X102917547Y-78458238D01*
X102941357Y-78553476D01*
X102941357Y-78624904D01*
X102917547Y-78720142D01*
X102893738Y-78767761D01*
X102846119Y-78815380D01*
X102774690Y-78839190D01*
X102655642Y-78839190D01*
X103342357Y-78839190D02*
X103342357Y-78339190D01*
X103461404Y-78339190D01*
X103532833Y-78363000D01*
X103580452Y-78410619D01*
X103604261Y-78458238D01*
X103628071Y-78553476D01*
X103628071Y-78624904D01*
X103604261Y-78720142D01*
X103580452Y-78767761D01*
X103532833Y-78815380D01*
X103461404Y-78839190D01*
X103342357Y-78839190D01*
X103818547Y-78386809D02*
X103842357Y-78363000D01*
X103889976Y-78339190D01*
X104009023Y-78339190D01*
X104056642Y-78363000D01*
X104080452Y-78386809D01*
X104104261Y-78434428D01*
X104104261Y-78482047D01*
X104080452Y-78553476D01*
X103794738Y-78839190D01*
X104104261Y-78839190D01*
X104294738Y-78386809D02*
X104318547Y-78363000D01*
X104366166Y-78339190D01*
X104485214Y-78339190D01*
X104532833Y-78363000D01*
X104556642Y-78386809D01*
X104580452Y-78434428D01*
X104580452Y-78482047D01*
X104556642Y-78553476D01*
X104270928Y-78839190D01*
X104580452Y-78839190D01*
X99953047Y-78339190D02*
X100238761Y-78339190D01*
X100095904Y-78839190D02*
X100095904Y-78339190D01*
X100357809Y-78339190D02*
X100691142Y-78839190D01*
X100691142Y-78339190D02*
X100357809Y-78839190D01*
X100881619Y-78839190D02*
X100881619Y-78339190D01*
X101000666Y-78339190D01*
X101072095Y-78363000D01*
X101119714Y-78410619D01*
X101143523Y-78458238D01*
X101167333Y-78553476D01*
X101167333Y-78624904D01*
X101143523Y-78720142D01*
X101119714Y-78767761D01*
X101072095Y-78815380D01*
X101000666Y-78839190D01*
X100881619Y-78839190D01*
X107503090Y-57896842D02*
X107003090Y-57896842D01*
X107003090Y-57777795D01*
X107026900Y-57706366D01*
X107074519Y-57658747D01*
X107122138Y-57634938D01*
X107217376Y-57611128D01*
X107288804Y-57611128D01*
X107384042Y-57634938D01*
X107431661Y-57658747D01*
X107479280Y-57706366D01*
X107503090Y-57777795D01*
X107503090Y-57896842D01*
X107050709Y-57420652D02*
X107026900Y-57396842D01*
X107003090Y-57349223D01*
X107003090Y-57230176D01*
X107026900Y-57182557D01*
X107050709Y-57158747D01*
X107098328Y-57134938D01*
X107145947Y-57134938D01*
X107217376Y-57158747D01*
X107503090Y-57444461D01*
X107503090Y-57134938D01*
X107003090Y-56682557D02*
X107003090Y-56920652D01*
X107241185Y-56944461D01*
X107217376Y-56920652D01*
X107193566Y-56873033D01*
X107193566Y-56753985D01*
X107217376Y-56706366D01*
X107241185Y-56682557D01*
X107288804Y-56658747D01*
X107407852Y-56658747D01*
X107455471Y-56682557D01*
X107479280Y-56706366D01*
X107503090Y-56753985D01*
X107503090Y-56873033D01*
X107479280Y-56920652D01*
X107455471Y-56944461D01*
X98825904Y-72108190D02*
X98825904Y-71608190D01*
X99349714Y-72060571D02*
X99325904Y-72084380D01*
X99254476Y-72108190D01*
X99206857Y-72108190D01*
X99135428Y-72084380D01*
X99087809Y-72036761D01*
X99064000Y-71989142D01*
X99040190Y-71893904D01*
X99040190Y-71822476D01*
X99064000Y-71727238D01*
X99087809Y-71679619D01*
X99135428Y-71632000D01*
X99206857Y-71608190D01*
X99254476Y-71608190D01*
X99325904Y-71632000D01*
X99349714Y-71655809D01*
X99825904Y-72108190D02*
X99540190Y-72108190D01*
X99683047Y-72108190D02*
X99683047Y-71608190D01*
X99635428Y-71679619D01*
X99587809Y-71727238D01*
X99540190Y-71751047D01*
X106128404Y-67917190D02*
X106128404Y-67417190D01*
X106652214Y-67869571D02*
X106628404Y-67893380D01*
X106556976Y-67917190D01*
X106509357Y-67917190D01*
X106437928Y-67893380D01*
X106390309Y-67845761D01*
X106366500Y-67798142D01*
X106342690Y-67702904D01*
X106342690Y-67631476D01*
X106366500Y-67536238D01*
X106390309Y-67488619D01*
X106437928Y-67441000D01*
X106509357Y-67417190D01*
X106556976Y-67417190D01*
X106628404Y-67441000D01*
X106652214Y-67464809D01*
X106818880Y-67417190D02*
X107128404Y-67417190D01*
X106961738Y-67607666D01*
X107033166Y-67607666D01*
X107080785Y-67631476D01*
X107104595Y-67655285D01*
X107128404Y-67702904D01*
X107128404Y-67821952D01*
X107104595Y-67869571D01*
X107080785Y-67893380D01*
X107033166Y-67917190D01*
X106890309Y-67917190D01*
X106842690Y-67893380D01*
X106818880Y-67869571D01*
X95920690Y-58894493D02*
X95682595Y-59061160D01*
X95920690Y-59180207D02*
X95420690Y-59180207D01*
X95420690Y-58989731D01*
X95444500Y-58942112D01*
X95468309Y-58918302D01*
X95515928Y-58894493D01*
X95587357Y-58894493D01*
X95634976Y-58918302D01*
X95658785Y-58942112D01*
X95682595Y-58989731D01*
X95682595Y-59180207D01*
X95420690Y-58465921D02*
X95420690Y-58561160D01*
X95444500Y-58608779D01*
X95468309Y-58632588D01*
X95539738Y-58680207D01*
X95634976Y-58704017D01*
X95825452Y-58704017D01*
X95873071Y-58680207D01*
X95896880Y-58656398D01*
X95920690Y-58608779D01*
X95920690Y-58513540D01*
X95896880Y-58465921D01*
X95873071Y-58442112D01*
X95825452Y-58418302D01*
X95706404Y-58418302D01*
X95658785Y-58442112D01*
X95634976Y-58465921D01*
X95611166Y-58513540D01*
X95611166Y-58608779D01*
X95634976Y-58656398D01*
X95658785Y-58680207D01*
X95706404Y-58704017D01*
X94206190Y-60662333D02*
X93968095Y-60829000D01*
X94206190Y-60948047D02*
X93706190Y-60948047D01*
X93706190Y-60757571D01*
X93730000Y-60709952D01*
X93753809Y-60686142D01*
X93801428Y-60662333D01*
X93872857Y-60662333D01*
X93920476Y-60686142D01*
X93944285Y-60709952D01*
X93968095Y-60757571D01*
X93968095Y-60948047D01*
X93706190Y-60495666D02*
X93706190Y-60162333D01*
X94206190Y-60376619D01*
X93071166Y-75426071D02*
X93047357Y-75449880D01*
X92975928Y-75473690D01*
X92928309Y-75473690D01*
X92856880Y-75449880D01*
X92809261Y-75402261D01*
X92785452Y-75354642D01*
X92761642Y-75259404D01*
X92761642Y-75187976D01*
X92785452Y-75092738D01*
X92809261Y-75045119D01*
X92856880Y-74997500D01*
X92928309Y-74973690D01*
X92975928Y-74973690D01*
X93047357Y-74997500D01*
X93071166Y-75021309D01*
X93261642Y-75021309D02*
X93285452Y-74997500D01*
X93333071Y-74973690D01*
X93452119Y-74973690D01*
X93499738Y-74997500D01*
X93523547Y-75021309D01*
X93547357Y-75068928D01*
X93547357Y-75116547D01*
X93523547Y-75187976D01*
X93237833Y-75473690D01*
X93547357Y-75473690D01*
X95865166Y-74600571D02*
X95841357Y-74624380D01*
X95769928Y-74648190D01*
X95722309Y-74648190D01*
X95650880Y-74624380D01*
X95603261Y-74576761D01*
X95579452Y-74529142D01*
X95555642Y-74433904D01*
X95555642Y-74362476D01*
X95579452Y-74267238D01*
X95603261Y-74219619D01*
X95650880Y-74172000D01*
X95722309Y-74148190D01*
X95769928Y-74148190D01*
X95841357Y-74172000D01*
X95865166Y-74195809D01*
X96031833Y-74148190D02*
X96341357Y-74148190D01*
X96174690Y-74338666D01*
X96246119Y-74338666D01*
X96293738Y-74362476D01*
X96317547Y-74386285D01*
X96341357Y-74433904D01*
X96341357Y-74552952D01*
X96317547Y-74600571D01*
X96293738Y-74624380D01*
X96246119Y-74648190D01*
X96103261Y-74648190D01*
X96055642Y-74624380D01*
X96031833Y-74600571D01*
X101961166Y-76426190D02*
X101723071Y-76426190D01*
X101723071Y-75926190D01*
X102389738Y-76426190D02*
X102104023Y-76426190D01*
X102246880Y-76426190D02*
X102246880Y-75926190D01*
X102199261Y-75997619D01*
X102151642Y-76045238D01*
X102104023Y-76069047D01*
D13*
X101065142Y-57329428D02*
X101065142Y-57815142D01*
X101093714Y-57872285D01*
X101122285Y-57900857D01*
X101179428Y-57929428D01*
X101293714Y-57929428D01*
X101350857Y-57900857D01*
X101379428Y-57872285D01*
X101408000Y-57815142D01*
X101408000Y-57329428D01*
X101665142Y-57900857D02*
X101750857Y-57929428D01*
X101893714Y-57929428D01*
X101950857Y-57900857D01*
X101979428Y-57872285D01*
X102008000Y-57815142D01*
X102008000Y-57758000D01*
X101979428Y-57700857D01*
X101950857Y-57672285D01*
X101893714Y-57643714D01*
X101779428Y-57615142D01*
X101722285Y-57586571D01*
X101693714Y-57558000D01*
X101665142Y-57500857D01*
X101665142Y-57443714D01*
X101693714Y-57386571D01*
X101722285Y-57358000D01*
X101779428Y-57329428D01*
X101922285Y-57329428D01*
X102008000Y-57358000D01*
X102465142Y-57615142D02*
X102550857Y-57643714D01*
X102579428Y-57672285D01*
X102608000Y-57729428D01*
X102608000Y-57815142D01*
X102579428Y-57872285D01*
X102550857Y-57900857D01*
X102493714Y-57929428D01*
X102265142Y-57929428D01*
X102265142Y-57329428D01*
X102465142Y-57329428D01*
X102522285Y-57358000D01*
X102550857Y-57386571D01*
X102579428Y-57443714D01*
X102579428Y-57500857D01*
X102550857Y-57558000D01*
X102522285Y-57586571D01*
X102465142Y-57615142D01*
X102265142Y-57615142D01*
X103179428Y-57929428D02*
X102836571Y-57929428D01*
X103008000Y-57929428D02*
X103008000Y-57329428D01*
X102950857Y-57415142D01*
X102893714Y-57472285D01*
X102836571Y-57500857D01*
D14*
X104247166Y-76442071D02*
X104223357Y-76465880D01*
X104151928Y-76489690D01*
X104104309Y-76489690D01*
X104032880Y-76465880D01*
X103985261Y-76418261D01*
X103961452Y-76370642D01*
X103937642Y-76275404D01*
X103937642Y-76203976D01*
X103961452Y-76108738D01*
X103985261Y-76061119D01*
X104032880Y-76013500D01*
X104104309Y-75989690D01*
X104151928Y-75989690D01*
X104223357Y-76013500D01*
X104247166Y-76037309D01*
X104723357Y-76489690D02*
X104437642Y-76489690D01*
X104580500Y-76489690D02*
X104580500Y-75989690D01*
X104532880Y-76061119D01*
X104485261Y-76108738D01*
X104437642Y-76132547D01*
X103294666Y-72552690D02*
X103128000Y-72314595D01*
X103008952Y-72552690D02*
X103008952Y-72052690D01*
X103199428Y-72052690D01*
X103247047Y-72076500D01*
X103270857Y-72100309D01*
X103294666Y-72147928D01*
X103294666Y-72219357D01*
X103270857Y-72266976D01*
X103247047Y-72290785D01*
X103199428Y-72314595D01*
X103008952Y-72314595D01*
X103770857Y-72552690D02*
X103485142Y-72552690D01*
X103628000Y-72552690D02*
X103628000Y-72052690D01*
X103580380Y-72124119D01*
X103532761Y-72171738D01*
X103485142Y-72195547D01*
X111125047Y-60622690D02*
X111125047Y-61027452D01*
X111148857Y-61075071D01*
X111172666Y-61098880D01*
X111220285Y-61122690D01*
X111315523Y-61122690D01*
X111363142Y-61098880D01*
X111386952Y-61075071D01*
X111410761Y-61027452D01*
X111410761Y-60622690D01*
X111910761Y-61122690D02*
X111625047Y-61122690D01*
X111767904Y-61122690D02*
X111767904Y-60622690D01*
X111720285Y-60694119D01*
X111672666Y-60741738D01*
X111625047Y-60765547D01*
X110692428Y-59733666D02*
X110668619Y-59709857D01*
X110644809Y-59638428D01*
X110644809Y-59590809D01*
X110668619Y-59519380D01*
X110716238Y-59471761D01*
X110763857Y-59447952D01*
X110859095Y-59424142D01*
X110930523Y-59424142D01*
X111025761Y-59447952D01*
X111073380Y-59471761D01*
X111121000Y-59519380D01*
X111144809Y-59590809D01*
X111144809Y-59638428D01*
X111121000Y-59709857D01*
X111097190Y-59733666D01*
X111144809Y-60186047D02*
X111144809Y-59947952D01*
X110906714Y-59924142D01*
X110930523Y-59947952D01*
X110954333Y-59995571D01*
X110954333Y-60114619D01*
X110930523Y-60162238D01*
X110906714Y-60186047D01*
X110859095Y-60209857D01*
X110740047Y-60209857D01*
X110692428Y-60186047D01*
X110668619Y-60162238D01*
X110644809Y-60114619D01*
X110644809Y-59995571D01*
X110668619Y-59947952D01*
X110692428Y-59924142D01*
X112476666Y-69266571D02*
X112452857Y-69290380D01*
X112381428Y-69314190D01*
X112333809Y-69314190D01*
X112262380Y-69290380D01*
X112214761Y-69242761D01*
X112190952Y-69195142D01*
X112167142Y-69099904D01*
X112167142Y-69028476D01*
X112190952Y-68933238D01*
X112214761Y-68885619D01*
X112262380Y-68838000D01*
X112333809Y-68814190D01*
X112381428Y-68814190D01*
X112452857Y-68838000D01*
X112476666Y-68861809D01*
X112643333Y-68814190D02*
X112976666Y-68814190D01*
X112762380Y-69314190D01*
D13*
D14*
X91178666Y-69076071D02*
X91154857Y-69099880D01*
X91083428Y-69123690D01*
X91035809Y-69123690D01*
X90964380Y-69099880D01*
X90916761Y-69052261D01*
X90892952Y-69004642D01*
X90869142Y-68909404D01*
X90869142Y-68837976D01*
X90892952Y-68742738D01*
X90916761Y-68695119D01*
X90964380Y-68647500D01*
X91035809Y-68623690D01*
X91083428Y-68623690D01*
X91154857Y-68647500D01*
X91178666Y-68671309D01*
X91464380Y-68837976D02*
X91416761Y-68814166D01*
X91392952Y-68790357D01*
X91369142Y-68742738D01*
X91369142Y-68718928D01*
X91392952Y-68671309D01*
X91416761Y-68647500D01*
X91464380Y-68623690D01*
X91559619Y-68623690D01*
X91607238Y-68647500D01*
X91631047Y-68671309D01*
X91654857Y-68718928D01*
X91654857Y-68742738D01*
X91631047Y-68790357D01*
X91607238Y-68814166D01*
X91559619Y-68837976D01*
X91464380Y-68837976D01*
X91416761Y-68861785D01*
X91392952Y-68885595D01*
X91369142Y-68933214D01*
X91369142Y-69028452D01*
X91392952Y-69076071D01*
X91416761Y-69099880D01*
X91464380Y-69123690D01*
X91559619Y-69123690D01*
X91607238Y-69099880D01*
X91631047Y-69076071D01*
X91654857Y-69028452D01*
X91654857Y-68933214D01*
X91631047Y-68885595D01*
X91607238Y-68861785D01*
X91559619Y-68837976D01*
X110057452Y-64996190D02*
X110057452Y-64496190D01*
X110176500Y-64496190D01*
X110247928Y-64520000D01*
X110295547Y-64567619D01*
X110319357Y-64615238D01*
X110343166Y-64710476D01*
X110343166Y-64781904D01*
X110319357Y-64877142D01*
X110295547Y-64924761D01*
X110247928Y-64972380D01*
X110176500Y-64996190D01*
X110057452Y-64996190D01*
X110819357Y-64996190D02*
X110533642Y-64996190D01*
X110676500Y-64996190D02*
X110676500Y-64496190D01*
X110628880Y-64567619D01*
X110581261Y-64615238D01*
X110533642Y-64639047D01*
X95982671Y-69392690D02*
X95744576Y-69392690D01*
X95744576Y-68892690D01*
X96149338Y-69130785D02*
X96316004Y-69130785D01*
X96387433Y-69392690D02*
X96149338Y-69392690D01*
X96149338Y-68892690D01*
X96387433Y-68892690D01*
X96601719Y-69392690D02*
X96601719Y-68892690D01*
X96720766Y-68892690D01*
X96792195Y-68916500D01*
X96839814Y-68964119D01*
X96863623Y-69011738D01*
X96887433Y-69106976D01*
X96887433Y-69178404D01*
X96863623Y-69273642D01*
X96839814Y-69321261D01*
X96792195Y-69368880D01*
X96720766Y-69392690D01*
X96601719Y-69392690D01*
X108152452Y-69822190D02*
X108152452Y-69322190D01*
X108271500Y-69322190D01*
X108342928Y-69346000D01*
X108390547Y-69393619D01*
X108414357Y-69441238D01*
X108438166Y-69536476D01*
X108438166Y-69607904D01*
X108414357Y-69703142D01*
X108390547Y-69750761D01*
X108342928Y-69798380D01*
X108271500Y-69822190D01*
X108152452Y-69822190D01*
X108604833Y-69322190D02*
X108914357Y-69322190D01*
X108747690Y-69512666D01*
X108819119Y-69512666D01*
X108866738Y-69536476D01*
X108890547Y-69560285D01*
X108914357Y-69607904D01*
X108914357Y-69726952D01*
X108890547Y-69774571D01*
X108866738Y-69798380D01*
X108819119Y-69822190D01*
X108676261Y-69822190D01*
X108628642Y-69798380D01*
X108604833Y-69774571D01*
X113256190Y-65932833D02*
X113018095Y-66099500D01*
X113256190Y-66218547D02*
X112756190Y-66218547D01*
X112756190Y-66028071D01*
X112780000Y-65980452D01*
X112803809Y-65956642D01*
X112851428Y-65932833D01*
X112922857Y-65932833D01*
X112970476Y-65956642D01*
X112994285Y-65980452D01*
X113018095Y-66028071D01*
X113018095Y-66218547D01*
X112756190Y-65480452D02*
X112756190Y-65718547D01*
X112994285Y-65742357D01*
X112970476Y-65718547D01*
X112946666Y-65670928D01*
X112946666Y-65551880D01*
X112970476Y-65504261D01*
X112994285Y-65480452D01*
X113041904Y-65456642D01*
X113160952Y-65456642D01*
X113208571Y-65480452D01*
X113232380Y-65504261D01*
X113256190Y-65551880D01*
X113256190Y-65670928D01*
X113232380Y-65718547D01*
X113208571Y-65742357D01*
X107320666Y-74902190D02*
X107154000Y-74664095D01*
X107034952Y-74902190D02*
X107034952Y-74402190D01*
X107225428Y-74402190D01*
X107273047Y-74426000D01*
X107296857Y-74449809D01*
X107320666Y-74497428D01*
X107320666Y-74568857D01*
X107296857Y-74616476D01*
X107273047Y-74640285D01*
X107225428Y-74664095D01*
X107034952Y-74664095D01*
X107606380Y-74616476D02*
X107558761Y-74592666D01*
X107534952Y-74568857D01*
X107511142Y-74521238D01*
X107511142Y-74497428D01*
X107534952Y-74449809D01*
X107558761Y-74426000D01*
X107606380Y-74402190D01*
X107701619Y-74402190D01*
X107749238Y-74426000D01*
X107773047Y-74449809D01*
X107796857Y-74497428D01*
X107796857Y-74521238D01*
X107773047Y-74568857D01*
X107749238Y-74592666D01*
X107701619Y-74616476D01*
X107606380Y-74616476D01*
X107558761Y-74640285D01*
X107534952Y-74664095D01*
X107511142Y-74711714D01*
X107511142Y-74806952D01*
X107534952Y-74854571D01*
X107558761Y-74878380D01*
X107606380Y-74902190D01*
X107701619Y-74902190D01*
X107749238Y-74878380D01*
X107773047Y-74854571D01*
X107796857Y-74806952D01*
X107796857Y-74711714D01*
X107773047Y-74664095D01*
X107749238Y-74640285D01*
X107701619Y-74616476D01*
X94531666Y-68679190D02*
X94365000Y-68441095D01*
X94245952Y-68679190D02*
X94245952Y-68179190D01*
X94436428Y-68179190D01*
X94484047Y-68203000D01*
X94507857Y-68226809D01*
X94531666Y-68274428D01*
X94531666Y-68345857D01*
X94507857Y-68393476D01*
X94484047Y-68417285D01*
X94436428Y-68441095D01*
X94245952Y-68441095D01*
X94769761Y-68679190D02*
X94865000Y-68679190D01*
X94912619Y-68655380D01*
X94936428Y-68631571D01*
X94984047Y-68560142D01*
X95007857Y-68464904D01*
X95007857Y-68274428D01*
X94984047Y-68226809D01*
X94960238Y-68203000D01*
X94912619Y-68179190D01*
X94817380Y-68179190D01*
X94769761Y-68203000D01*
X94745952Y-68226809D01*
X94722142Y-68274428D01*
X94722142Y-68393476D01*
X94745952Y-68441095D01*
X94769761Y-68464904D01*
X94817380Y-68488714D01*
X94912619Y-68488714D01*
X94960238Y-68464904D01*
X94984047Y-68441095D01*
X95007857Y-68393476D01*
X104961571Y-72235190D02*
X104794904Y-71997095D01*
X104675857Y-72235190D02*
X104675857Y-71735190D01*
X104866333Y-71735190D01*
X104913952Y-71759000D01*
X104937761Y-71782809D01*
X104961571Y-71830428D01*
X104961571Y-71901857D01*
X104937761Y-71949476D01*
X104913952Y-71973285D01*
X104866333Y-71997095D01*
X104675857Y-71997095D01*
X105437761Y-72235190D02*
X105152047Y-72235190D01*
X105294904Y-72235190D02*
X105294904Y-71735190D01*
X105247285Y-71806619D01*
X105199666Y-71854238D01*
X105152047Y-71878047D01*
X105747285Y-71735190D02*
X105794904Y-71735190D01*
X105842523Y-71759000D01*
X105866333Y-71782809D01*
X105890142Y-71830428D01*
X105913952Y-71925666D01*
X105913952Y-72044714D01*
X105890142Y-72139952D01*
X105866333Y-72187571D01*
X105842523Y-72211380D01*
X105794904Y-72235190D01*
X105747285Y-72235190D01*
X105699666Y-72211380D01*
X105675857Y-72187571D01*
X105652047Y-72139952D01*
X105628238Y-72044714D01*
X105628238Y-71925666D01*
X105652047Y-71830428D01*
X105675857Y-71782809D01*
X105699666Y-71759000D01*
X105747285Y-71735190D01*
X112819690Y-72961452D02*
X113224452Y-72961452D01*
X113272071Y-72937642D01*
X113295880Y-72913833D01*
X113319690Y-72866214D01*
X113319690Y-72770976D01*
X113295880Y-72723357D01*
X113272071Y-72699547D01*
X113224452Y-72675738D01*
X112819690Y-72675738D01*
X112867309Y-72461452D02*
X112843500Y-72437642D01*
X112819690Y-72390023D01*
X112819690Y-72270976D01*
X112843500Y-72223357D01*
X112867309Y-72199547D01*
X112914928Y-72175738D01*
X112962547Y-72175738D01*
X113033976Y-72199547D01*
X113319690Y-72485261D01*
X113319690Y-72175738D01*
X92265547Y-73830690D02*
X92265547Y-74235452D01*
X92289357Y-74283071D01*
X92313166Y-74306880D01*
X92360785Y-74330690D01*
X92456023Y-74330690D01*
X92503642Y-74306880D01*
X92527452Y-74283071D01*
X92551261Y-74235452D01*
X92551261Y-73830690D01*
X92741738Y-73830690D02*
X93051261Y-73830690D01*
X92884595Y-74021166D01*
X92956023Y-74021166D01*
X93003642Y-74044976D01*
X93027452Y-74068785D01*
X93051261Y-74116404D01*
X93051261Y-74235452D01*
X93027452Y-74283071D01*
X93003642Y-74306880D01*
X92956023Y-74330690D01*
X92813166Y-74330690D01*
X92765547Y-74306880D01*
X92741738Y-74283071D01*
X93396571Y-63202333D02*
X93420380Y-63226142D01*
X93444190Y-63297571D01*
X93444190Y-63345190D01*
X93420380Y-63416619D01*
X93372761Y-63464238D01*
X93325142Y-63488047D01*
X93229904Y-63511857D01*
X93158476Y-63511857D01*
X93063238Y-63488047D01*
X93015619Y-63464238D01*
X92968000Y-63416619D01*
X92944190Y-63345190D01*
X92944190Y-63297571D01*
X92968000Y-63226142D01*
X92991809Y-63202333D01*
X93110857Y-62773761D02*
X93444190Y-62773761D01*
X92920380Y-62892809D02*
X93277523Y-63011857D01*
X93277523Y-62702333D01*
X94206190Y-61932333D02*
X93968095Y-62099000D01*
X94206190Y-62218047D02*
X93706190Y-62218047D01*
X93706190Y-62027571D01*
X93730000Y-61979952D01*
X93753809Y-61956142D01*
X93801428Y-61932333D01*
X93872857Y-61932333D01*
X93920476Y-61956142D01*
X93944285Y-61979952D01*
X93968095Y-62027571D01*
X93968095Y-62218047D01*
X93753809Y-61741857D02*
X93730000Y-61718047D01*
X93706190Y-61670428D01*
X93706190Y-61551380D01*
X93730000Y-61503761D01*
X93753809Y-61479952D01*
X93801428Y-61456142D01*
X93849047Y-61456142D01*
X93920476Y-61479952D01*
X94206190Y-61765666D01*
X94206190Y-61456142D01*
X93769666Y-64615190D02*
X93603000Y-64377095D01*
X93483952Y-64615190D02*
X93483952Y-64115190D01*
X93674428Y-64115190D01*
X93722047Y-64139000D01*
X93745857Y-64162809D01*
X93769666Y-64210428D01*
X93769666Y-64281857D01*
X93745857Y-64329476D01*
X93722047Y-64353285D01*
X93674428Y-64377095D01*
X93483952Y-64377095D01*
X93936333Y-64115190D02*
X94245857Y-64115190D01*
X94079190Y-64305666D01*
X94150619Y-64305666D01*
X94198238Y-64329476D01*
X94222047Y-64353285D01*
X94245857Y-64400904D01*
X94245857Y-64519952D01*
X94222047Y-64567571D01*
X94198238Y-64591380D01*
X94150619Y-64615190D01*
X94007761Y-64615190D01*
X93960142Y-64591380D01*
X93936333Y-64567571D01*
X92563166Y-68171190D02*
X92396500Y-67933095D01*
X92277452Y-68171190D02*
X92277452Y-67671190D01*
X92467928Y-67671190D01*
X92515547Y-67695000D01*
X92539357Y-67718809D01*
X92563166Y-67766428D01*
X92563166Y-67837857D01*
X92539357Y-67885476D01*
X92515547Y-67909285D01*
X92467928Y-67933095D01*
X92277452Y-67933095D01*
X92991738Y-67837857D02*
X92991738Y-68171190D01*
X92872690Y-67647380D02*
X92753642Y-68004523D01*
X93063166Y-68004523D01*
X95948547Y-62972190D02*
X95948547Y-63376952D01*
X95972357Y-63424571D01*
X95996166Y-63448380D01*
X96043785Y-63472190D01*
X96139023Y-63472190D01*
X96186642Y-63448380D01*
X96210452Y-63424571D01*
X96234261Y-63376952D01*
X96234261Y-62972190D01*
X96686642Y-63138857D02*
X96686642Y-63472190D01*
X96567595Y-62948380D02*
X96448547Y-63305523D01*
X96758071Y-63305523D01*
M02*
