%
M48
METRIC,000.000
T01C0.50
%
T01
X014207Y046155
X013210Y046229
X012210Y046227
X011213Y046149
X010226Y045991
X013946Y047397
X014937Y047529
X009616Y047722
X010595Y047519
X011586Y047391
X012584Y047341
X042306Y047397
X043297Y047529
X038955Y047519
X039946Y047391
X040944Y047341
X043555Y046002
X042567Y046155
X041570Y046229
X040570Y046227
X039573Y046149
X038586Y045991
X071555Y046002
X070567Y046155
X069570Y046229
X068570Y046227
X067573Y046149
X066586Y045991
X070306Y047397
X071297Y047529
X066955Y047519
X067946Y047391
X068944Y047341
X070306Y074397
X071297Y074529
X066955Y074519
X067946Y074391
X068944Y074341
X071555Y073002
X070567Y073155
X069570Y073229
X068570Y073227
X067573Y073149
X066586Y072991
X042306Y074397
X043297Y074529
X038955Y074519
X039946Y074391
X040944Y074341
X043555Y073002
X042567Y073155
X041570Y073229
X040570Y073227
X039573Y073149
X038586Y072991
X025513Y058168
X025637Y059160
X025686Y060158
X025659Y061157
X025552Y062151
X028276Y062096
X028174Y061101
X028151Y060102
X028204Y059103
X028333Y058112
X053873Y058168
X053997Y059160
X054046Y060158
X054019Y061157
X053912Y062151
X056454Y063079
X056276Y062096
X056174Y061101
X056151Y060102
X056204Y059103
X056333Y058112
X025637Y086160
X025686Y087158
X025659Y088157
X025552Y089151
X025370Y090135
X028454Y090079
X028276Y089096
X028174Y088101
X028151Y087102
X028204Y086103
X053873Y085168
X053997Y086160
X054046Y087158
X054019Y088157
X053912Y089151
X053730Y090135
X056454Y090079
X056276Y089096
X056174Y088101
X056151Y087102
X056204Y086103
X056333Y085112
X013946Y074397
X014937Y074529
X010595Y074519
X011586Y074391
X012584Y074341
X015195Y073002
X014207Y073155
X013210Y073229
X012210Y073227
X011213Y073149
X010226Y072991
X025513Y031168
X025637Y032160
X025686Y033158
X025659Y034157
X025552Y035151
X028276Y035096
X028174Y034101
X028151Y033102
X028204Y032103
X028333Y031112
X056276Y035096
X056174Y034101
X056151Y033102
X056204Y032103
X056333Y031112
X053873Y031168
X053997Y032160
X054046Y033158
X054019Y034157
X053912Y035151
M30