%
M48
METRIC,000.000
T01C0.20
T02C0.30
T03C0.35
T04C0.60
T05C0.76
T06C0.65
%
T01
X011750Y091163
X012484Y091163
X013309Y091163
X040110Y091163
X040844Y091163
X041669Y091163
X068110Y091163
X068844Y091163
X069669Y091163
X011750Y037163
X012484Y037163
X013309Y037163
X011750Y064163
X012484Y064163
X013309Y064163
X040110Y064163
X040844Y064163
X041669Y064163
X068110Y037163
X068844Y037163
X069669Y037163
X040110Y037163
X040844Y037163
X041669Y037163
X068110Y064163
X068844Y064163
X069669Y064163
T02
X002768Y086464
X002959Y080241
X003848Y093766
X003911Y092750
X004610Y091353
X005626Y091544
X005626Y081701
X005943Y082336
X006007Y087353
X006070Y089893
X006070Y089131
X006896Y082336
X007658Y086718
X008763Y090820
X008864Y082844
X008928Y076481
X010388Y089575
X010388Y084876
X010388Y082908
X010706Y077447
X010833Y079796
X011531Y079225
X011912Y099037
X012484Y077447
X012514Y082514
X012674Y080368
X012738Y099037
X012738Y089575
X012738Y087226
X012801Y084876
X013297Y082412
X013309Y083225
X013500Y077447
X013563Y099037
X014198Y082209
X015087Y089575
X015087Y084876
X015087Y079288
X015773Y082450
X016040Y077510
X016926Y088496
X016926Y086591
X017246Y079479
X018008Y079479
X018770Y079479
X021755Y090845
X022390Y086019
X023787Y083289
X024041Y083860
X031128Y086464
X031319Y080241
X032208Y093766
X032271Y092750
X032970Y091353
X033986Y091544
X033986Y081701
X034303Y082336
X034367Y087353
X034430Y089893
X034430Y089131
X035256Y082336
X036018Y086718
X037123Y090820
X037224Y082844
X037288Y076481
X038748Y089575
X038748Y084876
X038748Y082908
X039066Y077447
X039193Y079796
X039891Y079225
X040272Y099037
X040844Y077447
X040874Y082514
X041035Y080368
X041098Y099037
X041098Y089575
X041098Y087226
X041162Y084876
X041657Y082412
X041669Y083225
X041860Y077447
X041923Y099037
X042559Y082209
X043448Y089575
X043448Y084876
X043448Y079288
X044133Y082450
X044400Y077510
X045286Y088496
X045286Y086591
X045607Y079479
X046369Y079479
X047130Y079479
X050115Y090845
X050750Y086019
X052147Y083289
X052401Y083860
X059128Y086464
X059319Y080241
X060208Y093766
X060271Y092750
X060970Y091353
X061986Y091544
X061986Y081701
X062303Y082336
X062367Y087353
X062430Y089893
X062430Y089131
X063256Y082336
X064018Y086718
X065123Y090820
X065224Y082844
X065288Y076481
X066749Y089575
X066749Y084876
X066749Y082908
X067066Y077447
X067193Y079796
X067892Y079225
X068273Y099037
X068844Y077447
X068874Y082514
X069035Y080368
X069098Y099037
X069098Y089575
X069098Y087226
X069162Y084876
X069657Y082412
X069669Y083225
X069860Y077447
X069923Y099037
X070559Y082209
X071448Y089575
X071448Y084876
X071448Y079288
X072133Y082450
X072400Y077510
X073286Y088496
X073286Y086591
X073607Y079479
X074369Y079479
X075130Y079479
X078115Y090845
X078750Y086019
X080147Y083289
X080401Y083860
X002768Y032464
X002959Y026241
X003848Y039766
X003911Y038750
X004610Y037353
X005626Y037544
X005626Y027701
X005943Y028336
X006007Y033352
X006070Y035893
X006070Y035131
X006896Y028336
X007658Y032718
X008763Y036820
X008864Y028844
X008928Y022481
X010388Y035575
X010388Y030876
X010388Y028908
X010706Y023447
X010833Y025796
X011531Y025225
X011912Y045037
X012484Y023447
X012514Y028514
X012674Y026368
X012738Y045037
X012738Y035575
X012738Y033226
X012801Y030876
X013297Y028412
X013309Y029225
X013500Y023447
X013563Y045037
X014198Y028209
X015087Y035575
X015087Y030876
X015087Y025288
X015773Y028450
X016040Y023510
X016926Y034496
X016926Y032591
X017246Y025479
X018008Y025479
X018770Y025479
X021755Y036845
X022390Y032019
X023787Y029289
X024041Y029860
X002768Y059464
X002959Y053241
X003848Y066766
X003911Y065750
X004610Y064352
X005626Y064544
X005626Y054701
X005943Y055336
X006007Y060352
X006070Y062893
X006070Y062131
X006896Y055336
X007658Y059718
X008763Y063820
X008864Y055844
X008928Y049481
X010388Y062575
X010388Y057876
X010388Y055908
X010706Y050447
X010833Y052796
X011531Y052225
X011912Y072037
X012484Y050447
X012514Y055514
X012674Y053368
X012738Y072037
X012738Y062575
X012738Y060226
X012801Y057876
X013297Y055412
X013309Y056225
X013500Y050447
X013563Y072037
X014198Y055209
X015087Y062575
X015087Y057876
X015087Y052288
X015773Y055450
X016040Y050510
X016926Y061496
X016926Y059591
X017246Y052479
X018008Y052479
X018770Y052479
X021755Y063845
X022390Y059019
X023787Y056289
X024041Y056860
X031128Y059464
X031319Y053241
X032208Y066766
X032271Y065750
X032970Y064352
X033986Y064544
X033986Y054701
X034303Y055336
X034367Y060352
X034430Y062893
X034430Y062131
X035256Y055336
X036018Y059718
X037123Y063820
X037224Y055844
X037288Y049481
X038748Y062575
X038748Y057876
X038748Y055908
X039066Y050447
X039193Y052796
X039891Y052225
X040272Y072037
X040844Y050447
X040874Y055514
X041035Y053368
X041098Y072037
X041098Y062575
X041098Y060226
X041162Y057876
X041657Y055412
X041669Y056225
X041860Y050447
X041923Y072037
X042559Y055209
X043448Y062575
X043448Y057876
X043448Y052288
X044133Y055450
X044400Y050510
X045286Y061496
X045286Y059591
X045607Y052479
X046369Y052479
X047130Y052479
X050115Y063845
X050750Y059019
X052147Y056289
X052401Y056860
X059128Y032464
X059319Y026241
X060208Y039766
X060271Y038750
X060970Y037353
X061986Y037544
X061986Y027701
X062303Y028336
X062367Y033352
X062430Y035893
X062430Y035131
X063256Y028336
X064018Y032718
X065123Y036820
X065224Y028844
X065288Y022481
X066749Y035575
X066749Y030876
X066749Y028908
X067066Y023447
X067193Y025796
X067892Y025225
X068273Y045037
X068844Y023447
X068874Y028514
X069035Y026368
X069098Y045037
X069098Y035575
X069098Y033226
X069162Y030876
X069657Y028412
X069669Y029225
X069860Y023447
X069923Y045037
X070559Y028209
X071448Y035575
X071448Y030876
X071448Y025288
X072133Y028450
X072400Y023510
X073286Y034496
X073286Y032591
X073607Y025479
X074369Y025479
X075130Y025479
X078115Y036845
X078750Y032019
X080147Y029289
X080401Y029860
X031128Y032464
X031319Y026241
X032208Y039766
X032271Y038750
X032970Y037353
X033986Y037544
X033986Y027701
X034303Y028336
X034367Y033352
X034430Y035893
X034430Y035131
X035256Y028336
X036018Y032718
X037123Y036820
X037224Y028844
X037288Y022481
X038748Y035575
X038748Y030876
X038748Y028908
X039066Y023447
X039193Y025796
X039891Y025225
X040272Y045037
X040844Y023447
X040874Y028514
X041035Y026368
X041098Y045037
X041098Y035575
X041098Y033226
X041162Y030876
X041657Y028412
X041669Y029225
X041860Y023447
X041923Y045037
X042559Y028209
X043448Y035575
X043448Y030876
X043448Y025288
X044133Y028450
X044400Y023510
X045286Y034496
X045286Y032591
X045607Y025479
X046369Y025479
X047130Y025479
X050115Y036845
X050750Y032019
X052147Y029289
X052401Y029860
X059128Y059464
X059319Y053241
X060208Y066766
X060271Y065750
X060970Y064352
X061986Y064544
X061986Y054701
X062303Y055336
X062367Y060352
X062430Y062893
X062430Y062131
X063256Y055336
X064018Y059718
X065123Y063820
X065224Y055844
X065288Y049481
X066749Y062575
X066749Y057876
X066749Y055908
X067066Y050447
X067193Y052796
X067892Y052225
X068273Y072037
X068844Y050447
X068874Y055514
X069035Y053368
X069098Y072037
X069098Y062575
X069098Y060226
X069162Y057876
X069657Y055412
X069669Y056225
X069860Y050447
X069923Y072037
X070559Y055209
X071448Y062575
X071448Y057876
X071448Y052288
X072133Y055450
X072400Y050510
X073286Y061496
X073286Y059591
X073607Y052479
X074369Y052479
X075130Y052479
X078115Y063845
X078750Y059019
X080147Y056289
X080401Y056860
T03
X008737Y089385
X010462Y094338
X014516Y094338
X016802Y090401
X017627Y090980
X020104Y087607
X021310Y092687
X021945Y094782
X022644Y094147
X037097Y089385
X038822Y094338
X042876Y094338
X045162Y090401
X045987Y090980
X048464Y087607
X049670Y092687
X050305Y094782
X051004Y094147
X065096Y089385
X066822Y094338
X070876Y094338
X073162Y090401
X073987Y090980
X076464Y087607
X077670Y092687
X078305Y094782
X079004Y094147
X008737Y035385
X010462Y040338
X014516Y040338
X016802Y036401
X017627Y036980
X020104Y033607
X021310Y038687
X021945Y040782
X022644Y040147
X008737Y062385
X010462Y067338
X014516Y067338
X016802Y063401
X017627Y063980
X020104Y060607
X021310Y065687
X021945Y067782
X022644Y067147
X037097Y062385
X038822Y067338
X042876Y067338
X045162Y063401
X045987Y063980
X048464Y060607
X049670Y065687
X050305Y067782
X051004Y067147
X065096Y035385
X066822Y040338
X070876Y040338
X073162Y036401
X073987Y036980
X076464Y033607
X077670Y038687
X078305Y040782
X079004Y040147
X037097Y035385
X038822Y040338
X042876Y040338
X045162Y036401
X045987Y036980
X048464Y033607
X049670Y038687
X050305Y040782
X051004Y040147
X065096Y062385
X066822Y067338
X070876Y067338
X073162Y063401
X073987Y063980
X076464Y060607
X077670Y065687
X078305Y067782
X079004Y067147
T04
X004038Y095671
X016332Y075757
X020802Y078336
X009499Y075656
X012928Y075211
X001244Y091036
X018834Y097703
X014643Y075364
X022072Y079606
X011201Y075313
X032398Y095671
X044692Y075757
X049162Y078336
X037860Y075656
X041288Y075211
X029604Y091036
X047194Y097703
X043003Y075364
X050432Y079606
X039561Y075313
X060398Y095671
X072692Y075757
X077162Y078336
X065860Y075656
X069288Y075211
X057604Y091036
X075194Y097703
X071003Y075364
X078433Y079606
X067561Y075313
X004038Y041671
X016332Y021757
X020802Y024336
X009499Y021656
X012928Y021211
X001244Y037036
X018834Y043703
X014643Y021364
X022072Y025605
X011201Y021313
X004038Y068671
X016332Y048757
X020802Y051336
X009499Y048656
X012928Y048211
X001244Y064036
X018834Y070703
X014643Y048364
X022072Y052605
X011201Y048313
X032398Y068671
X044692Y048757
X049162Y051336
X037860Y048656
X041288Y048211
X029604Y064036
X047194Y070703
X043003Y048364
X050432Y052605
X039561Y048313
X060398Y041671
X072692Y021757
X077162Y024336
X065860Y021656
X069288Y021211
X057604Y037036
X075194Y043703
X071003Y021364
X078433Y025605
X067561Y021313
X032398Y041671
X044692Y021757
X049162Y024336
X037860Y021656
X041288Y021211
X029604Y037036
X047194Y043703
X043003Y021364
X050432Y025605
X039561Y021313
X060398Y068671
X072692Y048757
X077162Y051336
X065860Y048656
X069288Y048211
X057604Y064036
X075194Y070703
X071003Y048364
X078433Y052605
X067561Y048313
X008417Y097088G85X008417Y097688
X008417Y092659G85X008417Y093758
X017059Y097088G85X017059Y097688
X017059Y092659G85X017059Y093758
X036777Y097088G85X036777Y097688
X036777Y092659G85X036777Y093758
X045419Y097088G85X045419Y097688
X045419Y092659G85X045419Y093758
X064777Y097088G85X064777Y097688
X064777Y092659G85X064777Y093758
X073419Y097088G85X073419Y097688
X073419Y092659G85X073419Y093758
X008417Y043088G85X008417Y043688
X008417Y038659G85X008417Y039758
X017059Y043088G85X017059Y043688
X017059Y038659G85X017059Y039758
X008417Y070088G85X008417Y070688
X008417Y065659G85X008417Y066758
X017059Y070088G85X017059Y070688
X017059Y065659G85X017059Y066758
X036777Y070088G85X036777Y070688
X036777Y065659G85X036777Y066758
X045419Y070088G85X045419Y070688
X045419Y065659G85X045419Y066758
X064777Y043088G85X064777Y043688
X064777Y038659G85X064777Y039758
X073419Y043088G85X073419Y043688
X073419Y038659G85X073419Y039758
X036777Y043088G85X036777Y043688
X036777Y038659G85X036777Y039758
X045419Y043088G85X045419Y043688
X045419Y038659G85X045419Y039758
X064777Y070088G85X064777Y070688
X064777Y065659G85X064777Y066758
X073419Y070088G85X073419Y070688
X073419Y065659G85X073419Y066758
T05
X001229Y087289
X024229Y087289
X029589Y087289
X052589Y087289
X057589Y087289
X080589Y087289
X001229Y033289
X024229Y033289
X001229Y060289
X024229Y060289
X029589Y060289
X052589Y060289
X057589Y033289
X080589Y033289
X029589Y033289
X052589Y033289
X057589Y060289
X080589Y060289
T06
X009847Y093738
X015629Y093738
X038207Y093738
X043989Y093738
X066207Y093738
X071989Y093738
X009847Y039738
X015629Y039738
X009847Y066738
X015629Y066738
X038207Y066738
X043989Y066738
X066207Y039738
X071989Y039738
X038207Y039738
X043989Y039738
X066207Y066738
X071989Y066738
M30